<svg width="12" height="12" viewBox="0 0 12 12" fill="none" xmlns="http://www.w3.org/2000/svg">
<path d="M10.1113 9.33332C10.3243 8.91662 10.4444 8.44456 10.4444 7.94444C10.4444 6.2569 9.07642 4.88889 7.38888 4.88889C5.70135 4.88889 4.33333 6.2569 4.33333 7.94444C4.33333 9.63197 5.70135 11 7.38888 11L11 11C11 11 10.4444 10.4444 10.1191 9.34953M1.79265 6.55555C1.6391 6.12113 1.55555 5.65366 1.55555 5.16666C1.55555 2.86548 3.42103 1 5.72222 1C8.0234 1 9.88888 2.86548 9.88888 5.16666C9.88888 5.45205 9.86019 5.73074 9.80553 5.99999M1.7921 6.54904C2.38889 8.22221 1 9.33332 1 9.33332H4.61111" stroke="#FCEBE3" stroke-linecap="round" stroke-linejoin="round"/>
</svg>
