<svg width="53" height="78" viewBox="0 0 53 78" fill="none" xmlns="http://www.w3.org/2000/svg">
<g filter="url(#filter0_d_633_8502)">
<path d="M21.426 36.3458C20.718 37.1447 20.0761 37.8617 19.4393 38.5849C10.67 48.5362 1.90294 58.4898 -6.86184 68.4458C-7.16777 68.7951 -7.39403 68.8438 -7.81448 68.6493C-9.4856 67.8743 -11.1783 67.1435 -12.9947 66.3378C-12.2303 65.5102 -11.6195 64.8231 -10.9936 64.1467C-0.657092 52.9468 9.67662 41.7443 20.0075 30.5392C20.4194 30.0899 20.7233 29.9961 21.2878 30.2644C23.058 31.1072 24.8549 31.8942 26.6555 32.673C27.0225 32.8357 27.1076 33.0245 27.0754 33.4018C25.6773 49.4951 24.2848 65.5862 22.8979 81.6752C22.8836 81.8418 22.8529 82.005 22.8238 82.2187C20.901 81.3658 19.0211 80.542 17.1559 79.6849C17.0297 79.6289 16.9454 79.3172 16.9632 79.1383C17.2035 76.6791 17.4634 74.2205 17.7225 71.7637C18.6899 62.5998 19.658 53.4343 20.6269 44.2672C20.8889 41.7917 21.151 39.3163 21.4131 36.8409C21.4246 36.7208 21.4195 36.5933 21.426 36.3458Z" fill="#FCEBE3"/>
<path d="M38.8883 21.705C38.7514 21.1949 38.7225 20.7839 38.5424 20.4557C36.8494 17.3574 34.3802 15.1545 31.1663 13.6206C28.9138 12.5447 26.5856 12.2847 24.1935 12.1776C23.8334 12.1618 23.4508 12.5972 23.0134 12.8624C22.7455 12.4519 22.4039 11.918 22.0521 11.3895C21.6666 10.8125 21.238 10.8175 20.8998 11.4243C19.8736 13.293 18.8474 15.1616 17.8121 17.0242C17.687 17.2434 17.4929 17.4151 17.2599 17.5125C17.1617 17.5193 17.0633 17.5001 16.9747 17.457C16.8861 17.4139 16.8104 17.3484 16.755 17.2669C16.7167 17.1573 16.7008 17.0411 16.7085 16.9252C16.7161 16.8094 16.747 16.6963 16.7994 16.5928C17.5009 15.4296 18.2481 14.2966 18.9604 13.1402C19.5613 12.1591 20.1515 11.1713 20.7046 10.169C20.8261 9.92562 20.8524 9.64568 20.7785 9.38378C20.5431 8.65064 20.7199 8.37229 21.5221 8.39699C25.8219 8.49279 30.1276 8.57541 34.4172 8.69427C36.7444 8.7607 36.0609 8.33928 37.2421 10.4065C39.2435 13.9221 41.2224 17.4469 43.1789 20.9807C43.3138 21.2239 43.401 21.6548 43.2748 21.8412C43.1487 22.0277 42.7228 22.1069 42.4391 22.0835C41.2076 21.9808 39.9728 21.8233 38.8883 21.705Z" fill="#FCEBE3"/>
<path d="M29.8452 20.0715C31.2759 21.2105 32.21 22.6517 32.3987 24.5428C32.5163 25.763 32.2768 26.9985 31.7101 28.0944C31.1435 29.1903 30.2749 30.0979 29.2132 30.7035C28.1515 31.3091 26.9439 31.5857 25.7417 31.4988C24.5396 31.4118 23.3963 30.9651 22.4551 30.2147C20.5537 28.7128 19.775 26.1476 20.3979 23.7277C21.3162 20.1497 25.6248 17.5431 29.7106 20.0058L29.857 20.0888L29.8452 20.0715Z" fill="#FCEBE3"/>
<path d="M29.8411 20.234C29.0477 19.7831 28.2844 19.2643 27.4543 18.8961C25.5306 18.0556 23.4896 17.5159 21.4049 17.2963L22.8172 14.8647C22.8521 14.8198 22.8829 14.7718 22.909 14.7213C23.2478 13.6356 24.0422 13.5265 25.061 13.61C30.5203 14.0508 34.4331 16.836 37.1912 21.4085C37.2405 21.4838 37.2731 21.5686 37.2869 21.657C37.3007 21.7454 37.2954 21.8355 37.2714 21.9214C36.6173 23.0514 35.9328 24.1639 35.2894 25.2292C34.3676 24.1926 33.5346 23.1101 32.5475 22.189C31.7348 21.4324 30.7399 20.8644 29.827 20.2159L29.8411 20.234Z" fill="#FCEBE3"/>
<path d="M15.4906 19.9529C14.7097 19.6448 14.6987 19.6123 15.1217 18.8691C15.2338 18.6739 15.3816 18.4987 15.4751 18.2974C15.6622 17.8756 15.9137 17.7443 16.3926 17.9098C16.8714 18.0754 17.0224 18.3575 16.8897 18.829C16.8708 18.9291 16.8585 19.0304 16.853 19.1322C16.685 20.4017 16.6656 20.4165 15.4906 19.9529Z" fill="#FCEBE3"/>
</g>
<defs>
<filter id="filter0_d_633_8502" x="-14.9947" y="8.39551" width="60.3308" height="77.8231" filterUnits="userSpaceOnUse" color-interpolation-filters="sRGB">
<feFlood flood-opacity="0" result="BackgroundImageFix"/>
<feColorMatrix in="SourceAlpha" type="matrix" values="0 0 0 0 0 0 0 0 0 0 0 0 0 0 0 0 0 0 127 0" result="hardAlpha"/>
<feOffset dy="2"/>
<feGaussianBlur stdDeviation="1"/>
<feComposite in2="hardAlpha" operator="out"/>
<feColorMatrix type="matrix" values="0 0 0 0 0 0 0 0 0 0 0 0 0 0 0 0 0 0 0.15 0"/>
<feBlend mode="normal" in2="BackgroundImageFix" result="effect1_dropShadow_633_8502"/>
<feBlend mode="normal" in="SourceGraphic" in2="effect1_dropShadow_633_8502" result="shape"/>
</filter>
</defs>
</svg>
