<svg width="11" height="18" viewBox="0 0 11 18" fill="none" xmlns="http://www.w3.org/2000/svg">
<path d="M5.42906 7.73655C5.34888 7.98886 5.27546 8.21594 5.20383 8.44392C4.21643 11.5816 3.22978 14.7196 2.24388 17.8579C2.20964 17.9678 2.16325 18.0016 2.04838 17.9998C1.59162 17.9922 1.1344 17.9967 0.641602 17.9967C0.731693 17.7322 0.801063 17.515 0.874938 17.2988C2.09207 13.7204 3.30831 10.1418 4.52364 6.56284C4.57184 6.41956 4.6313 6.36775 4.78626 6.3718C5.2723 6.38487 5.7588 6.38261 6.24529 6.37811C6.34484 6.37811 6.38313 6.41235 6.41376 6.50111C7.71498 10.29 9.01725 14.0779 10.3206 17.8647C10.3341 17.9039 10.3436 17.944 10.3584 17.9953C9.83679 17.9953 9.32777 17.9976 8.81875 17.9908C8.78452 17.9908 8.73407 17.9286 8.7201 17.8863C8.52731 17.3046 8.33902 16.7211 8.15072 16.1381C7.44861 13.9634 6.7465 11.7883 6.04439 9.61267C5.85489 9.02514 5.6654 8.43762 5.47591 7.85009C5.46645 7.8217 5.45249 7.79332 5.42906 7.73655Z" fill="#D49A80"/>
<path d="M7.91564 2.66218C7.83331 2.56031 7.78543 2.47005 7.7116 2.41375C7.01626 1.88159 6.23501 1.63048 5.35218 1.60591C4.73336 1.58848 4.17941 1.76363 3.62636 1.97989C3.54313 2.01251 3.50018 2.14968 3.42769 2.25379C3.32567 2.18766 3.19457 2.10098 3.06167 2.01653C2.91625 1.92449 2.8196 1.96872 2.80394 2.1403C2.7592 2.6671 2.71445 3.1939 2.66702 3.72025C2.66072 3.78251 2.63397 3.84095 2.59095 3.88646C2.56936 3.89788 2.54514 3.90343 2.52072 3.90257C2.4963 3.90171 2.47253 3.89446 2.4518 3.88155C2.43208 3.86056 2.41681 3.83581 2.40689 3.80878C2.39697 3.78176 2.39261 3.75301 2.39408 3.72427C2.43614 3.39005 2.49162 3.05806 2.53681 2.72429C2.5744 2.44146 2.60885 2.15817 2.63346 1.87534C2.63654 1.80795 2.61437 1.74184 2.57127 1.68991C2.44419 1.54737 2.45627 1.4665 2.64062 1.39143C3.62502 0.980808 4.60941 0.566608 5.59381 0.162238C6.12807 -0.0567032 5.93074 -0.0835122 6.40638 0.266346C7.21359 0.862103 8.01661 1.46218 8.81547 2.06657C8.8705 2.10813 8.93359 2.19705 8.92375 2.252C8.91391 2.30696 8.82531 2.36773 8.75864 2.39096C8.46914 2.4915 8.17337 2.57997 7.91564 2.66218Z" fill="#D49A80"/>
<path d="M5.70146 3.20141C6.14033 3.31576 6.497 3.54855 6.72991 3.9583C6.87927 4.22309 6.9492 4.52725 6.93093 4.83267C6.91266 5.13808 6.80701 5.43117 6.62722 5.67522C6.44742 5.91926 6.20149 6.1034 5.92021 6.20456C5.63894 6.30573 5.33484 6.31942 5.04602 6.24393C4.46395 6.09464 4.0295 5.59141 3.9274 4.98019C3.77581 4.07673 4.49047 3.05258 5.66433 3.20005L5.70588 3.20414L5.70146 3.20141Z" fill="#D49A80"/>
<path d="M5.71689 3.23848C5.49168 3.21603 5.26647 3.17517 5.04127 3.17517C4.52066 3.17807 4.0037 3.26093 3.50903 3.42077L3.58471 2.72752C3.5881 2.71382 3.59024 2.69984 3.59109 2.68576C3.55872 2.40559 3.72786 2.30097 3.9672 2.21746C5.24915 1.76846 6.41622 2.00643 7.50123 2.76568C7.51998 2.77782 7.5359 2.79374 7.54793 2.8124C7.55995 2.83105 7.56781 2.85202 7.57098 2.87389C7.53633 3.19582 7.49302 3.51685 7.45427 3.82307C7.14108 3.68074 6.84339 3.5191 6.527 3.40954C6.26669 3.31974 5.98404 3.29101 5.71188 3.23578L5.71689 3.23848Z" fill="#D49A80"/>
<path d="M2.43544 4.61727C2.22742 4.62596 2.22164 4.61969 2.24283 4.40868C2.24861 4.35315 2.2645 4.29858 2.26546 4.24354C2.26546 4.1291 2.30928 4.07405 2.43447 4.06343C2.55967 4.05281 2.62226 4.10157 2.6396 4.22181C2.64536 4.24642 2.65276 4.27062 2.66175 4.29424C2.75131 4.59892 2.74842 4.60424 2.43544 4.61727Z" fill="#D49A80"/>
</svg>
