<svg width="11" height="18" viewBox="0 0 11 18" fill="none" xmlns="http://www.w3.org/2000/svg">
<path d="M5.42906 7.73703C5.34888 7.98935 5.27546 8.21643 5.20383 8.44441C4.21643 11.5821 3.22978 14.7201 2.24388 17.8584C2.20964 17.9683 2.16325 18.0021 2.04838 18.0003C1.59162 17.9927 1.1344 17.9972 0.641602 17.9972C0.731693 17.7327 0.801063 17.5155 0.874938 17.2993C2.09207 13.7209 3.30831 10.1423 4.52364 6.56333C4.57184 6.42005 4.6313 6.36823 4.78626 6.37229C5.2723 6.38536 5.7588 6.3831 6.24529 6.3786C6.34484 6.3786 6.38313 6.41284 6.41376 6.5016C7.71498 10.2905 9.01725 14.0784 10.3206 17.8652C10.3341 17.9044 10.3436 17.9445 10.3584 17.9958C9.83679 17.9958 9.32777 17.9981 8.81875 17.9913C8.78452 17.9913 8.73407 17.9291 8.7201 17.8868C8.52731 17.3051 8.33902 16.7216 8.15072 16.1386C7.44861 13.9639 6.7465 11.7888 6.04439 9.61316C5.85489 9.02563 5.6654 8.4381 5.47591 7.85057C5.46645 7.82219 5.45249 7.7938 5.42906 7.73703Z" fill="#32334D"/>
<path d="M7.91564 2.66218C7.83331 2.56031 7.78543 2.47005 7.7116 2.41375C7.01626 1.88159 6.23501 1.63048 5.35218 1.60591C4.73336 1.58848 4.17941 1.76363 3.62636 1.97989C3.54313 2.01251 3.50018 2.14968 3.42769 2.25379C3.32567 2.18766 3.19457 2.10098 3.06167 2.01653C2.91625 1.92449 2.8196 1.96872 2.80394 2.1403C2.7592 2.6671 2.71445 3.1939 2.66702 3.72025C2.66072 3.78251 2.63397 3.84095 2.59095 3.88646C2.56936 3.89788 2.54514 3.90343 2.52072 3.90257C2.4963 3.90171 2.47253 3.89446 2.4518 3.88155C2.43208 3.86056 2.41681 3.83581 2.40689 3.80878C2.39697 3.78176 2.39261 3.75301 2.39408 3.72427C2.43614 3.39005 2.49162 3.05806 2.53681 2.72429C2.5744 2.44146 2.60885 2.15817 2.63346 1.87534C2.63654 1.80795 2.61437 1.74184 2.57127 1.68991C2.44419 1.54737 2.45627 1.4665 2.64062 1.39143C3.62502 0.980808 4.60941 0.566608 5.59381 0.162238C6.12807 -0.0567032 5.93074 -0.0835122 6.40638 0.266346C7.21359 0.862103 8.01661 1.46218 8.81547 2.06657C8.8705 2.10813 8.93359 2.19705 8.92375 2.252C8.91391 2.30696 8.82531 2.36773 8.75864 2.39096C8.46914 2.4915 8.17337 2.57997 7.91564 2.66218Z" fill="#32334D"/>
<path d="M5.70134 3.20117C6.14021 3.31552 6.49688 3.5483 6.72979 3.95806C6.87915 4.22285 6.94907 4.52701 6.9308 4.83242C6.91254 5.13784 6.80689 5.43093 6.6271 5.67497C6.4473 5.91901 6.20136 6.10315 5.92009 6.20432C5.63882 6.30548 5.33472 6.31918 5.0459 6.24368C4.46383 6.09439 4.02938 5.59117 3.92728 4.97994C3.77569 4.07649 4.49035 3.05233 5.66421 3.19981L5.70576 3.20389L5.70134 3.20117Z" fill="#32334D"/>
<path d="M5.71677 3.23848C5.49156 3.21603 5.26635 3.17517 5.04114 3.17517C4.52054 3.17807 4.00358 3.26093 3.50891 3.42077L3.58459 2.72752C3.58798 2.71382 3.59012 2.69984 3.59097 2.68576C3.5586 2.40559 3.72774 2.30097 3.96708 2.21746C5.24903 1.76846 6.4161 2.00643 7.50111 2.76568C7.51986 2.77782 7.53578 2.79374 7.5478 2.8124C7.55983 2.83105 7.56769 2.85202 7.57086 2.87389C7.53621 3.19582 7.4929 3.51685 7.45415 3.82307C7.14096 3.68074 6.84326 3.5191 6.52688 3.40954C6.26657 3.31974 5.98392 3.29101 5.71175 3.23578L5.71677 3.23848Z" fill="#32334D"/>
<path d="M2.43531 4.61776C2.2273 4.62645 2.22152 4.62018 2.24271 4.40916C2.24848 4.35363 2.26437 4.29907 2.26534 4.24402C2.26534 4.12959 2.30916 4.07454 2.43435 4.06392C2.55954 4.05329 2.62214 4.10206 2.63948 4.2223C2.64524 4.24691 2.65264 4.2711 2.66163 4.29473C2.75119 4.59941 2.7483 4.60472 2.43531 4.61776Z" fill="#32334D"/>
</svg>
