<svg width="142" height="74" viewBox="0 0 142 74" fill="none" xmlns="http://www.w3.org/2000/svg">
<rect width="142" height="74" fill="white"/>
<path d="M70.9291 26.7367C70.8489 26.989 70.7755 27.2161 70.7038 27.444C69.7164 30.5817 68.7298 33.7197 67.7439 36.858C67.7096 36.968 67.6632 37.0018 67.5484 37C67.0916 36.9923 66.6344 36.9968 66.1416 36.9968C66.2317 36.7323 66.3011 36.5152 66.3749 36.2989C67.5921 32.7205 68.8083 29.1419 70.0236 25.563C70.0718 25.4197 70.1313 25.3679 70.2863 25.3719C70.7723 25.385 71.2588 25.3827 71.7453 25.3782C71.8448 25.3782 71.8831 25.4125 71.9138 25.5012C73.215 29.2901 74.5173 33.078 75.8206 36.8648C75.8341 36.904 75.8436 36.9441 75.8584 36.9955C75.3368 36.9955 74.8278 36.9977 74.3188 36.9909C74.2845 36.9909 74.2341 36.9288 74.2201 36.8864C74.0273 36.3047 73.839 35.7213 73.6507 35.1382C72.9486 32.9635 72.2465 30.7884 71.5444 28.6128C71.3549 28.0253 71.1654 27.4377 70.9759 26.8502C70.9664 26.8218 70.9525 26.7934 70.9291 26.7367Z" fill="#32334D"/>
<path d="M73.4156 21.6622C73.3333 21.5603 73.2854 21.4701 73.2116 21.4138C72.5163 20.8816 71.735 20.6305 70.8522 20.6059C70.2334 20.5885 69.6794 20.7636 69.1264 20.9799C69.0431 21.0125 69.0002 21.1497 68.9277 21.2538C68.8257 21.1877 68.6946 21.101 68.5617 21.0165C68.4163 20.9245 68.3196 20.9687 68.3039 21.1403C68.2592 21.6671 68.2145 22.1939 68.167 22.7202C68.1607 22.7825 68.134 22.841 68.091 22.8865C68.0694 22.8979 68.0451 22.9034 68.0207 22.9026C67.9963 22.9017 67.9725 22.8945 67.9518 22.8815C67.9321 22.8606 67.9168 22.8358 67.9069 22.8088C67.897 22.7818 67.8926 22.753 67.8941 22.7243C67.9361 22.39 67.9916 22.0581 68.0368 21.7243C68.0744 21.4415 68.1089 21.1582 68.1335 20.8753C68.1365 20.808 68.1144 20.7418 68.0713 20.6899C67.9442 20.5474 67.9563 20.4665 68.1406 20.3914C69.125 19.9808 70.1094 19.5666 71.0938 19.1622C71.6281 18.9433 71.4307 18.9165 71.9064 19.2663C72.7136 19.8621 73.5166 20.4622 74.3155 21.0666C74.3705 21.1081 74.4336 21.197 74.4237 21.252C74.4139 21.307 74.3253 21.3677 74.2586 21.391C73.9691 21.4915 73.6734 21.58 73.4156 21.6622Z" fill="#32334D"/>
<path d="M71.2013 22.2014C71.6402 22.3158 71.9969 22.5485 72.2298 22.9583C72.3791 23.2231 72.4491 23.5273 72.4308 23.8327C72.4125 24.1381 72.3069 24.4312 72.1271 24.6752C71.9473 24.9193 71.7014 25.1034 71.4201 25.2046C71.1388 25.3057 70.8347 25.3194 70.5459 25.2439C69.9638 25.0946 69.5294 24.5914 69.4273 23.9802C69.2757 23.0767 69.9903 22.0526 71.1642 22.2001L71.2058 22.2041L71.2013 22.2014Z" fill="#32334D"/>
<path d="M71.2168 22.2385C70.9916 22.216 70.7664 22.1752 70.5411 22.1752C70.0205 22.1781 69.5036 22.2609 69.0089 22.4208L69.0846 21.7275C69.088 21.7138 69.0901 21.6998 69.091 21.6858C69.0586 21.4056 69.2277 21.301 69.4671 21.2175C70.749 20.7685 71.9161 21.0064 73.0011 21.7657C73.0199 21.7778 73.0358 21.7937 73.0478 21.8124C73.0598 21.8311 73.0677 21.852 73.0709 21.8739C73.0362 22.1958 72.9929 22.5169 72.9542 22.8231C72.641 22.6807 72.3433 22.5191 72.0269 22.4095C71.7666 22.3197 71.4839 22.291 71.2118 22.2358L71.2168 22.2385Z" fill="#32334D"/>
<path d="M67.9353 23.6173C67.7273 23.626 67.7215 23.6197 67.7427 23.4087C67.7485 23.3531 67.7644 23.2986 67.7653 23.2435C67.7653 23.1291 67.8092 23.0741 67.9343 23.0634C68.0595 23.0528 68.1221 23.1016 68.1395 23.2218C68.1452 23.2464 68.1526 23.2706 68.1616 23.2942C68.2512 23.5989 68.2483 23.6042 67.9353 23.6173Z" fill="#32334D"/>
<path d="M39.9057 43.2879L35.9936 53.8458H35L39.2692 42.617H39.9601L39.9057 43.2879ZM43.4608 53.8458L39.5409 43.2879L39.4866 42.617H40.1774L44.4544 53.8458H43.4608ZM42.7622 49.8817V50.6992H36.762V49.8817H42.7622Z" fill="#32334D"/>
<path d="M49.2667 45.5013V46.2571H45.0595V45.5013H49.2667ZM46.6042 43.3573H47.5279V51.8175C47.5279 52.2031 47.5797 52.4936 47.6832 52.6889C47.7867 52.8843 47.9212 53.0154 48.0868 53.0823C48.2524 53.1491 48.4309 53.1825 48.6224 53.1825C48.7621 53.1825 48.8967 53.1748 49.026 53.1594C49.1554 53.1388 49.2719 53.1183 49.3753 53.0977L49.4142 53.8766C49.3003 53.9126 49.1528 53.9409 48.9717 53.9614C48.7906 53.9871 48.6095 54 48.4284 54C48.0713 54 47.7556 53.9357 47.4814 53.8072C47.2071 53.6735 46.9923 53.4473 46.8371 53.1285C46.6819 52.8046 46.6042 52.365 46.6042 51.8098V43.3573Z" fill="#32334D"/>
<path d="M54.7077 45.5013V46.2571H50.5006V45.5013H54.7077ZM52.0452 43.3573H52.969V51.8175C52.969 52.2031 53.0207 52.4936 53.1242 52.6889C53.2277 52.8843 53.3622 53.0154 53.5278 53.0823C53.6934 53.1491 53.872 53.1825 54.0634 53.1825C54.2031 53.1825 54.3377 53.1748 54.4671 53.1594C54.5964 53.1388 54.7129 53.1183 54.8164 53.0977L54.8552 53.8766C54.7413 53.9126 54.5938 53.9409 54.4127 53.9614C54.2316 53.9871 54.0505 54 53.8694 54C53.5123 54 53.1966 53.9357 52.9224 53.8072C52.6481 53.6735 52.4334 53.4473 52.2781 53.1285C52.1229 52.8046 52.0452 52.365 52.0452 51.8098V43.3573Z" fill="#32334D"/>
<path d="M60.2186 54C59.67 54 59.1655 53.8997 58.7049 53.6992C58.2495 53.4987 57.8511 53.2159 57.5095 52.8509C57.1732 52.4859 56.9119 52.054 56.7256 51.5553C56.5444 51.0514 56.4539 50.5013 56.4539 49.9049V49.5733C56.4539 48.9306 56.5496 48.3496 56.7411 47.8303C56.9326 47.3111 57.1965 46.8663 57.5328 46.4961C57.8692 46.126 58.2521 45.8432 58.6816 45.6478C59.1163 45.4473 59.5717 45.347 60.0478 45.347C60.5808 45.347 61.0543 45.4422 61.4683 45.6324C61.8823 45.8175 62.229 46.0823 62.5084 46.4267C62.793 46.7661 63.0078 47.1697 63.1527 47.6375C63.2976 48.1003 63.37 48.6118 63.37 49.1722V49.7352H57.0128V48.9486H62.4463V48.8406C62.436 48.3728 62.3402 47.9357 62.1591 47.5296C61.9832 47.1183 61.7193 46.7841 61.3674 46.527C61.0155 46.2699 60.5756 46.1414 60.0478 46.1414C59.6545 46.1414 59.2923 46.2237 58.9611 46.3882C58.6351 46.5527 58.353 46.7892 58.115 47.0977C57.8821 47.401 57.701 47.7635 57.5716 48.1851C57.4474 48.6015 57.3854 49.0643 57.3854 49.5733V49.9049C57.3854 50.3676 57.4526 50.7995 57.5872 51.2005C57.7269 51.5964 57.9235 51.946 58.1771 52.2494C58.4358 52.5527 58.7412 52.7892 59.093 52.9589C59.4449 53.1285 59.833 53.2134 60.2574 53.2134C60.7542 53.2134 61.194 53.1234 61.577 52.9434C61.9599 52.7584 62.304 52.4679 62.6093 52.072L63.1915 52.5193C63.0104 52.7866 62.7827 53.0334 62.5084 53.2596C62.2393 53.4859 61.9159 53.6658 61.5381 53.7995C61.1604 53.9332 60.7205 54 60.2186 54Z" fill="#32334D"/>
<path d="M66.4436 47.2828V53.8458H65.5199V45.5013H66.4048L66.4436 47.2828ZM66.234 49.1568L65.8226 48.9255C65.8536 48.4319 65.9545 47.9692 66.1253 47.5373C66.2961 47.1054 66.5264 46.7249 66.8162 46.3959C67.1111 46.0668 67.4552 45.8098 67.8485 45.6247C68.247 45.4396 68.6869 45.347 69.1681 45.347C69.5873 45.347 69.9624 45.4036 70.2936 45.5167C70.6248 45.6298 70.9069 45.8098 71.1397 46.0566C71.3726 46.3033 71.5485 46.6195 71.6676 47.0051C71.7917 47.3907 71.8538 47.8612 71.8538 48.4165V53.8458H70.9224V48.4087C70.9224 47.8329 70.8422 47.383 70.6817 47.0591C70.5213 46.7301 70.2936 46.4961 69.9987 46.3573C69.7037 46.2185 69.3544 46.1491 68.9508 46.1491C68.5057 46.1491 68.115 46.2468 67.7787 46.4422C67.4475 46.6324 67.168 46.8817 66.9404 47.1902C66.7178 47.4936 66.5471 47.8201 66.428 48.1697C66.309 48.5141 66.2443 48.8432 66.234 49.1568Z" fill="#32334D"/>
<path d="M80.0349 52.2262V42H80.9664V53.8458H80.097L80.0349 52.2262ZM74.2055 49.7584V49.5964C74.2055 48.9486 74.2805 48.365 74.4306 47.8458C74.5807 47.3213 74.7954 46.874 75.0749 46.5039C75.3595 46.1285 75.701 45.8432 76.0995 45.6478C76.4979 45.4473 76.9481 45.347 77.4501 45.347C77.9417 45.347 78.3764 45.4267 78.7542 45.5861C79.1319 45.7455 79.4553 45.9743 79.7244 46.2725C79.9987 46.5707 80.2186 46.9255 80.3842 47.3368C80.555 47.7481 80.6792 48.2057 80.7568 48.7095V50.7686C80.6947 51.2416 80.5809 51.6761 80.4153 52.072C80.2497 52.4627 80.0298 52.8046 79.7555 53.0977C79.4812 53.3856 79.15 53.6093 78.7619 53.7686C78.379 53.9229 77.9365 54 77.4346 54C76.9378 54 76.4902 53.8972 76.0917 53.6915C75.6933 53.4859 75.3543 53.1954 75.0749 52.8201C74.7954 52.4396 74.5807 51.9897 74.4306 51.4704C74.2805 50.9512 74.2055 50.3805 74.2055 49.7584ZM75.137 49.5964V49.7584C75.137 50.2468 75.1861 50.6992 75.2844 51.1157C75.3828 51.5321 75.5328 51.8946 75.7347 52.2031C75.9365 52.5116 76.1926 52.7532 76.5031 52.928C76.8136 53.1028 77.181 53.1902 77.6053 53.1902C78.1384 53.1902 78.586 53.09 78.9482 52.8895C79.3105 52.6838 79.6002 52.4139 79.8176 52.0797C80.0349 51.7404 80.1928 51.3702 80.2911 50.9692V48.5707C80.229 48.2982 80.1384 48.0206 80.0194 47.7378C79.9004 47.455 79.7374 47.1954 79.5304 46.9589C79.3286 46.7172 79.0698 46.5244 78.7542 46.3805C78.4437 46.2314 78.0659 46.1568 77.6209 46.1568C77.1914 46.1568 76.8214 46.2442 76.5109 46.419C76.2004 46.5938 75.9416 46.838 75.7347 47.1517C75.5328 47.4602 75.3828 47.8226 75.2844 48.2391C75.1861 48.6555 75.137 49.108 75.137 49.5964Z" fill="#32334D"/>
<path d="M84.9015 42.617V53.8458H83.9468V42.617H84.9015ZM91.8875 42.617L87.0129 47.7609L84.56 50.1594L84.4669 49.1028L86.4385 47.0668L90.6922 42.617H91.8875ZM91.0958 53.8458L86.3376 48.0771L86.912 47.3136L92.2524 53.8458H91.0958Z" fill="#32334D"/>
<path d="M93.3621 49.8046V49.5501C93.3621 48.9434 93.45 48.383 93.626 47.8689C93.8019 47.3548 94.0529 46.91 94.3789 46.5347C94.7101 46.1594 95.106 45.8689 95.5665 45.6632C96.0271 45.4524 96.5394 45.347 97.1035 45.347C97.6727 45.347 98.1876 45.4524 98.6482 45.6632C99.1087 45.8689 99.5046 46.1594 99.8358 46.5347C100.167 46.91 100.421 47.3548 100.596 47.8689C100.772 48.383 100.86 48.9434 100.86 49.5501V49.8046C100.86 50.4113 100.772 50.9717 100.596 51.4859C100.421 51.9949 100.167 52.437 99.8358 52.8123C99.5098 53.1877 99.1165 53.4807 98.6559 53.6915C98.1954 53.8972 97.683 54 97.119 54C96.5498 54 96.0349 53.8972 95.5743 53.6915C95.1137 53.4807 94.7179 53.1877 94.3867 52.8123C94.0555 52.437 93.8019 51.9949 93.626 51.4859C93.45 50.9717 93.3621 50.4113 93.3621 49.8046ZM94.2858 49.5501V49.8046C94.2858 50.2622 94.3479 50.6967 94.4721 51.108C94.5963 51.5141 94.7774 51.8766 95.0154 52.1954C95.2535 52.509 95.5484 52.7558 95.9003 52.9357C96.2522 53.1157 96.6584 53.2057 97.119 53.2057C97.5744 53.2057 97.9754 53.1157 98.3221 52.9357C98.674 52.7558 98.969 52.509 99.207 52.1954C99.4451 51.8766 99.6236 51.5141 99.7426 51.108C99.8668 50.6967 99.9289 50.2622 99.9289 49.8046V49.5501C99.9289 49.0977 99.8668 48.6684 99.7426 48.2622C99.6236 47.856 99.4425 47.4936 99.1993 47.1748C98.9612 46.856 98.6663 46.6041 98.3144 46.419C97.9625 46.2339 97.5588 46.1414 97.1035 46.1414C96.6481 46.1414 96.2444 46.2339 95.8926 46.419C95.5458 46.6041 95.2509 46.856 95.0077 47.1748C94.7696 47.4936 94.5885 47.856 94.4643 48.2622C94.3453 48.6684 94.2858 49.0977 94.2858 49.5501Z" fill="#32334D"/>
<path d="M104.027 46.8817V53.8458H103.103V45.5013H104.004L104.027 46.8817ZM107 45.4396L106.977 46.2879C106.873 46.2725 106.772 46.2596 106.674 46.2494C106.576 46.2391 106.47 46.2339 106.356 46.2339C105.952 46.2339 105.598 46.3085 105.292 46.4576C104.992 46.6015 104.739 46.8046 104.532 47.0668C104.325 47.3239 104.167 47.6272 104.058 47.9769C103.949 48.3213 103.887 48.6915 103.872 49.0874L103.53 49.2185C103.53 48.6735 103.587 48.1671 103.701 47.6992C103.815 47.2314 103.988 46.8226 104.221 46.473C104.459 46.1183 104.757 45.8432 105.114 45.6478C105.476 45.4473 105.9 45.347 106.387 45.347C106.506 45.347 106.622 45.3573 106.736 45.3779C106.855 45.3933 106.943 45.4139 107 45.4396Z" fill="#32334D"/>
</svg>
