<svg width="13" height="13" viewBox="0 0 13 13" fill="none" xmlns="http://www.w3.org/2000/svg">
<path d="M9.98756 1.21768H9.65117V0.836389C9.65117 0.656927 9.49408 0.5 9.31478 0.5C9.13532 0.5 8.97839 0.657087 8.97839 0.836389V1.21768H3.99888V0.836389C3.99888 0.656927 3.8418 0.5 3.6625 0.5C3.48303 0.5 3.32611 0.657087 3.32611 0.836389V1.21768H2.98972C1.82331 1.21768 0.858887 2.1821 0.858887 3.34851V10.3692C0.858887 11.5356 1.82331 12.5 2.98972 12.5H10.0104C11.1768 12.5 12.1412 11.5356 12.1412 10.3692L12.141 3.34851C12.1185 2.18226 11.1765 1.21768 9.98767 1.21768H9.98756ZM11.4456 10.3692C11.4456 11.1767 10.7952 11.8271 9.98772 11.8271H2.98949C2.18201 11.8271 1.53161 11.1767 1.53161 10.3692L1.53145 5.36727H11.468L11.4682 10.3692H11.4456ZM11.4456 4.69437H1.53145V3.34847C1.53145 2.54099 2.18185 1.89059 2.98933 1.89059H3.32572V2.27188C3.32572 2.45134 3.48281 2.60827 3.66211 2.60827C3.84157 2.60827 3.9985 2.45118 3.9985 2.27188V1.89059H8.97801V2.27188C8.97801 2.45134 9.13509 2.60827 9.3144 2.60827C9.49386 2.60827 9.65079 2.45118 9.65079 2.27188V1.89059H9.98717C10.7947 1.89059 11.4451 2.54099 11.4451 3.34847L11.4456 4.69437Z" fill="black"/>
<path d="M4.31307 6.87008C4.31307 7.04954 4.15598 7.20647 3.97668 7.20647H2.98971C2.81025 7.20647 2.65332 7.04938 2.65332 6.87008C2.65332 6.69062 2.81041 6.53369 2.98971 6.53369H3.97668C4.15614 6.53354 4.31307 6.69062 4.31307 6.87008Z" fill="black"/>
<path d="M7.31844 6.87008C7.31844 7.04954 7.16135 7.20647 6.98205 7.20647H5.99508C5.81562 7.20647 5.65869 7.04938 5.65869 6.87008C5.65869 6.69062 5.81578 6.53369 5.99508 6.53369H6.98205C7.16151 6.53354 7.31844 6.69062 7.31844 6.87008Z" fill="black"/>
<path d="M10.3243 6.87008C10.3243 7.04954 10.1672 7.20647 9.98791 7.20647H9.00094C8.82148 7.20647 8.66455 7.04938 8.66455 6.87008C8.66455 6.69062 8.82164 6.53369 9.00094 6.53369H9.98791C10.1896 6.53354 10.3243 6.69062 10.3243 6.87008Z" fill="black"/>
<path d="M4.31307 8.52975C4.31307 8.70921 4.15598 8.86614 3.97668 8.86614H2.98971C2.81025 8.86614 2.65332 8.70905 2.65332 8.52975C2.65332 8.35029 2.81041 8.19336 2.98971 8.19336H3.97668C4.15614 8.19336 4.31307 8.35045 4.31307 8.52975Z" fill="black"/>
<path d="M7.31844 8.52975C7.31844 8.70921 7.16135 8.86614 6.98205 8.86614H5.99508C5.81562 8.86614 5.65869 8.70905 5.65869 8.52975C5.65869 8.35029 5.81578 8.19336 5.99508 8.19336H6.98205C7.16151 8.19336 7.31844 8.35045 7.31844 8.52975Z" fill="black"/>
<path d="M10.3243 8.52975C10.3243 8.70921 10.1672 8.86614 9.98791 8.86614H9.00094C8.82148 8.86614 8.66455 8.70905 8.66455 8.52975C8.66455 8.35029 8.82164 8.19336 9.00094 8.19336H9.98791C10.1896 8.19336 10.3243 8.35045 10.3243 8.52975Z" fill="black"/>
<path d="M4.31307 10.1899C4.31307 10.3694 4.15598 10.5263 3.97668 10.5263H2.98971C2.81025 10.5263 2.65332 10.3692 2.65332 10.1899C2.65332 10.0104 2.81041 9.85352 2.98971 9.85352H3.97668C4.15614 9.85352 4.31307 10.0104 4.31307 10.1899Z" fill="black"/>
<path d="M7.31844 10.1899C7.31844 10.3694 7.16135 10.5263 6.98205 10.5263H5.99508C5.81562 10.5263 5.65869 10.3692 5.65869 10.1899C5.65869 10.0104 5.81578 9.85352 5.99508 9.85352H6.98205C7.16151 9.85352 7.31844 10.0104 7.31844 10.1899Z" fill="black"/>
<path d="M10.3243 10.1899C10.3243 10.3694 10.1672 10.5263 9.98791 10.5263H9.00094C8.82148 10.5263 8.66455 10.3692 8.66455 10.1899C8.66455 10.0104 8.82164 9.85352 9.00094 9.85352H9.98791C10.1896 9.85352 10.3243 10.0104 10.3243 10.1899Z" fill="black"/>
</svg>
