<svg width="52" height="50" viewBox="0 0 52 50" fill="none" xmlns="http://www.w3.org/2000/svg">
<path d="M16.356 6H35.6355C36.3703 6 37.075 6.28808 37.5946 6.80086C38.1142 7.31365 38.4061 8.00914 38.4061 8.73432V37.5991H13.5854V8.73432C13.5854 8.00914 13.8773 7.31365 14.3969 6.80086C14.9165 6.28808 15.6212 6 16.356 6Z" fill="#2D2E45" stroke="#D49A80" stroke-miterlimit="10"/>
<path d="M48.5729 9.87927H3.4271C2.08665 9.87927 1 10.9517 1 12.2746V40.6046C1 41.9276 2.08665 43 3.4271 43H48.5729C49.9133 43 51 41.9276 51 40.6046V12.2746C51 10.9517 49.9133 9.87927 48.5729 9.87927Z" fill="#FCEBE3" stroke="#2D2E45" stroke-miterlimit="10"/>
<path d="M1 26.4435H51V40.6047C51 41.24 50.7443 41.8493 50.2891 42.2985C49.8339 42.7477 49.2166 43.0001 48.5729 43.0001H3.4271C2.78339 43.0001 2.16605 42.7477 1.71088 42.2985C1.25571 41.8493 1 41.24 1 40.6047V26.4435Z" fill="#2D2E45" stroke="#2D2E45" stroke-miterlimit="10"/>
<path d="M37.7194 31.1749C40.3701 24.7838 37.2691 17.4821 30.7933 14.8661C24.3174 12.2501 16.9189 15.3105 14.2682 21.7016C11.6175 28.0928 14.7185 35.3945 21.1943 38.0105C27.6702 40.6265 35.0687 37.5661 37.7194 31.1749Z" fill="white" stroke="#D49A80" stroke-miterlimit="10"/>
<path d="M34.5653 29.9222C36.5048 25.262 34.2492 19.9326 29.5273 18.0185C24.8054 16.1044 19.4053 18.3305 17.4658 22.9906C15.5264 27.6507 17.782 32.9802 22.5038 34.8943C27.2257 36.8084 32.6259 34.5823 34.5653 29.9222Z" fill="#2D2E45" stroke="#D49A80" stroke-miterlimit="10"/>
<path d="M45.9248 7.95081H41.5591V9.90927H45.9248V7.95081Z" fill="#D49A80" stroke="#2D2E45" stroke-miterlimit="10"/>
</svg>
