<svg width="16" height="16" viewBox="0 0 16 16" fill="none" xmlns="http://www.w3.org/2000/svg">
<path d="M11.9744 3.53101L8.00003 7.52248L4.02561 3.53101L3.53101 4.02561L7.52248 8.00003L3.53101 11.9744L4.02561 12.4691L8.00003 8.47758L11.9744 12.4691L12.4691 11.9744L8.47758 8.00003L12.4691 4.02561L11.9744 3.53101Z" fill="#D49A80"/>
<path d="M8 0C3.58209 0 0 3.58209 0 8C0 12.4179 3.58209 16 8 16C12.4179 16 16 12.4179 16 8C16 3.58209 12.4179 0 8 0ZM8 15.3177C3.95736 15.3177 0.682303 12.0426 0.682303 8C0.682303 3.95736 3.95736 0.682303 8 0.682303C12.0426 0.682303 15.3177 3.95736 15.3177 8C15.3177 12.0426 12.0426 15.3177 8 15.3177Z" fill="#D49A80"/>
</svg>
