<svg width="21" height="21" viewBox="0 0 21 21" fill="none" xmlns="http://www.w3.org/2000/svg">
<path d="M18.2494 0.500357H2.08314C1.04143 0.500357 0.166443 1.45863 0.166443 2.66705V13.7919C0.166443 15.0002 1.04143 15.9586 2.08314 15.9586H2.79141V20.5L6.83316 15.9583H18.2498C19.3331 15.9583 20.1665 15 20.1665 13.7916L20.1664 2.66669C20.1664 1.45828 19.2914 0.5 18.2497 0.5L18.2494 0.500357ZM4.12454 10.0003C3.16627 10.0003 2.33285 9.20855 2.33285 8.20856C2.33285 7.20857 3.12455 6.41687 4.12454 6.41687C5.12453 6.41687 5.91624 7.20857 5.91624 8.20856C5.91624 9.20855 5.12453 10.0003 4.12454 10.0003ZM10.1663 10.0003C9.20799 10.0003 8.37457 9.20855 8.37457 8.20856C8.37457 7.20857 9.16628 6.41687 10.1663 6.41687C11.1663 6.41687 11.958 7.20857 11.958 8.20856C11.958 9.20855 11.1245 10.0003 10.1663 10.0003ZM16.208 10.0003C15.2497 10.0003 14.4163 9.20855 14.4163 8.20856C14.4163 7.20857 15.208 6.41687 16.208 6.41687C17.208 6.41687 17.9997 7.20857 17.9997 8.20856C17.9995 9.20855 17.1663 10.0003 16.208 10.0003Z" fill="#32334D"/>
</svg>
