<svg width="13" height="14" viewBox="0 0 13 14" fill="none" xmlns="http://www.w3.org/2000/svg">
<path d="M1.03704 12.4444C1.03704 12.8571 1.20092 13.2527 1.49259 13.5444C1.78438 13.8361 2.17997 14 2.59259 14H9.85185C10.2645 14 10.6601 13.8361 10.9519 13.5444C11.2435 13.2527 11.4074 12.8571 11.4074 12.4444V5.18518H1.03704V12.4444ZM7.77778 6.74074C7.77778 6.55544 7.87662 6.38427 8.03704 6.29167C8.19745 6.19908 8.39514 6.19908 8.55555 6.29167C8.71597 6.38427 8.81481 6.55545 8.81481 6.74074V11.4074C8.81481 11.5927 8.71597 11.7639 8.55555 11.8565C8.39514 11.9491 8.19745 11.9491 8.03704 11.8565C7.87662 11.7639 7.77778 11.5927 7.77778 11.4074V6.74074ZM5.7037 6.74074C5.7037 6.55544 5.80254 6.38427 5.96296 6.29167C6.12338 6.19908 6.32107 6.19908 6.48148 6.29167C6.6419 6.38427 6.74074 6.55545 6.74074 6.74074V11.4074C6.74074 11.5927 6.6419 11.7639 6.48148 11.8565C6.32106 11.9491 6.12338 11.9491 5.96296 11.8565C5.80255 11.7639 5.7037 11.5927 5.7037 11.4074V6.74074ZM3.62963 6.74074C3.62963 6.55544 3.72847 6.38427 3.88889 6.29167C4.04931 6.19908 4.24699 6.19908 4.40741 6.29167C4.56782 6.38427 4.66667 6.55545 4.66667 6.74074V11.4074C4.66667 11.5927 4.56782 11.7639 4.40741 11.8565C4.24699 11.9491 4.0493 11.9491 3.88889 11.8565C3.72847 11.7639 3.62963 11.5927 3.62963 11.4074V6.74074ZM0 4.14815V3.11111C0 2.83611 0.109259 2.57233 0.303704 2.37778C0.498264 2.18333 0.762044 2.07407 1.03704 2.07407H4.14815V1.03704C4.14815 0.762038 4.25741 0.498252 4.45185 0.303704C4.64641 0.109259 4.91019 0 5.18518 0H7.25926C7.53426 0 7.79804 0.109259 7.99259 0.303704C8.18704 0.498264 8.2963 0.762044 8.2963 1.03704V2.07407H11.4074C11.6824 2.07407 11.9462 2.18333 12.1407 2.37778C12.3352 2.57234 12.4444 2.83612 12.4444 3.11111V4.14815H0Z" fill="#D49A80"/>
</svg>
