<svg width="19" height="18" viewBox="0 0 19 18" fill="none" xmlns="http://www.w3.org/2000/svg">
<path d="M13.8709 1.05936L17.6167 1.05936C18.0273 1.05936 18.3654 1.39738 18.3654 1.80798L18.3654 10.5483C18.3654 10.9589 18.0273 11.2969 17.6167 11.2969L13.8709 11.2969C13.4603 11.2969 13.1223 10.9589 13.1223 10.5483L13.1223 1.80798C13.1223 1.39738 13.4603 1.05936 13.8709 1.05936Z" stroke="#D49A80"/>
<path d="M6.22928 11.9555L6.22943 11.955L6.22951 11.9547L6.22965 11.9543L6.22966 11.9543L6.22974 11.954L6.48132 11.1993L5.69103 11.3013L5.691 11.3013L5.69098 11.3013L5.69061 11.3013L5.68883 11.3016L5.68117 11.3025L5.64994 11.3064C5.62226 11.3099 5.58114 11.3149 5.52818 11.3211C5.42225 11.3335 5.2691 11.3508 5.08162 11.37C4.70618 11.4085 4.19523 11.4546 3.65104 11.4853C3.10517 11.516 2.53464 11.5307 2.03745 11.5084C1.51997 11.4851 1.15108 11.4236 0.963605 11.3403L0.963661 11.3401L0.952843 11.3356C0.798394 11.2713 0.558348 11.0014 0.508548 10.5346C0.46249 10.1028 0.594332 9.54896 1.11409 9.0292L1.46764 8.67565L1.1162 8.32422L1.11598 8.324L1.11589 8.32389L1.11195 8.31974C1.10714 8.3146 1.0986 8.30528 1.08717 8.29209C1.06419 8.26558 1.03024 8.22422 0.991816 8.17042C0.913565 8.06087 0.824408 7.91043 0.766648 7.73715C0.709581 7.56595 0.68625 7.38252 0.724069 7.19343C0.761148 7.00803 0.863803 6.78226 1.11409 6.53198L1.46764 6.17842L1.11681 5.82759C1.11638 5.82713 1.1158 5.8265 1.11506 5.8257C1.11144 5.82176 1.10432 5.81384 1.09465 5.80224C1.07515 5.77884 1.04636 5.74176 1.01529 5.69344C0.951546 5.59427 0.888091 5.46314 0.863542 5.31584C0.840281 5.17627 0.849518 5.01146 0.944371 4.82175C1.04207 4.62636 1.24585 4.37478 1.66219 4.09722L2.16966 3.75891L1.74051 3.32977L1.74029 3.32955L1.7402 3.32944L1.73626 3.32529C1.73145 3.32015 1.72291 3.31083 1.71147 3.29764C1.6885 3.27113 1.65455 3.22977 1.61612 3.17597C1.53787 3.06642 1.44871 2.91598 1.39096 2.7427C1.33389 2.5715 1.31056 2.38807 1.34838 2.19898C1.38546 2.01358 1.48811 1.78781 1.7384 1.53753C2.58235 0.693576 3.95799 0.37631 5.75579 0.542491C7.45739 0.699783 9.44506 1.28372 11.498 2.13973L11.498 10.2731C11.4328 10.319 11.3577 10.375 11.2742 10.4425C10.9905 10.6716 10.6117 11.0314 10.197 11.5704C9.36683 12.6496 8.40231 14.4356 7.76412 17.3075L7.76201 17.3169L7.76028 17.3265C7.76079 17.3236 7.76078 17.3237 7.75955 17.326C7.75472 17.3352 7.73117 17.3803 7.6474 17.4286C7.55259 17.4832 7.41887 17.516 7.27073 17.492C7.01364 17.4504 6.5257 17.1886 6.24006 16.0461C5.94455 14.864 5.94487 13.8307 6.01839 13.0955C6.05512 12.7282 6.11001 12.4365 6.15476 12.2397C6.17712 12.1413 6.1969 12.0668 6.21053 12.0185C6.21735 11.9944 6.22262 11.9769 6.22591 11.9662L6.22928 11.9555Z" stroke="#D49A80"/>
</svg>
