<svg width="19" height="18" viewBox="0 0 19 18" fill="none" xmlns="http://www.w3.org/2000/svg">
<path d="M13.8709 0.559363L17.6167 0.559363C18.3035 0.559363 18.8654 1.12124 18.8654 1.80798L18.8654 10.5483C18.8654 11.235 18.3035 11.7969 17.6167 11.7969L13.8709 11.7969C13.1842 11.7969 12.6223 11.235 12.6223 10.5483L12.6223 1.80798C12.6223 1.12124 13.1842 0.559363 13.8709 0.559363Z" fill="#D49A80"/>
<path d="M11.998 10.5486C11.998 10.5486 9.50082 11.7972 8.25221 17.4159C8.12735 18.1027 6.37929 18.6645 5.75499 16.1673C5.13068 13.6701 5.75499 11.7972 5.75499 11.7972C5.75499 11.7972 1.88429 12.2966 0.760536 11.7972C0.0113684 11.485 -0.488076 9.92426 0.760536 8.67565C0.760536 8.67565 -0.488076 7.42704 0.760536 6.17842C0.760536 6.17842 -0.488076 4.92981 1.38484 3.6812C1.38484 3.6812 0.136231 2.43259 1.38484 1.18397C3.38262 -0.813807 7.62791 -0.0646385 11.998 1.80828L11.998 10.5486Z" fill="#D49A80"/>
</svg>
