<svg width="22" height="22" viewBox="0 0 22 22" fill="none" xmlns="http://www.w3.org/2000/svg">
<path d="M21.9999 16.4999V22L0 21.9998V16.4998C0 15.8922 0.492429 15.3998 1.09997 15.3998C1.70752 15.3998 2.19995 15.8922 2.19995 16.4998V19.7997H19.8V16.4998C19.8 15.8922 20.2924 15.3998 20.8999 15.3998C21.5075 15.3996 21.9999 15.8922 21.9999 16.4998V16.4999ZM4.93382 13.0431L10.9997 16.6824L17.0657 13.0429C17.5843 12.7265 17.7482 12.0496 17.4318 11.5309C17.1186 11.0176 16.4513 10.8509 15.9334 11.1566L12.0995 13.4569L12.0996 1.09997C12.0996 0.492429 11.6072 0 10.9997 0C10.3921 0 9.89969 0.492429 9.89969 1.09997V13.4573L6.06571 11.157C5.54253 10.8482 4.86807 11.0218 4.55928 11.545C4.25356 12.0628 4.42035 12.7301 4.93366 13.0433L4.93382 13.0431Z" fill="#111233"/>
</svg>
