<svg width="106" height="128" viewBox="0 0 106 128" fill="none" xmlns="http://www.w3.org/2000/svg">
<path d="M73.63 97.8423C73.4951 100.781 73.3601 103.429 73.247 106.082C71.673 142.597 70.1079 179.113 68.5517 215.63C68.5004 216.908 68.0996 217.404 66.8616 217.715C61.9374 218.947 57.0433 220.31 51.7543 221.727C51.9606 218.629 52.0806 216.099 52.2516 213.565C55.024 171.661 57.7859 129.755 60.5373 87.8493C60.6425 86.1729 61.1317 85.4458 62.8064 85.0437C68.0605 83.7862 73.2753 82.363 78.4836 80.9156C79.5521 80.6293 80.0615 80.8867 80.6455 81.7512C105.507 118.674 130.376 155.582 155.254 192.476C155.512 192.857 155.729 193.261 156.036 193.769C150.438 195.269 144.981 196.757 139.499 198.148C139.131 198.247 138.411 197.725 138.139 197.31C134.397 191.622 130.699 185.901 127.001 180.185C113.212 158.865 99.4212 137.539 85.6293 116.208C81.906 110.448 78.1826 104.687 74.4593 98.9262C74.2762 98.6487 74.0447 98.3842 73.63 97.8423Z" fill="#2B2E83"/>
<path d="M85.7247 36.2295C84.5481 35.3729 83.7747 34.5419 82.8204 34.15C73.8273 30.4382 64.7204 29.9898 55.1748 32.2649C48.4831 33.8575 43.0416 37.3303 37.7278 41.2418C36.9284 41.8312 36.8619 43.4269 36.3833 44.7527C35.0982 44.3364 33.4419 43.7831 31.7727 43.2589C29.9473 42.6892 29.0372 43.4419 29.3625 45.3284C30.3973 51.111 31.432 56.8935 32.4366 62.679C32.548 63.3654 32.429 64.0695 32.0982 64.6816C31.8992 64.8662 31.6553 64.9955 31.3907 65.0565C31.1261 65.1174 30.8502 65.108 30.5906 65.0291C30.3186 64.8605 30.0835 64.6388 29.8993 64.3773C29.7151 64.1157 29.5857 63.8198 29.5188 63.5071C29.009 59.7991 28.6498 56.0765 28.175 52.3643C27.765 49.2207 27.3201 46.0813 26.7709 42.975C26.6102 42.2429 26.1821 41.5972 25.5701 41.1637C23.7964 39.9994 23.6935 39.0967 25.4561 37.7609C34.8403 30.5229 44.2142 23.2466 53.6164 16.0758C58.7207 12.1897 56.5258 12.4694 62.6367 14.8564C73.0133 18.9291 83.3575 23.0601 93.6692 27.2494C94.3794 27.5371 95.3123 28.31 95.3647 28.9281C95.4171 29.5463 94.641 30.4533 93.9922 30.8944C91.1743 32.8059 88.2544 34.6059 85.7247 36.2295Z" fill="#2B2E83"/>
<path d="M63.51 48.3853C68.5491 48.3505 73.0464 49.8231 76.7246 53.551C79.089 55.9634 80.7142 59.0267 81.3964 62.3571C82.0787 65.6875 81.7876 69.1369 80.5598 72.2731C79.332 75.4094 77.222 78.0929 74.4942 79.9875C71.7663 81.8822 68.542 82.9037 65.2251 82.924C58.5487 82.9957 52.4388 78.8441 49.5853 72.5778C45.3602 63.3174 50.0851 50.2705 63.1077 48.4775L63.5653 48.4018L63.51 48.3853Z" fill="#2B2E83"/>
<path d="M63.7817 48.7377C61.3001 49.1444 58.7656 49.3535 56.3485 50.0012C50.7695 51.5294 45.4595 53.9054 40.6101 57.0434L39.4287 49.3855C39.4257 49.2287 39.4084 49.0725 39.3771 48.919C38.224 46.0051 39.7384 44.3959 42.0669 42.8113C54.5343 34.3059 67.7442 33.5037 81.5725 38.5321C81.8087 38.6084 82.0253 38.7335 82.208 38.8992C82.3907 39.0648 82.5354 39.2672 82.6323 39.4929C83.1862 43.0476 83.6446 46.6176 84.1093 50.0155C80.3387 49.3886 76.6788 48.5099 72.9682 48.244C69.9161 48.0288 66.8 48.5332 63.7201 48.7232L63.7817 48.7377Z" fill="#2B2E83"/>
<path d="M32.5294 72.9722C30.3219 73.6637 30.2418 73.6129 29.8624 71.2873C29.7647 70.6747 29.7783 70.0434 29.6304 69.4499C29.3013 68.2216 29.6132 67.5048 30.9263 67.0308C32.2394 66.5568 33.0515 66.9002 33.5833 68.1407C33.716 68.3883 33.865 68.6267 34.0293 68.8544C35.8668 71.8669 35.851 71.9322 32.5294 72.9722Z" fill="#2B2E83"/>
</svg>
