<svg width="39" height="28" viewBox="0 0 39 28" fill="none" xmlns="http://www.w3.org/2000/svg">
<path d="M26.8904 11.8626H30.0649C30.3489 11.8626 30.6195 11.7388 30.8043 11.5229L32.4851 8.72241C32.8367 8.31409 32.7899 7.69833 32.3821 7.34667C31.9725 6.99708 31.3559 7.04132 31.0064 7.4504L29.6171 9.91128H26.8903C26.3511 9.91128 25.9148 10.3481 25.9148 10.8868C25.9148 11.4258 26.3511 11.8626 26.8903 11.8626H26.8904Z" fill="#111233"/>
<path d="M34.3989 4.13414C34.3989 5.3128 33.4432 6.26828 32.2645 6.26828C31.0858 6.26828 30.1304 5.3128 30.1304 4.13414C30.1304 2.95548 31.0858 2 32.2645 2C33.4432 2 34.3989 2.95548 34.3989 4.13414Z" fill="#111233"/>
<path d="M32.2639 20.9071C32.8032 20.9071 33.2395 20.4703 33.2395 19.9316V15.0107C33.8186 14.6725 34.2122 14.0514 34.2122 13.3324V8.93754C34.2122 8.20987 33.812 7.57683 33.2224 7.23486C33.3462 7.45326 33.4261 7.70064 33.4408 7.96254C33.4772 8.39171 33.3462 8.80665 33.0841 9.1412L31.3959 11.9498L31.3521 12.0007C31.0829 12.3063 30.7119 12.5099 30.3115 12.5755V13.3322C30.3115 14.0527 30.7069 14.6749 31.2878 15.0125V19.9313C31.2883 20.4701 31.7247 20.9071 32.2639 20.9071Z" fill="#111233"/>
<path opacity="0.8" d="M5.50733 22.1548H2.61857V19.0083H2.84815V15.6332H2V19.0083H2.22984V25.7584H2.84816V22.5481H5.50729V25.7584H6.12562V22.1548L5.50733 22.1548Z" fill="#32334D"/>
<path d="M10.0569 17.3207H8.18699L6.68849 15.9051C6.47415 15.2573 5.88733 14.7699 5.16428 14.7203C4.21088 14.655 3.3848 15.3745 3.31873 16.3279L3.065 19.9964C2.9989 20.9506 3.71945 21.7776 4.67363 21.843C4.88999 21.8577 5.09821 21.8275 5.29424 21.7677H7.21229V25.1561C7.21229 25.6221 7.59213 25.9999 8.06044 25.9999C8.52875 25.9999 8.90859 25.6221 8.90859 25.1561V20.9239C8.90859 20.4579 8.52875 20.0803 8.06044 20.0803H6.52986L6.65978 18.2051L7.26438 18.7763C7.42227 18.9253 7.631 19.0082 7.84838 19.0082H10.057C10.5254 19.0082 10.9052 18.6304 10.9052 18.1644C10.9052 17.6983 10.5254 17.3208 10.057 17.3208L10.0569 17.3207Z" fill="#111233"/>
<path d="M6.77791 12.4692C6.77791 13.2846 6.11357 13.9459 5.29386 13.9459C4.47416 13.9459 3.80981 13.2847 3.80981 12.4692C3.80981 11.6536 4.47416 10.9926 5.29386 10.9926C6.11357 10.9926 6.77791 11.6536 6.77791 12.4692Z" fill="#111233"/>
<path opacity="0.8" d="M16.4216 22.1548H13.5326V19.0083H13.7625V15.6332H12.9143V19.0083H13.1439V25.7584H13.7625V22.5481H16.4216V25.7584H17.0399V22.1548L16.4216 22.1548Z" fill="#32334D"/>
<path d="M20.9713 17.3207H19.1011L17.6026 15.9051C17.3882 15.2573 16.8014 14.7699 16.0783 14.7203C15.125 14.655 14.2989 15.3745 14.2328 16.3279L13.9788 19.9964C13.9127 20.9506 14.6333 21.7776 15.5874 21.843C15.8038 21.8577 16.012 21.8275 16.2081 21.7677H18.1261V25.1561C18.1261 25.6221 18.506 25.9999 18.9743 25.9999C19.4426 25.9999 19.8224 25.6221 19.8224 25.1561V20.9239C19.8224 20.4579 19.4426 20.0803 18.9743 20.0803H17.4437L17.5736 18.2051L18.1782 18.7763C18.3361 18.9253 18.5448 19.0082 18.7622 19.0082H20.9709C21.4392 19.0082 21.819 18.6304 21.819 18.1644C21.8195 17.6983 21.4397 17.3208 20.9714 17.3208L20.9713 17.3207Z" fill="#111233"/>
<path d="M17.6922 12.4692C17.6922 13.2846 17.0276 13.9459 16.2082 13.9459C15.3885 13.9459 14.7239 13.2847 14.7239 12.4692C14.7239 11.6536 15.3885 10.9926 16.2082 10.9926C17.0276 10.9926 17.6922 11.6536 17.6922 12.4692Z" fill="#111233"/>
<path opacity="0.8" d="M29.0018 23.3322H34.3987V20.9372H29.0018V14.3582L23.9387 11.2354V23.3324L29.0018 23.3322Z" fill="#32334D"/>
<path opacity="0.8" d="M23.9387 23.605H36.9906V26H23.9387V23.605Z" fill="#32334D"/>
</svg>
