<svg width="50" height="50" viewBox="0 0 50 50" fill="none" xmlns="http://www.w3.org/2000/svg">
<path d="M39.8794 5.66797H5.19824V39.0878H39.8794V5.66797Z" fill="#D49A80"/>
<path opacity="0.7" d="M39.8794 5.66797H5.19824V39.0878H39.8794V5.66797Z" fill="#FCEBE3"/>
<path d="M38.9895 6.73657H6.09131V39.0877H38.9895V6.73657Z" fill="white"/>
<path d="M39.8793 38.6167V39.0878H22.4014L26.1793 35.3729L31.3805 30.2511L39.8793 38.6167Z" fill="#407BFF"/>
<path opacity="0.7" d="M39.8793 38.6167V39.0878H22.4014L26.1793 35.3729L31.3805 30.2511L39.8793 38.6167Z" fill="#FCEBE3"/>
<path d="M5.19824 39.0878V35.8756L15.9442 25.3L29.9542 39.0878H5.19824Z" fill="#407BFF"/>
<path opacity="0.7" d="M5.19824 39.0878V35.8756L15.9442 25.3L29.9542 39.0878H5.19824Z" fill="#FCEBE3"/>
<path d="M33.5004 17.2328C33.9703 14.3838 32.0044 11.6993 29.1095 11.2368C26.2145 10.7743 23.4868 12.709 23.0169 15.5581C22.547 18.4071 24.5128 21.0916 27.4078 21.554C30.3027 22.0165 33.0305 20.0818 33.5004 17.2328Z" fill="#407BFF"/>
<path opacity="0.7" d="M33.5004 17.2328C33.9703 14.3838 32.0044 11.6993 29.1095 11.2368C26.2145 10.7743 23.4868 12.709 23.0169 15.5581C22.547 18.4071 24.5128 21.0916 27.4078 21.554C30.3027 22.0165 33.0305 20.0818 33.5004 17.2328Z" fill="#FCEBE3"/>
<path d="M15.4831 5.01054L12.1812 38.272L46.698 41.5907L49.9999 8.3293L15.4831 5.01054Z" fill="#D49A80"/>
<path opacity="0.1" d="M15.4831 5.00005L12.1812 38.2615L46.698 41.5802L49.9999 8.31881L15.4831 5.00005Z" fill="#D49A80"/>
<path d="M16.2667 6.15967L13.0703 38.3575L45.8126 41.5057L49.009 9.30781L16.2667 6.15967Z" fill="white"/>
<path d="M46.1494 7.40297L46.1338 7.5603L47.2816 7.67067L47.2972 7.51334L46.1494 7.40297Z" fill="#D49A80"/>
<path d="M42.4935 6.82012L42.4775 6.97742L45.3002 7.25517L45.3161 7.09788L42.4935 6.82012Z" fill="#D49A80"/>
<path opacity="0.1" d="M46.1494 7.40297L46.1338 7.5603L47.2816 7.67067L47.2972 7.51334L46.1494 7.40297Z" fill="#D49A80"/>
<path opacity="0.1" d="M42.4935 6.82012L42.4775 6.97742L45.3002 7.25517L45.3161 7.09788L42.4935 6.82012Z" fill="#D49A80"/>
<path opacity="0.1" d="M46.7427 41.1191L46.6961 41.5886L29.3018 39.9161L33.4283 36.5806L39.1113 31.9805L46.7427 41.1191Z" fill="#D49A80"/>
<path d="M46.7427 41.1191L46.6961 41.5886L29.3018 39.9161L33.4283 36.5806L39.1113 31.9805L46.7427 41.1191Z" fill="#D49A80"/>
<path opacity="0.1" d="M46.7427 41.1191L46.6961 41.5886L29.3018 39.9161L33.4283 36.5806L39.1113 31.9805L46.7427 41.1191Z" fill="#D49A80"/>
<path opacity="0.1" d="M37.3733 23.1185C40.3062 23.1185 42.6837 20.7787 42.6837 17.8924C42.6837 15.0061 40.3062 12.6663 37.3733 12.6663C34.4405 12.6663 32.063 15.0061 32.063 17.8924C32.063 20.7787 34.4405 23.1185 37.3733 23.1185Z" fill="#D49A80"/>
<path d="M37.3733 23.1185C40.3062 23.1185 42.6837 20.7787 42.6837 17.8924C42.6837 15.0061 40.3062 12.6663 37.3733 12.6663C34.4405 12.6663 32.063 15.0061 32.063 17.8924C32.063 20.7787 34.4405 23.1185 37.3733 23.1185Z" fill="#D49A80"/>
<path opacity="0.1" d="M37.3733 23.1185C40.3062 23.1185 42.6837 20.7787 42.6837 17.8924C42.6837 15.0061 40.3062 12.6663 37.3733 12.6663C34.4405 12.6663 32.063 15.0061 32.063 17.8924C32.063 20.7787 34.4405 23.1185 37.3733 23.1185Z" fill="#D49A80"/>
<path d="M34.6073 9.42478L0 11.6511L2.21507 44.9997L36.8224 42.7734L34.6073 9.42478Z" fill="#2D2E45"/>
<path d="M33.7881 10.5477L0.959961 12.6595L3.1042 44.9418L35.9323 42.8299L33.7881 10.5477Z" fill="white"/>
<path d="M36.7878 42.3064L36.8183 42.7759L19.3789 43.8967L22.9015 39.9478L27.7524 34.5035L36.7878 42.3064Z" fill="#2D2E45"/>
<path d="M2.21008 45L1.99805 41.7957L12.0212 30.553L26.913 43.4128L2.21008 45Z" fill="#2D2E45"/>
<path d="M23.7205 26.103C26.6533 26.103 29.0309 23.7632 29.0309 20.8769C29.0309 17.9906 26.6533 15.6508 23.7205 15.6508C20.7877 15.6508 18.4102 17.9906 18.4102 20.8769C18.4102 23.7632 20.7877 26.103 23.7205 26.103Z" fill="#2D2E45"/>
</svg>
