<svg width="19" height="18" viewBox="0 0 19 18" fill="none" xmlns="http://www.w3.org/2000/svg">
<path d="M5.06177 17.4406H1.31593C0.629197 17.4406 0.0673218 16.8788 0.0673218 16.192V7.45174C0.0673218 6.765 0.629197 6.20312 1.31593 6.20312H5.06177C5.74851 6.20312 6.31038 6.765 6.31038 7.45174V16.192C6.31038 16.8788 5.74851 17.4406 5.06177 17.4406Z" fill="#111233"/>
<path d="M6.93469 7.45143C6.93469 7.45143 9.43192 6.20282 10.6805 0.584064C10.8054 -0.102673 12.5534 -0.664549 13.1778 1.83268C13.8021 4.3299 13.1778 6.20282 13.1778 6.20282C13.1778 6.20282 17.0485 5.70338 18.1722 6.20282C18.9214 6.51497 19.4208 8.07574 18.1722 9.32435C18.1722 9.32435 19.4208 10.573 18.1722 11.8216C18.1722 11.8216 19.4208 13.0702 17.5479 14.3188C17.5479 14.3188 18.7965 15.5674 17.5479 16.816C15.5501 18.8138 11.3048 18.0646 6.93469 16.1917V7.45143Z" fill="#111233"/>
</svg>
