<svg width="19" height="18" viewBox="0 0 19 18" fill="none" xmlns="http://www.w3.org/2000/svg">
<path d="M5.06177 16.9406H1.31593C0.90534 16.9406 0.567322 16.6026 0.567322 16.192V7.45174C0.567322 7.04114 0.90534 6.70312 1.31593 6.70312H5.06177C5.47237 6.70312 5.81038 7.04114 5.81038 7.45174V16.192C5.81038 16.6026 5.47237 16.9406 5.06177 16.9406Z" stroke="#111233"/>
<path d="M12.7035 6.04453L12.7033 6.04501L12.7032 6.04527L12.7031 6.04567L12.7031 6.0457L12.703 6.04595L12.4514 6.80069L13.2417 6.69871L13.2417 6.69871L13.2418 6.69871L13.2421 6.69866L13.2439 6.69843L13.2516 6.69746L13.2828 6.69356C13.3105 6.69014 13.3516 6.68514 13.4046 6.67893C13.5105 6.66649 13.6636 6.64921 13.8511 6.62998C14.2266 6.59147 14.7375 6.5454 15.2817 6.51474C15.8276 6.48398 16.3981 6.46927 16.8953 6.49161C17.4128 6.51487 17.7817 6.5764 17.9691 6.65973L17.9691 6.65985L17.9799 6.66436C18.1343 6.72871 18.3744 6.99857 18.4242 7.46545C18.4703 7.89724 18.3384 8.45104 17.8187 8.9708L17.4651 9.32435L17.8165 9.67578L17.8168 9.676L17.8169 9.67611L17.8208 9.68026C17.8256 9.6854 17.8341 9.69472 17.8456 9.70791C17.8685 9.73442 17.9025 9.77578 17.9409 9.82958C18.0192 9.93913 18.1083 10.0896 18.1661 10.2628C18.2232 10.434 18.2465 10.6175 18.2087 10.8066C18.1716 10.992 18.0689 11.2177 17.8187 11.468L17.4651 11.8216L17.8159 12.1724C17.8164 12.1729 17.8169 12.1735 17.8177 12.1743C17.8213 12.1782 17.8284 12.1862 17.8381 12.1978C17.8576 12.2212 17.8864 12.2582 17.9174 12.3066C17.9812 12.4057 18.0446 12.5369 18.0692 12.6842C18.0925 12.8237 18.0832 12.9885 17.9884 13.1782C17.8907 13.3736 17.6869 13.6252 17.2705 13.9028L16.7631 14.2411L17.1922 14.6702L17.1924 14.6704L17.1925 14.6706L17.1965 14.6747C17.2013 14.6798 17.2098 14.6892 17.2213 14.7024C17.2442 14.7289 17.2782 14.7702 17.3166 14.824C17.3949 14.9336 17.484 15.084 17.5418 15.2573C17.5989 15.4285 17.6222 15.6119 17.5844 15.801C17.5473 15.9864 17.4446 16.2122 17.1943 16.4625C16.3504 17.3064 14.9747 17.6237 13.177 17.4575C11.4753 17.3002 9.48768 16.7163 7.43469 15.8603V7.72686C7.49991 7.68099 7.57505 7.62497 7.65856 7.55751C7.9422 7.32842 8.32107 6.96864 8.73569 6.42964C9.56591 5.35035 10.5304 3.56438 11.1686 0.692529L11.1707 0.683055L11.1725 0.673522C11.1719 0.67636 11.172 0.676335 11.1732 0.673983C11.178 0.664758 11.2016 0.619733 11.2853 0.571437C11.3801 0.516775 11.5139 0.484005 11.662 0.507968C11.9191 0.549556 12.407 0.811385 12.6927 1.95394C12.9882 3.13598 12.9879 4.16925 12.9144 4.90446C12.8776 5.2718 12.8227 5.56347 12.778 5.76035C12.7556 5.85873 12.7358 5.93324 12.7222 5.98149C12.7154 6.0056 12.7101 6.02313 12.7068 6.03378L12.7035 6.04453Z" stroke="#111233"/>
</svg>
