<svg width="18" height="19" viewBox="0 0 18 19" fill="none" xmlns="http://www.w3.org/2000/svg">
<path d="M17.9708 9.35085C17.9512 9.30238 17.9223 9.25927 17.8855 9.22324L15.5384 6.8762C15.3858 6.72356 15.1378 6.72356 14.9851 6.8762C14.8325 7.02883 14.8325 7.27683 14.9851 7.42948L16.6645 9.10911H5.08739C4.87135 9.10911 4.69604 9.28441 4.69604 9.50032C4.69604 9.71637 4.87135 9.89167 5.08739 9.89167H16.6645L14.985 11.5712C14.8324 11.7238 14.8324 11.9718 14.985 12.1244C15.0609 12.2011 15.161 12.2395 15.2612 12.2395C15.3614 12.2395 15.4615 12.2011 15.5383 12.1252L17.8853 9.77818C17.9214 9.74216 17.9503 9.6984 17.9706 9.65057C18.0097 9.55428 18.0097 9.44632 17.9706 9.35081L17.9708 9.35085Z" fill="#32334D"/>
<path d="M3.91377 9.49993C3.91377 8.85271 4.44045 8.32602 5.08768 8.32602H12.5222V2.45647C12.5222 1.37808 11.6449 0.5 10.5657 0.5H1.95696C0.878573 0.5 0.000488281 1.37808 0.000488281 2.45647V16.5434C0.000488281 17.6227 0.878573 18.5 1.95696 18.5H10.5657C11.6449 18.5 12.5222 17.6227 12.5222 16.5435V10.674H5.08768C4.44045 10.674 3.91377 10.1473 3.91377 9.50007V9.49993Z" fill="#32334D"/>
</svg>
