<svg width="402" height="156" viewBox="0 0 402 156" fill="none" xmlns="http://www.w3.org/2000/svg">
<path d="M264.009 135.995H258.028C257.924 133.848 257.816 131.694 257.696 129.335C257.525 129.517 257.366 129.711 257.22 129.915C254.48 134.435 250.326 136.6 245.171 136.764C237.984 136.998 232.839 133.569 230.025 127.107C226.854 119.834 227.118 112.446 230.971 105.437C232.819 102.014 235.844 99.371 239.489 97.9958C243.134 96.6206 247.155 96.6055 250.81 97.9531C253.128 98.758 255.124 100.287 256.502 102.314C256.566 102.42 256.641 102.519 256.725 102.611C256.758 102.652 256.829 102.655 257.023 102.726V80.0688H264.009V135.995ZM257.131 116.792H257.023C257.023 115.733 257.023 114.675 257.023 113.62C257 110.374 256.066 107.473 253.628 105.218C248.417 100.408 240.206 101.961 236.997 108.476C234.392 113.776 234.291 119.292 236.577 124.737C238.482 129.276 242.774 131.723 247.423 131.189C252.202 130.639 255.839 127.37 256.729 122.56C257.086 120.673 257.012 118.716 257.131 116.792Z" fill="url(#paint0_linear_578_3)"/>
<path d="M287.75 109.921C286.057 111.874 284.452 113.694 282.911 115.555C282.729 115.874 282.651 116.241 282.688 116.606C282.688 122.71 282.688 128.815 282.688 134.922V135.988H275.902V82.8733H282.636V108.346L282.844 108.446C283.008 108.264 283.176 108.075 283.328 107.896C289.917 99.6804 296.507 91.4669 303.101 83.2558C303.318 83.0144 303.621 82.8676 303.946 82.8473C306.551 82.8176 309.127 82.8287 311.911 82.8287C311.651 83.1667 311.491 83.4044 311.304 83.6236C305.327 90.6114 299.345 97.593 293.36 104.568C292.812 105.2 292.768 105.597 293.248 106.299C299.787 115.867 306.305 125.448 312.804 135.04C312.994 135.319 313.177 135.609 313.411 135.991C313.061 136.017 312.801 136.051 312.54 136.051C310.448 136.051 308.356 136.028 306.268 136.069C305.981 136.098 305.692 136.044 305.436 135.912C305.179 135.78 304.967 135.577 304.824 135.326C299.402 127.222 293.965 119.132 288.513 111.057C288.29 110.708 288.063 110.381 287.75 109.921Z" fill="url(#paint1_linear_578_3)"/>
<path d="M353.157 116.673C353.086 120.859 352.323 124.867 350.011 128.422C346.263 134.186 340.743 136.771 334.006 136.79C324.161 136.816 316.75 129.926 315.83 120.146C315.417 115.76 315.752 111.477 317.691 107.473C321.168 100.249 327.164 96.9616 335.029 97.047C344.923 97.1585 352.033 103.855 352.941 113.698C353.026 114.69 353.082 115.682 353.157 116.673ZM322.716 116.09C322.716 119.611 323.148 122.141 324.25 124.525C325.88 128.039 328.385 130.598 332.32 131.393C336.786 132.303 341.175 130.338 343.546 126.115C347.041 119.897 347.011 113.486 343.442 107.362C339.418 100.457 329.733 100.431 325.374 107.139C323.674 109.819 322.754 112.918 322.716 116.09Z" fill="url(#paint2_linear_578_3)"/>
<path d="M174.922 129.495C175.295 131.066 175.7 132.563 176.013 134.074C176.05 134.249 175.682 134.654 175.44 134.717C173.005 135.352 170.601 136.11 168.111 136.496C164.65 137.097 161.102 136.98 157.688 136.151C151.063 134.431 146.797 130.241 145.2 123.611C143.57 116.829 144.307 110.292 148.219 104.36C153.739 95.9843 164.485 95.5869 170.374 98.9112C173.352 100.59 175.332 103.134 176.612 106.239C178.176 110.031 178.683 114.174 178.079 118.229H151.156C151.051 120.434 151.484 122.632 152.418 124.633C154.558 129.194 158.414 131.118 163.212 131.4C167.212 131.695 171.224 131.042 174.922 129.495ZM151.141 113.226H171.673C171.591 112.327 171.539 111.495 171.435 110.671C170.545 103.651 163.726 99.8323 157.536 102.989C153.43 105.081 151.893 108.895 151.141 113.226Z" fill="url(#paint3_linear_578_3)"/>
<path d="M186.855 97.8308H192.766C192.908 99.8737 193.049 101.917 193.194 104.049C194.136 102.934 194.936 101.85 195.893 100.91C200.754 96.1334 209.23 95.6914 214.422 99.9257C217.199 102.191 218.58 105.245 219.153 108.684C219.396 110.189 219.521 111.71 219.525 113.234C219.563 120.425 219.525 127.619 219.525 134.814V135.984H212.628V134.925C212.628 128.165 212.662 121.405 212.606 114.649C212.607 112.97 212.431 111.296 212.081 109.653C210.611 103.157 203.739 100.598 198.309 104.483C195.521 106.474 193.972 109.23 193.935 112.655C193.853 120.035 193.898 127.419 193.894 134.799V135.984H186.855V97.8308Z" fill="url(#paint4_linear_578_3)"/>
<path d="M103.641 103.001C103.615 103.372 103.589 103.551 103.589 103.744C103.589 110.66 103.589 117.576 103.626 124.488C103.641 125.515 103.786 126.536 104.058 127.526C104.747 130.126 106.627 131.378 109.303 131.152C110.449 131.055 111.588 130.91 112.872 130.78C112.966 132.377 113.07 134.004 113.126 135.631C113.126 135.776 112.82 136.002 112.623 136.066C109.273 136.979 105.923 137.291 102.603 136.036C99.4874 134.851 97.8757 132.374 97.295 129.209C97.0341 127.802 96.8971 126.376 96.8856 124.945C96.8446 118.062 96.8669 111.176 96.8669 104.294V103.072H90.9561V97.8047H96.8669V93.4107C96.8669 92.0067 96.8483 90.6065 96.8856 89.2062C96.8856 88.9573 97.0791 88.5525 97.2578 88.5005C99.3199 87.9099 101.401 87.3862 103.552 86.7993V97.7453H113.528V103.001H103.641Z" fill="url(#paint5_linear_578_3)"/>
<path d="M139.099 130.773C139.192 132.351 139.3 133.93 139.36 135.505C139.339 135.616 139.292 135.721 139.222 135.81C139.152 135.9 139.061 135.971 138.958 136.017C135.366 136.99 131.763 137.362 128.253 135.765C125.431 134.48 124.028 132.069 123.511 129.127C123.256 127.689 123.122 126.231 123.109 124.77C123.068 117.947 123.09 111.124 123.09 104.305V103.075H117.187V97.7861H123.09V96.4229C123.09 94.0867 123.116 91.7504 123.09 89.4141C123.09 88.7529 123.291 88.5078 123.927 88.3555C125.863 87.8875 127.776 87.3378 129.816 86.7881V97.7638H139.758V102.986H129.905C129.858 103.231 129.826 103.48 129.809 103.729C129.809 110.675 129.809 117.62 129.842 124.57C129.86 125.534 129.992 126.493 130.237 127.426C130.922 130.1 132.842 131.4 135.593 131.14C136.739 131.029 137.878 130.899 139.099 130.773Z" fill="url(#paint6_linear_578_3)"/>
<path d="M368.794 136.006H361.845V97.849H367.826V105.214L368.154 105.348C370.521 99.7767 374.325 96.4598 380.78 97.1396V103.595C379.663 103.595 378.524 103.472 377.43 103.595C373.521 104.104 371.154 106.518 369.784 110.043C369.066 112.039 368.729 114.152 368.79 116.272V135.987L368.794 136.006Z" fill="url(#paint7_linear_578_3)"/>
<path d="M52.8557 74.2002C52.3234 75.8642 51.8395 77.3611 51.3668 78.8616C44.8455 99.5576 38.3279 120.254 31.814 140.95C31.5869 141.674 31.2668 141.886 30.5224 141.886C27.4999 141.834 24.4775 141.863 21.2168 141.863C21.8012 140.121 22.2702 138.688 22.7578 137.261C30.8052 113.663 38.8452 90.0627 46.8778 66.4596C47.1979 65.5162 47.5925 65.1708 48.6161 65.2005C51.8284 65.2859 55.0444 65.2711 58.2604 65.2376C58.9192 65.2376 59.1723 65.4642 59.377 66.0511C67.9754 91.0383 76.5836 116.022 85.2018 141.002C85.2874 141.258 85.3544 141.525 85.4512 141.863C82.0044 141.863 78.6358 141.863 75.2709 141.834C75.0476 141.834 74.7126 141.421 74.6195 141.143C73.3465 137.306 72.1033 133.462 70.8563 129.628C66.2135 115.267 61.5781 100.917 56.9501 86.5799C55.6945 82.7047 54.4413 78.8294 53.1907 74.9542C53.1125 74.7611 53.0195 74.5753 52.8557 74.2002Z" fill="#2B2E83"/>
<path d="M69.606 40.7384C69.0626 40.0624 68.7425 39.4607 68.2511 39.0855C63.6244 35.5458 58.4245 33.8855 52.5471 33.711C48.4303 33.5995 44.7304 34.7621 41.064 36.1995C40.5094 36.4187 40.2228 37.3138 39.7426 38.0233C39.0652 37.585 38.1905 37.0055 37.3046 36.4447C36.3368 35.8318 35.6929 36.1253 35.5924 37.2693C35.276 40.7681 35.0043 44.2744 34.6767 47.7733C34.64 48.1906 34.4629 48.5833 34.1742 48.8875C34.0304 48.9637 33.869 49.0007 33.7063 48.9948C33.5436 48.989 33.3853 48.9404 33.2474 48.8541C33.1172 48.714 33.017 48.5488 32.953 48.3687C32.889 48.1886 32.8625 47.9974 32.8751 47.8067C33.1543 45.5781 33.5228 43.3755 33.8206 41.1581C34.0737 39.2787 34.3045 37.3955 34.4683 35.505C34.4857 35.0568 34.3373 34.6179 34.0514 34.2718C33.2064 33.3247 33.2883 32.7861 34.5166 32.2884C41.0678 29.5584 47.6077 26.8061 54.1774 24.117C57.7321 22.661 56.4108 22.479 59.5858 24.8078C64.9582 28.7697 70.3008 32.7601 75.6137 36.779C75.9859 37.0575 76.4028 37.6481 76.3358 38.0121C76.2688 38.3761 75.6807 38.781 75.2378 38.9333C73.2836 39.6018 71.3183 40.1924 69.606 40.7384Z" fill="#2B2E83"/>
<path d="M54.8171 44.1666C57.7763 44.9095 60.1771 46.4398 61.7479 49.1215C62.5026 50.414 62.9624 51.8567 63.0945 53.3469C63.2267 54.837 63.0278 56.3378 62.5122 57.7425C61.9966 59.1472 61.1768 60.4211 60.1114 61.4735C59.046 62.5259 57.7611 63.3309 56.3482 63.8311C54.9354 64.3314 53.4294 64.5145 51.9375 64.3676C50.4456 64.2206 49.0046 63.7472 47.717 62.9809C46.4295 62.2147 45.3271 61.1746 44.4884 59.9346C43.6498 58.6946 43.0955 57.2854 42.865 55.8072C41.8452 49.8941 46.6617 43.1786 54.5677 44.1518L54.8469 44.1778L54.8171 44.1666Z" fill="#2B2E83"/>
<path d="M54.8466 44.1999C53.3764 44.0513 51.9061 43.7801 50.4358 43.7801C47.035 43.7994 43.658 44.3483 40.4268 45.407C40.598 43.8024 40.7618 42.3093 40.9218 40.8161C40.9461 40.7264 40.9598 40.6342 40.9628 40.5413C40.7506 38.6841 41.8673 37.997 43.4194 37.4436C51.7907 34.4721 59.425 36.047 66.4972 41.0724C66.6194 41.153 66.7231 41.2586 66.8014 41.3822C66.8797 41.5058 66.9308 41.6445 66.9513 41.7893C66.7243 43.9176 66.4414 46.0421 66.2069 48.0701C64.1596 47.1267 62.2166 46.057 60.1508 45.3327C58.4498 44.7347 56.6035 44.549 54.828 44.1813L54.8466 44.1999Z" fill="#2B2E83"/>
<path d="M33.2428 53.4486C31.9586 53.5043 31.9214 53.4486 32.0591 52.1634C32.0963 51.8254 32.1931 51.4911 32.1968 51.1531C32.1968 50.4474 32.4685 50.1057 33.2428 50.0388C34.017 49.972 34.4041 50.2728 34.5121 51.0157C34.5477 51.166 34.5937 51.3137 34.6498 51.4577C35.1969 53.3446 35.1783 53.3706 33.2428 53.4486Z" fill="#2B2E83"/>
<defs>
<linearGradient id="paint0_linear_578_3" x1="241.371" y1="36.9423" x2="252.342" y2="187.033" gradientUnits="userSpaceOnUse">
<stop stop-color="#E7A27A"/>
<stop offset="1" stop-color="#83433C"/>
</linearGradient>
<linearGradient id="paint1_linear_578_3" x1="288.335" y1="33.5067" x2="299.306" y2="183.597" gradientUnits="userSpaceOnUse">
<stop stop-color="#E7A27A"/>
<stop offset="1" stop-color="#83433C"/>
</linearGradient>
<linearGradient id="paint2_linear_578_3" x1="328.047" y1="30.6059" x2="339.018" y2="180.696" gradientUnits="userSpaceOnUse">
<stop stop-color="#E7A27A"/>
<stop offset="1" stop-color="#83433C"/>
</linearGradient>
<linearGradient id="paint3_linear_578_3" x1="156.021" y1="43.1783" x2="166.996" y2="193.269" gradientUnits="userSpaceOnUse">
<stop stop-color="#E7A27A"/>
<stop offset="1" stop-color="#83433C"/>
</linearGradient>
<linearGradient id="paint4_linear_578_3" x1="197.021" y1="40.1814" x2="207.996" y2="190.272" gradientUnits="userSpaceOnUse">
<stop stop-color="#E7A27A"/>
<stop offset="1" stop-color="#83433C"/>
</linearGradient>
<linearGradient id="paint5_linear_578_3" x1="98.3484" y1="47.3982" x2="109.323" y2="197.488" gradientUnits="userSpaceOnUse">
<stop stop-color="#E7A27A"/>
<stop offset="1" stop-color="#83433C"/>
</linearGradient>
<linearGradient id="paint6_linear_578_3" x1="124.434" y1="45.4889" x2="135.405" y2="195.579" gradientUnits="userSpaceOnUse">
<stop stop-color="#E7A27A"/>
<stop offset="1" stop-color="#83433C"/>
</linearGradient>
<linearGradient id="paint7_linear_578_3" x1="364.804" y1="27.9164" x2="375.775" y2="178.007" gradientUnits="userSpaceOnUse">
<stop stop-color="#E7A27A"/>
<stop offset="1" stop-color="#83433C"/>
</linearGradient>
</defs>
</svg>
