<svg width="11" height="12" viewBox="0 0 11 12" fill="none" xmlns="http://www.w3.org/2000/svg">
<path d="M7.4187 2.98064C6.37638 2.37886 5.33289 1.77725 4.29049 1.17445L4.44087 0.912788C4.44511 0.905324 4.44927 0.898029 4.45351 0.891583C4.70236 0.466745 5.10175 0.18074 5.54459 0.0621644C5.98743 -0.0564087 6.4758 -0.0088266 6.9037 0.234851C6.9121 0.239092 6.92168 0.244435 6.92915 0.249779C7.35188 0.499827 7.63678 0.89709 7.75553 1.33873C7.8741 1.78157 7.82542 2.26994 7.58284 2.69784C7.5786 2.70624 7.57444 2.71481 7.56791 2.72219L7.4187 2.98064ZM4.31785 8.35159L7.25129 3.27072C6.20897 2.66894 5.16548 2.06734 4.122 1.46454L1.8571 5.38723H1.8582L1.18985 6.54506C2.23217 7.14786 3.27566 7.74964 4.31806 8.35139L4.31785 8.35159ZM10.0288 11.4151H0.292454C0.131132 11.4151 0 11.5464 0 11.7075C0 11.8687 0.131297 12 0.292454 12H10.029C10.1904 12 10.3215 11.8687 10.3215 11.7075C10.3215 11.5464 10.1902 11.4151 10.029 11.4151H10.0288ZM1.12385 10.573L4.09529 8.61004C3.08893 8.02948 2.08259 7.44898 1.07608 6.86739L0.863189 10.4227C0.861069 10.4577 0.869551 10.4937 0.890754 10.5254C0.941645 10.6027 1.04648 10.6239 1.12374 10.5731L1.12385 10.573Z" fill="#32334D"/>
</svg>
