<svg width="21" height="20" viewBox="0 0 21 20" fill="none" xmlns="http://www.w3.org/2000/svg">
<path d="M0.780931 9.42317C1.65574 10.299 3.03036 10.2678 3.87395 9.42317L9.55994 3.73024C10.4035 2.88563 10.4035 1.47807 9.55994 0.633458C8.71636 -0.211153 7.31051 -0.211153 6.46692 0.633458L0.780562 6.32675C-0.0940981 7.17121 -0.0940981 8.54751 0.780706 9.42339L0.780931 9.42317Z" fill="#32334D"/>
<path d="M8.56023 15.3978C8.06041 15.8982 8.06041 16.7429 8.56023 17.2434C9.09142 17.7753 9.90363 17.7439 10.4036 17.2434C14.1215 13.5524 17.3393 10.3302 17.3706 10.2679C17.9018 9.73609 17.8704 8.92289 17.3706 8.42231C16.8394 7.89048 16.0272 7.89048 15.5272 8.42231C12.2156 11.7381 14.465 9.48599 8.56023 15.3978Z" fill="#32334D"/>
<path d="M4.34268 9.82996L8.21668 14.8663C10.5599 12.5202 7.24809 15.8047 14.9963 8.07843L9.96608 4.19971L4.34268 9.82996Z" fill="#111233"/>
<path d="M13.2469 15.3038L19.6203 19.9332C19.7453 20.0271 19.9015 20.0271 20.0265 19.9019C20.1515 19.808 20.1515 19.6204 20.0577 19.4952L15.434 13.114C14.778 13.7396 14.0594 14.4905 13.247 15.3037L13.2469 15.3038Z" fill="#111233"/>
</svg>
