<svg width="21" height="20" viewBox="0 0 21 20" fill="none" xmlns="http://www.w3.org/2000/svg">
<path d="M14.0135 13.1748C13.757 13.1736 13.5146 13.0571 13.3537 12.8573C13.1971 12.6592 13.139 12.4007 13.1962 12.1549L13.5762 10.4673C13.5772 10.4623 13.5772 10.4572 13.5762 10.4523C13.5818 10.4344 13.5884 10.4169 13.5961 10.3998C13.5947 10.3906 13.5947 10.3814 13.5961 10.3723V10.3549L14.9211 8.15986V1.22996C14.9212 0.90857 14.7953 0.59974 14.5707 0.369874C14.3459 0.139861 14.0401 0.00715177 13.7187 0H1.91378C1.58733 0 1.27432 0.129567 1.04325 0.360107C0.812186 0.590646 0.681919 0.903499 0.681396 1.22993V18.7701C0.68192 19.0965 0.812186 19.4094 1.04325 19.6399C1.27431 19.8704 1.58735 20 1.91378 20H9.28386V14.7098C9.28386 14.5027 9.45162 14.3349 9.65879 14.3349H14.949V12.6373L14.554 12.9749C14.4037 13.1041 14.2122 13.1749 14.0139 13.1749L14.0135 13.1748ZM7.04614 17.6748H3.15856C3.05515 17.6748 2.97109 17.5908 2.97109 17.4872C2.97109 17.3838 3.05515 17.2997 3.15856 17.2997H7.0486C7.15218 17.2997 7.23623 17.3838 7.23623 17.4872C7.23623 17.5908 7.15218 17.6748 7.0486 17.6748H7.04614ZM7.04614 14.0298H3.15856C3.05515 14.0298 2.97109 13.9458 2.97109 13.8422C2.97109 13.7388 3.05515 13.6547 3.15856 13.6547H7.0486C7.15218 13.6547 7.23623 13.7388 7.23623 13.8422C7.23623 13.9458 7.15218 14.0298 7.0486 14.0298H7.04614ZM12.4711 10.3848H3.15865C3.05524 10.3848 2.97118 10.3008 2.97118 10.1974C2.97118 10.0938 3.05524 10.0097 3.15865 10.0097H12.4738C12.5774 10.0097 12.6614 10.0938 12.6614 10.1974C12.6614 10.3008 12.5774 10.3848 12.4738 10.3848H12.4711ZM12.4711 6.73986H3.15865C3.05524 6.73986 2.97118 6.6558 2.97118 6.55239C2.97118 6.44881 3.05524 6.36475 3.15865 6.36475H12.4738C12.5774 6.36475 12.6614 6.44881 12.6614 6.55239C12.6614 6.6558 12.5774 6.73986 12.4738 6.73986H12.4711ZM12.4711 3.07477H5.80373C5.70015 3.07477 5.61627 2.99089 5.61627 2.88731C5.61627 2.78373 5.70015 2.69985 5.80373 2.69985H12.4738C12.5774 2.69985 12.6614 2.78373 12.6614 2.88731C12.6614 2.99089 12.5774 3.07477 12.4738 3.07477H12.4711Z" fill="#32334D"/>
<path d="M9.66089 20.0001L14.9511 14.71H9.66089V20.0001Z" fill="#32334D"/>
<path d="M14.1375 10.2283L17.8158 4.1377L19.5 5.15488L15.8217 11.2455L14.1375 10.2283Z" fill="#32334D"/>
<path d="M13.5636 12.2497C13.5367 12.3847 13.5716 12.5246 13.6586 12.6311C13.7458 12.7375 13.8759 12.7994 14.0135 12.7997C14.1223 12.7992 14.2271 12.7591 14.3085 12.6873L15.626 11.5672L13.9435 10.5498L13.5636 12.2497Z" fill="#32334D"/>
<path d="M20.2032 3.99954C20.3376 3.77615 20.3781 3.50882 20.3158 3.25579C20.2536 3.00275 20.0935 2.78476 19.8708 2.64945C19.6479 2.51133 19.3792 2.46791 19.1242 2.52895C18.8693 2.58999 18.6493 2.75042 18.5131 2.97451L18.0132 3.81696L19.6957 4.83187L20.2032 3.99954Z" fill="#32334D"/>
</svg>
