<svg width="23" height="24" viewBox="0 0 23 24" fill="none" xmlns="http://www.w3.org/2000/svg">
<path d="M20.9846 24H2.03059C2.03059 24 -0.530758 22.2891 2.03059 17.4995C2.73453 16.2385 3.82939 15.2408 5.15013 14.6562C7.15978 13.7986 9.33482 13.3999 11.5177 13.4884C13.686 13.4027 15.8468 13.7979 17.8443 14.6461C19.165 15.2304 20.2598 16.2281 20.9641 17.4891C23.5254 22.2787 20.9844 24 20.9844 24H20.9846ZM11.61 10.563C13.0107 10.563 14.3543 10.0066 15.3445 9.01612C16.335 8.02561 16.8913 6.682 16.8913 5.28131C16.8913 3.88062 16.335 2.53738 15.3445 1.54687C14.3543 0.55636 13.0107 0 11.61 0C10.2093 0 8.86609 0.55636 7.87558 1.54687C6.88507 2.53738 6.32871 3.88062 6.32871 5.28131C6.32871 6.682 6.88507 8.02561 7.87558 9.01612C8.86609 10.0066 10.2093 10.563 11.61 10.563Z" fill="#32334D"/>
</svg>
