<svg width="23" height="24" viewBox="0 0 23 24" fill="none" xmlns="http://www.w3.org/2000/svg">
<path d="M20.9847 24H2.03071C2.03071 24 -0.530636 22.2891 2.03071 17.4995C2.73465 16.2385 3.82951 15.2408 5.15025 14.6562C7.1599 13.7986 9.33494 13.3999 11.5178 13.4884C13.6861 13.4027 15.8469 13.7979 17.8444 14.6461C19.1651 15.2304 20.2599 16.2281 20.9642 17.4891C23.5255 22.2787 20.9846 24 20.9846 24H20.9847ZM11.6101 10.563C13.0108 10.563 14.3544 10.0066 15.3446 9.01612C16.3351 8.02561 16.8915 6.682 16.8915 5.28131C16.8915 3.88062 16.3351 2.53738 15.3446 1.54687C14.3544 0.55636 13.0108 0 11.6101 0C10.2095 0 8.86621 0.55636 7.8757 1.54687C6.88519 2.53738 6.32883 3.88062 6.32883 5.28131C6.32883 6.682 6.88519 8.02561 7.8757 9.01612C8.86621 10.0066 10.2095 10.563 11.6101 10.563Z" fill="#D49A80"/>
</svg>
