<svg width="142" height="74" viewBox="0 0 142 74" fill="none" xmlns="http://www.w3.org/2000/svg">
<rect width="142" height="74" fill="#32334D"/>
<path d="M80.4846 40H61.5306C61.5306 40 58.9692 38.2891 61.5306 33.4995C62.2345 32.2385 63.3294 31.2408 64.6501 30.6562C66.6598 29.7986 68.8348 29.3999 71.0177 29.4884C73.186 29.4027 75.3468 29.7979 77.3443 30.6461C78.665 31.2304 79.7598 32.2281 80.4641 33.4891C83.0254 38.2787 80.4844 40 80.4844 40H80.4846ZM71.11 26.563C72.5107 26.563 73.8543 26.0066 74.8445 25.0161C75.835 24.0256 76.3913 22.682 76.3913 21.2813C76.3913 19.8806 75.835 18.5374 74.8445 17.5469C73.8543 16.5564 72.5107 16 71.11 16C69.7093 16 68.3661 16.5564 67.3756 17.5469C66.3851 18.5374 65.8287 19.8806 65.8287 21.2813C65.8287 22.682 66.3851 24.0256 67.3756 25.0161C68.3661 26.0066 69.7093 26.563 71.11 26.563Z" fill="#D49A80"/>
<path d="M52.8598 52.3354H49.6238V51.5365H52.8598C53.5356 51.5365 54.084 51.4299 54.5051 51.2169C54.9313 50.9987 55.2406 50.7045 55.433 50.3342C55.6305 49.9639 55.7293 49.5479 55.7293 49.0862C55.7293 48.6347 55.6305 48.2188 55.433 47.8383C55.2406 47.4578 54.9313 47.1535 54.5051 46.9252C54.084 46.6918 53.5356 46.5751 52.8598 46.5751H49.9591V56.8478H49V45.7685H52.8598C53.6915 45.7685 54.3907 45.9081 54.9573 46.1871C55.5291 46.4661 55.9606 46.8542 56.2517 47.3513C56.5428 47.8484 56.6884 48.4217 56.6884 49.071C56.6884 49.7508 56.5428 50.3367 56.2517 50.8288C55.9606 51.3158 55.5317 51.6886 54.9651 51.9474C54.3985 52.2061 53.6967 52.3354 52.8598 52.3354Z" fill="#D49A80"/>
<path d="M59.8695 49.9765V56.8478H58.9416V48.6145H59.8461L59.8695 49.9765ZM62.8559 48.5536L62.8325 49.3906C62.7286 49.3754 62.6272 49.3627 62.5284 49.3526C62.4297 49.3424 62.3231 49.3373 62.2087 49.3373C61.8033 49.3373 61.4472 49.4109 61.1405 49.558C60.839 49.7001 60.5842 49.9004 60.3763 50.1592C60.1684 50.4128 60.0098 50.7121 59.9007 51.0571C59.7915 51.397 59.7291 51.7622 59.7135 52.1528L59.3704 52.2822C59.3704 51.7445 59.4276 51.2448 59.542 50.7831C59.6563 50.3215 59.8305 49.9182 60.0644 49.5732C60.3035 49.2232 60.6024 48.9518 60.9611 48.759C61.325 48.5612 61.7513 48.4623 62.2399 48.4623C62.3595 48.4623 62.4764 48.4724 62.5908 48.4927C62.7104 48.5079 62.7987 48.5282 62.8559 48.5536Z" fill="#D49A80"/>
<path d="M63.9707 52.8605V52.6094C63.9707 52.0108 64.059 51.4578 64.2358 50.9505C64.4125 50.4432 64.6646 50.0044 64.9921 49.6341C65.3248 49.2638 65.7225 48.9772 66.1852 48.7743C66.6478 48.5663 67.1625 48.4623 67.7291 48.4623C68.3009 48.4623 68.8181 48.5663 69.2808 48.7743C69.7435 48.9772 70.1411 49.2638 70.4738 49.6341C70.8065 50.0044 71.0612 50.4432 71.238 50.9505C71.4147 51.4578 71.5031 52.0108 71.5031 52.6094V52.8605C71.5031 53.4591 71.4147 54.012 71.238 54.5193C71.0612 55.0216 70.8065 55.4578 70.4738 55.8282C70.1463 56.1985 69.7512 56.4876 69.2886 56.6956C68.8259 56.8985 68.3113 57 67.7447 57C67.1729 57 66.6556 56.8985 66.193 56.6956C65.7303 56.4876 65.3326 56.1985 64.9999 55.8282C64.6672 55.4578 64.4125 55.0216 64.2358 54.5193C64.059 54.012 63.9707 53.4591 63.9707 52.8605ZM64.8986 52.6094V52.8605C64.8986 53.312 64.961 53.7406 65.0857 54.1465C65.2105 54.5472 65.3924 54.9049 65.6315 55.2194C65.8707 55.5289 66.167 55.7724 66.5205 55.9499C66.874 56.1275 67.282 56.2162 67.7447 56.2162C68.2021 56.2162 68.605 56.1275 68.9533 55.9499C69.3068 55.7724 69.6031 55.5289 69.8422 55.2194C70.0813 54.9049 70.2607 54.5472 70.3803 54.1465C70.505 53.7406 70.5674 53.312 70.5674 52.8605V52.6094C70.5674 52.163 70.505 51.7394 70.3803 51.3386C70.2607 50.9379 70.0787 50.5802 69.8344 50.2657C69.5953 49.9512 69.299 49.7026 68.9455 49.52C68.592 49.3373 68.1865 49.246 67.7291 49.246C67.2716 49.246 66.8662 49.3373 66.5127 49.52C66.1644 49.7026 65.8681 49.9512 65.6237 50.2657C65.3846 50.5802 65.2027 50.9379 65.0779 51.3386C64.9584 51.7394 64.8986 52.163 64.8986 52.6094Z" fill="#D49A80"/>
<path d="M75.2456 56.8478H74.3177V47.747C74.3177 47.1535 74.4295 46.6538 74.653 46.2479C74.8817 45.837 75.204 45.5276 75.6199 45.3196C76.041 45.1065 76.54 45 77.117 45C77.4653 45 77.8188 45.038 78.1775 45.1141C78.5362 45.1902 78.8975 45.3018 79.2613 45.449L79.1132 46.2403C78.8377 46.1237 78.5492 46.0273 78.2477 45.9512C77.9462 45.8751 77.5875 45.837 77.1716 45.837C76.5374 45.837 76.0566 45.9994 75.7291 46.324C75.4068 46.6487 75.2456 47.123 75.2456 47.747V56.8478ZM77.2184 48.6145V49.3602H72.9141V48.6145H77.2184ZM79.7682 48.6145V56.8478H78.8403V48.6145H79.7682Z" fill="#D49A80"/>
<path d="M83.7056 45.1598V56.8478H82.7777V45.1598H83.7056Z" fill="#D49A80"/>
<path d="M89.8342 57C89.2832 57 88.7763 56.9011 88.3137 56.7032C87.8562 56.5054 87.4559 56.2264 87.1129 55.8662C86.775 55.506 86.5124 55.0799 86.3253 54.5878C86.1434 54.0907 86.0524 53.5479 86.0524 52.9594V52.6322C86.0524 51.9981 86.1486 51.4249 86.3409 50.9125C86.5332 50.4001 86.7984 49.9613 87.1362 49.5961C87.4741 49.2308 87.8588 48.9518 88.2903 48.759C88.7269 48.5612 89.1844 48.4623 89.6626 48.4623C90.1981 48.4623 90.6737 48.5561 91.0896 48.7438C91.5055 48.9264 91.8538 49.1877 92.1345 49.5276C92.4204 49.8624 92.6361 50.2606 92.7817 50.7223C92.9272 51.1788 93 51.6836 93 52.2365V52.792H86.6138V52.0159H92.0721V51.9093C92.0617 51.4477 91.9655 51.0165 91.7836 50.6157C91.6068 50.2099 91.3417 49.8802 90.9882 49.6265C90.6347 49.3729 90.1929 49.246 89.6626 49.246C89.2676 49.246 88.9037 49.3272 88.571 49.4895C88.2435 49.6519 87.9602 49.8852 87.7211 50.1896C87.4871 50.4889 87.3052 50.8465 87.1752 51.2625C87.0505 51.6734 86.9881 52.13 86.9881 52.6322V52.9594C86.9881 53.416 87.0557 53.8421 87.1908 54.2378C87.3312 54.6284 87.5287 54.9734 87.7834 55.2727C88.0434 55.572 88.3501 55.8053 88.7036 55.9727C89.057 56.1401 89.4469 56.2238 89.8732 56.2238C90.3722 56.2238 90.8141 56.1351 91.1988 55.9575C91.5834 55.7749 91.9291 55.4883 92.2358 55.0977L92.8207 55.539C92.6387 55.8028 92.41 56.0463 92.1345 56.2695C91.8642 56.4927 91.5393 56.6703 91.1598 56.8022C90.7803 56.9341 90.3384 57 89.8342 57Z" fill="#D49A80"/>
</svg>
