<svg width="27" height="40" viewBox="0 0 27 40" fill="none" xmlns="http://www.w3.org/2000/svg">
<path d="M21 0H6L7.02544 6H21V0Z" fill="url(#paint0_linear_174_769)"/>
<g style="mix-blend-mode:multiply" opacity="0.75">
<path d="M7.88584 0H6L7.06044 6H11L7.88584 0Z" fill="#9D0000"/>
</g>
<g style="mix-blend-mode:multiply" opacity="0.75">
<path d="M19.117 0H21L19.9396 6H16L19.117 0Z" fill="#9D0000"/>
</g>
<path d="M21.3006 0L10 19H16.5583L27 3.28368L21.3006 0Z" fill="url(#paint1_linear_174_769)"/>
<path d="M26 2.94492L15.6296 19H12L22.677 1L26 2.94492Z" fill="url(#paint2_linear_174_769)"/>
<g style="mix-blend-mode:multiply" opacity="0.5">
<path d="M14.3332 12L10 19H16.6583L18 17.0586L14.3332 12Z" fill="#771A1F"/>
</g>
<path d="M13.5349 16H13.4684C6.62384 16 7.95522 20.8414 8.4173 22C8.45773 21.9621 8.49527 21.9241 8.53859 21.8891C8.61131 21.8217 8.69066 21.7621 8.77541 21.7111V21.7111H8.79274C8.85339 21.6761 9.68802 21.6411 9.75156 21.6119C9.36456 20.179 8.46928 17.7597 13.4627 17.7247H13.5291C18.5224 17.7597 17.6272 20.179 17.2402 21.6119C17.3037 21.6411 18.1383 21.6761 18.199 21.7111H18.2163C18.3016 21.7614 18.381 21.8211 18.4531 21.8891C18.4965 21.9241 18.534 21.9621 18.5744 22C19.0481 20.8414 20.3794 16 13.5349 16Z" fill="url(#paint3_radial_174_769)"/>
<path d="M13.5349 16H13.4684C6.62384 16 7.95522 20.8414 8.4173 22C8.45773 21.9621 8.49527 21.9241 8.53859 21.8891C8.61131 21.8217 8.69066 21.7621 8.77541 21.7111V21.7111H8.79274C8.85339 21.6761 9.68802 21.6411 9.75156 21.6119C9.36456 20.179 8.46928 17.7597 13.4627 17.7247H13.5291C18.5224 17.7597 17.6272 20.179 17.2402 21.6119C17.3037 21.6411 18.1383 21.6761 18.199 21.7111H18.2163C18.3016 21.7614 18.381 21.8211 18.4531 21.8891C18.4965 21.9241 18.534 21.9621 18.5744 22C19.0481 20.8414 20.3794 16 13.5349 16Z" fill="url(#paint4_radial_174_769)"/>
<path style="mix-blend-mode:overlay" opacity="0.75" d="M13.5332 16H13.4668C6.62426 16 7.95523 20.8414 8.41717 22L8.49224 21.93C7.97255 20.4475 7.14394 16.1955 13.4697 16.1955H13.5332C19.8589 16.1955 19.0188 20.4475 18.5078 21.93L18.5828 22C19.0448 20.8414 20.3757 16 13.5332 16Z" fill="url(#paint5_radial_174_769)"/>
<path style="mix-blend-mode:multiply" opacity="0.55" d="M9.6755 20C9.08887 20.0928 8.52433 20.2472 8 20.4582C8.04169 20.9869 8.20043 21.5074 8.4702 22C8.51656 21.969 8.5596 21.9379 8.60927 21.9093C8.69264 21.8542 8.78363 21.8054 8.8808 21.7637H8.90066C8.9702 21.7351 9.92715 21.7064 10 21.6826C9.8245 21.1862 9.53974 20.5656 9.6755 20Z" fill="url(#paint6_linear_174_769)"/>
<path style="mix-blend-mode:multiply" opacity="0.55" d="M17.3074 20C17.4926 20.5675 17.1917 21.2042 17 21.6932C17.0727 21.7163 18.0281 21.7439 18.0975 21.7716H18.1174C18.2149 21.8114 18.3058 21.8586 18.3884 21.9123C18.438 21.94 18.481 21.97 18.5273 22C18.8034 21.5108 18.963 20.9934 19 20.4683C18.4667 20.2625 17.8979 20.1052 17.3074 20Z" fill="url(#paint7_linear_174_769)"/>
<path style="mix-blend-mode:multiply" opacity="0.55" d="M13.5273 17H13.4727C8.6313 17 8.82392 19.9354 9.13728 22C9.16603 21.9772 9.71227 21.8337 9.77265 21.801C9.38741 20.1996 8.49618 17.4958 13.4669 17.4566H13.5331C18.5038 17.4958 17.6126 20.1996 17.2274 21.801C17.2906 21.8337 17.834 21.9772 17.8627 22C18.1761 19.9485 18.3687 17 13.5273 17Z" fill="url(#paint8_radial_174_769)"/>
<path d="M0 3.28368L10.4417 19H17L5.69944 0L0 3.28368Z" fill="url(#paint9_linear_174_769)"/>
<path d="M2 2.94492L12.3704 19H16L5.32298 1L2 2.94492Z" fill="url(#paint10_linear_174_769)"/>
<path d="M16.729 36.1467C21.2162 34.3292 23.3804 29.2182 21.5629 24.731C19.7454 20.2438 14.6344 18.0796 10.1472 19.8971C5.66005 21.7146 3.49584 26.8256 5.31334 31.3128C7.13084 35.8 12.2418 37.9642 16.729 36.1467Z" fill="url(#paint11_radial_174_769)"/>
<path style="mix-blend-mode:overlay" opacity="0.75" d="M13.4378 19.2534C11.7041 19.2534 10.0093 19.7675 8.56773 20.7307C7.12618 21.694 6.00262 23.063 5.33915 24.6648C4.67567 26.2666 4.50208 28.0291 4.84031 29.7295C5.17855 31.43 6.01343 32.9919 7.23937 34.2178C8.46531 35.4438 10.0273 36.2787 11.7277 36.6169C13.4281 36.9551 15.1907 36.7815 16.7924 36.1181C18.3942 35.4546 19.7632 34.331 20.7265 32.8895C21.6897 31.4479 22.2038 29.7531 22.2038 28.0194C22.2038 26.8682 21.977 25.7283 21.5365 24.6648C21.096 23.6013 20.4503 22.6349 19.6363 21.8209C18.8223 21.0069 17.856 20.3612 16.7924 19.9207C15.7289 19.4802 14.589 19.2534 13.4378 19.2534V19.2534ZM13.4378 36.543C11.752 36.543 10.1041 36.0431 8.70236 35.1065C7.30066 34.1699 6.20817 32.8387 5.56304 31.2812C4.9179 29.7237 4.74911 28.0099 5.078 26.3565C5.40688 24.7031 6.21868 23.1843 7.41073 21.9923C8.60278 20.8002 10.1215 19.9884 11.775 19.6595C13.4284 19.3307 15.1422 19.4994 16.6997 20.1446C18.2572 20.7897 19.5884 21.8822 20.525 23.2839C21.4615 24.6856 21.9614 26.3336 21.9614 28.0194C21.9614 30.28 21.0634 32.448 19.4649 34.0465C17.8664 35.645 15.6984 36.543 13.4378 36.543V36.543Z" fill="url(#paint12_radial_174_769)"/>
<path style="mix-blend-mode:screen" opacity="0.75" d="M16.1072 34.4119C19.6373 32.9366 21.3031 28.879 19.8279 25.3489C18.3526 21.8188 14.295 20.1529 10.7649 21.6282C7.23477 23.1034 5.56896 27.161 7.04419 30.6912C8.51942 34.2213 12.5771 35.8871 16.1072 34.4119Z" fill="url(#paint13_linear_174_769)"/>
<path style="mix-blend-mode:screen" opacity="0.32" d="M16.1072 34.4119C19.6373 32.9366 21.3031 28.879 19.8279 25.3489C18.3526 21.8188 14.295 20.1529 10.7649 21.6282C7.23477 23.1034 5.56896 27.161 7.04419 30.6912C8.51942 34.2213 12.5771 35.8871 16.1072 34.4119Z" fill="url(#paint14_linear_174_769)"/>
<path d="M13.4387 34.7133C17.1354 34.7133 20.1322 31.7165 20.1322 28.0197C20.1322 24.323 17.1354 21.3262 13.4387 21.3262C9.74192 21.3262 6.74512 24.323 6.74512 28.0197C6.74512 31.7165 9.74192 34.7133 13.4387 34.7133Z" fill="url(#paint15_linear_174_769)"/>
<g opacity="0.75">
<g style="mix-blend-mode:multiply" opacity="0.85">
<path d="M18.8983 28.8245C18.8726 28.8214 18.8478 28.8133 18.8253 28.8005C18.8028 28.7877 18.783 28.7706 18.7672 28.7501C18.7514 28.7296 18.7398 28.7062 18.7332 28.6812C18.7265 28.6562 18.7249 28.6301 18.7284 28.6045C18.7333 28.5522 18.7586 28.504 18.7987 28.4702C18.8388 28.4363 18.8905 28.4195 18.9429 28.4234C18.9717 28.423 19.0002 28.4288 19.0267 28.4403C19.0531 28.4518 19.0768 28.4688 19.0961 28.4901C19.1155 28.5115 19.1301 28.5367 19.1389 28.5641C19.1478 28.5915 19.1508 28.6205 19.1476 28.6492C19.1444 28.6778 19.1352 28.7055 19.1205 28.7303C19.1058 28.7551 19.086 28.7765 19.0625 28.7931C19.0389 28.8096 19.0121 28.821 18.9838 28.8264C18.9554 28.8319 18.9263 28.8312 18.8983 28.8245V28.8245Z" fill="url(#paint16_linear_174_769)"/>
<path d="M18.7279 29.6124C18.677 29.5968 18.6339 29.5627 18.607 29.5167C18.5802 29.4708 18.5716 29.4164 18.5831 29.3645C18.5974 29.3136 18.631 29.2702 18.6768 29.2437C18.7226 29.2172 18.7769 29.2096 18.8282 29.2224C18.8538 29.229 18.8779 29.2406 18.899 29.2564C18.9201 29.2723 18.9379 29.2922 18.9514 29.315C18.9648 29.3377 18.9737 29.3629 18.9774 29.3891C18.9811 29.4153 18.9796 29.4419 18.973 29.4675C18.9664 29.4931 18.9549 29.5172 18.939 29.5383C18.9231 29.5595 18.9032 29.5773 18.8805 29.5907C18.8577 29.6042 18.8325 29.613 18.8063 29.6167C18.7802 29.6204 18.7535 29.619 18.7279 29.6124V29.6124Z" fill="url(#paint17_linear_174_769)"/>
<path d="M18.4356 30.3786C18.388 30.3567 18.351 30.3169 18.3327 30.2678C18.3145 30.2187 18.3164 30.1644 18.3381 30.1167C18.3476 30.0926 18.3618 30.0706 18.3799 30.0521C18.398 30.0335 18.4196 30.0187 18.4435 30.0086C18.4673 29.9985 18.493 29.9933 18.5189 29.9932C18.5448 29.9931 18.5705 29.9982 18.5944 30.0081C18.6211 30.0178 18.6454 30.0329 18.6658 30.0525C18.6863 30.0722 18.7024 30.0959 18.7132 30.1221C18.7239 30.1483 18.7291 30.1765 18.7283 30.2049C18.7275 30.2332 18.7208 30.2611 18.7086 30.2866C18.6836 30.3341 18.6413 30.3701 18.5905 30.3872C18.5397 30.4043 18.4842 30.4012 18.4356 30.3786V30.3786Z" fill="url(#paint18_linear_174_769)"/>
<path d="M18.0456 31.0694C17.9998 31.0417 17.9669 30.9969 17.9541 30.9449C17.9413 30.8929 17.9497 30.838 17.9774 30.7922C18.0051 30.7464 18.0498 30.7135 18.1018 30.7007C18.1538 30.6879 18.2087 30.6963 18.2545 30.724C18.2772 30.7377 18.297 30.7557 18.3127 30.7771C18.3284 30.7984 18.3397 30.8227 18.3461 30.8484C18.3524 30.8741 18.3536 30.9009 18.3496 30.9271C18.3456 30.9533 18.3365 30.9784 18.3228 31.0011C18.3091 31.0238 18.291 31.0435 18.2697 31.0593C18.2483 31.075 18.2241 31.0863 18.1983 31.0926C18.1726 31.099 18.1459 31.1002 18.1197 31.0962C18.0935 31.0922 18.0683 31.0831 18.0456 31.0694V31.0694Z" fill="url(#paint19_linear_174_769)"/>
<path d="M17.5471 31.7045C17.5083 31.6697 17.4846 31.6211 17.481 31.5691C17.4773 31.5171 17.4941 31.4658 17.5276 31.4259C17.5439 31.4056 17.564 31.3886 17.5868 31.3761C17.6096 31.3635 17.6347 31.3556 17.6606 31.3527C17.6864 31.3499 17.7126 31.3522 17.7376 31.3595C17.7626 31.3668 17.7859 31.3789 17.8062 31.3953C17.8471 31.4281 17.8735 31.4757 17.8797 31.5277C17.886 31.5798 17.8716 31.6322 17.8396 31.6738C17.8047 31.7164 17.7545 31.7436 17.6997 31.7493C17.6449 31.7551 17.5901 31.7389 17.5471 31.7045V31.7045Z" fill="url(#paint20_linear_174_769)"/>
<path d="M16.9705 32.267C16.9393 32.2266 16.9235 32.1763 16.926 32.1252C16.9286 32.0741 16.9493 32.0256 16.9845 31.9885C17.0245 31.9561 17.075 31.9396 17.1264 31.9422C17.1778 31.9447 17.2265 31.9662 17.263 32.0024C17.3 32.0419 17.3197 32.0945 17.3179 32.1486C17.316 32.2026 17.2928 32.2538 17.2533 32.2907C17.2137 32.3276 17.1612 32.3474 17.1071 32.3455C17.053 32.3437 17.0019 32.3205 16.965 32.281L16.9705 32.267Z" fill="url(#paint21_linear_174_769)"/>
<path d="M16.3019 32.7324C16.2871 32.7102 16.2769 32.6853 16.272 32.6591C16.267 32.633 16.2675 32.6061 16.2732 32.58C16.2789 32.554 16.2898 32.5294 16.3053 32.5078C16.3207 32.4861 16.3404 32.4677 16.3631 32.4538C16.397 32.4318 16.4366 32.4204 16.4769 32.4209C16.5173 32.4215 16.5566 32.4341 16.5897 32.457C16.6229 32.48 16.6485 32.5123 16.6633 32.5498C16.6781 32.5874 16.6813 32.6285 16.6727 32.6679C16.664 32.7073 16.6438 32.7433 16.6146 32.7712C16.5854 32.7991 16.5486 32.8177 16.5089 32.8246C16.4691 32.8315 16.4282 32.8264 16.3913 32.81C16.3545 32.7936 16.3233 32.7665 16.3019 32.7324V32.7324Z" fill="url(#paint22_linear_174_769)"/>
<path d="M15.6003 33.1053C15.5769 33.0557 15.5737 32.9989 15.5913 32.9469C15.609 32.8949 15.6462 32.8519 15.695 32.8268C15.7445 32.8026 15.8016 32.799 15.8538 32.8168C15.9059 32.8345 15.949 32.8722 15.9735 32.9215C15.9867 32.9458 15.9947 32.9725 15.997 33.0001C15.9993 33.0276 15.9959 33.0553 15.987 33.0814C15.9781 33.1076 15.9639 33.1316 15.9453 33.152C15.9267 33.1724 15.9041 33.1888 15.8788 33.2C15.8547 33.2141 15.8279 33.2228 15.8002 33.2255C15.7724 33.2283 15.7444 33.2251 15.718 33.2161C15.6916 33.2071 15.6674 33.1926 15.6471 33.1735C15.6268 33.1544 15.6108 33.1311 15.6003 33.1053Z" fill="url(#paint23_linear_174_769)"/>
<path d="M14.8342 33.3616C14.8204 33.3111 14.827 33.2571 14.8525 33.2112C14.878 33.1654 14.9204 33.1314 14.9707 33.1165C15.0213 33.1029 15.0752 33.1089 15.1216 33.1331C15.168 33.1574 15.2037 33.1982 15.2214 33.2474C15.23 33.273 15.2333 33.3001 15.2312 33.327C15.2291 33.3539 15.2216 33.3801 15.2091 33.404C15.1966 33.4279 15.1794 33.4491 15.1586 33.4662C15.1377 33.4834 15.1136 33.4961 15.0877 33.5037C15.0617 33.5113 15.0345 33.5137 15.0076 33.5106C14.9807 33.5076 14.9547 33.4992 14.9311 33.486C14.9075 33.4727 14.8868 33.4549 14.8701 33.4336C14.8535 33.4122 14.8413 33.3878 14.8342 33.3616V33.3616Z" fill="url(#paint24_linear_174_769)"/>
<path d="M14.0433 33.5125C14.0374 33.4597 14.0516 33.4066 14.0831 33.3638C14.1146 33.3209 14.161 33.2915 14.2132 33.2813C14.2658 33.2748 14.3189 33.2889 14.3615 33.3205C14.404 33.3522 14.4327 33.399 14.4416 33.4512C14.446 33.4776 14.445 33.5046 14.4388 33.5306C14.4325 33.5566 14.4212 33.5811 14.4053 33.6026C14.3895 33.6242 14.3695 33.6423 14.3466 33.656C14.3236 33.6697 14.2982 33.6787 14.2717 33.6824C14.2454 33.6872 14.2185 33.6865 14.1925 33.6804C14.1665 33.6743 14.1421 33.6629 14.1207 33.647C14.0992 33.6311 14.0813 33.6109 14.068 33.5878C14.0547 33.5647 14.0463 33.539 14.0433 33.5125V33.5125Z" fill="url(#paint25_linear_174_769)"/>
<path d="M13.2383 33.5346C13.2441 33.4851 13.2679 33.4395 13.3051 33.4064C13.3424 33.3733 13.3904 33.355 13.4403 33.355C13.4901 33.355 13.5381 33.3733 13.5754 33.4064C13.6126 33.4395 13.6364 33.4851 13.6422 33.5346C13.6437 33.5895 13.6235 33.6428 13.586 33.683C13.5484 33.7231 13.4966 33.7469 13.4416 33.749C13.3865 33.7469 13.3343 33.7232 13.2963 33.6832C13.2584 33.6431 13.2375 33.5898 13.2383 33.5346V33.5346Z" fill="url(#paint26_linear_174_769)"/>
<path d="M12.4357 33.4428C12.444 33.3902 12.4725 33.343 12.5152 33.3112C12.558 33.2794 12.6114 33.2657 12.6641 33.2729C12.7163 33.283 12.7628 33.3125 12.7942 33.3553C12.8257 33.3981 12.8399 33.4512 12.8341 33.5041C12.8311 33.5306 12.8226 33.5562 12.8093 33.5793C12.796 33.6025 12.7781 33.6226 12.7567 33.6385C12.7353 33.6545 12.7108 33.6658 12.6849 33.6719C12.6589 33.678 12.6319 33.6787 12.6056 33.674C12.579 33.6706 12.5533 33.6619 12.5302 33.6483C12.5071 33.6347 12.4869 33.6165 12.471 33.5949C12.4551 33.5733 12.4438 33.5486 12.4377 33.5225C12.4317 33.4963 12.431 33.4692 12.4357 33.4428V33.4428Z" fill="url(#paint27_linear_174_769)"/>
<path d="M11.6561 33.2479C11.6727 33.1985 11.7077 33.1573 11.7539 33.1329C11.8 33.1085 11.8538 33.1028 11.904 33.117C11.9431 33.128 11.9781 33.1505 12.0043 33.1816C12.0305 33.2127 12.0468 33.2509 12.0511 33.2913C12.0553 33.3317 12.0474 33.3725 12.0283 33.4084C12.0092 33.4442 11.9797 33.4735 11.9438 33.4925C11.9079 33.5115 11.8671 33.5193 11.8267 33.5148C11.7862 33.5104 11.7481 33.494 11.7171 33.4676C11.6862 33.4413 11.6638 33.4063 11.6529 33.3671C11.642 33.328 11.6432 33.2864 11.6561 33.2479V33.2479Z" fill="url(#paint28_linear_174_769)"/>
<path d="M10.9124 32.9303C10.9369 32.8809 10.98 32.8433 11.0322 32.8256C11.0843 32.8078 11.1414 32.8114 11.1909 32.8356C11.2403 32.8602 11.278 32.903 11.2962 32.9551C11.3144 33.0071 11.3116 33.0641 11.2884 33.1141C11.2782 33.1402 11.2624 33.1637 11.2422 33.1831C11.222 33.2025 11.1979 33.2173 11.1715 33.2266C11.145 33.2359 11.1169 33.2393 11.089 33.2367C11.0612 33.2341 11.0342 33.2256 11.0099 33.2116C10.9843 33.2003 10.9614 33.1839 10.9424 33.1633C10.9235 33.1428 10.909 33.1186 10.8999 33.0922C10.8907 33.0658 10.8871 33.0378 10.8893 33.0099C10.8914 32.9821 10.8993 32.955 10.9124 32.9303V32.9303Z" fill="url(#paint29_linear_174_769)"/>
<path d="M10.2273 32.5095C10.2581 32.4666 10.3044 32.4374 10.3564 32.428C10.4084 32.4187 10.462 32.4299 10.5059 32.4594C10.5284 32.4735 10.5478 32.492 10.563 32.5138C10.5782 32.5356 10.5888 32.5602 10.5943 32.5862C10.5997 32.6122 10.5999 32.6391 10.5948 32.6651C10.5896 32.6912 10.5793 32.7159 10.5644 32.7379C10.5352 32.7825 10.4899 32.8141 10.438 32.8261C10.3861 32.838 10.3315 32.8294 10.2858 32.802C10.2616 32.7876 10.2407 32.7684 10.2244 32.7454C10.2082 32.7225 10.1969 32.6964 10.1914 32.6688C10.1859 32.6412 10.1862 32.6128 10.1924 32.5853C10.1986 32.5579 10.2105 32.532 10.2273 32.5095V32.5095Z" fill="url(#paint30_linear_174_769)"/>
<path d="M9.61715 31.9941C9.65371 31.9579 9.70235 31.9364 9.75376 31.9339C9.80516 31.9313 9.85571 31.9478 9.8957 31.9802C9.93137 32.017 9.95245 32.0656 9.95501 32.1168C9.95758 32.1681 9.94145 32.2185 9.90963 32.2587C9.89242 32.2782 9.87149 32.294 9.84808 32.3053C9.82466 32.3166 9.79923 32.323 9.77328 32.3243C9.74733 32.3256 9.72138 32.3217 9.69696 32.3128C9.67254 32.304 9.65014 32.2903 9.63108 32.2727C9.59242 32.2375 9.56926 32.1884 9.56665 32.1363C9.56404 32.0841 9.5822 32.033 9.61715 31.9941V31.9941Z" fill="url(#paint31_linear_174_769)"/>
<path d="M9.06007 31.3953C9.08035 31.3789 9.10365 31.3668 9.12865 31.3595C9.15364 31.3522 9.17982 31.3499 9.2057 31.3527C9.23158 31.3556 9.25665 31.3635 9.27946 31.3761C9.30226 31.3886 9.32237 31.4056 9.33862 31.4259C9.35594 31.4453 9.36919 31.468 9.3776 31.4927C9.38602 31.5173 9.38941 31.5433 9.3876 31.5693C9.38578 31.5953 9.37878 31.6206 9.36702 31.6438C9.35526 31.667 9.33897 31.6876 9.31912 31.7045C9.27863 31.737 9.22721 31.7529 9.17541 31.7488C9.12361 31.7446 9.07536 31.7208 9.04057 31.6822C9.02266 31.6622 9.00893 31.6389 9.0002 31.6135C8.99146 31.5882 8.9879 31.5614 8.98972 31.5346C8.99154 31.5079 8.9987 31.4817 9.01078 31.4578C9.02286 31.4339 9.03962 31.4126 9.06007 31.3953V31.3953Z" fill="url(#paint32_linear_174_769)"/>
<path d="M8.62291 30.7239C8.66876 30.696 8.72378 30.6874 8.77595 30.7C8.82813 30.7125 8.87324 30.7451 8.90146 30.7908C8.92724 30.8371 8.93468 30.8915 8.9223 30.9431C8.90992 30.9946 8.87863 31.0397 8.83461 31.0693C8.81193 31.083 8.78677 31.0921 8.76057 31.0961C8.73437 31.1001 8.70763 31.0989 8.68189 31.0926C8.65616 31.0862 8.63192 31.0749 8.61057 31.0592C8.58922 31.0435 8.57117 31.0237 8.55745 31.0011C8.54374 30.9784 8.53462 30.9532 8.53063 30.927C8.52663 30.9008 8.52784 30.8741 8.53417 30.8483C8.54051 30.8226 8.55185 30.7984 8.56756 30.777C8.58326 30.7557 8.60302 30.7376 8.6257 30.7239H8.62291Z" fill="url(#paint33_linear_174_769)"/>
<path d="M8.28249 29.9944C8.30642 29.9845 8.33209 29.9794 8.35801 29.9795C8.38392 29.9796 8.40956 29.9848 8.43342 29.995C8.45728 30.0051 8.47888 30.0198 8.49697 30.0384C8.51506 30.057 8.52926 30.0789 8.53875 30.1031C8.55956 30.1511 8.56071 30.2055 8.54197 30.2544C8.52323 30.3033 8.48608 30.343 8.43848 30.3649C8.41344 30.3766 8.38634 30.3832 8.35874 30.3843C8.33115 30.3854 8.3036 30.3811 8.2777 30.3715C8.25179 30.3619 8.22804 30.3473 8.20783 30.3284C8.18761 30.3096 8.17133 30.287 8.15993 30.2618C8.14976 30.2363 8.14487 30.2089 8.14557 30.1815C8.14627 30.154 8.15254 30.1269 8.164 30.1019C8.17546 30.0769 8.19187 30.0545 8.21223 30.036C8.2326 30.0175 8.2565 30.0034 8.28249 29.9944V29.9944Z" fill="url(#paint34_linear_174_769)"/>
<path d="M8.04566 29.2225C8.09733 29.2095 8.152 29.2171 8.19822 29.2436C8.24443 29.2701 8.27861 29.3134 8.29357 29.3645C8.30434 29.4165 8.29549 29.4705 8.26874 29.5163C8.24199 29.5621 8.19923 29.5963 8.14872 29.6125C8.12311 29.6192 8.09643 29.6209 8.07018 29.6173C8.04393 29.6138 8.01864 29.6051 7.99575 29.5918C7.97286 29.5785 7.95282 29.5608 7.93677 29.5397C7.92072 29.5186 7.90897 29.4946 7.9022 29.469C7.89544 29.4434 7.89378 29.4167 7.89732 29.3905C7.90087 29.3642 7.90955 29.3389 7.92287 29.316C7.93619 29.2931 7.95389 29.2731 7.97496 29.257C7.99603 29.241 8.02005 29.2293 8.04566 29.2225V29.2225Z" fill="url(#paint35_linear_174_769)"/>
<path d="M7.94544 28.4288C7.99807 28.4249 8.05016 28.4416 8.0907 28.4754C8.13125 28.5091 8.15707 28.5574 8.16271 28.6098C8.16825 28.6618 8.15331 28.7138 8.12105 28.7549C8.0888 28.796 8.04178 28.8229 7.99001 28.8299C7.96311 28.8334 7.93579 28.8316 7.90961 28.8245C7.88342 28.8175 7.85888 28.8053 7.83741 28.7887C7.81593 28.7722 7.79793 28.7515 7.78444 28.728C7.77096 28.7045 7.76225 28.6785 7.75881 28.6516C7.75613 28.6247 7.75886 28.5975 7.76684 28.5716C7.77482 28.5457 7.78788 28.5217 7.80526 28.501C7.82264 28.4802 7.844 28.4631 7.86807 28.4507C7.89214 28.4383 7.91844 28.4309 7.94544 28.4288Z" fill="url(#paint36_linear_174_769)"/>
<path d="M7.9456 27.6182C7.99855 27.6211 8.04828 27.6445 8.08419 27.6835C8.12009 27.7226 8.13933 27.7741 8.1378 27.8271C8.13356 27.88 8.10931 27.9294 8.06998 27.9651C8.03066 28.0008 7.97921 28.0202 7.9261 28.0193C7.89964 28.0193 7.87346 28.014 7.84919 28.0034C7.82491 27.9929 7.80307 27.9775 7.78503 27.9582C7.76698 27.9388 7.75313 27.9159 7.74433 27.891C7.73554 27.866 7.73199 27.8395 7.7339 27.8132C7.73422 27.7862 7.74003 27.7596 7.751 27.735C7.76197 27.7104 7.77785 27.6882 7.79768 27.67C7.8175 27.6517 7.84085 27.6377 7.86628 27.6288C7.89172 27.6199 7.91871 27.6163 7.9456 27.6182V27.6182Z" fill="url(#paint37_linear_174_769)"/>
<path d="M8.04615 26.819C8.09732 26.831 8.14219 26.8615 8.17205 26.9048C8.20192 26.948 8.21462 27.0008 8.20771 27.0529C8.2053 27.0812 8.19702 27.1086 8.18341 27.1334C8.16979 27.1583 8.15113 27.18 8.12863 27.1972C8.10613 27.2144 8.08029 27.2267 8.05275 27.2333C8.02521 27.24 7.99659 27.2408 7.96872 27.2357C7.94085 27.2307 7.91435 27.2198 7.89091 27.2039C7.86747 27.188 7.84762 27.1674 7.83262 27.1434C7.81762 27.1193 7.8078 27.0924 7.8038 27.0644C7.7998 27.0364 7.8017 27.0078 7.80938 26.9805C7.8133 26.9539 7.82271 26.9283 7.83699 26.9055C7.85128 26.8827 7.87013 26.8631 7.89238 26.8479C7.91462 26.8327 7.93977 26.8223 7.96624 26.8173C7.9927 26.8123 8.01991 26.8129 8.04615 26.819V26.819Z" fill="url(#paint38_linear_174_769)"/>
<path d="M8.2822 26.0474C8.33109 26.0668 8.37072 26.1041 8.39299 26.1517C8.41525 26.1994 8.41847 26.2537 8.40198 26.3036C8.38313 26.3525 8.34661 26.3925 8.29967 26.4157C8.25272 26.4389 8.19877 26.4437 8.1485 26.429C8.1224 26.4219 8.09811 26.4093 8.0772 26.3922C8.05628 26.3751 8.03922 26.3537 8.02713 26.3295C8.01503 26.3053 8.00818 26.2789 8.00701 26.2518C8.00585 26.2248 8.0104 26.1979 8.02036 26.1727C8.02911 26.1471 8.04286 26.1236 8.06082 26.1034C8.07879 26.0832 8.10059 26.0668 8.12497 26.0551C8.14935 26.0434 8.17581 26.0367 8.20281 26.0354C8.22981 26.0341 8.2568 26.0381 8.2822 26.0474V26.0474Z" fill="url(#paint39_linear_174_769)"/>
<path d="M8.62214 25.3173C8.66901 25.3443 8.70379 25.3882 8.71933 25.44C8.73486 25.4918 8.72999 25.5476 8.70571 25.5959C8.69426 25.6209 8.67771 25.6433 8.65712 25.6616C8.63653 25.6798 8.61235 25.6936 8.58613 25.702C8.55991 25.7104 8.53222 25.7132 8.50485 25.7103C8.47748 25.7074 8.45101 25.6988 8.42716 25.685C8.40217 25.6735 8.37982 25.657 8.3615 25.6365C8.34318 25.6159 8.32927 25.5919 8.32065 25.5657C8.31203 25.5396 8.30887 25.512 8.31138 25.4846C8.31389 25.4572 8.32201 25.4306 8.33524 25.4065C8.34615 25.3799 8.36278 25.3561 8.38396 25.3368C8.40513 25.3174 8.43032 25.3029 8.45772 25.2944C8.48513 25.2859 8.51407 25.2836 8.54249 25.2875C8.57092 25.2915 8.59811 25.3017 8.62214 25.3173V25.3173Z" fill="url(#paint40_linear_174_769)"/>
<path d="M9.05966 24.6461C9.10168 24.6778 9.12979 24.7245 9.1381 24.7764C9.14641 24.8283 9.13427 24.8815 9.10423 24.9247C9.0714 24.965 9.02484 24.9919 8.97346 25.0001C8.92208 25.0083 8.86948 24.9973 8.82568 24.9692C8.80343 24.9548 8.78442 24.9358 8.76984 24.9136C8.75527 24.8915 8.74545 24.8665 8.741 24.8403C8.73655 24.8142 8.73757 24.7873 8.744 24.7616C8.75042 24.7358 8.76211 24.7117 8.77833 24.6907C8.81004 24.6479 8.85728 24.6192 8.90989 24.6109C8.9625 24.6026 9.01628 24.6152 9.05966 24.6461V24.6461Z" fill="url(#paint41_linear_174_769)"/>
<path d="M9.61655 24.0444C9.65081 24.0827 9.66974 24.1322 9.66974 24.1836C9.66974 24.235 9.65081 24.2846 9.61655 24.3229C9.59997 24.3474 9.57819 24.3678 9.55278 24.3829C9.52737 24.398 9.49894 24.4072 9.46953 24.41C9.44013 24.4128 9.41046 24.4091 9.38267 24.3991C9.35487 24.3891 9.32963 24.3731 9.30874 24.3522C9.28785 24.3313 9.27184 24.306 9.26184 24.2782C9.25184 24.2504 9.2481 24.2208 9.2509 24.1914C9.25369 24.162 9.26295 24.1335 9.27801 24.1081C9.29306 24.0827 9.31355 24.0609 9.338 24.0444C9.35615 24.0258 9.37782 24.0111 9.40174 24.0011C9.42565 23.991 9.45133 23.9858 9.47727 23.9858C9.50321 23.9858 9.52889 23.991 9.55281 24.0011C9.57672 24.0111 9.59839 24.0258 9.61655 24.0444Z" fill="url(#paint42_linear_174_769)"/>
<path d="M10.2268 23.5316C10.2581 23.5739 10.2716 23.6268 10.2643 23.6789C10.257 23.731 10.2295 23.7781 10.1878 23.8102C10.1449 23.8392 10.0929 23.8516 10.0416 23.8449C9.9903 23.8383 9.94319 23.813 9.90922 23.774C9.89245 23.7537 9.88003 23.7301 9.87274 23.7048C9.86545 23.6795 9.86344 23.653 9.86684 23.6268C9.87023 23.6007 9.87897 23.5756 9.89248 23.553C9.906 23.5304 9.92402 23.5108 9.94543 23.4954C9.96628 23.4793 9.9901 23.4675 10.0155 23.4606C10.0409 23.4537 10.0675 23.4519 10.0936 23.4553C10.1197 23.4586 10.1449 23.4671 10.1678 23.4802C10.1906 23.4933 10.2107 23.5108 10.2268 23.5316V23.5316Z" fill="url(#paint43_linear_174_769)"/>
<path d="M10.9122 23.1084C10.9377 23.1559 10.9438 23.2114 10.9292 23.2634C10.9147 23.3153 10.8807 23.3595 10.8342 23.3869C10.8112 23.4005 10.7857 23.4094 10.7592 23.4131C10.7328 23.4168 10.7058 23.4152 10.6799 23.4085C10.6541 23.4018 10.6298 23.39 10.6085 23.3739C10.5871 23.3578 10.5692 23.3376 10.5557 23.3145C10.5293 23.2675 10.5224 23.212 10.5364 23.1599C10.5505 23.1078 10.5844 23.0633 10.6309 23.036C10.6538 23.0212 10.6796 23.0113 10.7065 23.0069C10.7334 23.0026 10.761 23.0038 10.7874 23.0106C10.8138 23.0174 10.8386 23.0296 10.86 23.0465C10.8815 23.0633 10.8993 23.0844 10.9122 23.1084V23.1084Z" fill="url(#paint44_linear_174_769)"/>
<path d="M11.6563 22.7935C11.6738 22.8435 11.6714 22.8982 11.6496 22.9464C11.6278 22.9947 11.5884 23.0327 11.5393 23.0526C11.489 23.0695 11.4341 23.0668 11.3856 23.0452C11.3371 23.0235 11.2985 22.9844 11.2775 22.9356C11.2669 22.911 11.2615 22.8845 11.2617 22.8578C11.2619 22.831 11.2677 22.8046 11.2788 22.7802C11.2898 22.7558 11.3058 22.734 11.3257 22.7162C11.3456 22.6983 11.369 22.6848 11.3945 22.6765C11.4193 22.6663 11.4459 22.6612 11.4727 22.6616C11.4996 22.662 11.526 22.6679 11.5505 22.6788C11.575 22.6898 11.597 22.7056 11.6152 22.7253C11.6334 22.745 11.6474 22.7682 11.6563 22.7935V22.7935Z" fill="url(#paint45_linear_174_769)"/>
<path d="M12.4362 22.5794C12.4447 22.6313 12.4334 22.6845 12.4045 22.7283C12.3756 22.7722 12.3312 22.8036 12.2802 22.8162C12.2289 22.828 12.175 22.8191 12.1302 22.7915C12.0854 22.7638 12.0532 22.7197 12.0407 22.6686C12.0281 22.6154 12.0372 22.5594 12.0659 22.5129C12.0947 22.4664 12.1407 22.4332 12.1939 22.4207C12.2202 22.4146 12.2476 22.4139 12.2742 22.4186C12.3009 22.4234 12.3263 22.4335 12.3489 22.4483C12.3716 22.4632 12.391 22.4824 12.406 22.505C12.421 22.5275 12.4313 22.5528 12.4362 22.5794V22.5794Z" fill="url(#paint46_linear_174_769)"/>
<path d="M13.2377 22.5067C13.2408 22.5594 13.2229 22.6112 13.188 22.6509C13.153 22.6905 13.1038 22.7148 13.0511 22.7184C12.9983 22.7187 12.9472 22.6996 12.9077 22.6646C12.8681 22.6297 12.8428 22.5814 12.8366 22.5289C12.8331 22.5023 12.8352 22.4752 12.843 22.4494C12.8507 22.4236 12.8638 22.3998 12.8815 22.3795C12.8991 22.3592 12.9209 22.3429 12.9454 22.3317C12.9698 22.3205 12.9964 22.3146 13.0233 22.3145C13.0501 22.3126 13.077 22.3161 13.1024 22.3248C13.1278 22.3335 13.1512 22.3472 13.1712 22.3652C13.1912 22.3831 13.2074 22.4048 13.2188 22.4292C13.2303 22.4535 13.2367 22.4798 13.2377 22.5067V22.5067Z" fill="url(#paint47_linear_174_769)"/>
<path d="M14.0428 22.5292C14.0354 22.5816 14.0094 22.6296 13.9695 22.6644C13.9296 22.6992 13.8784 22.7184 13.8255 22.7186C13.773 22.7143 13.7243 22.6898 13.6895 22.6504C13.6547 22.6109 13.6365 22.5595 13.6389 22.5069C13.6399 22.4798 13.6464 22.4532 13.658 22.4287C13.6696 22.4042 13.6861 22.3823 13.7064 22.3643C13.7267 22.3463 13.7504 22.3327 13.7762 22.3241C13.8019 22.3156 13.8291 22.3124 13.8561 22.3147C13.8829 22.3153 13.9092 22.3214 13.9335 22.3328C13.9577 22.3442 13.9793 22.3605 13.9969 22.3807C14.0144 22.4009 14.0276 22.4245 14.0355 22.4501C14.0434 22.4756 14.0459 22.5026 14.0428 22.5292V22.5292Z" fill="url(#paint48_linear_174_769)"/>
<path d="M14.8341 22.6793C14.8282 22.7048 14.8173 22.7289 14.8021 22.7501C14.7868 22.7714 14.7675 22.7894 14.7452 22.8032C14.7229 22.8169 14.6981 22.8261 14.6723 22.8301C14.6464 22.8342 14.62 22.8331 14.5946 22.8269C14.5441 22.8137 14.5003 22.7821 14.472 22.7383C14.4436 22.6945 14.4327 22.6416 14.4414 22.5902C14.446 22.5637 14.4559 22.5384 14.4707 22.5159C14.4854 22.4933 14.5045 22.4741 14.527 22.4592C14.5494 22.4443 14.5746 22.4342 14.6011 22.4294C14.6275 22.4246 14.6547 22.4253 14.6809 22.4314C14.7341 22.444 14.7801 22.4771 14.8088 22.5236C14.8376 22.5701 14.8467 22.6261 14.8341 22.6793Z" fill="url(#paint49_linear_174_769)"/>
<path d="M15.6001 22.9356C15.5786 22.9839 15.54 23.0226 15.4916 23.0442C15.4433 23.0658 15.3887 23.0688 15.3383 23.0525C15.2888 23.0332 15.2489 22.9953 15.227 22.9469C15.2051 22.8984 15.2031 22.8434 15.2213 22.7935C15.2299 22.768 15.2437 22.7445 15.2618 22.7245C15.2799 22.7046 15.302 22.6886 15.3266 22.6776C15.3512 22.6666 15.3778 22.6608 15.4047 22.6606C15.4317 22.6605 15.4584 22.6659 15.4831 22.6765C15.5086 22.6848 15.532 22.6983 15.5519 22.7161C15.5719 22.734 15.5879 22.7558 15.5989 22.7802C15.6099 22.8046 15.6157 22.831 15.6159 22.8577C15.6161 22.8845 15.6107 22.911 15.6001 22.9356V22.9356Z" fill="url(#paint50_linear_174_769)"/>
<path d="M16.3023 23.3091C16.289 23.3325 16.2712 23.3529 16.2499 23.3693C16.2286 23.3856 16.2043 23.3975 16.1783 23.4042C16.1523 23.411 16.1253 23.4125 16.0987 23.4086C16.0721 23.4047 16.0466 23.3955 16.0237 23.3816C15.9778 23.3537 15.9442 23.3094 15.9297 23.2577C15.9152 23.206 15.921 23.1507 15.9457 23.103C15.9582 23.079 15.9755 23.0577 15.9965 23.0405C16.0174 23.0234 16.0417 23.0106 16.0677 23.0031C16.0938 22.9955 16.121 22.9933 16.148 22.9966C16.1749 22.9999 16.2008 23.0086 16.2243 23.0222C16.2486 23.0355 16.2701 23.0536 16.2873 23.0754C16.3045 23.0972 16.3171 23.1223 16.3244 23.1491C16.3317 23.1759 16.3335 23.2038 16.3297 23.2314C16.3259 23.2589 16.3165 23.2853 16.3023 23.3091V23.3091Z" fill="url(#paint51_linear_174_769)"/>
<path d="M16.9704 23.774C16.9364 23.8131 16.8893 23.8383 16.838 23.845C16.7867 23.8517 16.7347 23.8393 16.6918 23.8103C16.6511 23.7774 16.6247 23.7301 16.6179 23.6782C16.6112 23.6264 16.6247 23.5739 16.6556 23.5317C16.6713 23.5107 16.6909 23.4931 16.7134 23.4797C16.7359 23.4664 16.7609 23.4577 16.7868 23.4541C16.8127 23.4504 16.839 23.452 16.8643 23.4586C16.8896 23.4652 16.9134 23.4768 16.9342 23.4927C16.9564 23.5078 16.9751 23.5274 16.9891 23.5502C17.0032 23.5731 17.0122 23.5986 17.0156 23.6252C17.0191 23.6518 17.0168 23.6788 17.009 23.7045C17.0012 23.7301 16.988 23.7539 16.9704 23.774V23.774Z" fill="url(#paint52_linear_174_769)"/>
<path d="M17.5468 24.3369C17.5094 24.373 17.4595 24.3931 17.4076 24.3931C17.3556 24.3931 17.3057 24.373 17.2683 24.3369C17.2357 24.2978 17.2178 24.2485 17.2178 24.1976C17.2178 24.1467 17.2357 24.0974 17.2683 24.0583C17.3053 24.0216 17.3554 24.001 17.4076 24.001C17.4597 24.001 17.5098 24.0216 17.5468 24.0583C17.5823 24.096 17.602 24.1459 17.602 24.1976C17.602 24.2494 17.5823 24.2992 17.5468 24.3369Z" fill="url(#paint53_linear_174_769)"/>
<path d="M18.0458 24.9722C18.002 25.0003 17.9494 25.0113 17.8981 25.0031C17.8467 24.9949 17.8001 24.968 17.7673 24.9276C17.7488 24.9063 17.735 24.8813 17.7267 24.8544C17.7184 24.8274 17.7159 24.799 17.7192 24.7709C17.7225 24.7429 17.7315 24.7159 17.7458 24.6916C17.7602 24.6672 17.7794 24.6462 17.8023 24.6297C17.8252 24.6132 17.8512 24.6016 17.8788 24.5957C17.9064 24.5899 17.935 24.5898 17.9626 24.5956C17.9902 24.6013 18.0163 24.6128 18.0393 24.6292C18.0623 24.6456 18.0816 24.6666 18.096 24.6909C18.1121 24.7123 18.1237 24.7368 18.1299 24.7629C18.1362 24.789 18.137 24.8161 18.1322 24.8425C18.1275 24.8689 18.1174 24.894 18.1026 24.9163C18.0877 24.9387 18.0684 24.9577 18.0458 24.9722V24.9722Z" fill="url(#paint54_linear_174_769)"/>
<path d="M18.4362 25.6769C18.4123 25.6902 18.3858 25.6985 18.3586 25.7012C18.3313 25.7039 18.3038 25.701 18.2777 25.6926C18.2515 25.6843 18.2274 25.6706 18.2068 25.6526C18.1862 25.6346 18.1694 25.6125 18.1577 25.5878C18.1336 25.5391 18.1292 25.4831 18.1452 25.4312C18.1613 25.3794 18.1967 25.3357 18.244 25.3092C18.2675 25.2945 18.2938 25.285 18.3213 25.2814C18.3488 25.2778 18.3767 25.2802 18.4031 25.2884C18.4296 25.2966 18.454 25.3104 18.4746 25.3289C18.4952 25.3474 18.5116 25.3701 18.5226 25.3956C18.5364 25.4195 18.5452 25.446 18.5484 25.4734C18.5515 25.5009 18.549 25.5287 18.5408 25.5551C18.5327 25.5815 18.5193 25.606 18.5013 25.6269C18.4832 25.6479 18.4611 25.6649 18.4362 25.6769V25.6769Z" fill="url(#paint55_linear_174_769)"/>
<path d="M18.7283 26.4289C18.6776 26.4437 18.6232 26.4391 18.5758 26.4159C18.5284 26.3927 18.4914 26.3526 18.472 26.3035C18.4557 26.2533 18.4593 26.1986 18.4821 26.1509C18.5049 26.1032 18.5452 26.0661 18.5946 26.0473C18.6198 26.0381 18.6466 26.0341 18.6734 26.0354C18.7002 26.0368 18.7264 26.0435 18.7506 26.0552C18.7747 26.0669 18.7963 26.0833 18.814 26.1035C18.8317 26.1236 18.8452 26.1472 18.8536 26.1726C18.8641 26.1975 18.8691 26.2244 18.8683 26.2514C18.8676 26.2784 18.861 26.305 18.8491 26.3292C18.8373 26.3535 18.8203 26.375 18.7995 26.3921C18.7786 26.4093 18.7543 26.4219 18.7283 26.4289V26.4289Z" fill="url(#paint56_linear_174_769)"/>
<path d="M18.8986 27.2173C18.8466 27.2254 18.7935 27.2126 18.7508 27.1819C18.708 27.1512 18.6791 27.1048 18.6702 27.0529C18.6625 27.0011 18.6746 26.9483 18.704 26.905C18.7334 26.8617 18.778 26.831 18.829 26.819C18.8552 26.8129 18.8824 26.8123 18.9089 26.8173C18.9354 26.8223 18.9605 26.8327 18.9828 26.8479C19.005 26.8631 19.0239 26.8827 19.0382 26.9055C19.0524 26.9283 19.0618 26.9539 19.0658 26.9805C19.0706 27.0071 19.07 27.0343 19.0642 27.0606C19.0584 27.087 19.0473 27.1119 19.0318 27.1339C19.0162 27.1559 18.9964 27.1747 18.9736 27.189C18.9507 27.2033 18.9253 27.2129 18.8986 27.2173V27.2173Z" fill="url(#paint57_linear_174_769)"/>
<path d="M18.9618 28.0193C18.9087 28.0202 18.8572 28.0008 18.8179 27.9651C18.7786 27.9294 18.7543 27.88 18.7501 27.8271C18.7486 27.7741 18.7678 27.7226 18.8037 27.6835C18.8396 27.6445 18.8893 27.6211 18.9423 27.6182C18.9692 27.6163 18.9962 27.6199 19.0216 27.6288C19.047 27.6377 19.0704 27.6517 19.0902 27.67C19.11 27.6882 19.1259 27.7104 19.1369 27.735C19.1478 27.7596 19.1537 27.7862 19.154 27.8132C19.1559 27.8395 19.1523 27.866 19.1435 27.891C19.1347 27.9159 19.1209 27.9388 19.1029 27.9582C19.0848 27.9775 19.063 27.9929 19.0387 28.0034C19.0144 28.014 18.9882 28.0193 18.9618 28.0193V28.0193Z" fill="url(#paint58_linear_174_769)"/>
</g>
<g style="mix-blend-mode:multiply" opacity="0.85">
<path d="M18.8983 28.8245C18.8726 28.8214 18.8478 28.8133 18.8253 28.8005C18.8028 28.7877 18.783 28.7706 18.7672 28.7501C18.7514 28.7296 18.7398 28.7062 18.7332 28.6812C18.7265 28.6562 18.7249 28.6301 18.7284 28.6045C18.7333 28.5522 18.7586 28.504 18.7987 28.4702C18.8388 28.4363 18.8905 28.4195 18.9429 28.4234C18.9717 28.423 19.0002 28.4288 19.0267 28.4403C19.0531 28.4518 19.0768 28.4688 19.0961 28.4901C19.1155 28.5115 19.1301 28.5367 19.1389 28.5641C19.1478 28.5915 19.1508 28.6205 19.1476 28.6492C19.1444 28.6778 19.1352 28.7055 19.1205 28.7303C19.1058 28.7551 19.086 28.7765 19.0625 28.7931C19.0389 28.8096 19.0121 28.821 18.9838 28.8264C18.9554 28.8319 18.9263 28.8312 18.8983 28.8245V28.8245Z" fill="url(#paint59_linear_174_769)"/>
<path d="M18.7279 29.6124C18.677 29.5968 18.6339 29.5627 18.607 29.5167C18.5802 29.4708 18.5716 29.4164 18.5831 29.3645C18.5974 29.3136 18.631 29.2702 18.6768 29.2437C18.7226 29.2172 18.7769 29.2096 18.8282 29.2224C18.8538 29.229 18.8779 29.2406 18.899 29.2564C18.9201 29.2723 18.9379 29.2922 18.9514 29.315C18.9648 29.3377 18.9737 29.3629 18.9774 29.3891C18.9811 29.4153 18.9796 29.4419 18.973 29.4675C18.9664 29.4931 18.9549 29.5172 18.939 29.5383C18.9231 29.5595 18.9032 29.5773 18.8805 29.5907C18.8577 29.6042 18.8325 29.613 18.8063 29.6167C18.7802 29.6204 18.7535 29.619 18.7279 29.6124V29.6124Z" fill="url(#paint60_linear_174_769)"/>
<path d="M18.4356 30.3786C18.388 30.3567 18.351 30.3169 18.3327 30.2678C18.3145 30.2187 18.3164 30.1644 18.3381 30.1167C18.3476 30.0926 18.3618 30.0706 18.3799 30.0521C18.398 30.0335 18.4196 30.0187 18.4435 30.0086C18.4673 29.9985 18.493 29.9933 18.5189 29.9932C18.5448 29.9931 18.5705 29.9982 18.5944 30.0081C18.6211 30.0178 18.6454 30.0329 18.6658 30.0525C18.6863 30.0722 18.7024 30.0959 18.7132 30.1221C18.7239 30.1483 18.7291 30.1765 18.7283 30.2049C18.7275 30.2332 18.7208 30.2611 18.7086 30.2866C18.6836 30.3341 18.6413 30.3701 18.5905 30.3872C18.5397 30.4043 18.4842 30.4012 18.4356 30.3786V30.3786Z" fill="url(#paint61_linear_174_769)"/>
<path d="M18.0456 31.0694C17.9998 31.0417 17.9669 30.9969 17.9541 30.9449C17.9413 30.8929 17.9497 30.838 17.9774 30.7922C18.0051 30.7464 18.0498 30.7135 18.1018 30.7007C18.1538 30.6879 18.2087 30.6963 18.2545 30.724C18.2772 30.7377 18.297 30.7557 18.3127 30.7771C18.3284 30.7984 18.3397 30.8227 18.3461 30.8484C18.3524 30.8741 18.3536 30.9009 18.3496 30.9271C18.3456 30.9533 18.3365 30.9784 18.3228 31.0011C18.3091 31.0238 18.291 31.0435 18.2697 31.0593C18.2483 31.075 18.2241 31.0863 18.1983 31.0926C18.1726 31.099 18.1459 31.1002 18.1197 31.0962C18.0935 31.0922 18.0683 31.0831 18.0456 31.0694V31.0694Z" fill="url(#paint62_linear_174_769)"/>
<path d="M17.5471 31.7045C17.5083 31.6697 17.4846 31.6211 17.481 31.5691C17.4773 31.5171 17.4941 31.4658 17.5276 31.4259C17.5439 31.4056 17.564 31.3886 17.5868 31.3761C17.6096 31.3635 17.6347 31.3556 17.6606 31.3527C17.6864 31.3499 17.7126 31.3522 17.7376 31.3595C17.7626 31.3668 17.7859 31.3789 17.8062 31.3953C17.8471 31.4281 17.8735 31.4757 17.8797 31.5277C17.886 31.5798 17.8716 31.6322 17.8396 31.6738C17.8047 31.7164 17.7545 31.7436 17.6997 31.7493C17.6449 31.7551 17.5901 31.7389 17.5471 31.7045V31.7045Z" fill="url(#paint63_linear_174_769)"/>
<path d="M16.9705 32.267C16.9393 32.2266 16.9235 32.1763 16.926 32.1252C16.9286 32.0741 16.9493 32.0256 16.9845 31.9885C17.0245 31.9561 17.075 31.9396 17.1264 31.9422C17.1778 31.9447 17.2265 31.9662 17.263 32.0024C17.3 32.0419 17.3197 32.0945 17.3179 32.1486C17.316 32.2026 17.2928 32.2538 17.2533 32.2907C17.2137 32.3276 17.1612 32.3474 17.1071 32.3455C17.053 32.3437 17.0019 32.3205 16.965 32.281L16.9705 32.267Z" fill="url(#paint64_linear_174_769)"/>
<path d="M16.3019 32.7324C16.2871 32.7102 16.2769 32.6853 16.272 32.6591C16.267 32.633 16.2675 32.6061 16.2732 32.58C16.2789 32.554 16.2898 32.5294 16.3053 32.5078C16.3207 32.4861 16.3404 32.4677 16.3631 32.4538C16.397 32.4318 16.4366 32.4204 16.4769 32.4209C16.5173 32.4215 16.5566 32.4341 16.5897 32.457C16.6229 32.48 16.6485 32.5123 16.6633 32.5498C16.6781 32.5874 16.6813 32.6285 16.6727 32.6679C16.664 32.7073 16.6438 32.7433 16.6146 32.7712C16.5854 32.7991 16.5486 32.8177 16.5089 32.8246C16.4691 32.8315 16.4282 32.8264 16.3913 32.81C16.3545 32.7936 16.3233 32.7665 16.3019 32.7324V32.7324Z" fill="url(#paint65_linear_174_769)"/>
<path d="M15.6003 33.1053C15.5769 33.0557 15.5737 32.9989 15.5913 32.9469C15.609 32.8949 15.6462 32.8519 15.695 32.8268C15.7445 32.8026 15.8016 32.799 15.8538 32.8168C15.9059 32.8345 15.949 32.8722 15.9735 32.9215C15.9867 32.9458 15.9947 32.9725 15.997 33.0001C15.9993 33.0276 15.9959 33.0553 15.987 33.0814C15.9781 33.1076 15.9639 33.1316 15.9453 33.152C15.9267 33.1724 15.9041 33.1888 15.8788 33.2C15.8547 33.2141 15.8279 33.2228 15.8002 33.2255C15.7724 33.2283 15.7444 33.2251 15.718 33.2161C15.6916 33.2071 15.6674 33.1926 15.6471 33.1735C15.6268 33.1544 15.6108 33.1311 15.6003 33.1053Z" fill="url(#paint66_linear_174_769)"/>
<path d="M14.8342 33.3616C14.8204 33.3111 14.827 33.2571 14.8525 33.2112C14.878 33.1654 14.9204 33.1314 14.9707 33.1165C15.0213 33.1029 15.0752 33.1089 15.1216 33.1331C15.168 33.1574 15.2037 33.1982 15.2214 33.2474C15.23 33.273 15.2333 33.3001 15.2312 33.327C15.2291 33.3539 15.2216 33.3801 15.2091 33.404C15.1966 33.4279 15.1794 33.4491 15.1586 33.4662C15.1377 33.4834 15.1136 33.4961 15.0877 33.5037C15.0617 33.5113 15.0345 33.5137 15.0076 33.5106C14.9807 33.5076 14.9547 33.4992 14.9311 33.486C14.9075 33.4727 14.8868 33.4549 14.8701 33.4336C14.8535 33.4122 14.8413 33.3878 14.8342 33.3616V33.3616Z" fill="url(#paint67_linear_174_769)"/>
<path d="M14.0433 33.5125C14.0374 33.4597 14.0516 33.4066 14.0831 33.3638C14.1146 33.3209 14.161 33.2915 14.2132 33.2813C14.2658 33.2748 14.3189 33.2889 14.3615 33.3205C14.404 33.3522 14.4327 33.399 14.4416 33.4512C14.446 33.4776 14.445 33.5046 14.4388 33.5306C14.4325 33.5566 14.4212 33.5811 14.4053 33.6026C14.3895 33.6242 14.3695 33.6423 14.3466 33.656C14.3236 33.6697 14.2982 33.6787 14.2717 33.6824C14.2454 33.6872 14.2185 33.6865 14.1925 33.6804C14.1665 33.6743 14.1421 33.6629 14.1207 33.647C14.0992 33.6311 14.0813 33.6109 14.068 33.5878C14.0547 33.5647 14.0463 33.539 14.0433 33.5125V33.5125Z" fill="url(#paint68_linear_174_769)"/>
<path d="M13.2383 33.5346C13.2441 33.4851 13.2679 33.4395 13.3051 33.4064C13.3424 33.3733 13.3904 33.355 13.4403 33.355C13.4901 33.355 13.5381 33.3733 13.5754 33.4064C13.6126 33.4395 13.6364 33.4851 13.6422 33.5346C13.6437 33.5895 13.6235 33.6428 13.586 33.683C13.5484 33.7231 13.4966 33.7469 13.4416 33.749C13.3865 33.7469 13.3343 33.7232 13.2963 33.6832C13.2584 33.6431 13.2375 33.5898 13.2383 33.5346V33.5346Z" fill="url(#paint69_linear_174_769)"/>
<path d="M12.4357 33.4428C12.444 33.3902 12.4725 33.343 12.5152 33.3112C12.558 33.2794 12.6114 33.2657 12.6641 33.2729C12.7163 33.283 12.7628 33.3125 12.7942 33.3553C12.8257 33.3981 12.8399 33.4512 12.8341 33.5041C12.8311 33.5306 12.8226 33.5562 12.8093 33.5793C12.796 33.6025 12.7781 33.6226 12.7567 33.6385C12.7353 33.6545 12.7108 33.6658 12.6849 33.6719C12.6589 33.678 12.6319 33.6787 12.6056 33.674C12.579 33.6706 12.5533 33.6619 12.5302 33.6483C12.5071 33.6347 12.4869 33.6165 12.471 33.5949C12.4551 33.5733 12.4438 33.5486 12.4377 33.5225C12.4317 33.4963 12.431 33.4692 12.4357 33.4428V33.4428Z" fill="url(#paint70_linear_174_769)"/>
<path d="M11.6561 33.2479C11.6727 33.1985 11.7077 33.1573 11.7539 33.1329C11.8 33.1085 11.8538 33.1028 11.904 33.117C11.9431 33.128 11.9781 33.1505 12.0043 33.1816C12.0305 33.2127 12.0468 33.2509 12.0511 33.2913C12.0553 33.3317 12.0474 33.3725 12.0283 33.4084C12.0092 33.4442 11.9797 33.4735 11.9438 33.4925C11.9079 33.5115 11.8671 33.5193 11.8267 33.5148C11.7862 33.5104 11.7481 33.494 11.7171 33.4676C11.6862 33.4413 11.6638 33.4063 11.6529 33.3671C11.642 33.328 11.6432 33.2864 11.6561 33.2479V33.2479Z" fill="url(#paint71_linear_174_769)"/>
<path d="M10.9124 32.9303C10.9369 32.8809 10.98 32.8433 11.0322 32.8256C11.0843 32.8078 11.1414 32.8114 11.1909 32.8356C11.2403 32.8602 11.278 32.903 11.2962 32.9551C11.3144 33.0071 11.3116 33.0641 11.2884 33.1141C11.2782 33.1402 11.2624 33.1637 11.2422 33.1831C11.222 33.2025 11.1979 33.2173 11.1715 33.2266C11.145 33.2359 11.1169 33.2393 11.089 33.2367C11.0612 33.2341 11.0342 33.2256 11.0099 33.2116C10.9843 33.2003 10.9614 33.1839 10.9424 33.1633C10.9235 33.1428 10.909 33.1186 10.8999 33.0922C10.8907 33.0658 10.8871 33.0378 10.8893 33.0099C10.8914 32.9821 10.8993 32.955 10.9124 32.9303V32.9303Z" fill="url(#paint72_linear_174_769)"/>
<path d="M10.2273 32.5095C10.2581 32.4666 10.3044 32.4374 10.3564 32.428C10.4084 32.4187 10.462 32.4299 10.5059 32.4594C10.5284 32.4735 10.5478 32.492 10.563 32.5138C10.5782 32.5356 10.5888 32.5602 10.5943 32.5862C10.5997 32.6122 10.5999 32.6391 10.5948 32.6651C10.5896 32.6912 10.5793 32.7159 10.5644 32.7379C10.5352 32.7825 10.4899 32.8141 10.438 32.8261C10.3861 32.838 10.3315 32.8294 10.2858 32.802C10.2616 32.7876 10.2407 32.7684 10.2244 32.7454C10.2082 32.7225 10.1969 32.6964 10.1914 32.6688C10.1859 32.6412 10.1862 32.6128 10.1924 32.5853C10.1986 32.5579 10.2105 32.532 10.2273 32.5095V32.5095Z" fill="url(#paint73_linear_174_769)"/>
<path d="M9.61715 31.9941C9.65371 31.9579 9.70235 31.9364 9.75376 31.9339C9.80516 31.9313 9.85571 31.9478 9.8957 31.9802C9.93137 32.017 9.95245 32.0656 9.95501 32.1168C9.95758 32.1681 9.94145 32.2185 9.90963 32.2587C9.89242 32.2782 9.87149 32.294 9.84808 32.3053C9.82466 32.3166 9.79923 32.323 9.77328 32.3243C9.74733 32.3256 9.72138 32.3217 9.69696 32.3128C9.67254 32.304 9.65014 32.2903 9.63108 32.2727C9.59242 32.2375 9.56926 32.1884 9.56665 32.1363C9.56404 32.0841 9.5822 32.033 9.61715 31.9941V31.9941Z" fill="url(#paint74_linear_174_769)"/>
<path d="M9.06007 31.3953C9.08035 31.3789 9.10365 31.3668 9.12865 31.3595C9.15364 31.3522 9.17982 31.3499 9.2057 31.3527C9.23158 31.3556 9.25665 31.3635 9.27946 31.3761C9.30226 31.3886 9.32237 31.4056 9.33862 31.4259C9.35594 31.4453 9.36919 31.468 9.3776 31.4927C9.38602 31.5173 9.38941 31.5433 9.3876 31.5693C9.38578 31.5953 9.37878 31.6206 9.36702 31.6438C9.35526 31.667 9.33897 31.6876 9.31912 31.7045C9.27863 31.737 9.22721 31.7529 9.17541 31.7488C9.12361 31.7446 9.07536 31.7208 9.04057 31.6822C9.02266 31.6622 9.00893 31.6389 9.0002 31.6135C8.99146 31.5882 8.9879 31.5614 8.98972 31.5346C8.99154 31.5079 8.9987 31.4817 9.01078 31.4578C9.02286 31.4339 9.03962 31.4126 9.06007 31.3953V31.3953Z" fill="url(#paint75_linear_174_769)"/>
<path d="M8.62291 30.7239C8.66876 30.696 8.72378 30.6874 8.77595 30.7C8.82813 30.7125 8.87324 30.7451 8.90146 30.7908C8.92724 30.8371 8.93468 30.8915 8.9223 30.9431C8.90992 30.9946 8.87863 31.0397 8.83461 31.0693C8.81193 31.083 8.78677 31.0921 8.76057 31.0961C8.73437 31.1001 8.70763 31.0989 8.68189 31.0926C8.65616 31.0862 8.63192 31.0749 8.61057 31.0592C8.58922 31.0435 8.57117 31.0237 8.55745 31.0011C8.54374 30.9784 8.53462 30.9532 8.53063 30.927C8.52663 30.9008 8.52784 30.8741 8.53417 30.8483C8.54051 30.8226 8.55185 30.7984 8.56756 30.777C8.58326 30.7557 8.60302 30.7376 8.6257 30.7239H8.62291Z" fill="url(#paint76_linear_174_769)"/>
<path d="M8.28249 29.9944C8.30642 29.9845 8.33209 29.9794 8.35801 29.9795C8.38392 29.9796 8.40956 29.9848 8.43342 29.995C8.45728 30.0051 8.47888 30.0198 8.49697 30.0384C8.51506 30.057 8.52926 30.0789 8.53875 30.1031C8.55956 30.1511 8.56071 30.2055 8.54197 30.2544C8.52323 30.3033 8.48608 30.343 8.43848 30.3649C8.41344 30.3766 8.38634 30.3832 8.35874 30.3843C8.33115 30.3854 8.3036 30.3811 8.2777 30.3715C8.25179 30.3619 8.22804 30.3473 8.20783 30.3284C8.18761 30.3096 8.17133 30.287 8.15993 30.2618C8.14976 30.2363 8.14487 30.2089 8.14557 30.1815C8.14627 30.154 8.15254 30.1269 8.164 30.1019C8.17546 30.0769 8.19187 30.0545 8.21223 30.036C8.2326 30.0175 8.2565 30.0034 8.28249 29.9944V29.9944Z" fill="url(#paint77_linear_174_769)"/>
<path d="M8.04566 29.2225C8.09733 29.2095 8.152 29.2171 8.19822 29.2436C8.24443 29.2701 8.27861 29.3134 8.29357 29.3645C8.30434 29.4165 8.29549 29.4705 8.26874 29.5163C8.24199 29.5621 8.19923 29.5963 8.14872 29.6125C8.12311 29.6192 8.09643 29.6209 8.07018 29.6173C8.04393 29.6138 8.01864 29.6051 7.99575 29.5918C7.97286 29.5785 7.95282 29.5608 7.93677 29.5397C7.92072 29.5186 7.90897 29.4946 7.9022 29.469C7.89544 29.4434 7.89378 29.4167 7.89732 29.3905C7.90087 29.3642 7.90955 29.3389 7.92287 29.316C7.93619 29.2931 7.95389 29.2731 7.97496 29.257C7.99603 29.241 8.02005 29.2293 8.04566 29.2225V29.2225Z" fill="url(#paint78_linear_174_769)"/>
<path d="M7.94544 28.4288C7.99807 28.4249 8.05016 28.4416 8.0907 28.4754C8.13125 28.5091 8.15707 28.5574 8.16271 28.6098C8.16825 28.6618 8.15331 28.7138 8.12105 28.7549C8.0888 28.796 8.04178 28.8229 7.99001 28.8299C7.96311 28.8334 7.93579 28.8316 7.90961 28.8245C7.88342 28.8175 7.85888 28.8053 7.83741 28.7887C7.81593 28.7722 7.79793 28.7515 7.78444 28.728C7.77096 28.7045 7.76225 28.6785 7.75881 28.6516C7.75613 28.6247 7.75886 28.5975 7.76684 28.5716C7.77482 28.5457 7.78788 28.5217 7.80526 28.501C7.82264 28.4802 7.844 28.4631 7.86807 28.4507C7.89214 28.4383 7.91844 28.4309 7.94544 28.4288Z" fill="url(#paint79_linear_174_769)"/>
<path d="M7.9456 27.6182C7.99855 27.6211 8.04828 27.6445 8.08419 27.6835C8.12009 27.7226 8.13933 27.7741 8.1378 27.8271C8.13356 27.88 8.10931 27.9294 8.06998 27.9651C8.03066 28.0008 7.97921 28.0202 7.9261 28.0193C7.89964 28.0193 7.87346 28.014 7.84919 28.0034C7.82491 27.9929 7.80307 27.9775 7.78503 27.9582C7.76698 27.9388 7.75313 27.9159 7.74433 27.891C7.73554 27.866 7.73199 27.8395 7.7339 27.8132C7.73422 27.7862 7.74003 27.7596 7.751 27.735C7.76197 27.7104 7.77785 27.6882 7.79768 27.67C7.8175 27.6517 7.84085 27.6377 7.86628 27.6288C7.89172 27.6199 7.91871 27.6163 7.9456 27.6182V27.6182Z" fill="url(#paint80_linear_174_769)"/>
<path d="M8.04615 26.819C8.09732 26.831 8.14219 26.8615 8.17205 26.9048C8.20192 26.948 8.21462 27.0008 8.20771 27.0529C8.2053 27.0812 8.19702 27.1086 8.18341 27.1334C8.16979 27.1583 8.15113 27.18 8.12863 27.1972C8.10613 27.2144 8.08029 27.2267 8.05275 27.2333C8.02521 27.24 7.99659 27.2408 7.96872 27.2357C7.94085 27.2307 7.91435 27.2198 7.89091 27.2039C7.86747 27.188 7.84762 27.1674 7.83262 27.1434C7.81762 27.1193 7.8078 27.0924 7.8038 27.0644C7.7998 27.0364 7.8017 27.0078 7.80938 26.9805C7.8133 26.9539 7.82271 26.9283 7.83699 26.9055C7.85128 26.8827 7.87013 26.8631 7.89238 26.8479C7.91462 26.8327 7.93977 26.8223 7.96624 26.8173C7.9927 26.8123 8.01991 26.8129 8.04615 26.819V26.819Z" fill="url(#paint81_linear_174_769)"/>
<path d="M8.2822 26.0474C8.33109 26.0668 8.37072 26.1041 8.39299 26.1517C8.41525 26.1994 8.41847 26.2537 8.40198 26.3036C8.38313 26.3525 8.34661 26.3925 8.29967 26.4157C8.25272 26.4389 8.19877 26.4437 8.1485 26.429C8.1224 26.4219 8.09811 26.4093 8.0772 26.3922C8.05628 26.3751 8.03922 26.3537 8.02713 26.3295C8.01503 26.3053 8.00818 26.2789 8.00701 26.2518C8.00585 26.2248 8.0104 26.1979 8.02036 26.1727C8.02911 26.1471 8.04286 26.1236 8.06082 26.1034C8.07879 26.0832 8.10059 26.0668 8.12497 26.0551C8.14935 26.0434 8.17581 26.0367 8.20281 26.0354C8.22981 26.0341 8.2568 26.0381 8.2822 26.0474V26.0474Z" fill="url(#paint82_linear_174_769)"/>
<path d="M8.62214 25.3173C8.66901 25.3443 8.70379 25.3882 8.71933 25.44C8.73486 25.4918 8.72999 25.5476 8.70571 25.5959C8.69426 25.6209 8.67771 25.6433 8.65712 25.6616C8.63653 25.6798 8.61235 25.6936 8.58613 25.702C8.55991 25.7104 8.53222 25.7132 8.50485 25.7103C8.47748 25.7074 8.45101 25.6988 8.42716 25.685C8.40217 25.6735 8.37982 25.657 8.3615 25.6365C8.34318 25.6159 8.32927 25.5919 8.32065 25.5657C8.31203 25.5396 8.30887 25.512 8.31138 25.4846C8.31389 25.4572 8.32201 25.4306 8.33524 25.4065C8.34615 25.3799 8.36278 25.3561 8.38396 25.3368C8.40513 25.3174 8.43032 25.3029 8.45772 25.2944C8.48513 25.2859 8.51407 25.2836 8.54249 25.2875C8.57092 25.2915 8.59811 25.3017 8.62214 25.3173V25.3173Z" fill="url(#paint83_linear_174_769)"/>
<path d="M9.05966 24.6461C9.10168 24.6778 9.12979 24.7245 9.1381 24.7764C9.14641 24.8283 9.13427 24.8815 9.10423 24.9247C9.0714 24.965 9.02484 24.9919 8.97346 25.0001C8.92208 25.0083 8.86948 24.9973 8.82568 24.9692C8.80343 24.9548 8.78442 24.9358 8.76984 24.9136C8.75527 24.8915 8.74545 24.8665 8.741 24.8403C8.73655 24.8142 8.73757 24.7873 8.744 24.7616C8.75042 24.7358 8.76211 24.7117 8.77833 24.6907C8.81004 24.6479 8.85728 24.6192 8.90989 24.6109C8.9625 24.6026 9.01628 24.6152 9.05966 24.6461V24.6461Z" fill="url(#paint84_linear_174_769)"/>
<path d="M9.61655 24.0444C9.65081 24.0827 9.66974 24.1322 9.66974 24.1836C9.66974 24.235 9.65081 24.2846 9.61655 24.3229C9.59997 24.3474 9.57819 24.3678 9.55278 24.3829C9.52737 24.398 9.49894 24.4072 9.46953 24.41C9.44013 24.4128 9.41046 24.4091 9.38267 24.3991C9.35487 24.3891 9.32963 24.3731 9.30874 24.3522C9.28785 24.3313 9.27184 24.306 9.26184 24.2782C9.25184 24.2504 9.2481 24.2208 9.2509 24.1914C9.25369 24.162 9.26295 24.1335 9.27801 24.1081C9.29306 24.0827 9.31355 24.0609 9.338 24.0444C9.35615 24.0258 9.37782 24.0111 9.40174 24.0011C9.42565 23.991 9.45133 23.9858 9.47727 23.9858C9.50321 23.9858 9.52889 23.991 9.55281 24.0011C9.57672 24.0111 9.59839 24.0258 9.61655 24.0444Z" fill="url(#paint85_linear_174_769)"/>
<path d="M10.2268 23.5316C10.2581 23.5739 10.2716 23.6268 10.2643 23.6789C10.257 23.731 10.2295 23.7781 10.1878 23.8102C10.1449 23.8392 10.0929 23.8516 10.0416 23.8449C9.9903 23.8383 9.94319 23.813 9.90922 23.774C9.89245 23.7537 9.88003 23.7301 9.87274 23.7048C9.86545 23.6795 9.86344 23.653 9.86684 23.6268C9.87023 23.6007 9.87897 23.5756 9.89248 23.553C9.906 23.5304 9.92402 23.5108 9.94543 23.4954C9.96628 23.4793 9.9901 23.4675 10.0155 23.4606C10.0409 23.4537 10.0675 23.4519 10.0936 23.4553C10.1197 23.4586 10.1449 23.4671 10.1678 23.4802C10.1906 23.4933 10.2107 23.5108 10.2268 23.5316V23.5316Z" fill="url(#paint86_linear_174_769)"/>
<path d="M10.9122 23.1084C10.9377 23.1559 10.9438 23.2114 10.9292 23.2634C10.9147 23.3153 10.8807 23.3595 10.8342 23.3869C10.8112 23.4005 10.7857 23.4094 10.7592 23.4131C10.7328 23.4168 10.7058 23.4152 10.6799 23.4085C10.6541 23.4018 10.6298 23.39 10.6085 23.3739C10.5871 23.3578 10.5692 23.3376 10.5557 23.3145C10.5293 23.2675 10.5224 23.212 10.5364 23.1599C10.5505 23.1078 10.5844 23.0633 10.6309 23.036C10.6538 23.0212 10.6796 23.0113 10.7065 23.0069C10.7334 23.0026 10.761 23.0038 10.7874 23.0106C10.8138 23.0174 10.8386 23.0296 10.86 23.0465C10.8815 23.0633 10.8993 23.0844 10.9122 23.1084V23.1084Z" fill="url(#paint87_linear_174_769)"/>
<path d="M11.6563 22.7935C11.6738 22.8435 11.6714 22.8982 11.6496 22.9464C11.6278 22.9947 11.5884 23.0327 11.5393 23.0526C11.489 23.0695 11.4341 23.0668 11.3856 23.0452C11.3371 23.0235 11.2985 22.9844 11.2775 22.9356C11.2669 22.911 11.2615 22.8845 11.2617 22.8578C11.2619 22.831 11.2677 22.8046 11.2788 22.7802C11.2898 22.7558 11.3058 22.734 11.3257 22.7162C11.3456 22.6983 11.369 22.6848 11.3945 22.6765C11.4193 22.6663 11.4459 22.6612 11.4727 22.6616C11.4996 22.662 11.526 22.6679 11.5505 22.6788C11.575 22.6898 11.597 22.7056 11.6152 22.7253C11.6334 22.745 11.6474 22.7682 11.6563 22.7935V22.7935Z" fill="url(#paint88_linear_174_769)"/>
<path d="M12.4362 22.5794C12.4447 22.6313 12.4334 22.6845 12.4045 22.7283C12.3756 22.7722 12.3312 22.8036 12.2802 22.8162C12.2289 22.828 12.175 22.8191 12.1302 22.7915C12.0854 22.7638 12.0532 22.7197 12.0407 22.6686C12.0281 22.6154 12.0372 22.5594 12.0659 22.5129C12.0947 22.4664 12.1407 22.4332 12.1939 22.4207C12.2202 22.4146 12.2476 22.4139 12.2742 22.4186C12.3009 22.4234 12.3263 22.4335 12.3489 22.4483C12.3716 22.4632 12.391 22.4824 12.406 22.505C12.421 22.5275 12.4313 22.5528 12.4362 22.5794V22.5794Z" fill="url(#paint89_linear_174_769)"/>
<path d="M13.2377 22.5067C13.2408 22.5594 13.2229 22.6112 13.188 22.6509C13.153 22.6905 13.1038 22.7148 13.0511 22.7184C12.9983 22.7187 12.9472 22.6996 12.9077 22.6646C12.8681 22.6297 12.8428 22.5814 12.8366 22.5289C12.8331 22.5023 12.8352 22.4752 12.843 22.4494C12.8507 22.4236 12.8638 22.3998 12.8815 22.3795C12.8991 22.3592 12.9209 22.3429 12.9454 22.3317C12.9698 22.3205 12.9964 22.3146 13.0233 22.3145C13.0501 22.3126 13.077 22.3161 13.1024 22.3248C13.1278 22.3335 13.1512 22.3472 13.1712 22.3652C13.1912 22.3831 13.2074 22.4048 13.2188 22.4292C13.2303 22.4535 13.2367 22.4798 13.2377 22.5067V22.5067Z" fill="url(#paint90_linear_174_769)"/>
<path d="M14.0428 22.5292C14.0354 22.5816 14.0094 22.6296 13.9695 22.6644C13.9296 22.6992 13.8784 22.7184 13.8255 22.7186C13.773 22.7143 13.7243 22.6898 13.6895 22.6504C13.6547 22.6109 13.6365 22.5595 13.6389 22.5069C13.6399 22.4798 13.6464 22.4532 13.658 22.4287C13.6696 22.4042 13.6861 22.3823 13.7064 22.3643C13.7267 22.3463 13.7504 22.3327 13.7762 22.3241C13.8019 22.3156 13.8291 22.3124 13.8561 22.3147C13.8829 22.3153 13.9092 22.3214 13.9335 22.3328C13.9577 22.3442 13.9793 22.3605 13.9969 22.3807C14.0144 22.4009 14.0276 22.4245 14.0355 22.4501C14.0434 22.4756 14.0459 22.5026 14.0428 22.5292V22.5292Z" fill="url(#paint91_linear_174_769)"/>
<path d="M14.8341 22.6793C14.8282 22.7048 14.8173 22.7289 14.8021 22.7501C14.7868 22.7714 14.7675 22.7894 14.7452 22.8032C14.7229 22.8169 14.6981 22.8261 14.6723 22.8301C14.6464 22.8342 14.62 22.8331 14.5946 22.8269C14.5441 22.8137 14.5003 22.7821 14.472 22.7383C14.4436 22.6945 14.4327 22.6416 14.4414 22.5902C14.446 22.5637 14.4559 22.5384 14.4707 22.5159C14.4854 22.4933 14.5045 22.4741 14.527 22.4592C14.5494 22.4443 14.5746 22.4342 14.6011 22.4294C14.6275 22.4246 14.6547 22.4253 14.6809 22.4314C14.7341 22.444 14.7801 22.4771 14.8088 22.5236C14.8376 22.5701 14.8467 22.6261 14.8341 22.6793Z" fill="url(#paint92_linear_174_769)"/>
<path d="M15.6001 22.9356C15.5786 22.9839 15.54 23.0226 15.4916 23.0442C15.4433 23.0658 15.3887 23.0688 15.3383 23.0525C15.2888 23.0332 15.2489 22.9953 15.227 22.9469C15.2051 22.8984 15.2031 22.8434 15.2213 22.7935C15.2299 22.768 15.2437 22.7445 15.2618 22.7245C15.2799 22.7046 15.302 22.6886 15.3266 22.6776C15.3512 22.6666 15.3778 22.6608 15.4047 22.6606C15.4317 22.6605 15.4584 22.6659 15.4831 22.6765C15.5086 22.6848 15.532 22.6983 15.5519 22.7161C15.5719 22.734 15.5879 22.7558 15.5989 22.7802C15.6099 22.8046 15.6157 22.831 15.6159 22.8577C15.6161 22.8845 15.6107 22.911 15.6001 22.9356V22.9356Z" fill="url(#paint93_linear_174_769)"/>
<path d="M16.3023 23.3091C16.289 23.3325 16.2712 23.3529 16.2499 23.3693C16.2286 23.3856 16.2043 23.3975 16.1783 23.4042C16.1523 23.411 16.1253 23.4125 16.0987 23.4086C16.0721 23.4047 16.0466 23.3955 16.0237 23.3816C15.9778 23.3537 15.9442 23.3094 15.9297 23.2577C15.9152 23.206 15.921 23.1507 15.9457 23.103C15.9582 23.079 15.9755 23.0577 15.9965 23.0405C16.0174 23.0234 16.0417 23.0106 16.0677 23.0031C16.0938 22.9955 16.121 22.9933 16.148 22.9966C16.1749 22.9999 16.2008 23.0086 16.2243 23.0222C16.2486 23.0355 16.2701 23.0536 16.2873 23.0754C16.3045 23.0972 16.3171 23.1223 16.3244 23.1491C16.3317 23.1759 16.3335 23.2038 16.3297 23.2314C16.3259 23.2589 16.3165 23.2853 16.3023 23.3091V23.3091Z" fill="url(#paint94_linear_174_769)"/>
<path d="M16.9704 23.774C16.9364 23.8131 16.8893 23.8383 16.838 23.845C16.7867 23.8517 16.7347 23.8393 16.6918 23.8103C16.6511 23.7774 16.6247 23.7301 16.6179 23.6782C16.6112 23.6264 16.6247 23.5739 16.6556 23.5317C16.6713 23.5107 16.6909 23.4931 16.7134 23.4797C16.7359 23.4664 16.7609 23.4577 16.7868 23.4541C16.8127 23.4504 16.839 23.452 16.8643 23.4586C16.8896 23.4652 16.9134 23.4768 16.9342 23.4927C16.9564 23.5078 16.9751 23.5274 16.9891 23.5502C17.0032 23.5731 17.0122 23.5986 17.0156 23.6252C17.0191 23.6518 17.0168 23.6788 17.009 23.7045C17.0012 23.7301 16.988 23.7539 16.9704 23.774V23.774Z" fill="url(#paint95_linear_174_769)"/>
<path d="M17.5468 24.3369C17.5094 24.373 17.4595 24.3931 17.4076 24.3931C17.3556 24.3931 17.3057 24.373 17.2683 24.3369C17.2357 24.2978 17.2178 24.2485 17.2178 24.1976C17.2178 24.1467 17.2357 24.0974 17.2683 24.0583C17.3053 24.0216 17.3554 24.001 17.4076 24.001C17.4597 24.001 17.5098 24.0216 17.5468 24.0583C17.5823 24.096 17.602 24.1459 17.602 24.1976C17.602 24.2494 17.5823 24.2992 17.5468 24.3369Z" fill="url(#paint96_linear_174_769)"/>
<path d="M18.0458 24.9722C18.002 25.0003 17.9494 25.0113 17.8981 25.0031C17.8467 24.9949 17.8001 24.968 17.7673 24.9276C17.7488 24.9063 17.735 24.8813 17.7267 24.8544C17.7184 24.8274 17.7159 24.799 17.7192 24.7709C17.7225 24.7429 17.7315 24.7159 17.7458 24.6916C17.7602 24.6672 17.7794 24.6462 17.8023 24.6297C17.8252 24.6132 17.8512 24.6016 17.8788 24.5957C17.9064 24.5899 17.935 24.5898 17.9626 24.5956C17.9902 24.6013 18.0163 24.6128 18.0393 24.6292C18.0623 24.6456 18.0816 24.6666 18.096 24.6909C18.1121 24.7123 18.1237 24.7368 18.1299 24.7629C18.1362 24.789 18.137 24.8161 18.1322 24.8425C18.1275 24.8689 18.1174 24.894 18.1026 24.9163C18.0877 24.9387 18.0684 24.9577 18.0458 24.9722V24.9722Z" fill="url(#paint97_linear_174_769)"/>
<path d="M18.4362 25.6769C18.4123 25.6902 18.3858 25.6985 18.3586 25.7012C18.3313 25.7039 18.3038 25.701 18.2777 25.6926C18.2515 25.6843 18.2274 25.6706 18.2068 25.6526C18.1862 25.6346 18.1694 25.6125 18.1577 25.5878C18.1336 25.5391 18.1292 25.4831 18.1452 25.4312C18.1613 25.3794 18.1967 25.3357 18.244 25.3092C18.2675 25.2945 18.2938 25.285 18.3213 25.2814C18.3488 25.2778 18.3767 25.2802 18.4031 25.2884C18.4296 25.2966 18.454 25.3104 18.4746 25.3289C18.4952 25.3474 18.5116 25.3701 18.5226 25.3956C18.5364 25.4195 18.5452 25.446 18.5484 25.4734C18.5515 25.5009 18.549 25.5287 18.5408 25.5551C18.5327 25.5815 18.5193 25.606 18.5013 25.6269C18.4832 25.6479 18.4611 25.6649 18.4362 25.6769V25.6769Z" fill="url(#paint98_linear_174_769)"/>
<path d="M18.7283 26.4289C18.6776 26.4437 18.6232 26.4391 18.5758 26.4159C18.5284 26.3927 18.4914 26.3526 18.472 26.3035C18.4557 26.2533 18.4593 26.1986 18.4821 26.1509C18.5049 26.1032 18.5452 26.0661 18.5946 26.0473C18.6198 26.0381 18.6466 26.0341 18.6734 26.0354C18.7002 26.0368 18.7264 26.0435 18.7506 26.0552C18.7747 26.0669 18.7963 26.0833 18.814 26.1035C18.8317 26.1236 18.8452 26.1472 18.8536 26.1726C18.8641 26.1975 18.8691 26.2244 18.8683 26.2514C18.8676 26.2784 18.861 26.305 18.8491 26.3292C18.8373 26.3535 18.8203 26.375 18.7995 26.3921C18.7786 26.4093 18.7543 26.4219 18.7283 26.4289V26.4289Z" fill="url(#paint99_linear_174_769)"/>
<path d="M18.8986 27.2173C18.8466 27.2254 18.7935 27.2126 18.7508 27.1819C18.708 27.1512 18.6791 27.1048 18.6702 27.0529C18.6625 27.0011 18.6746 26.9483 18.704 26.905C18.7334 26.8617 18.778 26.831 18.829 26.819C18.8552 26.8129 18.8824 26.8123 18.9089 26.8173C18.9354 26.8223 18.9605 26.8327 18.9828 26.8479C19.005 26.8631 19.0239 26.8827 19.0382 26.9055C19.0524 26.9283 19.0618 26.9539 19.0658 26.9805C19.0706 27.0071 19.07 27.0343 19.0642 27.0606C19.0584 27.087 19.0473 27.1119 19.0318 27.1339C19.0162 27.1559 18.9964 27.1747 18.9736 27.189C18.9507 27.2033 18.9253 27.2129 18.8986 27.2173V27.2173Z" fill="url(#paint100_linear_174_769)"/>
<path d="M18.9618 28.0193C18.9087 28.0202 18.8572 28.0008 18.8179 27.9651C18.7786 27.9294 18.7543 27.88 18.7501 27.8271C18.7486 27.7741 18.7678 27.7226 18.8037 27.6835C18.8396 27.6445 18.8893 27.6211 18.9423 27.6182C18.9692 27.6163 18.9962 27.6199 19.0216 27.6288C19.047 27.6377 19.0704 27.6517 19.0902 27.67C19.11 27.6882 19.1259 27.7104 19.1369 27.735C19.1478 27.7596 19.1537 27.7862 19.154 27.8132C19.1559 27.8395 19.1523 27.866 19.1435 27.891C19.1347 27.9159 19.1209 27.9388 19.1029 27.9582C19.0848 27.9775 19.063 27.9929 19.0387 28.0034C19.0144 28.014 18.9882 28.0193 18.9618 28.0193V28.0193Z" fill="url(#paint101_linear_174_769)"/>
</g>
</g>
<path d="M13.4381 21.3262C12.1159 21.3262 10.8234 21.7182 9.72403 22.4528C8.62466 23.1874 7.7678 24.2315 7.26181 25.453C6.75583 26.6746 6.62344 28.0188 6.88139 29.3156C7.13934 30.6124 7.77604 31.8036 8.71098 32.7385C9.64592 33.6734 10.8371 34.3101 12.1339 34.5681C13.4307 34.826 14.7749 34.6937 15.9964 34.1877C17.218 33.6817 18.2621 32.8248 18.9966 31.7254C19.7312 30.6261 20.1233 29.3336 20.1233 28.0114C20.1233 27.1334 19.9504 26.2641 19.6144 25.453C19.2785 24.642 18.786 23.905 18.1653 23.2842C17.5445 22.6634 16.8075 22.171 15.9964 21.8351C15.1853 21.4991 14.316 21.3262 13.4381 21.3262V21.3262ZM13.4381 34.2815C12.1995 34.2821 10.9886 33.9153 9.9585 33.2276C8.92838 32.5398 8.12536 31.5621 7.65099 30.4179C7.17663 29.2738 7.05222 28.0147 7.29352 26.7998C7.53482 25.585 8.13098 24.469 9.00659 23.5929C9.88221 22.7169 10.998 22.1203 12.2127 21.8784C13.4274 21.6366 14.6866 21.7605 15.831 22.2343C16.9753 22.7082 17.9534 23.5108 18.6416 24.5406C19.3298 25.5704 19.6971 26.7811 19.6971 28.0197C19.6964 29.6795 19.0367 31.2711 17.8631 32.4447C16.6895 33.6183 15.0979 34.278 13.4381 34.2787V34.2815Z" fill="url(#paint102_linear_174_769)"/>
<path d="M15.8883 29.218H14.6181C14.59 29.218 14.563 29.2058 14.5431 29.1841C14.5232 29.1624 14.512 29.1329 14.512 29.1022V24.1158C14.5124 24.1007 14.51 24.0857 14.505 24.0717C14.4999 24.0577 14.4924 24.0449 14.4828 24.0341C14.4731 24.0233 14.4616 24.0147 14.4489 24.0089C14.4362 24.003 14.4225 24 14.4087 24H13.9146C13.897 24.0008 13.8798 24.006 13.8643 24.0152C13.4018 24.2966 12.9202 24.539 12.4238 24.7402C11.9977 24.915 11.5496 25.0178 11.095 25.0448C11.0688 25.0464 11.0442 25.0591 11.0265 25.0801C11.0088 25.1012 10.9993 25.1289 11 25.1575V26.3516C10.9997 26.3665 11.0021 26.3814 11.0071 26.3952C11.0122 26.4091 11.0198 26.4217 11.0294 26.4322C11.0391 26.4428 11.0507 26.4511 11.0634 26.4566C11.0761 26.4621 11.0897 26.4647 11.1033 26.4643H12.4322C12.4594 26.4651 12.4852 26.4772 12.5044 26.4982C12.5237 26.5191 12.5348 26.5474 12.5355 26.577V29.0992C12.5355 29.1294 12.5247 29.1584 12.5054 29.18C12.4861 29.2016 12.4598 29.2141 12.4322 29.2149H11.1033C11.0759 29.2149 11.0497 29.2268 11.0303 29.248C11.0109 29.2691 11 29.2978 11 29.3276V30.8873C10.9997 30.9022 11.0021 30.917 11.0071 30.9309C11.0122 30.9447 11.0198 30.9573 11.0294 30.9679C11.0391 30.9784 11.0507 30.9867 11.0634 30.9922C11.0761 30.9978 11.0897 31.0004 11.1033 31H15.8939C15.9077 31.0004 15.9214 30.9978 15.9343 30.9923C15.9472 30.9868 15.9589 30.9786 15.9688 30.968C15.9787 30.9575 15.9865 30.945 15.9919 30.9311C15.9972 30.9172 16 30.9023 16 30.8873V29.3307C16 29.3151 15.9971 29.2996 15.9914 29.2853C15.9857 29.271 15.9773 29.2582 15.9668 29.2476C15.9564 29.237 15.944 29.2289 15.9304 29.2238C15.9169 29.2187 15.9026 29.2167 15.8883 29.218V29.218Z" fill="url(#paint103_linear_174_769)"/>
<path d="M14.6 29.6583H15.8866C15.9013 29.6579 15.916 29.6602 15.9298 29.6651C15.9435 29.6699 15.956 29.6773 15.9666 29.6866C15.9772 29.6959 15.9856 29.7071 15.9913 29.7194C15.9971 29.7317 16 29.745 16 29.7583V30.8999C15.9992 30.9267 15.9869 30.9522 15.9657 30.9709C15.9445 30.9896 15.9161 31 15.8866 31H11.1105C11.0812 31 11.0531 30.9895 11.0324 30.9707C11.0117 30.9519 11 30.9265 11 30.8999V29.7583C10.9996 29.7451 11.0022 29.7319 11.0076 29.7196C11.013 29.7073 11.0211 29.6961 11.0315 29.6867C11.0418 29.6774 11.0542 29.67 11.0677 29.6651C11.0813 29.6602 11.0959 29.6579 11.1105 29.6583H12.4657C12.495 29.6583 12.5231 29.6477 12.5438 29.6289C12.5645 29.6102 12.5761 29.5847 12.5761 29.5582V27.0478C12.5765 27.0344 12.574 27.0211 12.5686 27.0087C12.5632 26.9962 12.5552 26.9848 12.5449 26.9753C12.5346 26.9657 12.5223 26.9581 12.5087 26.9529C12.4951 26.9477 12.4805 26.945 12.4657 26.945H11.1194C11.1048 26.9454 11.0903 26.943 11.0767 26.9381C11.0631 26.9332 11.0508 26.9259 11.0404 26.9165C11.0301 26.9071 11.022 26.896 11.0166 26.8836C11.0112 26.8713 11.0086 26.8581 11.009 26.8449V26.0334C11.0081 26.0091 11.0176 25.9855 11.0353 25.9674C11.0531 25.9493 11.0779 25.938 11.1045 25.936C12.0719 25.8082 12.998 25.4946 13.8209 25.0162C13.8375 25.0057 13.8573 25 13.8776 25H14.3791C14.4092 25 14.4381 25.0108 14.4593 25.0301C14.4806 25.0494 14.4925 25.0755 14.4925 25.1028V29.5636C14.494 29.5887 14.5059 29.6124 14.5258 29.63C14.5458 29.6475 14.5722 29.6576 14.6 29.6583V29.6583Z" fill="url(#paint104_linear_174_769)"/>
<path style="mix-blend-mode:overlay" opacity="0.55" d="M18.9854 21.3749C18.8516 21.2656 18.7008 21.1675 18.5643 21.0638C18.5656 21.0536 18.5656 21.0432 18.5643 21.033L18.5899 20.9125L18.607 20.8032C18.6056 20.792 18.6056 20.7807 18.607 20.7696C18.6462 20.5135 18.6662 20.255 18.6667 19.9961C18.6667 19.9157 18.6667 19.8345 18.6667 19.7522C18.6667 19.671 18.6667 19.5897 18.6439 19.5056C18.6234 19.3394 18.5921 19.1746 18.5501 19.0124C18.5216 18.9059 18.4846 18.8022 18.4476 18.6985C18.4039 18.5846 18.3535 18.4732 18.2968 18.365C18.1591 18.1002 17.9817 17.8574 17.7705 17.6447L18.0266 17.2496L27 3.32941L25.8904 2.67081V2.654L22.5019 0.641778V0.658595L21.3952 0H5.62192V0.0252218L5.60769 0L4.5294 0.641778L4.00875 0.950058L0 3.3182L9.05311 17.3561C8.51301 17.7697 8.12772 18.3484 7.95775 19.0012C7.89416 19.2434 7.85509 19.4912 7.8411 19.741C7.8411 19.8223 7.8411 19.9036 7.8411 19.9849C7.8411 20.1474 7.8411 20.3043 7.86386 20.4585C7.86525 20.4762 7.86525 20.494 7.86386 20.5117V20.5678C7.86386 20.6378 7.88093 20.7079 7.88946 20.7752C7.89081 20.7948 7.89081 20.8144 7.88946 20.834C7.88946 20.9041 7.91222 20.9742 7.92645 21.0442V21.0778C7.92645 21.0778 7.92645 21.0947 7.92645 21.1059C6.88087 21.8668 6.0199 22.847 5.40569 23.9757C4.55558 25.5191 4.19319 27.2776 4.36505 29.0254C4.53691 30.7732 5.23517 32.4305 6.37018 33.7845C6.55227 34.0031 6.74573 34.2105 6.9392 34.4123C7.34612 34.8109 7.78999 35.1712 8.26502 35.4885C10.1722 36.7577 12.5023 37.2547 14.7716 36.8763C17.041 36.4979 19.0752 35.2732 20.4521 33.4564C21.829 31.6396 22.4427 29.3704 22.1658 27.1196C21.889 24.8689 20.7429 22.8096 18.9654 21.3693L18.9854 21.3749ZM10.2793 19.2506H16.732L16.9084 18.9703C17.0208 19.1084 17.1075 19.2649 17.1645 19.4328C17.1845 19.4876 17.2007 19.5438 17.2129 19.6009C17.2517 19.7719 17.268 19.9471 17.2612 20.1222V20.1362C17.2612 20.181 17.2612 20.2259 17.2612 20.2707C16.0206 19.6614 14.6524 19.3466 13.2662 19.3515C11.8799 19.3563 10.514 19.6807 9.27787 20.2987C9.27076 20.1839 9.27076 20.0688 9.27787 19.954C9.28077 19.8713 9.28932 19.789 9.30348 19.7074C9.31918 19.618 9.34202 19.5299 9.37176 19.444C9.48007 19.1405 9.67828 18.8759 9.94078 18.6845L10.2793 19.2506ZM10.7061 5.81805H18.0351L13.5057 13.6651L8.97629 5.81805H10.7061Z" fill="url(#paint105_radial_174_769)"/>
<defs>
<linearGradient id="paint0_linear_174_769" x1="6" y1="3" x2="21" y2="3" gradientUnits="userSpaceOnUse">
<stop stop-color="#9D0000"/>
<stop offset="0.5" stop-color="#BE0000"/>
<stop offset="1" stop-color="#9D0000"/>
</linearGradient>
<linearGradient id="paint1_linear_174_769" x1="24.0274" y1="1.83532" x2="13.6763" y2="19.4447" gradientUnits="userSpaceOnUse">
<stop stop-color="#DB1A1F"/>
<stop offset="0.67" stop-color="#DF1F24"/>
<stop offset="0.71" stop-color="#DF1F24"/>
<stop offset="0.73" stop-color="#D81C21"/>
<stop offset="0.82" stop-color="#C41318"/>
<stop offset="0.91" stop-color="#B70D12"/>
<stop offset="1" stop-color="#B30B10"/>
</linearGradient>
<linearGradient id="paint2_linear_174_769" x1="24.2632" y1="2.09977" x2="14.5458" y2="19.3425" gradientUnits="userSpaceOnUse">
<stop stop-color="#F0E8E5"/>
<stop offset="0.58" stop-color="#EFE6E3"/>
<stop offset="0.82" stop-color="#EBE0DC"/>
<stop offset="0.99" stop-color="#E3D6D0"/>
<stop offset="1" stop-color="#E3D5CF"/>
</linearGradient>
<radialGradient id="paint3_radial_174_769" cx="0" cy="0" r="1" gradientUnits="userSpaceOnUse" gradientTransform="translate(13.5016 19) scale(4.42155 4.4679)">
<stop offset="0.01" stop-color="#F6C054"/>
<stop offset="0.54" stop-color="#FFEA72"/>
<stop offset="0.58" stop-color="#FFF071"/>
<stop offset="0.59" stop-color="#FFF171"/>
<stop offset="0.82" stop-color="#FFE05A"/>
<stop offset="0.96" stop-color="#FFD44A"/>
</radialGradient>
<radialGradient id="paint4_radial_174_769" cx="0" cy="0" r="1" gradientUnits="userSpaceOnUse" gradientTransform="translate(13.5016 19) scale(4.42155 4.4679)">
<stop offset="0.01" stop-color="#F6C054"/>
<stop offset="0.54" stop-color="#FFEA72"/>
<stop offset="0.58" stop-color="#FFF071"/>
<stop offset="0.59" stop-color="#FFF171"/>
<stop offset="0.82" stop-color="#FFE05A"/>
<stop offset="0.96" stop-color="#FFD44A"/>
</radialGradient>
<radialGradient id="paint5_radial_174_769" cx="0" cy="0" r="1" gradientUnits="userSpaceOnUse" gradientTransform="translate(18.004 17.1002) scale(6.50042 6.57053)">
<stop stop-color="#FFFFC3"/>
<stop offset="0.95" stop-color="#FFEA72"/>
</radialGradient>
<linearGradient id="paint6_linear_174_769" x1="7.99007" y1="21" x2="20.6093" y2="21" gradientUnits="userSpaceOnUse">
<stop stop-color="#AA7238"/>
<stop offset="0.25" stop-color="#C08443"/>
<stop offset="0.35" stop-color="#BE8242"/>
<stop offset="0.39" stop-color="#B87B3D"/>
<stop offset="0.42" stop-color="#AD7036"/>
<stop offset="0.44" stop-color="#9D5F2B"/>
<stop offset="0.46" stop-color="#88491D"/>
<stop offset="0.47" stop-color="#7A3A14"/>
<stop offset="0.64" stop-color="#7C3C15"/>
<stop offset="0.72" stop-color="#83441A"/>
<stop offset="0.79" stop-color="#8E5123"/>
<stop offset="0.85" stop-color="#9E642F"/>
<stop offset="0.9" stop-color="#B37C3E"/>
<stop offset="0.95" stop-color="#CD9B52"/>
<stop offset="0.99" stop-color="#EBBE68"/>
<stop offset="1" stop-color="#F0C46C"/>
</linearGradient>
<linearGradient id="paint7_linear_174_769" x1="6.41488" y1="20.9942" x2="19.0132" y2="20.9942" gradientUnits="userSpaceOnUse">
<stop stop-color="#AA7238"/>
<stop offset="0.25" stop-color="#C08443"/>
<stop offset="0.35" stop-color="#BE8242"/>
<stop offset="0.39" stop-color="#B87B3D"/>
<stop offset="0.42" stop-color="#AD7036"/>
<stop offset="0.44" stop-color="#9D5F2B"/>
<stop offset="0.46" stop-color="#88491D"/>
<stop offset="0.47" stop-color="#7A3A14"/>
<stop offset="0.64" stop-color="#7C3C15"/>
<stop offset="0.72" stop-color="#83441A"/>
<stop offset="0.79" stop-color="#8E5123"/>
<stop offset="0.85" stop-color="#9E642F"/>
<stop offset="0.9" stop-color="#B37C3E"/>
<stop offset="0.95" stop-color="#CD9B52"/>
<stop offset="0.99" stop-color="#EBBE68"/>
<stop offset="1" stop-color="#F0C46C"/>
</linearGradient>
<radialGradient id="paint8_radial_174_769" cx="0" cy="0" r="1" gradientUnits="userSpaceOnUse" gradientTransform="translate(13.5 19.5) scale(3.54336 4.0199)">
<stop offset="0.34" stop-color="#FFEA72"/>
<stop offset="0.99" stop-color="#B35C00"/>
</radialGradient>
<linearGradient id="paint9_linear_174_769" x1="2.85984" y1="1.65842" x2="12.8924" y2="19.5037" gradientUnits="userSpaceOnUse">
<stop stop-color="#DB1A1F"/>
<stop offset="0.67" stop-color="#DF1F24"/>
<stop offset="0.71" stop-color="#DF1F24"/>
<stop offset="0.73" stop-color="#D81C21"/>
<stop offset="0.82" stop-color="#C41318"/>
<stop offset="0.91" stop-color="#B70D12"/>
<stop offset="1" stop-color="#B30B10"/>
</linearGradient>
<linearGradient id="paint10_linear_174_769" x1="3.73955" y1="2.09977" x2="13.4542" y2="19.3424" gradientUnits="userSpaceOnUse">
<stop stop-color="#F0E8E5"/>
<stop offset="0.58" stop-color="#EFE6E3"/>
<stop offset="0.82" stop-color="#EBE0DC"/>
<stop offset="0.99" stop-color="#E3D6D0"/>
<stop offset="1" stop-color="#E3D5CF"/>
</linearGradient>
<radialGradient id="paint11_radial_174_769" cx="0" cy="0" r="1" gradientUnits="userSpaceOnUse" gradientTransform="translate(7.34007 34.1167) scale(17.0263)">
<stop offset="0.01" stop-color="#F6C054"/>
<stop offset="0.3" stop-color="#F2A942"/>
<stop offset="0.54" stop-color="#FFEA72"/>
<stop offset="0.58" stop-color="#FFF071"/>
<stop offset="0.59" stop-color="#FFF171"/>
<stop offset="0.76" stop-color="#FADA61"/>
<stop offset="0.96" stop-color="#F3B94A"/>
</radialGradient>
<radialGradient id="paint12_radial_174_769" cx="0" cy="0" r="1" gradientUnits="userSpaceOnUse" gradientTransform="translate(7.33899 34.114) scale(17.0263)">
<stop stop-color="#FFFFC3"/>
<stop offset="0.95" stop-color="#FFEA72"/>
</radialGradient>
<linearGradient id="paint13_linear_174_769" x1="18.7801" y1="23.7041" x2="8.07546" y2="32.3475" gradientUnits="userSpaceOnUse">
<stop offset="0.48" stop-color="#CC9434"/>
<stop offset="0.68" stop-color="#FFEA72"/>
<stop offset="0.76" stop-color="#FFE76C"/>
<stop offset="0.87" stop-color="#FFDE5C"/>
<stop offset="0.96" stop-color="#FFD44A"/>
</linearGradient>
<linearGradient id="paint14_linear_174_769" x1="10.2732" y1="21.6679" x2="16.5824" y2="34.3391" gradientUnits="userSpaceOnUse">
<stop offset="0.48" stop-color="#CC9434"/>
<stop offset="0.68" stop-color="#FFEA72"/>
<stop offset="0.76" stop-color="#FFE76C"/>
<stop offset="0.87" stop-color="#FFDE5C"/>
<stop offset="0.96" stop-color="#FFD44A"/>
</linearGradient>
<linearGradient id="paint15_linear_174_769" x1="17.8342" y1="24.134" x2="8.47212" y2="32.4097" gradientUnits="userSpaceOnUse">
<stop offset="0.01" stop-color="#F6C054"/>
<stop offset="0.54" stop-color="#FFEA72"/>
<stop offset="0.58" stop-color="#FFF071"/>
<stop offset="0.59" stop-color="#FFF171"/>
<stop offset="0.82" stop-color="#FFE05A"/>
<stop offset="0.96" stop-color="#FFD44A"/>
</linearGradient>
<linearGradient id="paint16_linear_174_769" x1="18.7256" y1="28.624" x2="19.1323" y2="28.624" gradientUnits="userSpaceOnUse">
<stop stop-color="#F3CE5E"/>
<stop offset="1" stop-color="#F2BE4A"/>
</linearGradient>
<linearGradient id="paint17_linear_174_769" x1="18.5775" y1="29.4174" x2="18.9814" y2="29.4174" gradientUnits="userSpaceOnUse">
<stop stop-color="#F3CE5E"/>
<stop offset="1" stop-color="#F2BE4A"/>
</linearGradient>
<linearGradient id="paint18_linear_174_769" x1="18.3186" y1="30.1808" x2="18.7253" y2="30.1808" gradientUnits="userSpaceOnUse">
<stop stop-color="#F3CE5E"/>
<stop offset="1" stop-color="#F2BE4A"/>
</linearGradient>
<linearGradient id="paint19_linear_174_769" x1="17.9481" y1="30.8994" x2="18.352" y2="30.8994" gradientUnits="userSpaceOnUse">
<stop stop-color="#F3CE5E"/>
<stop offset="1" stop-color="#F2BE4A"/>
</linearGradient>
<linearGradient id="paint20_linear_174_769" x1="17.4803" y1="31.554" x2="17.8842" y2="31.554" gradientUnits="userSpaceOnUse">
<stop stop-color="#F3CE5E"/>
<stop offset="1" stop-color="#F2BE4A"/>
</linearGradient>
<linearGradient id="paint21_linear_174_769" x1="16.9232" y1="32.1333" x2="17.3243" y2="32.1333" gradientUnits="userSpaceOnUse">
<stop stop-color="#F3CE5E"/>
<stop offset="1" stop-color="#F2BE4A"/>
</linearGradient>
<linearGradient id="paint22_linear_174_769" x1="16.2824" y1="32.6265" x2="16.6863" y2="32.6265" gradientUnits="userSpaceOnUse">
<stop stop-color="#F3CE5E"/>
<stop offset="1" stop-color="#F2BE4A"/>
</linearGradient>
<linearGradient id="paint23_linear_174_769" x1="15.5836" y1="33.019" x2="15.9847" y2="33.019" gradientUnits="userSpaceOnUse">
<stop stop-color="#F3CE5E"/>
<stop offset="1" stop-color="#F2BE4A"/>
</linearGradient>
<linearGradient id="paint24_linear_174_769" x1="14.8287" y1="33.3115" x2="15.2326" y2="33.3115" gradientUnits="userSpaceOnUse">
<stop stop-color="#F3CE5E"/>
<stop offset="1" stop-color="#F2BE4A"/>
</linearGradient>
<linearGradient id="paint25_linear_174_769" x1="14.0405" y1="33.4819" x2="14.4444" y2="33.4819" gradientUnits="userSpaceOnUse">
<stop stop-color="#F3CE5E"/>
<stop offset="1" stop-color="#F2BE4A"/>
</linearGradient>
<linearGradient id="paint26_linear_174_769" x1="13.2355" y1="33.5457" x2="13.6394" y2="33.5457" gradientUnits="userSpaceOnUse">
<stop stop-color="#F3CE5E"/>
<stop offset="1" stop-color="#F2BE4A"/>
</linearGradient>
<linearGradient id="paint27_linear_174_769" x1="12.4302" y1="33.4818" x2="12.8341" y2="33.4818" gradientUnits="userSpaceOnUse">
<stop stop-color="#F3CE5E"/>
<stop offset="1" stop-color="#F2BE4A"/>
</linearGradient>
<linearGradient id="paint28_linear_174_769" x1="11.645" y1="33.312" x2="12.0489" y2="33.312" gradientUnits="userSpaceOnUse">
<stop stop-color="#F3CE5E"/>
<stop offset="1" stop-color="#F2BE4A"/>
</linearGradient>
<linearGradient id="paint29_linear_174_769" x1="10.8901" y1="33.0194" x2="11.294" y2="33.0194" gradientUnits="userSpaceOnUse">
<stop stop-color="#F3CE5E"/>
<stop offset="1" stop-color="#F2BE4A"/>
</linearGradient>
<linearGradient id="paint30_linear_174_769" x1="10.1883" y1="32.6265" x2="10.5922" y2="32.6265" gradientUnits="userSpaceOnUse">
<stop stop-color="#F3CE5E"/>
<stop offset="1" stop-color="#F2BE4A"/>
</linearGradient>
<linearGradient id="paint31_linear_174_769" x1="9.5503" y1="32.1334" x2="9.95419" y2="32.1334" gradientUnits="userSpaceOnUse">
<stop stop-color="#F3CE5E"/>
<stop offset="1" stop-color="#F2BE4A"/>
</linearGradient>
<linearGradient id="paint32_linear_174_769" x1="8.99043" y1="31.554" x2="9.39433" y2="31.554" gradientUnits="userSpaceOnUse">
<stop stop-color="#F3CE5E"/>
<stop offset="1" stop-color="#F2BE4A"/>
</linearGradient>
<linearGradient id="paint33_linear_174_769" x1="8.52263" y1="30.8994" x2="8.92653" y2="30.8994" gradientUnits="userSpaceOnUse">
<stop stop-color="#F3CE5E"/>
<stop offset="1" stop-color="#F2BE4A"/>
</linearGradient>
<linearGradient id="paint34_linear_174_769" x1="8.15157" y1="30.1811" x2="8.55547" y2="30.1811" gradientUnits="userSpaceOnUse">
<stop stop-color="#F3CE5E"/>
<stop offset="1" stop-color="#F2BE4A"/>
</linearGradient>
<linearGradient id="paint35_linear_174_769" x1="7.89524" y1="29.4175" x2="8.29914" y2="29.4175" gradientUnits="userSpaceOnUse">
<stop stop-color="#F3CE5E"/>
<stop offset="1" stop-color="#F2BE4A"/>
</linearGradient>
<linearGradient id="paint36_linear_174_769" x1="7.74488" y1="28.6238" x2="8.14878" y2="28.6238" gradientUnits="userSpaceOnUse">
<stop stop-color="#F3CE5E"/>
<stop offset="1" stop-color="#F2BE4A"/>
</linearGradient>
<linearGradient id="paint37_linear_174_769" x1="7.71998" y1="27.8187" x2="8.12387" y2="27.8187" gradientUnits="userSpaceOnUse">
<stop stop-color="#F3CE5E"/>
<stop offset="1" stop-color="#F2BE4A"/>
</linearGradient>
<linearGradient id="paint38_linear_174_769" x1="7.80659" y1="27.0167" x2="8.20771" y2="27.0167" gradientUnits="userSpaceOnUse">
<stop stop-color="#F3CE5E"/>
<stop offset="1" stop-color="#F2BE4A"/>
</linearGradient>
<linearGradient id="paint39_linear_174_769" x1="8.00644" y1="26.2368" x2="8.41312" y2="26.2368" gradientUnits="userSpaceOnUse">
<stop stop-color="#F3CE5E"/>
<stop offset="1" stop-color="#F2BE4A"/>
</linearGradient>
<linearGradient id="paint40_linear_174_769" x1="8.3241" y1="25.4956" x2="8.72521" y2="25.4956" gradientUnits="userSpaceOnUse">
<stop stop-color="#F3CE5E"/>
<stop offset="1" stop-color="#F2BE4A"/>
</linearGradient>
<linearGradient id="paint41_linear_174_769" x1="8.74212" y1="24.8049" x2="9.1488" y2="24.8049" gradientUnits="userSpaceOnUse">
<stop stop-color="#F3CE5E"/>
<stop offset="1" stop-color="#F2BE4A"/>
</linearGradient>
<linearGradient id="paint42_linear_174_769" x1="9.26" y1="24.1864" x2="9.66111" y2="24.1864" gradientUnits="userSpaceOnUse">
<stop stop-color="#F3CE5E"/>
<stop offset="1" stop-color="#F2BE4A"/>
</linearGradient>
<linearGradient id="paint43_linear_174_769" x1="9.85908" y1="23.6486" x2="10.2658" y2="23.6486" gradientUnits="userSpaceOnUse">
<stop stop-color="#F3CE5E"/>
<stop offset="1" stop-color="#F2BE4A"/>
</linearGradient>
<linearGradient id="paint44_linear_174_769" x1="10.5334" y1="23.2031" x2="10.9345" y2="23.2031" gradientUnits="userSpaceOnUse">
<stop stop-color="#F3CE5E"/>
<stop offset="1" stop-color="#F2BE4A"/>
</linearGradient>
<linearGradient id="paint45_linear_174_769" x1="11.2608" y1="22.8632" x2="11.6675" y2="22.8632" gradientUnits="userSpaceOnUse">
<stop stop-color="#F3CE5E"/>
<stop offset="1" stop-color="#F2BE4A"/>
</linearGradient>
<linearGradient id="paint46_linear_174_769" x1="12.0351" y1="22.6296" x2="12.439" y2="22.6296" gradientUnits="userSpaceOnUse">
<stop stop-color="#F3CE5E"/>
<stop offset="1" stop-color="#F2BE4A"/>
</linearGradient>
<linearGradient id="paint47_linear_174_769" x1="12.8311" y1="22.515" x2="13.235" y2="22.515" gradientUnits="userSpaceOnUse">
<stop stop-color="#F3CE5E"/>
<stop offset="1" stop-color="#F2BE4A"/>
</linearGradient>
<linearGradient id="paint48_linear_174_769" x1="13.6389" y1="22.5152" x2="14.0428" y2="22.5152" gradientUnits="userSpaceOnUse">
<stop stop-color="#F3CE5E"/>
<stop offset="1" stop-color="#F2BE4A"/>
</linearGradient>
<linearGradient id="paint49_linear_174_769" x1="14.4386" y1="22.6292" x2="14.8397" y2="22.6292" gradientUnits="userSpaceOnUse">
<stop stop-color="#F3CE5E"/>
<stop offset="1" stop-color="#F2BE4A"/>
</linearGradient>
<linearGradient id="paint50_linear_174_769" x1="15.2102" y1="22.8631" x2="15.614" y2="22.8631" gradientUnits="userSpaceOnUse">
<stop stop-color="#F3CE5E"/>
<stop offset="1" stop-color="#F2BE4A"/>
</linearGradient>
<linearGradient id="paint51_linear_174_769" x1="15.9401" y1="23.2033" x2="16.3413" y2="23.2033" gradientUnits="userSpaceOnUse">
<stop stop-color="#F3CE5E"/>
<stop offset="1" stop-color="#F2BE4A"/>
</linearGradient>
<linearGradient id="paint52_linear_174_769" x1="16.6111" y1="23.6487" x2="17.0177" y2="23.6487" gradientUnits="userSpaceOnUse">
<stop stop-color="#F3CE5E"/>
<stop offset="1" stop-color="#F2BE4A"/>
</linearGradient>
<linearGradient id="paint53_linear_174_769" x1="17.2126" y1="24.1865" x2="17.6137" y2="24.1865" gradientUnits="userSpaceOnUse">
<stop stop-color="#F3CE5E"/>
<stop offset="1" stop-color="#F2BE4A"/>
</linearGradient>
<linearGradient id="paint54_linear_174_769" x1="17.7255" y1="24.8051" x2="18.1322" y2="24.8051" gradientUnits="userSpaceOnUse">
<stop stop-color="#F3CE5E"/>
<stop offset="1" stop-color="#F2BE4A"/>
</linearGradient>
<linearGradient id="paint55_linear_174_769" x1="18.1493" y1="25.4958" x2="18.5504" y2="25.4958" gradientUnits="userSpaceOnUse">
<stop stop-color="#F3CE5E"/>
<stop offset="1" stop-color="#F2BE4A"/>
</linearGradient>
<linearGradient id="paint56_linear_174_769" x1="18.4609" y1="26.2367" x2="18.8675" y2="26.2367" gradientUnits="userSpaceOnUse">
<stop stop-color="#F3CE5E"/>
<stop offset="1" stop-color="#F2BE4A"/>
</linearGradient>
<linearGradient id="paint57_linear_174_769" x1="18.6674" y1="27.0167" x2="19.0686" y2="27.0167" gradientUnits="userSpaceOnUse">
<stop stop-color="#F3CE5E"/>
<stop offset="1" stop-color="#F2BE4A"/>
</linearGradient>
<linearGradient id="paint58_linear_174_769" x1="18.7501" y1="27.8187" x2="19.154" y2="27.8187" gradientUnits="userSpaceOnUse">
<stop stop-color="#F3CE5E"/>
<stop offset="1" stop-color="#F2BE4A"/>
</linearGradient>
<linearGradient id="paint59_linear_174_769" x1="18.7256" y1="28.624" x2="19.1323" y2="28.624" gradientUnits="userSpaceOnUse">
<stop stop-color="#F3CE5E"/>
<stop offset="1" stop-color="#F2BE4A"/>
</linearGradient>
<linearGradient id="paint60_linear_174_769" x1="18.5775" y1="29.4174" x2="18.9814" y2="29.4174" gradientUnits="userSpaceOnUse">
<stop stop-color="#F3CE5E"/>
<stop offset="1" stop-color="#F2BE4A"/>
</linearGradient>
<linearGradient id="paint61_linear_174_769" x1="18.3186" y1="30.1808" x2="18.7253" y2="30.1808" gradientUnits="userSpaceOnUse">
<stop stop-color="#F3CE5E"/>
<stop offset="1" stop-color="#F2BE4A"/>
</linearGradient>
<linearGradient id="paint62_linear_174_769" x1="17.9481" y1="30.8994" x2="18.352" y2="30.8994" gradientUnits="userSpaceOnUse">
<stop stop-color="#F3CE5E"/>
<stop offset="1" stop-color="#F2BE4A"/>
</linearGradient>
<linearGradient id="paint63_linear_174_769" x1="17.4803" y1="31.554" x2="17.8842" y2="31.554" gradientUnits="userSpaceOnUse">
<stop stop-color="#F3CE5E"/>
<stop offset="1" stop-color="#F2BE4A"/>
</linearGradient>
<linearGradient id="paint64_linear_174_769" x1="16.9232" y1="32.1333" x2="17.3243" y2="32.1333" gradientUnits="userSpaceOnUse">
<stop stop-color="#F3CE5E"/>
<stop offset="1" stop-color="#F2BE4A"/>
</linearGradient>
<linearGradient id="paint65_linear_174_769" x1="16.2824" y1="32.6265" x2="16.6863" y2="32.6265" gradientUnits="userSpaceOnUse">
<stop stop-color="#F3CE5E"/>
<stop offset="1" stop-color="#F2BE4A"/>
</linearGradient>
<linearGradient id="paint66_linear_174_769" x1="15.5836" y1="33.019" x2="15.9847" y2="33.019" gradientUnits="userSpaceOnUse">
<stop stop-color="#F3CE5E"/>
<stop offset="1" stop-color="#F2BE4A"/>
</linearGradient>
<linearGradient id="paint67_linear_174_769" x1="14.8287" y1="33.3115" x2="15.2326" y2="33.3115" gradientUnits="userSpaceOnUse">
<stop stop-color="#F3CE5E"/>
<stop offset="1" stop-color="#F2BE4A"/>
</linearGradient>
<linearGradient id="paint68_linear_174_769" x1="14.0405" y1="33.4819" x2="14.4444" y2="33.4819" gradientUnits="userSpaceOnUse">
<stop stop-color="#F3CE5E"/>
<stop offset="1" stop-color="#F2BE4A"/>
</linearGradient>
<linearGradient id="paint69_linear_174_769" x1="13.2355" y1="33.5457" x2="13.6394" y2="33.5457" gradientUnits="userSpaceOnUse">
<stop stop-color="#F3CE5E"/>
<stop offset="1" stop-color="#F2BE4A"/>
</linearGradient>
<linearGradient id="paint70_linear_174_769" x1="12.4302" y1="33.4818" x2="12.8341" y2="33.4818" gradientUnits="userSpaceOnUse">
<stop stop-color="#F3CE5E"/>
<stop offset="1" stop-color="#F2BE4A"/>
</linearGradient>
<linearGradient id="paint71_linear_174_769" x1="11.645" y1="33.312" x2="12.0489" y2="33.312" gradientUnits="userSpaceOnUse">
<stop stop-color="#F3CE5E"/>
<stop offset="1" stop-color="#F2BE4A"/>
</linearGradient>
<linearGradient id="paint72_linear_174_769" x1="10.8901" y1="33.0194" x2="11.294" y2="33.0194" gradientUnits="userSpaceOnUse">
<stop stop-color="#F3CE5E"/>
<stop offset="1" stop-color="#F2BE4A"/>
</linearGradient>
<linearGradient id="paint73_linear_174_769" x1="10.1883" y1="32.6265" x2="10.5922" y2="32.6265" gradientUnits="userSpaceOnUse">
<stop stop-color="#F3CE5E"/>
<stop offset="1" stop-color="#F2BE4A"/>
</linearGradient>
<linearGradient id="paint74_linear_174_769" x1="9.5503" y1="32.1334" x2="9.95419" y2="32.1334" gradientUnits="userSpaceOnUse">
<stop stop-color="#F3CE5E"/>
<stop offset="1" stop-color="#F2BE4A"/>
</linearGradient>
<linearGradient id="paint75_linear_174_769" x1="8.99043" y1="31.554" x2="9.39433" y2="31.554" gradientUnits="userSpaceOnUse">
<stop stop-color="#F3CE5E"/>
<stop offset="1" stop-color="#F2BE4A"/>
</linearGradient>
<linearGradient id="paint76_linear_174_769" x1="8.52263" y1="30.8994" x2="8.92653" y2="30.8994" gradientUnits="userSpaceOnUse">
<stop stop-color="#F3CE5E"/>
<stop offset="1" stop-color="#F2BE4A"/>
</linearGradient>
<linearGradient id="paint77_linear_174_769" x1="8.15157" y1="30.1811" x2="8.55547" y2="30.1811" gradientUnits="userSpaceOnUse">
<stop stop-color="#F3CE5E"/>
<stop offset="1" stop-color="#F2BE4A"/>
</linearGradient>
<linearGradient id="paint78_linear_174_769" x1="7.89524" y1="29.4175" x2="8.29914" y2="29.4175" gradientUnits="userSpaceOnUse">
<stop stop-color="#F3CE5E"/>
<stop offset="1" stop-color="#F2BE4A"/>
</linearGradient>
<linearGradient id="paint79_linear_174_769" x1="7.74488" y1="28.6238" x2="8.14878" y2="28.6238" gradientUnits="userSpaceOnUse">
<stop stop-color="#F3CE5E"/>
<stop offset="1" stop-color="#F2BE4A"/>
</linearGradient>
<linearGradient id="paint80_linear_174_769" x1="7.71998" y1="27.8187" x2="8.12387" y2="27.8187" gradientUnits="userSpaceOnUse">
<stop stop-color="#F3CE5E"/>
<stop offset="1" stop-color="#F2BE4A"/>
</linearGradient>
<linearGradient id="paint81_linear_174_769" x1="7.80659" y1="27.0167" x2="8.20771" y2="27.0167" gradientUnits="userSpaceOnUse">
<stop stop-color="#F3CE5E"/>
<stop offset="1" stop-color="#F2BE4A"/>
</linearGradient>
<linearGradient id="paint82_linear_174_769" x1="8.00644" y1="26.2368" x2="8.41312" y2="26.2368" gradientUnits="userSpaceOnUse">
<stop stop-color="#F3CE5E"/>
<stop offset="1" stop-color="#F2BE4A"/>
</linearGradient>
<linearGradient id="paint83_linear_174_769" x1="8.3241" y1="25.4956" x2="8.72521" y2="25.4956" gradientUnits="userSpaceOnUse">
<stop stop-color="#F3CE5E"/>
<stop offset="1" stop-color="#F2BE4A"/>
</linearGradient>
<linearGradient id="paint84_linear_174_769" x1="8.74212" y1="24.8049" x2="9.1488" y2="24.8049" gradientUnits="userSpaceOnUse">
<stop stop-color="#F3CE5E"/>
<stop offset="1" stop-color="#F2BE4A"/>
</linearGradient>
<linearGradient id="paint85_linear_174_769" x1="9.26" y1="24.1864" x2="9.66111" y2="24.1864" gradientUnits="userSpaceOnUse">
<stop stop-color="#F3CE5E"/>
<stop offset="1" stop-color="#F2BE4A"/>
</linearGradient>
<linearGradient id="paint86_linear_174_769" x1="9.85908" y1="23.6486" x2="10.2658" y2="23.6486" gradientUnits="userSpaceOnUse">
<stop stop-color="#F3CE5E"/>
<stop offset="1" stop-color="#F2BE4A"/>
</linearGradient>
<linearGradient id="paint87_linear_174_769" x1="10.5334" y1="23.2031" x2="10.9345" y2="23.2031" gradientUnits="userSpaceOnUse">
<stop stop-color="#F3CE5E"/>
<stop offset="1" stop-color="#F2BE4A"/>
</linearGradient>
<linearGradient id="paint88_linear_174_769" x1="11.2608" y1="22.8632" x2="11.6675" y2="22.8632" gradientUnits="userSpaceOnUse">
<stop stop-color="#F3CE5E"/>
<stop offset="1" stop-color="#F2BE4A"/>
</linearGradient>
<linearGradient id="paint89_linear_174_769" x1="12.0351" y1="22.6296" x2="12.439" y2="22.6296" gradientUnits="userSpaceOnUse">
<stop stop-color="#F3CE5E"/>
<stop offset="1" stop-color="#F2BE4A"/>
</linearGradient>
<linearGradient id="paint90_linear_174_769" x1="12.8311" y1="22.515" x2="13.235" y2="22.515" gradientUnits="userSpaceOnUse">
<stop stop-color="#F3CE5E"/>
<stop offset="1" stop-color="#F2BE4A"/>
</linearGradient>
<linearGradient id="paint91_linear_174_769" x1="13.6389" y1="22.5152" x2="14.0428" y2="22.5152" gradientUnits="userSpaceOnUse">
<stop stop-color="#F3CE5E"/>
<stop offset="1" stop-color="#F2BE4A"/>
</linearGradient>
<linearGradient id="paint92_linear_174_769" x1="14.4386" y1="22.6292" x2="14.8397" y2="22.6292" gradientUnits="userSpaceOnUse">
<stop stop-color="#F3CE5E"/>
<stop offset="1" stop-color="#F2BE4A"/>
</linearGradient>
<linearGradient id="paint93_linear_174_769" x1="15.2102" y1="22.8631" x2="15.614" y2="22.8631" gradientUnits="userSpaceOnUse">
<stop stop-color="#F3CE5E"/>
<stop offset="1" stop-color="#F2BE4A"/>
</linearGradient>
<linearGradient id="paint94_linear_174_769" x1="15.9401" y1="23.2033" x2="16.3413" y2="23.2033" gradientUnits="userSpaceOnUse">
<stop stop-color="#F3CE5E"/>
<stop offset="1" stop-color="#F2BE4A"/>
</linearGradient>
<linearGradient id="paint95_linear_174_769" x1="16.6111" y1="23.6487" x2="17.0177" y2="23.6487" gradientUnits="userSpaceOnUse">
<stop stop-color="#F3CE5E"/>
<stop offset="1" stop-color="#F2BE4A"/>
</linearGradient>
<linearGradient id="paint96_linear_174_769" x1="17.2126" y1="24.1865" x2="17.6137" y2="24.1865" gradientUnits="userSpaceOnUse">
<stop stop-color="#F3CE5E"/>
<stop offset="1" stop-color="#F2BE4A"/>
</linearGradient>
<linearGradient id="paint97_linear_174_769" x1="17.7255" y1="24.8051" x2="18.1322" y2="24.8051" gradientUnits="userSpaceOnUse">
<stop stop-color="#F3CE5E"/>
<stop offset="1" stop-color="#F2BE4A"/>
</linearGradient>
<linearGradient id="paint98_linear_174_769" x1="18.1493" y1="25.4958" x2="18.5504" y2="25.4958" gradientUnits="userSpaceOnUse">
<stop stop-color="#F3CE5E"/>
<stop offset="1" stop-color="#F2BE4A"/>
</linearGradient>
<linearGradient id="paint99_linear_174_769" x1="18.4609" y1="26.2367" x2="18.8675" y2="26.2367" gradientUnits="userSpaceOnUse">
<stop stop-color="#F3CE5E"/>
<stop offset="1" stop-color="#F2BE4A"/>
</linearGradient>
<linearGradient id="paint100_linear_174_769" x1="18.6674" y1="27.0167" x2="19.0686" y2="27.0167" gradientUnits="userSpaceOnUse">
<stop stop-color="#F3CE5E"/>
<stop offset="1" stop-color="#F2BE4A"/>
</linearGradient>
<linearGradient id="paint101_linear_174_769" x1="18.7501" y1="27.8187" x2="19.154" y2="27.8187" gradientUnits="userSpaceOnUse">
<stop stop-color="#F3CE5E"/>
<stop offset="1" stop-color="#F2BE4A"/>
</linearGradient>
<linearGradient id="paint102_linear_174_769" x1="18.0035" y1="23.4933" x2="9.13175" y2="32.2871" gradientUnits="userSpaceOnUse">
<stop stop-color="#AA7238"/>
<stop offset="0.25" stop-color="#C08443"/>
<stop offset="0.35" stop-color="#BE8242"/>
<stop offset="0.39" stop-color="#B87B3D"/>
<stop offset="0.42" stop-color="#AD7036"/>
<stop offset="0.44" stop-color="#9D5F2B"/>
<stop offset="0.46" stop-color="#88491D"/>
<stop offset="0.47" stop-color="#7A3A14"/>
<stop offset="0.64" stop-color="#7C3C15"/>
<stop offset="0.72" stop-color="#83441A"/>
<stop offset="0.79" stop-color="#8E5123"/>
<stop offset="0.85" stop-color="#9E642F"/>
<stop offset="0.9" stop-color="#B37C3E"/>
<stop offset="0.95" stop-color="#CD9B52"/>
<stop offset="0.99" stop-color="#EBBE68"/>
<stop offset="1" stop-color="#F0C46C"/>
</linearGradient>
<linearGradient id="paint103_linear_174_769" x1="11.4551" y1="29.0687" x2="15.6759" y2="27.2479" gradientUnits="userSpaceOnUse">
<stop stop-color="#F1C848"/>
<stop offset="0.19" stop-color="#F0C94F"/>
<stop offset="0.45" stop-color="#EBCC62"/>
<stop offset="0.48" stop-color="#EBCC64"/>
<stop offset="0.75" stop-color="#F5E579"/>
<stop offset="1" stop-color="#FFFF8E"/>
</linearGradient>
<linearGradient id="paint104_linear_174_769" x1="13.5015" y1="25.1894" x2="13.5015" y2="31.0676" gradientUnits="userSpaceOnUse">
<stop stop-color="#FFEE7B"/>
<stop offset="0.15" stop-color="#FFC757"/>
<stop offset="0.27" stop-color="#E1A11B"/>
<stop offset="0.28" stop-color="#E3A622"/>
<stop offset="0.31" stop-color="#EDC044"/>
<stop offset="0.34" stop-color="#F4D35F"/>
<stop offset="0.37" stop-color="#FAE272"/>
<stop offset="0.41" stop-color="#FDEA7D"/>
<stop offset="0.44" stop-color="#FEED81"/>
<stop offset="0.47" stop-color="#F8E37B"/>
<stop offset="0.51" stop-color="#E8C76B"/>
<stop offset="0.57" stop-color="#CE9B51"/>
<stop offset="0.63" stop-color="#AB5E2D"/>
<stop offset="0.65" stop-color="#A24F24"/>
<stop offset="0.76" stop-color="#E0B439"/>
<stop offset="0.86" stop-color="#F1C848"/>
<stop offset="1" stop-color="#FFFF8E"/>
</linearGradient>
<radialGradient id="paint105_radial_174_769" cx="0" cy="0" r="1" gradientUnits="userSpaceOnUse" gradientTransform="translate(13.6465 14.4709) scale(16.3579 16.1132)">
<stop stop-color="#ECECBB"/>
<stop offset="1" stop-color="#784F58"/>
</radialGradient>
</defs>
</svg>
