<svg width="27" height="40" viewBox="0 0 27 40" fill="none" xmlns="http://www.w3.org/2000/svg">
<path d="M21 0H6L7.02543 5H21V0Z" fill="url(#paint0_linear_175_1006)"/>
<g style="mix-blend-mode:multiply" opacity="0.75">
<path d="M7.88304 0H6L7.06044 5H11L7.88304 0Z" fill="#4A8195"/>
</g>
<g style="mix-blend-mode:multiply" opacity="0.75">
<path d="M19.1142 0H21L19.9396 5H16L19.1142 0Z" fill="#4A8195"/>
</g>
<path d="M21.3025 0L10 19H16.5565L27 3.28644L21.3025 0Z" fill="url(#paint1_linear_175_1006)"/>
<path d="M26 2.05297L15.6296 19H12L22.677 0L26 2.05297Z" fill="url(#paint2_linear_175_1006)"/>
<g style="mix-blend-mode:multiply" opacity="0.5">
<path d="M14.3319 12L10 19H16.6579L18 17.0605L14.3319 12Z" fill="#771A1F"/>
</g>
<path d="M13.5287 16H13.4652C6.62729 16 7.95448 20.842 8.41611 22C8.4565 21.9621 8.4969 21.9212 8.53729 21.8862C8.60979 21.8196 8.6891 21.7609 8.77388 21.7112V21.7112H8.79119C8.85177 21.6733 9.68848 21.6412 9.75195 21.6121C9.36245 20.177 8.46804 17.7589 13.4594 17.7268H13.5287C18.52 17.7589 17.6256 20.177 17.239 21.6121C17.3025 21.6412 18.1363 21.6733 18.1969 21.7112H18.2142C18.2994 21.7602 18.3788 21.8189 18.4508 21.8862C18.4912 21.9212 18.5316 21.9621 18.572 22C19.0509 20.8362 20.3781 16 13.5287 16Z" fill="url(#paint3_radial_175_1006)"/>
<path d="M13.5287 16H13.4652C6.62729 16 7.95448 20.842 8.41611 22C8.4565 21.9621 8.4969 21.9212 8.53729 21.8862C8.60979 21.8196 8.6891 21.7609 8.77388 21.7112V21.7112H8.79119C8.85177 21.6733 9.68848 21.6412 9.75195 21.6121C9.36245 20.177 8.46804 17.7589 13.4594 17.7268H13.5287C18.52 17.7589 17.6256 20.177 17.239 21.6121C17.3025 21.6412 18.1363 21.6733 18.1969 21.7112H18.2142C18.2994 21.7602 18.3788 21.8189 18.4508 21.8862C18.4912 21.9212 18.5316 21.9621 18.572 22C19.0509 20.8362 20.3781 16 13.5287 16Z" fill="url(#paint4_linear_175_1006)"/>
<path d="M13.5278 16H13.4644C6.6275 16 7.95449 20.842 8.41605 22L8.49394 21.9271C7.97468 20.4482 7.14387 16.1954 13.4644 16.1954H13.5278C19.8483 16.1954 19.0089 20.4482 18.4983 21.9271L18.5762 22C19.0493 20.8362 20.3763 16 13.5278 16Z" fill="url(#paint5_linear_175_1006)"/>
<path style="mix-blend-mode:multiply" d="M9.67603 19C9.08932 19.1389 8.52462 19.3702 8 19.6865C8.04333 20.4795 8.20174 21.2602 8.46943 22C8.51571 21.9535 8.56199 21.9035 8.60827 21.8606C8.69134 21.7788 8.7822 21.7069 8.87934 21.646V21.646H8.89917C8.96859 21.5995 9.92727 21.5602 10 21.5244C9.81157 20.7807 9.53058 19.8474 9.67603 19Z" fill="url(#paint6_linear_175_1006)"/>
<path style="mix-blend-mode:multiply" d="M17.3049 19C17.4852 19.8477 17.1902 20.8028 17 21.5398C17.0721 21.5744 18.0197 21.6125 18.0885 21.6574H18.1082C18.2051 21.7155 18.2953 21.7852 18.3771 21.865C18.423 21.9066 18.4689 21.955 18.5148 22C18.7905 21.2708 18.9543 20.4999 19 19.7163C18.4673 19.3999 17.8973 19.1591 17.3049 19Z" fill="url(#paint7_linear_175_1006)"/>
<path style="mix-blend-mode:multiply" opacity="0.55" d="M13.5265 17H13.469C8.63033 17 8.82571 19.3483 9.13603 21C9.16477 20.9817 9.7107 20.8695 9.77392 20.8435C9.38602 19.5597 8.49528 17.3966 13.4662 17.3679H13.5265C18.4974 17.3966 17.6067 19.5597 17.2216 20.8435C17.2848 20.8695 17.8279 20.9817 17.8566 21C18.1813 19.3588 18.3738 17 13.5265 17Z" fill="url(#paint8_radial_175_1006)"/>
<path d="M0 3.28644L10.4417 19H17L5.69655 0L0 3.28644Z" fill="url(#paint9_linear_175_1006)"/>
<path d="M1 2.05297L11.3704 19H15L4.32019 0L1 2.05297Z" fill="url(#paint10_linear_175_1006)"/>
<path d="M19.4421 33.8015C22.8654 30.3782 22.8654 24.8279 19.4421 21.4046C16.0188 17.9812 10.4685 17.9812 7.04514 21.4046C3.62182 24.8279 3.62183 30.3782 7.04514 33.8015C10.4685 37.2248 16.0188 37.2248 19.4421 33.8015Z" fill="url(#paint11_linear_175_1006)"/>
<path d="M13.2328 18.8379C11.499 18.8379 9.8042 19.352 8.36265 20.3152C6.9211 21.2784 5.79754 22.6475 5.13407 24.2493C4.47059 25.851 4.297 27.6136 4.63524 29.314C4.97347 31.0144 5.80835 32.5764 7.03429 33.8023C8.26023 35.0282 9.82217 35.8631 11.5226 36.2014C13.223 36.5396 14.9856 36.366 16.5873 35.7025C18.1891 35.0391 19.5582 33.9155 20.5214 32.4739C21.4846 31.0324 21.9987 29.3376 21.9987 27.6038C21.9987 25.279 21.0752 23.0493 19.4312 21.4054C17.7873 19.7614 15.5576 18.8379 13.2328 18.8379ZM13.2328 36.1247C11.5468 36.1247 9.89876 35.6247 8.497 34.688C7.09523 33.7513 6.00275 32.4199 5.35769 30.8623C4.71264 29.3046 4.54401 27.5906 4.87312 25.9372C5.20223 24.2837 6.01431 22.7649 7.20663 21.573C8.39896 20.381 9.91798 19.5695 11.5716 19.2409C13.2252 18.9123 14.9391 19.0815 16.4965 19.7271C18.054 20.3726 19.385 21.4656 20.3212 22.8676C21.2575 24.2697 21.7569 25.9179 21.7564 27.6038C21.7564 28.723 21.5359 29.8313 21.1075 30.8653C20.6791 31.8992 20.0512 32.8387 19.2597 33.63C18.4682 34.4212 17.5285 35.0488 16.4944 35.4769C15.4603 35.9049 14.352 36.125 13.2328 36.1247V36.1247Z" fill="url(#paint12_linear_175_1006)"/>
<path style="mix-blend-mode:screen" opacity="0.75" d="M15.9205 33.9879C19.4503 32.5121 21.1154 28.4542 19.6396 24.9243C18.1637 21.3944 14.1058 19.7293 10.5759 21.2052C7.04608 22.681 5.38098 26.739 6.85683 30.2688C8.33268 33.7987 12.3906 35.4638 15.9205 33.9879Z" fill="url(#paint13_linear_175_1006)"/>
<path d="M15.9205 33.9879C19.4503 32.5121 21.1154 28.4542 19.6396 24.9243C18.1637 21.3944 14.1058 19.7293 10.5759 21.2052C7.04608 22.681 5.38098 26.739 6.85683 30.2688C8.33268 33.7987 12.3906 35.4638 15.9205 33.9879Z" fill="url(#paint14_linear_175_1006)"/>
<path d="M13.2434 34.2948C16.9401 34.2948 19.9369 31.298 19.9369 27.6013C19.9369 23.9045 16.9401 20.9077 13.2434 20.9077C9.54661 20.9077 6.5498 23.9045 6.5498 27.6013C6.5498 31.298 9.54661 34.2948 13.2434 34.2948Z" fill="url(#paint15_linear_175_1006)"/>
<g opacity="0.5">
<g style="mix-blend-mode:multiply" opacity="0.85">
<path d="M18.7064 28.4061C18.6806 28.403 18.6556 28.3948 18.633 28.3821C18.6104 28.3694 18.5905 28.3523 18.5744 28.3319C18.5584 28.3114 18.5465 28.288 18.5395 28.263C18.5325 28.238 18.5305 28.2118 18.5337 28.186C18.5415 28.1341 18.5692 28.0873 18.6108 28.0553C18.6524 28.0233 18.7048 28.0087 18.757 28.0144C18.8092 28.0202 18.8571 28.0459 18.8908 28.0862C18.9244 28.1265 18.9412 28.1782 18.9375 28.2306C18.9299 28.2844 18.9014 28.3331 18.8581 28.3659C18.8148 28.3988 18.7602 28.4133 18.7064 28.4061V28.4061Z" fill="url(#paint16_linear_175_1006)"/>
<path d="M18.5257 29.1947C18.475 29.1797 18.4319 29.1461 18.405 29.1006C18.3782 29.0551 18.3695 29.0011 18.3808 28.9495C18.3952 28.8985 18.4287 28.855 18.4744 28.828C18.52 28.801 18.5743 28.7927 18.626 28.8047C18.6516 28.8113 18.6756 28.8228 18.6968 28.8387C18.7179 28.8546 18.7357 28.8745 18.7491 28.8972C18.7626 28.92 18.7714 28.9452 18.7751 28.9714C18.7789 28.9975 18.7774 29.0242 18.7708 29.0498C18.7642 29.0754 18.7527 29.0995 18.7368 29.1206C18.7209 29.1417 18.701 29.1595 18.6782 29.173C18.6555 29.1864 18.6303 29.1953 18.6041 29.199C18.5779 29.2027 18.5513 29.2012 18.5257 29.1947V29.1947Z" fill="url(#paint17_linear_175_1006)"/>
<path d="M18.247 29.9468C18.1979 29.9261 18.159 29.8867 18.1389 29.8374C18.1188 29.788 18.1191 29.7327 18.1398 29.6835C18.1605 29.6344 18.1998 29.5955 18.2492 29.5754C18.2985 29.5553 18.3539 29.5556 18.403 29.5763C18.4273 29.5865 18.4494 29.6015 18.468 29.6202C18.4865 29.639 18.5012 29.6613 18.5111 29.6857C18.5211 29.7101 18.5261 29.7363 18.526 29.7627C18.5258 29.7891 18.5205 29.8152 18.5102 29.8395C18.5 29.8639 18.4851 29.8859 18.4663 29.9045C18.4475 29.923 18.4253 29.9377 18.4008 29.9477C18.3764 29.9576 18.3502 29.9627 18.3238 29.9625C18.2974 29.9624 18.2713 29.957 18.247 29.9468V29.9468Z" fill="url(#paint18_linear_175_1006)"/>
<path d="M17.8513 30.6514C17.8055 30.6237 17.7726 30.5789 17.7598 30.5269C17.747 30.475 17.7553 30.42 17.783 30.3742C17.8107 30.3284 17.8555 30.2955 17.9075 30.2827C17.9595 30.2699 18.0144 30.2783 18.0602 30.306C18.0833 30.3195 18.1035 30.3374 18.1195 30.3588C18.1356 30.3802 18.1472 30.4046 18.1537 30.4306C18.1602 30.4565 18.1614 30.4835 18.1573 30.51C18.1532 30.5364 18.1439 30.5618 18.1298 30.5845C18.1164 30.6077 18.0984 30.6279 18.0769 30.6439C18.0554 30.6599 18.0309 30.6714 18.0049 30.6777C17.9788 30.6839 17.9518 30.6848 17.9254 30.6803C17.899 30.6758 17.8738 30.6659 17.8513 30.6514V30.6514Z" fill="url(#paint19_linear_175_1006)"/>
<path d="M17.3551 31.2865C17.3352 31.2697 17.3189 31.249 17.3072 31.2258C17.2954 31.2026 17.2884 31.1773 17.2866 31.1513C17.2848 31.1254 17.2882 31.0993 17.2966 31.0747C17.305 31.0501 17.3183 31.0274 17.3356 31.0079C17.3518 30.9876 17.3719 30.9707 17.3947 30.9581C17.4176 30.9455 17.4426 30.9376 17.4685 30.9348C17.4944 30.9319 17.5206 30.9342 17.5456 30.9415C17.5705 30.9488 17.5939 30.961 17.6141 30.9773C17.6344 30.9943 17.6512 31.0152 17.6634 31.0386C17.6757 31.0621 17.6832 31.0878 17.6855 31.1142C17.6878 31.1406 17.685 31.1671 17.677 31.1924C17.6691 31.2177 17.6562 31.2411 17.6392 31.2614C17.6222 31.2817 17.6014 31.2985 17.5779 31.3107C17.5544 31.323 17.5287 31.3305 17.5023 31.3328C17.476 31.3351 17.4494 31.3322 17.4241 31.3243C17.3988 31.3163 17.3754 31.3035 17.3551 31.2865V31.2865Z" fill="url(#paint20_linear_175_1006)"/>
<path d="M16.7786 31.8491C16.7416 31.8096 16.7219 31.757 16.7237 31.7029C16.7256 31.6489 16.7488 31.5977 16.7883 31.5608C16.8279 31.5239 16.8804 31.5041 16.9345 31.506C16.9886 31.5078 17.0397 31.531 17.0766 31.5706C17.1116 31.6094 17.1297 31.6605 17.1271 31.7127C17.1245 31.7649 17.1014 31.8139 17.0627 31.8491C17.0445 31.8685 17.0225 31.884 16.998 31.8945C16.9736 31.9051 16.9473 31.9105 16.9206 31.9105C16.894 31.9105 16.8677 31.9051 16.8433 31.8945C16.8188 31.884 16.7968 31.8685 16.7786 31.8491V31.8491Z" fill="url(#paint21_linear_175_1006)"/>
<path d="M16.121 32.3142C16.1061 32.2922 16.0958 32.2674 16.0906 32.2414C16.0855 32.2153 16.0857 32.1885 16.0911 32.1625C16.0966 32.1365 16.1072 32.1118 16.1224 32.09C16.1376 32.0683 16.157 32.0497 16.1795 32.0356C16.2237 32.0064 16.2775 31.9956 16.3295 32.0055C16.3816 32.0154 16.4277 32.0452 16.4581 32.0885C16.4747 32.1104 16.4867 32.1355 16.4932 32.1622C16.4997 32.1889 16.5007 32.2166 16.4961 32.2437C16.4915 32.2708 16.4813 32.2966 16.4663 32.3196C16.4513 32.3426 16.4316 32.3623 16.4087 32.3774C16.3857 32.3925 16.3599 32.4028 16.3329 32.4075C16.3058 32.4122 16.278 32.4113 16.2513 32.4049C16.2246 32.3984 16.1995 32.3865 16.1776 32.37C16.1556 32.3534 16.1373 32.3325 16.1238 32.3086L16.121 32.3142Z" fill="url(#paint22_linear_175_1006)"/>
<path d="M15.4054 32.6903C15.3822 32.6403 15.3794 32.5833 15.3976 32.5312C15.4158 32.4792 15.4536 32.4364 15.5029 32.4118C15.5273 32.399 15.554 32.3914 15.5814 32.3893C15.6088 32.3872 15.6364 32.3906 15.6624 32.3995C15.6885 32.4083 15.7125 32.4224 15.7329 32.4408C15.7534 32.4592 15.7699 32.4815 15.7815 32.5065C15.7945 32.5309 15.8024 32.5578 15.8045 32.5855C15.8066 32.6131 15.803 32.6409 15.7938 32.6671C15.7846 32.6933 15.7702 32.7173 15.7512 32.7376C15.7323 32.7579 15.7094 32.774 15.684 32.785C15.6599 32.799 15.633 32.8077 15.6053 32.8105C15.5775 32.8133 15.5495 32.8101 15.5231 32.8011C15.4967 32.7921 15.4726 32.7776 15.4522 32.7585C15.4319 32.7394 15.416 32.7161 15.4054 32.6903V32.6903Z" fill="url(#paint23_linear_175_1006)"/>
<path d="M14.6397 32.9436C14.6294 32.9051 14.6307 32.8644 14.6434 32.8266C14.6561 32.7888 14.6796 32.7555 14.7111 32.731C14.7426 32.7065 14.7805 32.6917 14.8203 32.6886C14.8601 32.6855 14.8999 32.6942 14.9347 32.7135C14.9696 32.7328 14.9981 32.762 15.0165 32.7974C15.0349 32.8327 15.0425 32.8728 15.0384 32.9124C15.0343 32.9521 15.0185 32.9897 14.9932 33.0205C14.9679 33.0513 14.934 33.074 14.8959 33.0857C14.8698 33.0933 14.8424 33.0957 14.8153 33.0927C14.7882 33.0897 14.762 33.0813 14.7382 33.0681C14.7143 33.0549 14.6933 33.0371 14.6764 33.0157C14.6595 32.9944 14.647 32.9699 14.6397 32.9436V32.9436Z" fill="url(#paint24_linear_175_1006)"/>
<path d="M13.848 33.0943C13.8421 33.0414 13.8563 32.9883 13.8878 32.9455C13.9193 32.9027 13.9657 32.8732 14.0179 32.8631C14.0704 32.8573 14.1231 32.8716 14.1655 32.9031C14.2079 32.9346 14.2368 32.981 14.2463 33.033C14.2503 33.0591 14.2492 33.0858 14.2429 33.1115C14.2366 33.1372 14.2253 33.1615 14.2096 33.1828C14.194 33.2041 14.1743 33.2222 14.1517 33.2359C14.129 33.2496 14.1039 33.2588 14.0778 33.2628C14.0516 33.2668 14.0249 33.2657 13.9992 33.2594C13.9735 33.2531 13.9493 33.2418 13.928 33.2261C13.9066 33.2105 13.8886 33.1908 13.8749 33.1682C13.8611 33.1455 13.852 33.1204 13.848 33.0943V33.0943Z" fill="url(#paint25_linear_175_1006)"/>
<path d="M13.043 33.119C13.0489 33.0696 13.0726 33.0239 13.1099 32.9908C13.1471 32.9577 13.1952 32.9395 13.245 32.9395C13.2948 32.9395 13.3429 32.9577 13.3801 32.9908C13.4173 33.0239 13.4411 33.0696 13.4469 33.119C13.4477 33.174 13.4268 33.227 13.3887 33.2666C13.3507 33.3062 13.2985 33.3293 13.2436 33.3307C13.2165 33.33 13.1899 33.324 13.1651 33.3129C13.1404 33.3019 13.1181 33.2861 13.0995 33.2664C13.0808 33.2468 13.0663 33.2236 13.0566 33.1983C13.0469 33.1731 13.0423 33.1461 13.043 33.119V33.119Z" fill="url(#paint26_linear_175_1006)"/>
<path d="M12.2414 33.0327C12.2495 32.9799 12.2783 32.9324 12.3214 32.9008C12.3645 32.8692 12.4184 32.856 12.4712 32.8642C12.524 32.8723 12.5715 32.9011 12.6031 32.9442C12.6347 32.9873 12.6479 33.0411 12.6397 33.094C12.6367 33.1205 12.6283 33.1461 12.615 33.1692C12.6017 33.1924 12.5838 33.2125 12.5624 33.2284C12.5409 33.2444 12.5165 33.2557 12.4905 33.2618C12.4645 33.2679 12.4376 33.2686 12.4113 33.2639C12.3847 33.2605 12.359 33.2518 12.3359 33.2382C12.3127 33.2246 12.2926 33.2064 12.2767 33.1848C12.2608 33.1631 12.2495 33.1385 12.2434 33.1124C12.2373 33.0862 12.2367 33.0591 12.2414 33.0327V33.0327Z" fill="url(#paint27_linear_175_1006)"/>
<path d="M11.4614 32.8296C11.4786 32.7801 11.5143 32.739 11.561 32.7151C11.6077 32.6913 11.6619 32.6864 11.7121 32.7015C11.7371 32.7082 11.7605 32.7199 11.781 32.7358C11.8014 32.7517 11.8185 32.7715 11.8312 32.794C11.8439 32.8166 11.852 32.8415 11.855 32.8672C11.8579 32.8929 11.8558 32.919 11.8486 32.9438C11.8415 32.97 11.8293 32.9944 11.8127 33.0157C11.7961 33.0371 11.7753 33.0549 11.7517 33.0681C11.7281 33.0814 11.7021 33.0898 11.6752 33.0928C11.6483 33.0958 11.6211 33.0935 11.5951 33.0859C11.569 33.0786 11.5447 33.0661 11.5236 33.0491C11.5025 33.032 11.4852 33.0108 11.4726 32.9868C11.4601 32.9628 11.4526 32.9364 11.4507 32.9094C11.4488 32.8823 11.4524 32.8552 11.4614 32.8296V32.8296Z" fill="url(#paint28_linear_175_1006)"/>
<path d="M10.7255 32.504C10.737 32.4791 10.7535 32.4567 10.774 32.4383C10.7945 32.4199 10.8184 32.4059 10.8445 32.3971C10.8705 32.3882 10.8981 32.3847 10.9255 32.3868C10.9529 32.3889 10.9796 32.3966 11.004 32.4093C11.0533 32.4339 11.091 32.4769 11.1087 32.5291C11.1265 32.5812 11.1229 32.6383 11.0987 32.6879C11.0885 32.714 11.0728 32.7376 11.0525 32.7569C11.0323 32.7763 11.008 32.791 10.9815 32.8001C10.955 32.8091 10.9268 32.8122 10.8989 32.8092C10.871 32.8062 10.8442 32.7971 10.8202 32.7826C10.7947 32.7716 10.7717 32.7555 10.7529 32.7351C10.734 32.7148 10.7197 32.6907 10.7107 32.6644C10.7018 32.6381 10.6985 32.6103 10.701 32.5826C10.7036 32.555 10.7119 32.5282 10.7255 32.504Z" fill="url(#paint29_linear_175_1006)"/>
<path d="M10.0327 32.0944C10.0631 32.0511 10.1092 32.0213 10.1612 32.0114C10.2132 32.0015 10.267 32.0123 10.3112 32.0415C10.3339 32.0554 10.3536 32.0737 10.3691 32.0954C10.3845 32.1171 10.3955 32.1417 10.4012 32.1677C10.4069 32.1937 10.4073 32.2206 10.4024 32.2468C10.3975 32.273 10.3873 32.2979 10.3725 32.32C10.3438 32.3652 10.2985 32.3973 10.2464 32.4093C10.1942 32.4213 10.1395 32.4122 10.094 32.3841C10.0699 32.37 10.0491 32.351 10.0329 32.3284C10.0166 32.3058 10.0052 32.28 9.99946 32.2528C9.99369 32.2255 9.99367 32.1974 9.99939 32.1701C10.0051 32.1428 10.0164 32.117 10.0327 32.0944V32.0944Z" fill="url(#paint30_linear_175_1006)"/>
<path d="M9.41134 31.5789C9.44828 31.539 9.49955 31.5154 9.55388 31.5133C9.60821 31.5112 9.66114 31.5308 9.70104 31.5678C9.74093 31.6047 9.76451 31.656 9.7666 31.7103C9.76869 31.7646 9.74912 31.8176 9.71218 31.8575C9.69516 31.8771 9.67438 31.8932 9.65107 31.9047C9.62776 31.9162 9.60238 31.9229 9.57642 31.9245C9.55047 31.926 9.52446 31.9224 9.49994 31.9138C9.47542 31.9051 9.45287 31.8916 9.43363 31.8742C9.41134 31.8572 9.3929 31.8358 9.37952 31.8112C9.36614 31.7866 9.35814 31.7595 9.35603 31.7315C9.35392 31.7036 9.35777 31.6756 9.3673 31.6493C9.37684 31.623 9.39185 31.599 9.41134 31.5789V31.5789Z" fill="url(#paint31_linear_175_1006)"/>
<path d="M8.8767 30.9773C8.89698 30.961 8.92028 30.9488 8.94527 30.9415C8.97027 30.9342 8.99645 30.9319 9.02233 30.9348C9.04821 30.9376 9.07328 30.9455 9.09608 30.9581C9.11889 30.9707 9.139 30.9876 9.15525 31.0079C9.18883 31.0478 9.20557 31.0992 9.20193 31.1512C9.1983 31.2032 9.17455 31.2517 9.13574 31.2865C9.09509 31.3182 9.04415 31.3337 8.99273 31.3301C8.94131 31.3265 8.89304 31.304 8.8572 31.267C8.83921 31.2468 8.82543 31.2232 8.81666 31.1977C8.80789 31.1721 8.80431 31.145 8.80612 31.1181C8.80794 31.0911 8.81512 31.0647 8.82723 31.0406C8.83935 31.0164 8.85617 30.9949 8.8767 30.9773V30.9773Z" fill="url(#paint32_linear_175_1006)"/>
<path d="M8.42777 30.306C8.47357 30.2783 8.52851 30.2699 8.58049 30.2827C8.63246 30.2955 8.67722 30.3284 8.70493 30.3742C8.73263 30.42 8.741 30.475 8.72821 30.5269C8.71541 30.5789 8.68249 30.6237 8.63668 30.6514C8.61432 30.6664 8.5891 30.6765 8.56261 30.6813C8.53613 30.686 8.50894 30.6852 8.48278 30.6789C8.45662 30.6726 8.43203 30.661 8.41058 30.6448C8.38913 30.6285 8.37127 30.608 8.35813 30.5845C8.34369 30.5619 8.33402 30.5365 8.32971 30.51C8.3254 30.4835 8.32654 30.4564 8.33305 30.4303C8.33957 30.4042 8.35133 30.3798 8.36761 30.3584C8.3839 30.337 8.40437 30.3192 8.42777 30.306V30.306Z" fill="url(#paint33_linear_175_1006)"/>
<path d="M8.08766 29.5761C8.13607 29.5568 8.19015 29.5574 8.23814 29.5777C8.28613 29.598 8.32415 29.6365 8.34393 29.6847C8.35507 29.7083 8.36139 29.7338 8.36251 29.7598C8.36363 29.7858 8.35952 29.8118 8.35044 29.8362C8.34135 29.8606 8.32746 29.883 8.3096 29.9019C8.29174 29.9209 8.27026 29.9361 8.24644 29.9466C8.22147 29.9586 8.19432 29.9655 8.16663 29.9669C8.13893 29.9682 8.11125 29.9639 8.08524 29.9543C8.05923 29.9447 8.03544 29.9299 8.01527 29.9109C7.99511 29.8918 7.97899 29.8689 7.96789 29.8435C7.95766 29.8181 7.95264 29.791 7.95316 29.7636C7.95368 29.7363 7.95971 29.7093 7.97089 29.6843C7.98207 29.6594 7.99818 29.6369 8.01825 29.6183C8.03831 29.5997 8.06192 29.5853 8.08766 29.5761Z" fill="url(#paint34_linear_175_1006)"/>
<path d="M7.85431 28.8047C7.90596 28.7927 7.96025 28.801 8.0059 28.828C8.05155 28.855 8.08506 28.8985 8.09944 28.9495C8.11076 29.0011 8.10211 29.0551 8.07524 29.1006C8.04836 29.1461 8.00525 29.1797 7.95459 29.1947C7.92899 29.2012 7.90233 29.2027 7.87616 29.199C7.84998 29.1953 7.82479 29.1864 7.80203 29.173C7.77927 29.1595 7.75938 29.1417 7.7435 29.1206C7.72761 29.0995 7.71605 29.0754 7.70947 29.0498C7.70288 29.0242 7.70141 28.9975 7.70512 28.9714C7.70884 28.9452 7.71767 28.92 7.73112 28.8972C7.74457 28.8745 7.76238 28.8546 7.78351 28.8387C7.80465 28.8228 7.82871 28.8113 7.85431 28.8047V28.8047Z" fill="url(#paint35_linear_175_1006)"/>
<path d="M7.73967 28.0081C7.79172 28.0035 7.8435 28.0196 7.88369 28.053C7.92387 28.0864 7.94921 28.1344 7.95416 28.1864C7.95767 28.212 7.95604 28.2381 7.94937 28.2631C7.9427 28.2881 7.93112 28.3115 7.91531 28.332C7.89949 28.3525 7.87976 28.3696 7.85725 28.3824C7.83475 28.3952 7.80993 28.4034 7.78424 28.4064C7.7575 28.4104 7.73025 28.4089 7.70408 28.4022C7.67791 28.3954 7.65334 28.3835 7.63182 28.3672C7.61029 28.3509 7.59224 28.3304 7.57871 28.307C7.56519 28.2836 7.55646 28.2578 7.55304 28.231C7.54997 28.2039 7.55242 28.1766 7.56024 28.1506C7.56807 28.1245 7.5811 28.1003 7.59856 28.0795C7.61601 28.0587 7.63752 28.0416 7.66178 28.0293C7.68604 28.017 7.71254 28.0098 7.73967 28.0081Z" fill="url(#paint36_linear_175_1006)"/>
<path d="M7.73977 27.2114C7.79247 27.215 7.8418 27.2387 7.87756 27.2775C7.91333 27.3164 7.9328 27.3675 7.93197 27.4203C7.92776 27.4735 7.9036 27.5232 7.86435 27.5593C7.8251 27.5955 7.77364 27.6155 7.72027 27.6153C7.69356 27.6154 7.66712 27.61 7.64264 27.5993C7.61816 27.5886 7.59618 27.5729 7.5781 27.5533C7.56001 27.5336 7.54622 27.5104 7.53761 27.4851C7.529 27.4598 7.52575 27.433 7.52807 27.4064C7.52838 27.3795 7.5342 27.3529 7.54517 27.3282C7.55613 27.3036 7.57202 27.2815 7.59184 27.2632C7.61167 27.245 7.63502 27.231 7.66045 27.2221C7.68589 27.2131 7.71288 27.2095 7.73977 27.2114V27.2114Z" fill="url(#paint37_linear_175_1006)"/>
<path d="M7.85375 26.4036C7.90472 26.4156 7.94933 26.4463 7.97874 26.4896C8.00814 26.533 8.0202 26.5858 8.01252 26.6376C8.00849 26.6633 7.99933 26.688 7.98558 26.7102C7.97183 26.7324 7.95377 26.7516 7.93247 26.7666C7.91117 26.7817 7.88707 26.7923 7.86158 26.7979C7.8361 26.8035 7.80975 26.8039 7.78411 26.7991C7.75744 26.7955 7.7318 26.7864 7.70876 26.7725C7.68572 26.7585 7.66577 26.7401 7.65012 26.7182C7.63447 26.6962 7.62346 26.6714 7.61776 26.6451C7.61206 26.6188 7.6118 26.5916 7.61698 26.5651C7.6205 26.5383 7.62964 26.5125 7.64381 26.4895C7.65798 26.4664 7.67686 26.4466 7.69921 26.4314C7.72156 26.4161 7.74688 26.4058 7.77351 26.401C7.80014 26.3962 7.82748 26.3971 7.85375 26.4036V26.4036Z" fill="url(#paint38_linear_175_1006)"/>
<path d="M8.08829 25.6319C8.13748 25.6502 8.1777 25.6868 8.20054 25.734C8.22338 25.7813 8.22708 25.8355 8.21086 25.8854C8.19145 25.9345 8.15441 25.9745 8.10701 25.9977C8.0596 26.0209 8.00524 26.0256 7.95459 26.0108C7.9285 26.0037 7.90422 25.9912 7.88337 25.974C7.86252 25.9568 7.84559 25.9354 7.83372 25.9111C7.82184 25.8868 7.8153 25.8603 7.81453 25.8333C7.81376 25.8063 7.81878 25.7794 7.82925 25.7545C7.83764 25.729 7.85112 25.7055 7.86887 25.6855C7.88661 25.6654 7.90826 25.6491 7.93249 25.6376C7.95671 25.6262 7.98302 25.6198 8.0098 25.6188C8.03659 25.6178 8.06329 25.6223 8.08829 25.6319V25.6319Z" fill="url(#paint39_linear_175_1006)"/>
<path d="M8.42787 24.8994C8.47472 24.9264 8.50965 24.9701 8.52567 25.0218C8.54168 25.0734 8.53759 25.1292 8.51422 25.178C8.50185 25.2022 8.48481 25.2237 8.46409 25.2413C8.44337 25.2589 8.41938 25.2722 8.39349 25.2805C8.3676 25.2888 8.34032 25.2919 8.31324 25.2896C8.28615 25.2873 8.25979 25.2796 8.23567 25.2671C8.21096 25.2553 8.18889 25.2386 8.17079 25.218C8.1527 25.1974 8.13895 25.1734 8.13036 25.1474C8.12178 25.1214 8.11853 25.0939 8.12084 25.0666C8.12314 25.0393 8.13093 25.0128 8.14374 24.9886C8.15473 24.9624 8.17128 24.939 8.19224 24.9199C8.21321 24.9008 8.23808 24.8866 8.26513 24.8781C8.29217 24.8696 8.32075 24.8671 8.34885 24.8708C8.37696 24.8745 8.40392 24.8843 8.42787 24.8994V24.8994Z" fill="url(#paint40_linear_175_1006)"/>
<path d="M8.87646 24.2309C8.91803 24.263 8.9456 24.3099 8.95339 24.3618C8.96118 24.4137 8.94858 24.4666 8.91824 24.5095C8.88543 24.5498 8.8391 24.5768 8.78786 24.5855C8.73663 24.5942 8.68398 24.584 8.63969 24.5568C8.61807 24.5418 8.59967 24.5227 8.58555 24.5005C8.57144 24.4783 8.56189 24.4535 8.55748 24.4275C8.55307 24.4016 8.55389 24.375 8.55987 24.3494C8.56586 24.3238 8.57689 24.2996 8.59234 24.2783C8.60785 24.2565 8.62752 24.238 8.65021 24.2238C8.6729 24.2096 8.69817 24.2 8.72457 24.1956C8.75096 24.1912 8.77797 24.1921 8.80403 24.1982C8.8301 24.2042 8.85471 24.2154 8.87646 24.2309Z" fill="url(#paint41_linear_175_1006)"/>
<path d="M9.41088 23.6291C9.44573 23.6671 9.46505 23.7168 9.46505 23.7684C9.46505 23.8199 9.44573 23.8696 9.41088 23.9076C9.37384 23.9444 9.32378 23.965 9.27161 23.965C9.21944 23.965 9.16938 23.9444 9.13233 23.9076C9.09689 23.8699 9.07715 23.8201 9.07715 23.7684C9.07715 23.7166 9.09689 23.6668 9.13233 23.6291C9.15029 23.6102 9.17189 23.5952 9.19583 23.5849C9.21978 23.5746 9.24556 23.5693 9.27161 23.5693C9.29766 23.5693 9.32344 23.5746 9.34738 23.5849C9.37133 23.5952 9.39293 23.6102 9.41088 23.6291Z" fill="url(#paint42_linear_175_1006)"/>
<path d="M10.0318 23.1136C10.0624 23.1562 10.0755 23.2089 10.0682 23.2607C10.0609 23.3126 10.0339 23.3597 9.99277 23.3922C9.94982 23.4215 9.89747 23.4338 9.84595 23.4266C9.79443 23.4194 9.74746 23.3932 9.71422 23.3532C9.69705 23.3331 9.68429 23.3095 9.67677 23.2842C9.66924 23.2588 9.66711 23.2321 9.67053 23.2059C9.67394 23.1796 9.68281 23.1544 9.69657 23.1318C9.71034 23.1092 9.72868 23.0897 9.75043 23.0746C9.77131 23.0583 9.79524 23.0464 9.82083 23.0395C9.84641 23.0326 9.87311 23.031 9.89936 23.0346C9.9256 23.0382 9.95084 23.0471 9.97358 23.0607C9.99633 23.0743 10.0161 23.0923 10.0318 23.1136V23.1136Z" fill="url(#paint43_linear_175_1006)"/>
<path d="M10.7263 22.6932C10.7515 22.741 10.7572 22.7968 10.7421 22.8487C10.727 22.9007 10.6924 22.9448 10.6455 22.9717C10.6227 22.986 10.5972 22.9956 10.5705 22.9997C10.5439 23.0038 10.5167 23.0024 10.4906 22.9956C10.4645 22.9888 10.4401 22.9768 10.4188 22.9602C10.3976 22.9437 10.3799 22.9229 10.367 22.8993C10.3534 22.8763 10.3445 22.8508 10.3408 22.8243C10.3371 22.7978 10.3387 22.7709 10.3454 22.745C10.3521 22.7191 10.3639 22.6948 10.38 22.6735C10.3962 22.6522 10.4163 22.6343 10.4394 22.6207C10.4625 22.605 10.4887 22.5943 10.5162 22.5895C10.5437 22.5846 10.572 22.5856 10.5991 22.5924C10.6262 22.5993 10.6516 22.6118 10.6735 22.6292C10.6954 22.6465 10.7134 22.6683 10.7263 22.6932V22.6932Z" fill="url(#paint44_linear_175_1006)"/>
<path d="M11.461 22.3786C11.4791 22.4281 11.477 22.4828 11.4551 22.5307C11.4332 22.5787 11.3933 22.6161 11.344 22.6349C11.2937 22.6518 11.2388 22.6491 11.1903 22.6274C11.1418 22.6058 11.1032 22.5667 11.0822 22.5179C11.0716 22.4933 11.0662 22.4668 11.0664 22.44C11.0666 22.4133 11.0724 22.3869 11.0834 22.3625C11.0945 22.3381 11.1104 22.3163 11.1304 22.2984C11.1503 22.2806 11.1737 22.2671 11.1992 22.2588C11.2242 22.2491 11.2509 22.2444 11.2778 22.2452C11.3046 22.246 11.331 22.2521 11.3554 22.2633C11.3799 22.2745 11.4018 22.2904 11.4199 22.3102C11.4381 22.33 11.452 22.3533 11.461 22.3786V22.3786Z" fill="url(#paint45_linear_175_1006)"/>
<path d="M12.2408 22.1723C12.2501 22.2238 12.2395 22.277 12.211 22.321C12.1826 22.365 12.1384 22.3965 12.0876 22.4091C12.0624 22.4153 12.0361 22.4165 12.0104 22.4126C11.9847 22.4087 11.96 22.3998 11.9378 22.3863C11.9155 22.3729 11.8962 22.3552 11.8808 22.3342C11.8654 22.3132 11.8542 22.2895 11.848 22.2642C11.8414 22.2381 11.84 22.2108 11.844 22.1841C11.848 22.1574 11.8573 22.1318 11.8713 22.1087C11.8853 22.0857 11.9037 22.0656 11.9256 22.0497C11.9474 22.0339 11.9722 22.0225 11.9985 22.0163C12.0247 22.0093 12.052 22.0079 12.0788 22.0121C12.1056 22.0164 12.1313 22.0261 12.1541 22.0408C12.1769 22.0555 12.1964 22.0748 12.2113 22.0974C12.2262 22.12 12.2363 22.1456 12.2408 22.1723Z" fill="url(#paint46_linear_175_1006)"/>
<path d="M13.0429 22.0887C13.0452 22.1413 13.0271 22.1927 12.9923 22.2322C12.9575 22.2717 12.9087 22.2961 12.8563 22.3004C12.8036 22.3009 12.7525 22.2823 12.7125 22.2479C12.6725 22.2136 12.6464 22.1659 12.639 22.1138C12.6359 22.087 12.6384 22.06 12.6462 22.0342C12.6541 22.0085 12.6672 21.9847 12.6848 21.9643C12.7023 21.9439 12.7239 21.9273 12.7481 21.9157C12.7723 21.904 12.7987 21.8975 12.8256 21.8965C12.8526 21.8946 12.8796 21.8981 12.9052 21.9068C12.9307 21.9155 12.9543 21.9291 12.9746 21.947C12.9948 21.9649 13.0112 21.9867 13.023 22.011C13.0347 22.0353 13.0415 22.0617 13.0429 22.0887Z" fill="url(#paint47_linear_175_1006)"/>
<path d="M13.8486 22.1138C13.8418 22.1657 13.8162 22.2133 13.7767 22.2477C13.7372 22.2821 13.6864 22.3008 13.6341 22.3004C13.5842 22.2921 13.5391 22.2656 13.5077 22.2259C13.4763 22.1862 13.4609 22.1362 13.4643 22.0858C13.4678 22.0353 13.49 21.9879 13.5265 21.9529C13.5631 21.9179 13.6113 21.8978 13.6619 21.8965C13.689 21.897 13.7156 21.9033 13.74 21.9148C13.7645 21.9263 13.7862 21.9429 13.8038 21.9634C13.8214 21.9839 13.8345 22.0079 13.8422 22.0338C13.8499 22.0597 13.8521 22.087 13.8486 22.1138Z" fill="url(#paint48_linear_175_1006)"/>
<path d="M14.6397 22.264C14.6338 22.2892 14.623 22.3129 14.6079 22.3338C14.5927 22.3548 14.5736 22.3725 14.5516 22.386C14.5295 22.3994 14.5051 22.4084 14.4795 22.4123C14.454 22.4163 14.428 22.4151 14.4029 22.4089C14.3519 22.3963 14.3075 22.3649 14.2786 22.321C14.2497 22.2771 14.2384 22.224 14.2469 22.1721C14.2518 22.1456 14.2621 22.1203 14.2771 22.0979C14.2922 22.0754 14.3117 22.0563 14.3344 22.0417C14.3571 22.0271 14.3825 22.0173 14.4092 22.0129C14.4358 22.0085 14.4631 22.0096 14.4893 22.0161C14.5155 22.0223 14.5403 22.0337 14.5621 22.0496C14.584 22.0654 14.6024 22.0855 14.6164 22.1086C14.6304 22.1316 14.6397 22.1573 14.6437 22.184C14.6477 22.2107 14.6463 22.2379 14.6397 22.264V22.264Z" fill="url(#paint49_linear_175_1006)"/>
<path d="M15.4059 22.5179C15.3854 22.5671 15.3469 22.6066 15.2982 22.6284C15.2495 22.6501 15.1944 22.6524 15.1441 22.6349C15.0952 22.6155 15.0558 22.578 15.034 22.5303C15.0122 22.4825 15.0097 22.4281 15.0271 22.3786C15.036 22.3533 15.05 22.33 15.0682 22.3102C15.0863 22.2904 15.1082 22.2745 15.1326 22.2633C15.1571 22.2521 15.1835 22.246 15.2103 22.2452C15.2372 22.2444 15.2639 22.2491 15.2889 22.2588C15.3143 22.2671 15.3378 22.2806 15.3577 22.2984C15.3776 22.3163 15.3936 22.3381 15.4046 22.3625C15.4156 22.3869 15.4214 22.4133 15.4217 22.44C15.4219 22.4668 15.4165 22.4933 15.4059 22.5179V22.5179Z" fill="url(#paint50_linear_175_1006)"/>
<path d="M16.1215 22.891C16.108 22.9141 16.0901 22.9343 16.0687 22.9504C16.0474 22.9665 16.0231 22.9783 15.9972 22.985C15.9714 22.9917 15.9444 22.9933 15.918 22.9896C15.8915 22.9859 15.866 22.977 15.843 22.9634C15.796 22.9365 15.7615 22.8923 15.7469 22.8401C15.7323 22.788 15.7388 22.7323 15.765 22.6849C15.7769 22.6603 15.7938 22.6384 15.8147 22.6208C15.8356 22.6031 15.86 22.59 15.8862 22.5824C15.9125 22.5748 15.9401 22.5728 15.9672 22.5765C15.9943 22.5803 16.0203 22.5897 16.0435 22.6041C16.0685 22.6168 16.0905 22.6346 16.1082 22.6563C16.1259 22.6781 16.1388 22.7032 16.1461 22.7303C16.1535 22.7573 16.1551 22.7856 16.1508 22.8133C16.1466 22.8409 16.1366 22.8674 16.1215 22.891V22.891Z" fill="url(#paint51_linear_175_1006)"/>
<path d="M16.7788 23.3561C16.7452 23.3956 16.6983 23.4213 16.6469 23.4285C16.5956 23.4357 16.5434 23.4238 16.5002 23.3951C16.4591 23.3626 16.4321 23.3155 16.4248 23.2636C16.4176 23.2117 16.4306 23.159 16.4612 23.1165C16.4933 23.0748 16.5404 23.0473 16.5925 23.04C16.6446 23.0327 16.6975 23.0462 16.7398 23.0775C16.7614 23.0927 16.7797 23.1121 16.7935 23.1346C16.8072 23.1571 16.8162 23.1822 16.8199 23.2083C16.8236 23.2345 16.8218 23.2611 16.8147 23.2865C16.8076 23.3119 16.7954 23.3356 16.7788 23.3561Z" fill="url(#paint52_linear_175_1006)"/>
<path d="M17.3552 23.9218C17.3178 23.9579 17.2679 23.978 17.2159 23.978C17.1639 23.978 17.114 23.9579 17.0766 23.9218C17.0418 23.8838 17.0225 23.8341 17.0225 23.7825C17.0225 23.731 17.0418 23.6813 17.0766 23.6432C17.0946 23.6244 17.1162 23.6093 17.1401 23.5991C17.1641 23.5888 17.1899 23.5835 17.2159 23.5835C17.242 23.5835 17.2677 23.5888 17.2917 23.5991C17.3156 23.6093 17.3372 23.6244 17.3552 23.6432C17.3913 23.6806 17.4114 23.7306 17.4114 23.7825C17.4114 23.8345 17.3913 23.8844 17.3552 23.9218V23.9218Z" fill="url(#paint53_linear_175_1006)"/>
<path d="M17.851 24.5566C17.8067 24.5838 17.754 24.594 17.7028 24.5853C17.6516 24.5766 17.6052 24.5496 17.5724 24.5093C17.5465 24.4656 17.5379 24.4138 17.5482 24.364C17.5586 24.3143 17.5872 24.2702 17.6284 24.2405C17.6697 24.2108 17.7205 24.1976 17.771 24.2035C17.8215 24.2095 17.8679 24.2341 17.9011 24.2725C17.9177 24.294 17.9297 24.3187 17.9362 24.3451C17.9427 24.3715 17.9436 24.3989 17.9389 24.4257C17.9341 24.4524 17.9239 24.4779 17.9088 24.5004C17.8936 24.523 17.8739 24.5421 17.851 24.5566V24.5566Z" fill="url(#paint54_linear_175_1006)"/>
<path d="M18.2465 25.2614C18.2225 25.2743 18.1961 25.2822 18.1689 25.2847C18.1417 25.2872 18.1143 25.2842 18.0883 25.2759C18.0623 25.2676 18.0383 25.2541 18.0176 25.2363C17.9969 25.2185 17.9801 25.1967 17.968 25.1722C17.9444 25.1238 17.9399 25.0682 17.9553 25.0166C17.9708 24.965 18.0052 24.9211 18.0515 24.8937C18.0752 24.8798 18.1015 24.8711 18.1288 24.868C18.156 24.8649 18.1836 24.8674 18.2098 24.8756C18.236 24.8837 18.2602 24.8972 18.2809 24.9152C18.3016 24.9331 18.3184 24.9552 18.3301 24.98C18.3433 25.0039 18.3515 25.0302 18.3545 25.0574C18.3574 25.0845 18.3549 25.112 18.3471 25.1382C18.3394 25.1643 18.3265 25.1887 18.3092 25.2099C18.2919 25.231 18.2706 25.2485 18.2465 25.2614Z" fill="url(#paint55_linear_175_1006)"/>
<path d="M18.5251 26.0107C18.4749 26.0254 18.4209 26.0206 18.374 25.9974C18.327 25.9742 18.2905 25.9342 18.2717 25.8853C18.2543 25.8347 18.2578 25.7793 18.2813 25.7313C18.3048 25.6832 18.3464 25.6464 18.397 25.6291C18.4476 25.6117 18.503 25.6152 18.5511 25.6387C18.5992 25.6622 18.6359 25.7038 18.6533 25.7544C18.6632 25.7796 18.6678 25.8065 18.6666 25.8335C18.6655 25.8606 18.6586 25.887 18.6465 25.9112C18.6344 25.9354 18.6174 25.9568 18.5964 25.9739C18.5755 25.991 18.5512 26.0036 18.5251 26.0107V26.0107Z" fill="url(#paint56_linear_175_1006)"/>
<path d="M18.7058 26.7991C18.6537 26.8081 18.6003 26.7961 18.557 26.7659C18.5137 26.7356 18.4841 26.6895 18.4746 26.6376C18.4676 26.5859 18.4799 26.5334 18.5092 26.4902C18.5385 26.447 18.5827 26.4162 18.6334 26.4036C18.6598 26.3971 18.6873 26.3962 18.7141 26.401C18.7409 26.4057 18.7664 26.4161 18.7889 26.4313C18.8115 26.4465 18.8306 26.4663 18.8451 26.4893C18.8596 26.5124 18.869 26.5382 18.8729 26.5651C18.8777 26.5915 18.8771 26.6186 18.8713 26.6447C18.8654 26.6709 18.8543 26.6956 18.8388 26.7174C18.8232 26.7392 18.8034 26.7577 18.7805 26.7717C18.7577 26.7858 18.7323 26.7951 18.7058 26.7991V26.7991Z" fill="url(#paint57_linear_175_1006)"/>
<path d="M18.7703 27.6039C18.717 27.6041 18.6655 27.5841 18.6262 27.5479C18.587 27.5118 18.5628 27.4621 18.5586 27.4089C18.5578 27.3561 18.5773 27.305 18.613 27.2661C18.6488 27.2272 18.6981 27.2036 18.7508 27.2C18.7776 27.1985 18.8044 27.2024 18.8297 27.2115C18.855 27.2205 18.8782 27.2346 18.8979 27.2528C18.9176 27.2709 18.9335 27.2929 18.9446 27.3173C18.9557 27.3418 18.9618 27.3682 18.9625 27.395C18.9648 27.4216 18.9616 27.4484 18.953 27.4737C18.9444 27.499 18.9306 27.5222 18.9125 27.5418C18.8944 27.5615 18.8724 27.5772 18.8479 27.5879C18.8235 27.5985 18.797 27.604 18.7703 27.6039V27.6039Z" fill="url(#paint58_linear_175_1006)"/>
</g>
<g style="mix-blend-mode:multiply" opacity="0.85">
<path d="M18.7064 28.4061C18.6806 28.403 18.6556 28.3948 18.633 28.3821C18.6104 28.3694 18.5905 28.3523 18.5744 28.3319C18.5584 28.3114 18.5465 28.288 18.5395 28.263C18.5325 28.238 18.5305 28.2118 18.5337 28.186C18.5415 28.1341 18.5692 28.0873 18.6108 28.0553C18.6524 28.0233 18.7048 28.0087 18.757 28.0144C18.8092 28.0202 18.8571 28.0459 18.8908 28.0862C18.9244 28.1265 18.9412 28.1782 18.9375 28.2306C18.9299 28.2844 18.9014 28.3331 18.8581 28.3659C18.8148 28.3988 18.7602 28.4133 18.7064 28.4061V28.4061Z" fill="url(#paint59_linear_175_1006)"/>
<path d="M18.5257 29.1947C18.475 29.1797 18.4319 29.1461 18.405 29.1006C18.3782 29.0551 18.3695 29.0011 18.3808 28.9495C18.3952 28.8985 18.4287 28.855 18.4744 28.828C18.52 28.801 18.5743 28.7927 18.626 28.8047C18.6516 28.8113 18.6756 28.8228 18.6968 28.8387C18.7179 28.8546 18.7357 28.8745 18.7491 28.8972C18.7626 28.92 18.7714 28.9452 18.7751 28.9714C18.7789 28.9975 18.7774 29.0242 18.7708 29.0498C18.7642 29.0754 18.7527 29.0995 18.7368 29.1206C18.7209 29.1417 18.701 29.1595 18.6782 29.173C18.6555 29.1864 18.6303 29.1953 18.6041 29.199C18.5779 29.2027 18.5513 29.2012 18.5257 29.1947V29.1947Z" fill="url(#paint60_linear_175_1006)"/>
<path d="M18.247 29.9468C18.1979 29.9261 18.159 29.8867 18.1389 29.8374C18.1188 29.788 18.1191 29.7327 18.1398 29.6835C18.1605 29.6344 18.1998 29.5955 18.2492 29.5754C18.2985 29.5553 18.3539 29.5556 18.403 29.5763C18.4273 29.5865 18.4494 29.6015 18.468 29.6202C18.4865 29.639 18.5012 29.6613 18.5111 29.6857C18.5211 29.7101 18.5261 29.7363 18.526 29.7627C18.5258 29.7891 18.5205 29.8152 18.5102 29.8395C18.5 29.8639 18.4851 29.8859 18.4663 29.9045C18.4475 29.923 18.4253 29.9377 18.4008 29.9477C18.3764 29.9576 18.3502 29.9627 18.3238 29.9625C18.2974 29.9624 18.2713 29.957 18.247 29.9468V29.9468Z" fill="url(#paint61_linear_175_1006)"/>
<path d="M17.8513 30.6514C17.8055 30.6237 17.7726 30.5789 17.7598 30.5269C17.747 30.475 17.7553 30.42 17.783 30.3742C17.8107 30.3284 17.8555 30.2955 17.9075 30.2827C17.9595 30.2699 18.0144 30.2783 18.0602 30.306C18.0833 30.3195 18.1035 30.3374 18.1195 30.3588C18.1356 30.3802 18.1472 30.4046 18.1537 30.4306C18.1602 30.4565 18.1614 30.4835 18.1573 30.51C18.1532 30.5364 18.1439 30.5618 18.1298 30.5845C18.1164 30.6077 18.0984 30.6279 18.0769 30.6439C18.0554 30.6599 18.0309 30.6714 18.0049 30.6777C17.9788 30.6839 17.9518 30.6848 17.9254 30.6803C17.899 30.6758 17.8738 30.6659 17.8513 30.6514V30.6514Z" fill="url(#paint62_linear_175_1006)"/>
<path d="M17.3551 31.2865C17.3352 31.2697 17.3189 31.249 17.3072 31.2258C17.2954 31.2026 17.2884 31.1773 17.2866 31.1513C17.2848 31.1254 17.2882 31.0993 17.2966 31.0747C17.305 31.0501 17.3183 31.0274 17.3356 31.0079C17.3518 30.9876 17.3719 30.9707 17.3947 30.9581C17.4176 30.9455 17.4426 30.9376 17.4685 30.9348C17.4944 30.9319 17.5206 30.9342 17.5456 30.9415C17.5705 30.9488 17.5939 30.961 17.6141 30.9773C17.6344 30.9943 17.6512 31.0152 17.6634 31.0386C17.6757 31.0621 17.6832 31.0878 17.6855 31.1142C17.6878 31.1406 17.685 31.1671 17.677 31.1924C17.6691 31.2177 17.6562 31.2411 17.6392 31.2614C17.6222 31.2817 17.6014 31.2985 17.5779 31.3107C17.5544 31.323 17.5287 31.3305 17.5023 31.3328C17.476 31.3351 17.4494 31.3322 17.4241 31.3243C17.3988 31.3163 17.3754 31.3035 17.3551 31.2865V31.2865Z" fill="url(#paint63_linear_175_1006)"/>
<path d="M16.7786 31.8491C16.7416 31.8096 16.7219 31.757 16.7237 31.7029C16.7256 31.6489 16.7488 31.5977 16.7883 31.5608C16.8279 31.5239 16.8804 31.5041 16.9345 31.506C16.9886 31.5078 17.0397 31.531 17.0766 31.5706C17.1116 31.6094 17.1297 31.6605 17.1271 31.7127C17.1245 31.7649 17.1014 31.8139 17.0627 31.8491C17.0445 31.8685 17.0225 31.884 16.998 31.8945C16.9736 31.9051 16.9473 31.9105 16.9206 31.9105C16.894 31.9105 16.8677 31.9051 16.8433 31.8945C16.8188 31.884 16.7968 31.8685 16.7786 31.8491V31.8491Z" fill="url(#paint64_linear_175_1006)"/>
<path d="M16.121 32.3142C16.1061 32.2922 16.0958 32.2674 16.0906 32.2414C16.0855 32.2153 16.0857 32.1885 16.0911 32.1625C16.0966 32.1365 16.1072 32.1118 16.1224 32.09C16.1376 32.0683 16.157 32.0497 16.1795 32.0356C16.2237 32.0064 16.2775 31.9956 16.3295 32.0055C16.3816 32.0154 16.4277 32.0452 16.4581 32.0885C16.4747 32.1104 16.4867 32.1355 16.4932 32.1622C16.4997 32.1889 16.5007 32.2166 16.4961 32.2437C16.4915 32.2708 16.4813 32.2966 16.4663 32.3196C16.4513 32.3426 16.4316 32.3623 16.4087 32.3774C16.3857 32.3925 16.3599 32.4028 16.3329 32.4075C16.3058 32.4122 16.278 32.4113 16.2513 32.4049C16.2246 32.3984 16.1995 32.3865 16.1776 32.37C16.1556 32.3534 16.1373 32.3325 16.1238 32.3086L16.121 32.3142Z" fill="url(#paint65_linear_175_1006)"/>
<path d="M15.4054 32.6903C15.3822 32.6403 15.3794 32.5833 15.3976 32.5312C15.4158 32.4792 15.4536 32.4364 15.5029 32.4118C15.5273 32.399 15.554 32.3914 15.5814 32.3893C15.6088 32.3872 15.6364 32.3906 15.6624 32.3995C15.6885 32.4083 15.7125 32.4224 15.7329 32.4408C15.7534 32.4592 15.7699 32.4815 15.7815 32.5065C15.7945 32.5309 15.8024 32.5578 15.8045 32.5855C15.8066 32.6131 15.803 32.6409 15.7938 32.6671C15.7846 32.6933 15.7702 32.7173 15.7512 32.7376C15.7323 32.7579 15.7094 32.774 15.684 32.785C15.6599 32.799 15.633 32.8077 15.6053 32.8105C15.5775 32.8133 15.5495 32.8101 15.5231 32.8011C15.4967 32.7921 15.4726 32.7776 15.4522 32.7585C15.4319 32.7394 15.416 32.7161 15.4054 32.6903V32.6903Z" fill="url(#paint66_linear_175_1006)"/>
<path d="M14.6397 32.9436C14.6294 32.9051 14.6307 32.8644 14.6434 32.8266C14.6561 32.7888 14.6796 32.7555 14.7111 32.731C14.7426 32.7065 14.7805 32.6917 14.8203 32.6886C14.8601 32.6855 14.8999 32.6942 14.9347 32.7135C14.9696 32.7328 14.9981 32.762 15.0165 32.7974C15.0349 32.8327 15.0425 32.8728 15.0384 32.9124C15.0343 32.9521 15.0185 32.9897 14.9932 33.0205C14.9679 33.0513 14.934 33.074 14.8959 33.0857C14.8698 33.0933 14.8424 33.0957 14.8153 33.0927C14.7882 33.0897 14.762 33.0813 14.7382 33.0681C14.7143 33.0549 14.6933 33.0371 14.6764 33.0157C14.6595 32.9944 14.647 32.9699 14.6397 32.9436V32.9436Z" fill="url(#paint67_linear_175_1006)"/>
<path d="M13.848 33.0943C13.8421 33.0414 13.8563 32.9883 13.8878 32.9455C13.9193 32.9027 13.9657 32.8732 14.0179 32.8631C14.0704 32.8573 14.1231 32.8716 14.1655 32.9031C14.2079 32.9346 14.2368 32.981 14.2463 33.033C14.2503 33.0591 14.2492 33.0858 14.2429 33.1115C14.2366 33.1372 14.2253 33.1615 14.2096 33.1828C14.194 33.2041 14.1743 33.2222 14.1517 33.2359C14.129 33.2496 14.1039 33.2588 14.0778 33.2628C14.0516 33.2668 14.0249 33.2657 13.9992 33.2594C13.9735 33.2531 13.9493 33.2418 13.928 33.2261C13.9066 33.2105 13.8886 33.1908 13.8749 33.1682C13.8611 33.1455 13.852 33.1204 13.848 33.0943V33.0943Z" fill="url(#paint68_linear_175_1006)"/>
<path d="M13.043 33.119C13.0489 33.0696 13.0726 33.0239 13.1099 32.9908C13.1471 32.9577 13.1952 32.9395 13.245 32.9395C13.2948 32.9395 13.3429 32.9577 13.3801 32.9908C13.4173 33.0239 13.4411 33.0696 13.4469 33.119C13.4477 33.174 13.4268 33.227 13.3887 33.2666C13.3507 33.3062 13.2985 33.3293 13.2436 33.3307C13.2165 33.33 13.1899 33.324 13.1651 33.3129C13.1404 33.3019 13.1181 33.2861 13.0995 33.2664C13.0808 33.2468 13.0663 33.2236 13.0566 33.1983C13.0469 33.1731 13.0423 33.1461 13.043 33.119V33.119Z" fill="url(#paint69_linear_175_1006)"/>
<path d="M12.2414 33.0327C12.2495 32.9799 12.2783 32.9324 12.3214 32.9008C12.3645 32.8692 12.4184 32.856 12.4712 32.8642C12.524 32.8723 12.5715 32.9011 12.6031 32.9442C12.6347 32.9873 12.6479 33.0411 12.6397 33.094C12.6367 33.1205 12.6283 33.1461 12.615 33.1692C12.6017 33.1924 12.5838 33.2125 12.5624 33.2284C12.5409 33.2444 12.5165 33.2557 12.4905 33.2618C12.4645 33.2679 12.4376 33.2686 12.4113 33.2639C12.3847 33.2605 12.359 33.2518 12.3359 33.2382C12.3127 33.2246 12.2926 33.2064 12.2767 33.1848C12.2608 33.1631 12.2495 33.1385 12.2434 33.1124C12.2373 33.0862 12.2367 33.0591 12.2414 33.0327V33.0327Z" fill="url(#paint70_linear_175_1006)"/>
<path d="M11.4614 32.8296C11.4786 32.7801 11.5143 32.739 11.561 32.7151C11.6077 32.6913 11.6619 32.6864 11.7121 32.7015C11.7371 32.7082 11.7605 32.7199 11.781 32.7358C11.8014 32.7517 11.8185 32.7715 11.8312 32.794C11.8439 32.8166 11.852 32.8415 11.855 32.8672C11.8579 32.8929 11.8558 32.919 11.8486 32.9438C11.8415 32.97 11.8293 32.9944 11.8127 33.0157C11.7961 33.0371 11.7753 33.0549 11.7517 33.0681C11.7281 33.0814 11.7021 33.0898 11.6752 33.0928C11.6483 33.0958 11.6211 33.0935 11.5951 33.0859C11.569 33.0786 11.5447 33.0661 11.5236 33.0491C11.5025 33.032 11.4852 33.0108 11.4726 32.9868C11.4601 32.9628 11.4526 32.9364 11.4507 32.9094C11.4488 32.8823 11.4524 32.8552 11.4614 32.8296V32.8296Z" fill="url(#paint71_linear_175_1006)"/>
<path d="M10.7255 32.504C10.737 32.4791 10.7535 32.4567 10.774 32.4383C10.7945 32.4199 10.8184 32.4059 10.8445 32.3971C10.8705 32.3882 10.8981 32.3847 10.9255 32.3868C10.9529 32.3889 10.9796 32.3966 11.004 32.4093C11.0533 32.4339 11.091 32.4769 11.1087 32.5291C11.1265 32.5812 11.1229 32.6383 11.0987 32.6879C11.0885 32.714 11.0728 32.7376 11.0525 32.7569C11.0323 32.7763 11.008 32.791 10.9815 32.8001C10.955 32.8091 10.9268 32.8122 10.8989 32.8092C10.871 32.8062 10.8442 32.7971 10.8202 32.7826C10.7947 32.7716 10.7717 32.7555 10.7529 32.7351C10.734 32.7148 10.7197 32.6907 10.7107 32.6644C10.7018 32.6381 10.6985 32.6103 10.701 32.5826C10.7036 32.555 10.7119 32.5282 10.7255 32.504Z" fill="url(#paint72_linear_175_1006)"/>
<path d="M10.0327 32.0944C10.0631 32.0511 10.1092 32.0213 10.1612 32.0114C10.2132 32.0015 10.267 32.0123 10.3112 32.0415C10.3339 32.0554 10.3536 32.0737 10.3691 32.0954C10.3845 32.1171 10.3955 32.1417 10.4012 32.1677C10.4069 32.1937 10.4073 32.2206 10.4024 32.2468C10.3975 32.273 10.3873 32.2979 10.3725 32.32C10.3438 32.3652 10.2985 32.3973 10.2464 32.4093C10.1942 32.4213 10.1395 32.4122 10.094 32.3841C10.0699 32.37 10.0491 32.351 10.0329 32.3284C10.0166 32.3058 10.0052 32.28 9.99946 32.2528C9.99369 32.2255 9.99367 32.1974 9.99939 32.1701C10.0051 32.1428 10.0164 32.117 10.0327 32.0944V32.0944Z" fill="url(#paint73_linear_175_1006)"/>
<path d="M9.41134 31.5789C9.44828 31.539 9.49955 31.5154 9.55388 31.5133C9.60821 31.5112 9.66114 31.5308 9.70104 31.5678C9.74093 31.6047 9.76451 31.656 9.7666 31.7103C9.76869 31.7646 9.74912 31.8176 9.71218 31.8575C9.69516 31.8771 9.67438 31.8932 9.65107 31.9047C9.62776 31.9162 9.60238 31.9229 9.57642 31.9245C9.55047 31.926 9.52446 31.9224 9.49994 31.9138C9.47542 31.9051 9.45287 31.8916 9.43363 31.8742C9.41134 31.8572 9.3929 31.8358 9.37952 31.8112C9.36614 31.7866 9.35814 31.7595 9.35603 31.7315C9.35392 31.7036 9.35777 31.6756 9.3673 31.6493C9.37684 31.623 9.39185 31.599 9.41134 31.5789V31.5789Z" fill="url(#paint74_linear_175_1006)"/>
<path d="M8.8767 30.9773C8.89698 30.961 8.92028 30.9488 8.94527 30.9415C8.97027 30.9342 8.99645 30.9319 9.02233 30.9348C9.04821 30.9376 9.07328 30.9455 9.09608 30.9581C9.11889 30.9707 9.139 30.9876 9.15525 31.0079C9.18883 31.0478 9.20557 31.0992 9.20193 31.1512C9.1983 31.2032 9.17455 31.2517 9.13574 31.2865C9.09509 31.3182 9.04415 31.3337 8.99273 31.3301C8.94131 31.3265 8.89304 31.304 8.8572 31.267C8.83921 31.2468 8.82543 31.2232 8.81666 31.1977C8.80789 31.1721 8.80431 31.145 8.80612 31.1181C8.80794 31.0911 8.81512 31.0647 8.82723 31.0406C8.83935 31.0164 8.85617 30.9949 8.8767 30.9773V30.9773Z" fill="url(#paint75_linear_175_1006)"/>
<path d="M8.42777 30.306C8.47357 30.2783 8.52851 30.2699 8.58049 30.2827C8.63246 30.2955 8.67722 30.3284 8.70493 30.3742C8.73263 30.42 8.741 30.475 8.72821 30.5269C8.71541 30.5789 8.68249 30.6237 8.63668 30.6514C8.61432 30.6664 8.5891 30.6765 8.56261 30.6813C8.53613 30.686 8.50894 30.6852 8.48278 30.6789C8.45662 30.6726 8.43203 30.661 8.41058 30.6448C8.38913 30.6285 8.37127 30.608 8.35813 30.5845C8.34369 30.5619 8.33402 30.5365 8.32971 30.51C8.3254 30.4835 8.32654 30.4564 8.33305 30.4303C8.33957 30.4042 8.35133 30.3798 8.36761 30.3584C8.3839 30.337 8.40437 30.3192 8.42777 30.306V30.306Z" fill="url(#paint76_linear_175_1006)"/>
<path d="M8.08766 29.5761C8.13607 29.5568 8.19015 29.5574 8.23814 29.5777C8.28613 29.598 8.32415 29.6365 8.34393 29.6847C8.35507 29.7083 8.36139 29.7338 8.36251 29.7598C8.36363 29.7858 8.35952 29.8118 8.35044 29.8362C8.34135 29.8606 8.32746 29.883 8.3096 29.9019C8.29174 29.9209 8.27026 29.9361 8.24644 29.9466C8.22147 29.9586 8.19432 29.9655 8.16663 29.9669C8.13893 29.9682 8.11125 29.9639 8.08524 29.9543C8.05923 29.9447 8.03544 29.9299 8.01527 29.9109C7.99511 29.8918 7.97899 29.8689 7.96789 29.8435C7.95766 29.8181 7.95264 29.791 7.95316 29.7636C7.95368 29.7363 7.95971 29.7093 7.97089 29.6843C7.98207 29.6594 7.99818 29.6369 8.01825 29.6183C8.03831 29.5997 8.06192 29.5853 8.08766 29.5761Z" fill="url(#paint77_linear_175_1006)"/>
<path d="M7.85431 28.8047C7.90596 28.7927 7.96025 28.801 8.0059 28.828C8.05155 28.855 8.08506 28.8985 8.09944 28.9495C8.11076 29.0011 8.10211 29.0551 8.07524 29.1006C8.04836 29.1461 8.00525 29.1797 7.95459 29.1947C7.92899 29.2012 7.90233 29.2027 7.87616 29.199C7.84998 29.1953 7.82479 29.1864 7.80203 29.173C7.77927 29.1595 7.75938 29.1417 7.7435 29.1206C7.72761 29.0995 7.71605 29.0754 7.70947 29.0498C7.70288 29.0242 7.70141 28.9975 7.70512 28.9714C7.70884 28.9452 7.71767 28.92 7.73112 28.8972C7.74457 28.8745 7.76238 28.8546 7.78351 28.8387C7.80465 28.8228 7.82871 28.8113 7.85431 28.8047V28.8047Z" fill="url(#paint78_linear_175_1006)"/>
<path d="M7.73967 28.0081C7.79172 28.0035 7.8435 28.0196 7.88369 28.053C7.92387 28.0864 7.94921 28.1344 7.95416 28.1864C7.95767 28.212 7.95604 28.2381 7.94937 28.2631C7.9427 28.2881 7.93112 28.3115 7.91531 28.332C7.89949 28.3525 7.87976 28.3696 7.85725 28.3824C7.83475 28.3952 7.80993 28.4034 7.78424 28.4064C7.7575 28.4104 7.73025 28.4089 7.70408 28.4022C7.67791 28.3954 7.65334 28.3835 7.63182 28.3672C7.61029 28.3509 7.59224 28.3304 7.57871 28.307C7.56519 28.2836 7.55646 28.2578 7.55304 28.231C7.54997 28.2039 7.55242 28.1766 7.56024 28.1506C7.56807 28.1245 7.5811 28.1003 7.59856 28.0795C7.61601 28.0587 7.63752 28.0416 7.66178 28.0293C7.68604 28.017 7.71254 28.0098 7.73967 28.0081Z" fill="url(#paint79_linear_175_1006)"/>
<path d="M7.73977 27.2114C7.79247 27.215 7.8418 27.2387 7.87756 27.2775C7.91333 27.3164 7.9328 27.3675 7.93197 27.4203C7.92776 27.4735 7.9036 27.5232 7.86435 27.5593C7.8251 27.5955 7.77364 27.6155 7.72027 27.6153C7.69356 27.6154 7.66712 27.61 7.64264 27.5993C7.61816 27.5886 7.59618 27.5729 7.5781 27.5533C7.56001 27.5336 7.54622 27.5104 7.53761 27.4851C7.529 27.4598 7.52575 27.433 7.52807 27.4064C7.52838 27.3795 7.5342 27.3529 7.54517 27.3282C7.55613 27.3036 7.57202 27.2815 7.59184 27.2632C7.61167 27.245 7.63502 27.231 7.66045 27.2221C7.68589 27.2131 7.71288 27.2095 7.73977 27.2114V27.2114Z" fill="url(#paint80_linear_175_1006)"/>
<path d="M7.85375 26.4036C7.90472 26.4156 7.94933 26.4463 7.97874 26.4896C8.00814 26.533 8.0202 26.5858 8.01252 26.6376C8.00849 26.6633 7.99933 26.688 7.98558 26.7102C7.97183 26.7324 7.95377 26.7516 7.93247 26.7666C7.91117 26.7817 7.88707 26.7923 7.86158 26.7979C7.8361 26.8035 7.80975 26.8039 7.78411 26.7991C7.75744 26.7955 7.7318 26.7864 7.70876 26.7725C7.68572 26.7585 7.66577 26.7401 7.65012 26.7182C7.63447 26.6962 7.62346 26.6714 7.61776 26.6451C7.61206 26.6188 7.6118 26.5916 7.61698 26.5651C7.6205 26.5383 7.62964 26.5125 7.64381 26.4895C7.65798 26.4664 7.67686 26.4466 7.69921 26.4314C7.72156 26.4161 7.74688 26.4058 7.77351 26.401C7.80014 26.3962 7.82748 26.3971 7.85375 26.4036V26.4036Z" fill="url(#paint81_linear_175_1006)"/>
<path d="M8.08829 25.6319C8.13748 25.6502 8.1777 25.6868 8.20054 25.734C8.22338 25.7813 8.22708 25.8355 8.21086 25.8854C8.19145 25.9345 8.15441 25.9745 8.10701 25.9977C8.0596 26.0209 8.00524 26.0256 7.95459 26.0108C7.9285 26.0037 7.90422 25.9912 7.88337 25.974C7.86252 25.9568 7.84559 25.9354 7.83372 25.9111C7.82184 25.8868 7.8153 25.8603 7.81453 25.8333C7.81376 25.8063 7.81878 25.7794 7.82925 25.7545C7.83764 25.729 7.85112 25.7055 7.86887 25.6855C7.88661 25.6654 7.90826 25.6491 7.93249 25.6376C7.95671 25.6262 7.98302 25.6198 8.0098 25.6188C8.03659 25.6178 8.06329 25.6223 8.08829 25.6319V25.6319Z" fill="url(#paint82_linear_175_1006)"/>
<path d="M8.42787 24.8994C8.47472 24.9264 8.50965 24.9701 8.52567 25.0218C8.54168 25.0734 8.53759 25.1292 8.51422 25.178C8.50185 25.2022 8.48481 25.2237 8.46409 25.2413C8.44337 25.2589 8.41938 25.2722 8.39349 25.2805C8.3676 25.2888 8.34032 25.2919 8.31324 25.2896C8.28615 25.2873 8.25979 25.2796 8.23567 25.2671C8.21096 25.2553 8.18889 25.2386 8.17079 25.218C8.1527 25.1974 8.13895 25.1734 8.13036 25.1474C8.12178 25.1214 8.11853 25.0939 8.12084 25.0666C8.12314 25.0393 8.13093 25.0128 8.14374 24.9886C8.15473 24.9624 8.17128 24.939 8.19224 24.9199C8.21321 24.9008 8.23808 24.8866 8.26513 24.8781C8.29217 24.8696 8.32075 24.8671 8.34885 24.8708C8.37696 24.8745 8.40392 24.8843 8.42787 24.8994V24.8994Z" fill="url(#paint83_linear_175_1006)"/>
<path d="M8.87646 24.2309C8.91803 24.263 8.9456 24.3099 8.95339 24.3618C8.96118 24.4137 8.94858 24.4666 8.91824 24.5095C8.88543 24.5498 8.8391 24.5768 8.78786 24.5855C8.73663 24.5942 8.68398 24.584 8.63969 24.5568C8.61807 24.5418 8.59967 24.5227 8.58555 24.5005C8.57144 24.4783 8.56189 24.4535 8.55748 24.4275C8.55307 24.4016 8.55389 24.375 8.55987 24.3494C8.56586 24.3238 8.57689 24.2996 8.59234 24.2783C8.60785 24.2565 8.62752 24.238 8.65021 24.2238C8.6729 24.2096 8.69817 24.2 8.72457 24.1956C8.75096 24.1912 8.77797 24.1921 8.80403 24.1982C8.8301 24.2042 8.85471 24.2154 8.87646 24.2309Z" fill="url(#paint84_linear_175_1006)"/>
<path d="M9.41088 23.6291C9.44573 23.6671 9.46505 23.7168 9.46505 23.7684C9.46505 23.8199 9.44573 23.8696 9.41088 23.9076C9.37384 23.9444 9.32378 23.965 9.27161 23.965C9.21944 23.965 9.16938 23.9444 9.13233 23.9076C9.09689 23.8699 9.07715 23.8201 9.07715 23.7684C9.07715 23.7166 9.09689 23.6668 9.13233 23.6291C9.15029 23.6102 9.17189 23.5952 9.19583 23.5849C9.21978 23.5746 9.24556 23.5693 9.27161 23.5693C9.29766 23.5693 9.32344 23.5746 9.34738 23.5849C9.37133 23.5952 9.39293 23.6102 9.41088 23.6291Z" fill="url(#paint85_linear_175_1006)"/>
<path d="M10.0318 23.1136C10.0624 23.1562 10.0755 23.2089 10.0682 23.2607C10.0609 23.3126 10.0339 23.3597 9.99277 23.3922C9.94982 23.4215 9.89747 23.4338 9.84595 23.4266C9.79443 23.4194 9.74746 23.3932 9.71422 23.3532C9.69705 23.3331 9.68429 23.3095 9.67677 23.2842C9.66924 23.2588 9.66711 23.2321 9.67053 23.2059C9.67394 23.1796 9.68281 23.1544 9.69657 23.1318C9.71034 23.1092 9.72868 23.0897 9.75043 23.0746C9.77131 23.0583 9.79524 23.0464 9.82083 23.0395C9.84641 23.0326 9.87311 23.031 9.89936 23.0346C9.9256 23.0382 9.95084 23.0471 9.97358 23.0607C9.99633 23.0743 10.0161 23.0923 10.0318 23.1136V23.1136Z" fill="url(#paint86_linear_175_1006)"/>
<path d="M10.7263 22.6932C10.7515 22.741 10.7572 22.7968 10.7421 22.8487C10.727 22.9007 10.6924 22.9448 10.6455 22.9717C10.6227 22.986 10.5972 22.9956 10.5705 22.9997C10.5439 23.0038 10.5167 23.0024 10.4906 22.9956C10.4645 22.9888 10.4401 22.9768 10.4188 22.9602C10.3976 22.9437 10.3799 22.9229 10.367 22.8993C10.3534 22.8763 10.3445 22.8508 10.3408 22.8243C10.3371 22.7978 10.3387 22.7709 10.3454 22.745C10.3521 22.7191 10.3639 22.6948 10.38 22.6735C10.3962 22.6522 10.4163 22.6343 10.4394 22.6207C10.4625 22.605 10.4887 22.5943 10.5162 22.5895C10.5437 22.5846 10.572 22.5856 10.5991 22.5924C10.6262 22.5993 10.6516 22.6118 10.6735 22.6292C10.6954 22.6465 10.7134 22.6683 10.7263 22.6932V22.6932Z" fill="url(#paint87_linear_175_1006)"/>
<path d="M11.461 22.3786C11.4791 22.4281 11.477 22.4828 11.4551 22.5307C11.4332 22.5787 11.3933 22.6161 11.344 22.6349C11.2937 22.6518 11.2388 22.6491 11.1903 22.6274C11.1418 22.6058 11.1032 22.5667 11.0822 22.5179C11.0716 22.4933 11.0662 22.4668 11.0664 22.44C11.0666 22.4133 11.0724 22.3869 11.0834 22.3625C11.0945 22.3381 11.1104 22.3163 11.1304 22.2984C11.1503 22.2806 11.1737 22.2671 11.1992 22.2588C11.2242 22.2491 11.2509 22.2444 11.2778 22.2452C11.3046 22.246 11.331 22.2521 11.3554 22.2633C11.3799 22.2745 11.4018 22.2904 11.4199 22.3102C11.4381 22.33 11.452 22.3533 11.461 22.3786V22.3786Z" fill="url(#paint88_linear_175_1006)"/>
<path d="M12.2408 22.1723C12.2501 22.2238 12.2395 22.277 12.211 22.321C12.1826 22.365 12.1384 22.3965 12.0876 22.4091C12.0624 22.4153 12.0361 22.4165 12.0104 22.4126C11.9847 22.4087 11.96 22.3998 11.9378 22.3863C11.9155 22.3729 11.8962 22.3552 11.8808 22.3342C11.8654 22.3132 11.8542 22.2895 11.848 22.2642C11.8414 22.2381 11.84 22.2108 11.844 22.1841C11.848 22.1574 11.8573 22.1318 11.8713 22.1087C11.8853 22.0857 11.9037 22.0656 11.9256 22.0497C11.9474 22.0339 11.9722 22.0225 11.9985 22.0163C12.0247 22.0093 12.052 22.0079 12.0788 22.0121C12.1056 22.0164 12.1313 22.0261 12.1541 22.0408C12.1769 22.0555 12.1964 22.0748 12.2113 22.0974C12.2262 22.12 12.2363 22.1456 12.2408 22.1723Z" fill="url(#paint89_linear_175_1006)"/>
<path d="M13.0429 22.0887C13.0452 22.1413 13.0271 22.1927 12.9923 22.2322C12.9575 22.2717 12.9087 22.2961 12.8563 22.3004C12.8036 22.3009 12.7525 22.2823 12.7125 22.2479C12.6725 22.2136 12.6464 22.1659 12.639 22.1138C12.6359 22.087 12.6384 22.06 12.6462 22.0342C12.6541 22.0085 12.6672 21.9847 12.6848 21.9643C12.7023 21.9439 12.7239 21.9273 12.7481 21.9157C12.7723 21.904 12.7987 21.8975 12.8256 21.8965C12.8526 21.8946 12.8796 21.8981 12.9052 21.9068C12.9307 21.9155 12.9543 21.9291 12.9746 21.947C12.9948 21.9649 13.0112 21.9867 13.023 22.011C13.0347 22.0353 13.0415 22.0617 13.0429 22.0887Z" fill="url(#paint90_linear_175_1006)"/>
<path d="M13.8486 22.1138C13.8418 22.1657 13.8162 22.2133 13.7767 22.2477C13.7372 22.2821 13.6864 22.3008 13.6341 22.3004C13.5842 22.2921 13.5391 22.2656 13.5077 22.2259C13.4763 22.1862 13.4609 22.1362 13.4643 22.0858C13.4678 22.0353 13.49 21.9879 13.5265 21.9529C13.5631 21.9179 13.6113 21.8978 13.6619 21.8965C13.689 21.897 13.7156 21.9033 13.74 21.9148C13.7645 21.9263 13.7862 21.9429 13.8038 21.9634C13.8214 21.9839 13.8345 22.0079 13.8422 22.0338C13.8499 22.0597 13.8521 22.087 13.8486 22.1138Z" fill="url(#paint91_linear_175_1006)"/>
<path d="M14.6397 22.264C14.6338 22.2892 14.623 22.3129 14.6079 22.3338C14.5927 22.3548 14.5736 22.3725 14.5516 22.386C14.5295 22.3994 14.5051 22.4084 14.4795 22.4123C14.454 22.4163 14.428 22.4151 14.4029 22.4089C14.3519 22.3963 14.3075 22.3649 14.2786 22.321C14.2497 22.2771 14.2384 22.224 14.2469 22.1721C14.2518 22.1456 14.2621 22.1203 14.2771 22.0979C14.2922 22.0754 14.3117 22.0563 14.3344 22.0417C14.3571 22.0271 14.3825 22.0173 14.4092 22.0129C14.4358 22.0085 14.4631 22.0096 14.4893 22.0161C14.5155 22.0223 14.5403 22.0337 14.5621 22.0496C14.584 22.0654 14.6024 22.0855 14.6164 22.1086C14.6304 22.1316 14.6397 22.1573 14.6437 22.184C14.6477 22.2107 14.6463 22.2379 14.6397 22.264V22.264Z" fill="url(#paint92_linear_175_1006)"/>
<path d="M15.4059 22.5179C15.3854 22.5671 15.3469 22.6066 15.2982 22.6284C15.2495 22.6501 15.1944 22.6524 15.1441 22.6349C15.0952 22.6155 15.0558 22.578 15.034 22.5303C15.0122 22.4825 15.0097 22.4281 15.0271 22.3786C15.036 22.3533 15.05 22.33 15.0682 22.3102C15.0863 22.2904 15.1082 22.2745 15.1326 22.2633C15.1571 22.2521 15.1835 22.246 15.2103 22.2452C15.2372 22.2444 15.2639 22.2491 15.2889 22.2588C15.3143 22.2671 15.3378 22.2806 15.3577 22.2984C15.3776 22.3163 15.3936 22.3381 15.4046 22.3625C15.4156 22.3869 15.4214 22.4133 15.4217 22.44C15.4219 22.4668 15.4165 22.4933 15.4059 22.5179V22.5179Z" fill="url(#paint93_linear_175_1006)"/>
<path d="M16.1215 22.891C16.108 22.9141 16.0901 22.9343 16.0687 22.9504C16.0474 22.9665 16.0231 22.9783 15.9972 22.985C15.9714 22.9917 15.9444 22.9933 15.918 22.9896C15.8915 22.9859 15.866 22.977 15.843 22.9634C15.796 22.9365 15.7615 22.8923 15.7469 22.8401C15.7323 22.788 15.7388 22.7323 15.765 22.6849C15.7769 22.6603 15.7938 22.6384 15.8147 22.6208C15.8356 22.6031 15.86 22.59 15.8862 22.5824C15.9125 22.5748 15.9401 22.5728 15.9672 22.5765C15.9943 22.5803 16.0203 22.5897 16.0435 22.6041C16.0685 22.6168 16.0905 22.6346 16.1082 22.6563C16.1259 22.6781 16.1388 22.7032 16.1461 22.7303C16.1535 22.7573 16.1551 22.7856 16.1508 22.8133C16.1466 22.8409 16.1366 22.8674 16.1215 22.891V22.891Z" fill="url(#paint94_linear_175_1006)"/>
<path d="M16.7788 23.3561C16.7452 23.3956 16.6983 23.4213 16.6469 23.4285C16.5956 23.4357 16.5434 23.4238 16.5002 23.3951C16.4591 23.3626 16.4321 23.3155 16.4248 23.2636C16.4176 23.2117 16.4306 23.159 16.4612 23.1165C16.4933 23.0748 16.5404 23.0473 16.5925 23.04C16.6446 23.0327 16.6975 23.0462 16.7398 23.0775C16.7614 23.0927 16.7797 23.1121 16.7935 23.1346C16.8072 23.1571 16.8162 23.1822 16.8199 23.2083C16.8236 23.2345 16.8218 23.2611 16.8147 23.2865C16.8076 23.3119 16.7954 23.3356 16.7788 23.3561Z" fill="url(#paint95_linear_175_1006)"/>
<path d="M17.3552 23.9218C17.3178 23.9579 17.2679 23.978 17.2159 23.978C17.1639 23.978 17.114 23.9579 17.0766 23.9218C17.0418 23.8838 17.0225 23.8341 17.0225 23.7825C17.0225 23.731 17.0418 23.6813 17.0766 23.6432C17.0946 23.6244 17.1162 23.6093 17.1401 23.5991C17.1641 23.5888 17.1899 23.5835 17.2159 23.5835C17.242 23.5835 17.2677 23.5888 17.2917 23.5991C17.3156 23.6093 17.3372 23.6244 17.3552 23.6432C17.3913 23.6806 17.4114 23.7306 17.4114 23.7825C17.4114 23.8345 17.3913 23.8844 17.3552 23.9218V23.9218Z" fill="url(#paint96_linear_175_1006)"/>
<path d="M17.851 24.5566C17.8067 24.5838 17.754 24.594 17.7028 24.5853C17.6516 24.5766 17.6052 24.5496 17.5724 24.5093C17.5465 24.4656 17.5379 24.4138 17.5482 24.364C17.5586 24.3143 17.5872 24.2702 17.6284 24.2405C17.6697 24.2108 17.7205 24.1976 17.771 24.2035C17.8215 24.2095 17.8679 24.2341 17.9011 24.2725C17.9177 24.294 17.9297 24.3187 17.9362 24.3451C17.9427 24.3715 17.9436 24.3989 17.9389 24.4257C17.9341 24.4524 17.9239 24.4779 17.9088 24.5004C17.8936 24.523 17.8739 24.5421 17.851 24.5566V24.5566Z" fill="url(#paint97_linear_175_1006)"/>
<path d="M18.2465 25.2614C18.2225 25.2743 18.1961 25.2822 18.1689 25.2847C18.1417 25.2872 18.1143 25.2842 18.0883 25.2759C18.0623 25.2676 18.0383 25.2541 18.0176 25.2363C17.9969 25.2185 17.9801 25.1967 17.968 25.1722C17.9444 25.1238 17.9399 25.0682 17.9553 25.0166C17.9708 24.965 18.0052 24.9211 18.0515 24.8937C18.0752 24.8798 18.1015 24.8711 18.1288 24.868C18.156 24.8649 18.1836 24.8674 18.2098 24.8756C18.236 24.8837 18.2602 24.8972 18.2809 24.9152C18.3016 24.9331 18.3184 24.9552 18.3301 24.98C18.3433 25.0039 18.3515 25.0302 18.3545 25.0574C18.3574 25.0845 18.3549 25.112 18.3471 25.1382C18.3394 25.1643 18.3265 25.1887 18.3092 25.2099C18.2919 25.231 18.2706 25.2485 18.2465 25.2614Z" fill="url(#paint98_linear_175_1006)"/>
<path d="M18.5251 26.0107C18.4749 26.0254 18.4209 26.0206 18.374 25.9974C18.327 25.9742 18.2905 25.9342 18.2717 25.8853C18.2543 25.8347 18.2578 25.7793 18.2813 25.7313C18.3048 25.6832 18.3464 25.6464 18.397 25.6291C18.4476 25.6117 18.503 25.6152 18.5511 25.6387C18.5992 25.6622 18.6359 25.7038 18.6533 25.7544C18.6632 25.7796 18.6678 25.8065 18.6666 25.8335C18.6655 25.8606 18.6586 25.887 18.6465 25.9112C18.6344 25.9354 18.6174 25.9568 18.5964 25.9739C18.5755 25.991 18.5512 26.0036 18.5251 26.0107V26.0107Z" fill="url(#paint99_linear_175_1006)"/>
<path d="M18.7058 26.7991C18.6537 26.8081 18.6003 26.7961 18.557 26.7659C18.5137 26.7356 18.4841 26.6895 18.4746 26.6376C18.4676 26.5859 18.4799 26.5334 18.5092 26.4902C18.5385 26.447 18.5827 26.4162 18.6334 26.4036C18.6598 26.3971 18.6873 26.3962 18.7141 26.401C18.7409 26.4057 18.7664 26.4161 18.7889 26.4313C18.8115 26.4465 18.8306 26.4663 18.8451 26.4893C18.8596 26.5124 18.869 26.5382 18.8729 26.5651C18.8777 26.5915 18.8771 26.6186 18.8713 26.6447C18.8654 26.6709 18.8543 26.6956 18.8388 26.7174C18.8232 26.7392 18.8034 26.7577 18.7805 26.7717C18.7577 26.7858 18.7323 26.7951 18.7058 26.7991V26.7991Z" fill="url(#paint100_linear_175_1006)"/>
<path d="M18.7703 27.6039C18.717 27.6041 18.6655 27.5841 18.6262 27.5479C18.587 27.5118 18.5628 27.4621 18.5586 27.4089C18.5578 27.3561 18.5773 27.305 18.613 27.2661C18.6488 27.2272 18.6981 27.2036 18.7508 27.2C18.7776 27.1985 18.8044 27.2024 18.8297 27.2115C18.855 27.2205 18.8782 27.2346 18.8979 27.2528C18.9176 27.2709 18.9335 27.2929 18.9446 27.3173C18.9557 27.3418 18.9618 27.3682 18.9625 27.395C18.9648 27.4216 18.9616 27.4484 18.953 27.4737C18.9444 27.499 18.9306 27.5222 18.9125 27.5418C18.8944 27.5615 18.8724 27.5772 18.8479 27.5879C18.8235 27.5985 18.797 27.604 18.7703 27.6039V27.6039Z" fill="url(#paint101_linear_175_1006)"/>
</g>
</g>
<path style="mix-blend-mode:multiply" opacity="0.55" d="M13.233 20.9102C11.9108 20.9102 10.6183 21.3022 9.51895 22.0368C8.41958 22.7714 7.56272 23.8155 7.05673 25.037C6.55075 26.2586 6.41836 27.6028 6.67631 28.8996C6.93426 30.1964 7.57096 31.3875 8.5059 32.3225C9.44084 33.2574 10.632 33.8941 11.9288 34.1521C13.2256 34.41 14.5698 34.2776 15.7914 33.7716C17.0129 33.2657 18.057 32.4088 18.7916 31.3094C19.5262 30.2101 19.9182 28.9176 19.9182 27.5953C19.9182 25.8223 19.2139 24.1219 17.9602 22.8682C16.7065 21.6145 15.0061 20.9102 13.233 20.9102ZM13.233 33.8627C11.9945 33.8627 10.7837 33.4954 9.75389 32.8072C8.72408 32.119 7.9215 31.1409 7.44764 29.9966C6.97378 28.8522 6.84994 27.593 7.09177 26.3783C7.33361 25.1635 7.93027 24.0478 8.80627 23.1722C9.68228 22.2966 10.7983 21.7004 12.0131 21.4591C13.228 21.2178 14.4871 21.3422 15.6313 21.8166C16.7754 22.2909 17.7532 23.094 18.4409 24.1241C19.1286 25.1542 19.4954 26.3651 19.4948 27.6037C19.4948 28.4259 19.3328 29.24 19.0181 29.9996C18.7034 30.7591 18.2421 31.4492 17.6606 32.0305C17.0791 32.6117 16.3888 33.0727 15.6291 33.3871C14.8694 33.7015 14.0552 33.8631 13.233 33.8627V33.8627Z" fill="url(#paint102_radial_175_1006)"/>
<path d="M13.6312 28.473C14.9376 27.6039 15.6284 27.2529 15.6284 26.058C15.6284 25.1276 14.868 24.5176 13.6535 24.5176C12.0435 24.5176 11.2245 25.2028 11.2245 26.2529C11.2245 26.3059 11.2245 26.5315 11.2245 26.5983H12.7844V26.3588C12.798 26.194 12.8755 26.041 13.0005 25.9327C13.1255 25.8244 13.2879 25.7694 13.4529 25.7794H13.5699C13.6698 25.8044 13.7573 25.8647 13.8162 25.9492C13.8751 26.0337 13.9014 26.1366 13.8903 26.239C13.8903 26.5594 13.1465 26.9744 11.8931 28.0802C11.6719 28.2547 11.4957 28.4794 11.3789 28.7357C11.2621 28.992 11.2083 29.2724 11.2218 29.5538V29.9103H15.6786V28.4674L13.6312 28.473Z" fill="url(#paint103_linear_175_1006)"/>
<path d="M15.481 26.1583C15.481 27.2474 14.3668 27.7794 13.3417 28.5259H15.5395V29.7599H11.3779V29.409C11.3779 28.8519 11.6565 28.473 12.0771 28.1081C13.2164 27.0942 14.0269 26.6847 14.0269 26.2112C14.0269 25.9327 13.8459 25.6764 13.4002 25.6764C13.2635 25.6719 13.1284 25.7075 13.0116 25.7787C12.8948 25.85 12.8014 25.9538 12.7428 26.0775C12.697 26.2165 12.679 26.3633 12.6899 26.5093H11.3891C11.3891 26.5093 11.3891 26.1443 11.4058 26.0496C11.5339 25.1917 12.2414 24.6569 13.5367 24.6569C14.7372 24.6457 15.481 25.2446 15.481 26.1583Z" fill="url(#paint104_linear_175_1006)"/>
<path style="mix-blend-mode:overlay" opacity="0.35" d="M18.9837 20.7952C18.8499 20.6887 18.6991 20.5932 18.5625 20.4923C18.5612 20.4832 18.5612 20.474 18.5625 20.465C18.5625 20.4241 18.5796 20.3859 18.5853 20.3477L18.6023 20.2385C18.6037 20.2276 18.6037 20.2166 18.6023 20.2058C18.643 19.9566 18.663 19.7048 18.6621 19.4527C18.6621 19.3763 18.6621 19.2971 18.6621 19.218C18.6621 19.1389 18.6621 19.057 18.6422 18.9779C18.6223 18.8148 18.59 18.6534 18.5454 18.4949C18.5178 18.3911 18.4835 18.2891 18.443 18.1893C18.4002 18.0793 18.3508 17.9718 18.295 17.8673C18.1564 17.6092 17.979 17.372 17.7685 17.1633L18.0218 16.7786L27 3.22801L25.8873 2.58405L22.4953 0.622135V0.638507L21.3883 0H5.61741V0.0218298L5.60318 0L0 3.2171L9.05217 16.8823C8.51334 17.2857 8.12907 17.8489 7.95942 18.484C7.89562 18.7207 7.85654 18.9629 7.84275 19.2071C7.84275 19.2862 7.84275 19.3653 7.84275 19.4417C7.84275 19.6 7.84275 19.7528 7.86552 19.9029C7.86397 19.9201 7.86397 19.9375 7.86552 19.9547C7.86552 19.9738 7.86552 19.9929 7.86552 20.0093C7.86552 20.0775 7.88259 20.1457 7.89397 20.214V20.2685C7.89397 20.3395 7.91958 20.4077 7.93381 20.4732C7.93381 20.4732 7.93381 20.495 7.93381 20.5059C7.93381 20.5168 7.93381 20.525 7.93381 20.5332C6.2015 21.7632 4.99036 23.5514 4.52298 25.5691C4.0556 27.5869 4.36337 29.6985 5.38975 31.5161C5.66529 31.9993 5.98832 32.4561 6.35445 32.8804C6.53657 33.0933 6.73008 33.2979 6.92359 33.4916C7.78114 34.3121 8.80338 34.9572 9.92844 35.3879C11.0535 35.8186 12.258 36.026 13.4691 35.9974C14.6801 35.9689 15.8725 35.705 16.9742 35.2218C18.0758 34.7386 19.0637 34.0462 19.8782 33.1863C20.6927 32.3264 21.3168 31.317 21.7127 30.2192C22.1086 29.1214 22.2681 27.958 22.1815 26.7994C22.095 25.6407 21.7642 24.511 21.2091 23.4785C20.6541 22.446 19.8863 21.5322 18.9524 20.7924L18.9837 20.7952ZM10.2758 18.7296H16.7299L16.9063 18.4567C17.0177 18.5917 17.1043 18.744 17.1624 18.9069C17.1815 18.9616 17.1977 19.0171 17.2108 19.0734C17.247 19.2393 17.2632 19.4087 17.2592 19.5782V19.5945C17.2592 19.6382 17.2592 19.6791 17.2592 19.7228C16.0183 19.1308 14.6503 18.8253 13.2644 18.8305C11.8784 18.8357 10.513 19.1515 9.27698 19.7528C9.2685 19.6402 9.2685 19.5271 9.27698 19.4145C9.27698 19.3326 9.27698 19.2535 9.30544 19.1716C9.32052 19.0847 9.34239 18.9989 9.37089 18.9151C9.48003 18.6208 9.67817 18.3643 9.94003 18.1784L10.2758 18.7296ZM10.7027 5.64833H18.0304L14.4732 11.6514L13.5028 13.2886L8.97249 5.64833H10.7027Z" fill="url(#paint105_radial_175_1006)"/>
<defs>
<linearGradient id="paint0_linear_175_1006" x1="6" y1="2.5" x2="21" y2="2.5" gradientUnits="userSpaceOnUse">
<stop stop-color="#005898"/>
<stop offset="0.5" stop-color="#3CA6DA"/>
<stop offset="1" stop-color="#005898"/>
</linearGradient>
<linearGradient id="paint1_linear_175_1006" x1="24.2235" y1="1.53404" x2="13.351" y2="19.6457" gradientUnits="userSpaceOnUse">
<stop stop-color="#3CA6DA"/>
<stop offset="0.4" stop-color="#0674B3"/>
<stop offset="0.62" stop-color="#056FAF"/>
<stop offset="0.87" stop-color="#0262A2"/>
<stop offset="1" stop-color="#005898"/>
</linearGradient>
<linearGradient id="paint2_linear_175_1006" x1="24.2605" y1="1.16373" x2="13.7262" y2="18.8769" gradientUnits="userSpaceOnUse">
<stop stop-color="#F0E8E5"/>
<stop offset="0.58" stop-color="#EFE6E3"/>
<stop offset="0.82" stop-color="#EBE0DC"/>
<stop offset="0.99" stop-color="#E3D6D0"/>
<stop offset="1" stop-color="#E3D5CF"/>
</linearGradient>
<radialGradient id="paint3_radial_175_1006" cx="0" cy="0" r="1" gradientUnits="userSpaceOnUse" gradientTransform="translate(13.5085 18.9942) scale(4.41722 4.46573)">
<stop offset="0.01" stop-color="#F6C054"/>
<stop offset="0.54" stop-color="#FFEA72"/>
<stop offset="0.58" stop-color="#FFF071"/>
<stop offset="0.59" stop-color="#FFF171"/>
<stop offset="0.82" stop-color="#FFE05A"/>
<stop offset="0.96" stop-color="#FFD44A"/>
</radialGradient>
<linearGradient id="paint4_linear_175_1006" x1="13.5085" y1="15.5829" x2="13.5085" y2="20.0836" gradientUnits="userSpaceOnUse">
<stop offset="0.05" stop-color="#EEEFF4"/>
<stop offset="0.1" stop-color="#C4C3C9"/>
<stop offset="0.31" stop-color="#E5E5E8"/>
<stop offset="0.5" stop-color="#C2C3CA"/>
<stop offset="0.69" stop-color="#DBDCDE"/>
<stop offset="0.84" stop-color="#DDE0E5"/>
<stop offset="0.92" stop-color="#E0E3E8"/>
<stop offset="0.98" stop-color="#E9EBF0"/>
<stop offset="1" stop-color="#EEEFF4"/>
</linearGradient>
<linearGradient id="paint5_linear_175_1006" x1="8.01218" y1="18.9956" x2="19.0031" y2="18.9956" gradientUnits="userSpaceOnUse">
<stop offset="0.05" stop-color="#EEEFF4"/>
<stop offset="0.31" stop-color="#E5E5E8"/>
<stop offset="1" stop-color="#EEEFF4"/>
</linearGradient>
<linearGradient id="paint6_linear_175_1006" x1="8.99174" y1="20.7128" x2="8.99174" y2="18.2098" gradientUnits="userSpaceOnUse">
<stop offset="0.5" stop-color="#C2C3CA"/>
<stop offset="1" stop-color="#EEEFF4"/>
</linearGradient>
<linearGradient id="paint7_linear_175_1006" x1="17.9934" y1="20.7716" x2="17.9934" y2="18.3495" gradientUnits="userSpaceOnUse">
<stop offset="0.5" stop-color="#C2C3CA"/>
<stop offset="1" stop-color="#EEEFF4"/>
</linearGradient>
<radialGradient id="paint8_radial_175_1006" cx="0" cy="0" r="1" gradientUnits="userSpaceOnUse" gradientTransform="translate(13.5064 19.0013) scale(3.5414 3.21592)">
<stop offset="0.34" stop-color="#F6F2F3"/>
<stop offset="0.99" stop-color="#565C59"/>
</radialGradient>
<linearGradient id="paint9_linear_175_1006" x1="2.74996" y1="1.48429" x2="13.3441" y2="19.9282" gradientUnits="userSpaceOnUse">
<stop stop-color="#3CA6DA"/>
<stop offset="0.4" stop-color="#0674B3"/>
<stop offset="0.62" stop-color="#056FAF"/>
<stop offset="0.87" stop-color="#0262A2"/>
<stop offset="1" stop-color="#005898"/>
</linearGradient>
<linearGradient id="paint10_linear_175_1006" x1="2.73676" y1="1.16373" x2="13.271" y2="18.874" gradientUnits="userSpaceOnUse">
<stop stop-color="#F0E8E5"/>
<stop offset="0.58" stop-color="#EFE6E3"/>
<stop offset="0.82" stop-color="#EBE0DC"/>
<stop offset="0.99" stop-color="#E3D6D0"/>
<stop offset="1" stop-color="#E3D5CF"/>
</linearGradient>
<linearGradient id="paint11_linear_175_1006" x1="19.3508" y1="21.5207" x2="6.88571" y2="33.9329" gradientUnits="userSpaceOnUse">
<stop offset="0.05" stop-color="#EEEFF4"/>
<stop offset="0.1" stop-color="#C4C3C9"/>
<stop offset="0.31" stop-color="#E5E5E8"/>
<stop offset="0.5" stop-color="#C2C3CA"/>
<stop offset="0.69" stop-color="#DBDCDE"/>
<stop offset="0.84" stop-color="#DDE0E5"/>
<stop offset="0.92" stop-color="#E0E3E8"/>
<stop offset="0.98" stop-color="#E9EBF0"/>
<stop offset="1" stop-color="#EEEFF4"/>
</linearGradient>
<linearGradient id="paint12_linear_175_1006" x1="19.1046" y1="21.0134" x2="7.45286" y2="34.1135" gradientUnits="userSpaceOnUse">
<stop offset="0.05" stop-color="#EEEFF4"/>
<stop offset="0.31" stop-color="#E5E5E8"/>
<stop offset="1" stop-color="#EEEFF4"/>
</linearGradient>
<linearGradient id="paint13_linear_175_1006" x1="18.5862" y1="23.2812" x2="7.8815" y2="31.9274" gradientUnits="userSpaceOnUse">
<stop offset="0.48" stop-color="#CC9434"/>
<stop offset="0.68" stop-color="#FFEA72"/>
<stop offset="0.76" stop-color="#FFE76C"/>
<stop offset="0.87" stop-color="#FFDE5C"/>
<stop offset="0.96" stop-color="#FFD44A"/>
</linearGradient>
<linearGradient id="paint14_linear_175_1006" x1="17.8759" y1="22.1893" x2="8.77286" y2="32.8104" gradientUnits="userSpaceOnUse">
<stop offset="0.05" stop-color="#EEEFF4"/>
<stop offset="0.31" stop-color="#E5E5E8"/>
<stop offset="1" stop-color="#EEEFF4"/>
</linearGradient>
<linearGradient id="paint15_linear_175_1006" x1="17.1347" y1="24.4119" x2="7.3771" y2="32.4118" gradientUnits="userSpaceOnUse">
<stop stop-color="#EEEFF4"/>
<stop offset="0.26" stop-color="#C4C3C9"/>
<stop offset="0.65" stop-color="#EEEEF0"/>
<stop offset="0.95" stop-color="#DDDDE2"/>
</linearGradient>
<linearGradient id="paint16_linear_175_1006" x1="18.5337" y1="28.2083" x2="18.9375" y2="28.2083" gradientUnits="userSpaceOnUse">
<stop stop-color="#EBECE8"/>
<stop offset="1" stop-color="#444444"/>
</linearGradient>
<linearGradient id="paint17_linear_175_1006" x1="18.3836" y1="29.0025" x2="18.7875" y2="29.0025" gradientUnits="userSpaceOnUse">
<stop stop-color="#EBECE8"/>
<stop offset="1" stop-color="#444444"/>
</linearGradient>
<linearGradient id="paint18_linear_175_1006" x1="18.1272" y1="29.7629" x2="18.5311" y2="29.7629" gradientUnits="userSpaceOnUse">
<stop stop-color="#EBECE8"/>
<stop offset="1" stop-color="#444444"/>
</linearGradient>
<linearGradient id="paint19_linear_175_1006" x1="17.7566" y1="30.4815" x2="18.1605" y2="30.4815" gradientUnits="userSpaceOnUse">
<stop stop-color="#EBECE8"/>
<stop offset="1" stop-color="#444444"/>
</linearGradient>
<linearGradient id="paint20_linear_175_1006" x1="17.2854" y1="31.1361" x2="17.6921" y2="31.1361" gradientUnits="userSpaceOnUse">
<stop stop-color="#EBECE8"/>
<stop offset="1" stop-color="#444444"/>
</linearGradient>
<linearGradient id="paint21_linear_175_1006" x1="16.7284" y1="31.7154" x2="17.1323" y2="31.7154" gradientUnits="userSpaceOnUse">
<stop stop-color="#EBECE8"/>
<stop offset="1" stop-color="#444444"/>
</linearGradient>
<linearGradient id="paint22_linear_175_1006" x1="16.0904" y1="32.2111" x2="16.4943" y2="32.2111" gradientUnits="userSpaceOnUse">
<stop stop-color="#EBECE8"/>
<stop offset="1" stop-color="#444444"/>
</linearGradient>
<linearGradient id="paint23_linear_175_1006" x1="15.3887" y1="32.6039" x2="15.7926" y2="32.6039" gradientUnits="userSpaceOnUse">
<stop stop-color="#EBECE8"/>
<stop offset="1" stop-color="#444444"/>
</linearGradient>
<linearGradient id="paint24_linear_175_1006" x1="14.6341" y1="32.8935" x2="15.038" y2="32.8935" gradientUnits="userSpaceOnUse">
<stop stop-color="#EBECE8"/>
<stop offset="1" stop-color="#444444"/>
</linearGradient>
<linearGradient id="paint25_linear_175_1006" x1="13.848" y1="33.0636" x2="14.2519" y2="33.0636" gradientUnits="userSpaceOnUse">
<stop stop-color="#EBECE8"/>
<stop offset="1" stop-color="#444444"/>
</linearGradient>
<linearGradient id="paint26_linear_175_1006" x1="13.043" y1="33.1274" x2="13.4469" y2="33.1274" gradientUnits="userSpaceOnUse">
<stop stop-color="#EBECE8"/>
<stop offset="1" stop-color="#444444"/>
</linearGradient>
<linearGradient id="paint27_linear_175_1006" x1="12.2386" y1="33.0633" x2="12.6425" y2="33.0633" gradientUnits="userSpaceOnUse">
<stop stop-color="#EBECE8"/>
<stop offset="1" stop-color="#444444"/>
</linearGradient>
<linearGradient id="paint28_linear_175_1006" x1="11.4503" y1="32.8937" x2="11.8542" y2="32.8937" gradientUnits="userSpaceOnUse">
<stop stop-color="#EBECE8"/>
<stop offset="1" stop-color="#444444"/>
</linearGradient>
<linearGradient id="paint29_linear_175_1006" x1="10.6976" y1="32.6043" x2="11.0987" y2="32.6043" gradientUnits="userSpaceOnUse">
<stop stop-color="#EBECE8"/>
<stop offset="1" stop-color="#444444"/>
</linearGradient>
<linearGradient id="paint30_linear_175_1006" x1="9.99646" y1="32.2114" x2="10.4004" y2="32.2114" gradientUnits="userSpaceOnUse">
<stop stop-color="#EBECE8"/>
<stop offset="1" stop-color="#444444"/>
</linearGradient>
<linearGradient id="paint31_linear_175_1006" x1="9.35842" y1="31.7154" x2="9.75953" y2="31.7154" gradientUnits="userSpaceOnUse">
<stop stop-color="#EBECE8"/>
<stop offset="1" stop-color="#444444"/>
</linearGradient>
<linearGradient id="paint32_linear_175_1006" x1="8.7987" y1="31.1361" x2="9.2026" y2="31.1361" gradientUnits="userSpaceOnUse">
<stop stop-color="#EBECE8"/>
<stop offset="1" stop-color="#444444"/>
</linearGradient>
<linearGradient id="paint33_linear_175_1006" x1="8.33028" y1="30.4815" x2="8.73417" y2="30.4815" gradientUnits="userSpaceOnUse">
<stop stop-color="#EBECE8"/>
<stop offset="1" stop-color="#444444"/>
</linearGradient>
<linearGradient id="paint34_linear_175_1006" x1="7.95674" y1="29.7627" x2="8.36343" y2="29.7627" gradientUnits="userSpaceOnUse">
<stop stop-color="#EBECE8"/>
<stop offset="1" stop-color="#444444"/>
</linearGradient>
<linearGradient id="paint35_linear_175_1006" x1="7.70111" y1="29.0025" x2="8.10501" y2="29.0025" gradientUnits="userSpaceOnUse">
<stop stop-color="#EBECE8"/>
<stop offset="1" stop-color="#444444"/>
</linearGradient>
<linearGradient id="paint36_linear_175_1006" x1="7.55026" y1="28.2087" x2="7.95694" y2="28.2087" gradientUnits="userSpaceOnUse">
<stop stop-color="#EBECE8"/>
<stop offset="1" stop-color="#444444"/>
</linearGradient>
<linearGradient id="paint37_linear_175_1006" x1="7.52807" y1="27.4008" x2="7.93197" y2="27.4008" gradientUnits="userSpaceOnUse">
<stop stop-color="#EBECE8"/>
<stop offset="1" stop-color="#444444"/>
</linearGradient>
<linearGradient id="paint38_linear_175_1006" x1="7.61419" y1="26.5986" x2="8.0153" y2="26.5986" gradientUnits="userSpaceOnUse">
<stop stop-color="#EBECE8"/>
<stop offset="1" stop-color="#444444"/>
</linearGradient>
<linearGradient id="paint39_linear_175_1006" x1="7.81531" y1="25.8186" x2="8.222" y2="25.8186" gradientUnits="userSpaceOnUse">
<stop stop-color="#EBECE8"/>
<stop offset="1" stop-color="#444444"/>
</linearGradient>
<linearGradient id="paint40_linear_175_1006" x1="8.1326" y1="25.0777" x2="8.53093" y2="25.0777" gradientUnits="userSpaceOnUse">
<stop stop-color="#EBECE8"/>
<stop offset="1" stop-color="#444444"/>
</linearGradient>
<linearGradient id="paint41_linear_175_1006" x1="8.54777" y1="24.3897" x2="8.95724" y2="24.3897" gradientUnits="userSpaceOnUse">
<stop stop-color="#EBECE8"/>
<stop offset="1" stop-color="#444444"/>
</linearGradient>
<linearGradient id="paint42_linear_175_1006" x1="9.06827" y1="23.7711" x2="9.46938" y2="23.7711" gradientUnits="userSpaceOnUse">
<stop stop-color="#EBECE8"/>
<stop offset="1" stop-color="#444444"/>
</linearGradient>
<linearGradient id="paint43_linear_175_1006" x1="9.66408" y1="23.2334" x2="10.0708" y2="23.2334" gradientUnits="userSpaceOnUse">
<stop stop-color="#EBECE8"/>
<stop offset="1" stop-color="#444444"/>
</linearGradient>
<linearGradient id="paint44_linear_175_1006" x1="10.3419" y1="22.7851" x2="10.743" y2="22.7851" gradientUnits="userSpaceOnUse">
<stop stop-color="#EBECE8"/>
<stop offset="1" stop-color="#444444"/>
</linearGradient>
<linearGradient id="paint45_linear_175_1006" x1="11.0683" y1="22.4454" x2="11.4722" y2="22.4454" gradientUnits="userSpaceOnUse">
<stop stop-color="#EBECE8"/>
<stop offset="1" stop-color="#444444"/>
</linearGradient>
<linearGradient id="paint46_linear_175_1006" x1="11.8425" y1="22.2113" x2="12.2436" y2="22.2113" gradientUnits="userSpaceOnUse">
<stop stop-color="#EBECE8"/>
<stop offset="1" stop-color="#444444"/>
</linearGradient>
<linearGradient id="paint47_linear_175_1006" x1="12.639" y1="22.0998" x2="13.0429" y2="22.0998" gradientUnits="userSpaceOnUse">
<stop stop-color="#EBECE8"/>
<stop offset="1" stop-color="#444444"/>
</linearGradient>
<linearGradient id="paint48_linear_175_1006" x1="13.4475" y1="22.0998" x2="13.8513" y2="22.0998" gradientUnits="userSpaceOnUse">
<stop stop-color="#EBECE8"/>
<stop offset="1" stop-color="#444444"/>
</linearGradient>
<linearGradient id="paint49_linear_175_1006" x1="14.2441" y1="22.2111" x2="14.648" y2="22.2111" gradientUnits="userSpaceOnUse">
<stop stop-color="#EBECE8"/>
<stop offset="1" stop-color="#444444"/>
</linearGradient>
<linearGradient id="paint50_linear_175_1006" x1="15.0159" y1="22.4454" x2="15.4226" y2="22.4454" gradientUnits="userSpaceOnUse">
<stop stop-color="#EBECE8"/>
<stop offset="1" stop-color="#444444"/>
</linearGradient>
<linearGradient id="paint51_linear_175_1006" x1="15.7482" y1="22.7852" x2="16.1494" y2="22.7852" gradientUnits="userSpaceOnUse">
<stop stop-color="#EBECE8"/>
<stop offset="1" stop-color="#444444"/>
</linearGradient>
<linearGradient id="paint52_linear_175_1006" x1="16.4167" y1="23.2335" x2="16.8234" y2="23.2335" gradientUnits="userSpaceOnUse">
<stop stop-color="#EBECE8"/>
<stop offset="1" stop-color="#444444"/>
</linearGradient>
<linearGradient id="paint53_linear_175_1006" x1="17.0209" y1="23.7714" x2="17.422" y2="23.7714" gradientUnits="userSpaceOnUse">
<stop stop-color="#EBECE8"/>
<stop offset="1" stop-color="#444444"/>
</linearGradient>
<linearGradient id="paint54_linear_175_1006" x1="17.5334" y1="24.3895" x2="17.9401" y2="24.3895" gradientUnits="userSpaceOnUse">
<stop stop-color="#EBECE8"/>
<stop offset="1" stop-color="#444444"/>
</linearGradient>
<linearGradient id="paint55_linear_175_1006" x1="17.9568" y1="25.0775" x2="18.3552" y2="25.0775" gradientUnits="userSpaceOnUse">
<stop stop-color="#EBECE8"/>
<stop offset="1" stop-color="#444444"/>
</linearGradient>
<linearGradient id="paint56_linear_175_1006" x1="18.2689" y1="25.8185" x2="18.6756" y2="25.8185" gradientUnits="userSpaceOnUse">
<stop stop-color="#EBECE8"/>
<stop offset="1" stop-color="#444444"/>
</linearGradient>
<linearGradient id="paint57_linear_175_1006" x1="18.4746" y1="26.5986" x2="18.8757" y2="26.5986" gradientUnits="userSpaceOnUse">
<stop stop-color="#EBECE8"/>
<stop offset="1" stop-color="#444444"/>
</linearGradient>
<linearGradient id="paint58_linear_175_1006" x1="18.5586" y1="27.4006" x2="18.9625" y2="27.4006" gradientUnits="userSpaceOnUse">
<stop stop-color="#EBECE8"/>
<stop offset="1" stop-color="#444444"/>
</linearGradient>
<linearGradient id="paint59_linear_175_1006" x1="18.5337" y1="28.2083" x2="18.9375" y2="28.2083" gradientUnits="userSpaceOnUse">
<stop stop-color="#EBECE8"/>
<stop offset="1" stop-color="#444444"/>
</linearGradient>
<linearGradient id="paint60_linear_175_1006" x1="18.3836" y1="29.0025" x2="18.7875" y2="29.0025" gradientUnits="userSpaceOnUse">
<stop stop-color="#EBECE8"/>
<stop offset="1" stop-color="#444444"/>
</linearGradient>
<linearGradient id="paint61_linear_175_1006" x1="18.1272" y1="29.7629" x2="18.5311" y2="29.7629" gradientUnits="userSpaceOnUse">
<stop stop-color="#EBECE8"/>
<stop offset="1" stop-color="#444444"/>
</linearGradient>
<linearGradient id="paint62_linear_175_1006" x1="17.7566" y1="30.4815" x2="18.1605" y2="30.4815" gradientUnits="userSpaceOnUse">
<stop stop-color="#EBECE8"/>
<stop offset="1" stop-color="#444444"/>
</linearGradient>
<linearGradient id="paint63_linear_175_1006" x1="17.2854" y1="31.1361" x2="17.6921" y2="31.1361" gradientUnits="userSpaceOnUse">
<stop stop-color="#EBECE8"/>
<stop offset="1" stop-color="#444444"/>
</linearGradient>
<linearGradient id="paint64_linear_175_1006" x1="16.7284" y1="31.7154" x2="17.1323" y2="31.7154" gradientUnits="userSpaceOnUse">
<stop stop-color="#EBECE8"/>
<stop offset="1" stop-color="#444444"/>
</linearGradient>
<linearGradient id="paint65_linear_175_1006" x1="16.0904" y1="32.2111" x2="16.4943" y2="32.2111" gradientUnits="userSpaceOnUse">
<stop stop-color="#EBECE8"/>
<stop offset="1" stop-color="#444444"/>
</linearGradient>
<linearGradient id="paint66_linear_175_1006" x1="15.3887" y1="32.6039" x2="15.7926" y2="32.6039" gradientUnits="userSpaceOnUse">
<stop stop-color="#EBECE8"/>
<stop offset="1" stop-color="#444444"/>
</linearGradient>
<linearGradient id="paint67_linear_175_1006" x1="14.6341" y1="32.8935" x2="15.038" y2="32.8935" gradientUnits="userSpaceOnUse">
<stop stop-color="#EBECE8"/>
<stop offset="1" stop-color="#444444"/>
</linearGradient>
<linearGradient id="paint68_linear_175_1006" x1="13.848" y1="33.0636" x2="14.2519" y2="33.0636" gradientUnits="userSpaceOnUse">
<stop stop-color="#EBECE8"/>
<stop offset="1" stop-color="#444444"/>
</linearGradient>
<linearGradient id="paint69_linear_175_1006" x1="13.043" y1="33.1274" x2="13.4469" y2="33.1274" gradientUnits="userSpaceOnUse">
<stop stop-color="#EBECE8"/>
<stop offset="1" stop-color="#444444"/>
</linearGradient>
<linearGradient id="paint70_linear_175_1006" x1="12.2386" y1="33.0633" x2="12.6425" y2="33.0633" gradientUnits="userSpaceOnUse">
<stop stop-color="#EBECE8"/>
<stop offset="1" stop-color="#444444"/>
</linearGradient>
<linearGradient id="paint71_linear_175_1006" x1="11.4503" y1="32.8937" x2="11.8542" y2="32.8937" gradientUnits="userSpaceOnUse">
<stop stop-color="#EBECE8"/>
<stop offset="1" stop-color="#444444"/>
</linearGradient>
<linearGradient id="paint72_linear_175_1006" x1="10.6976" y1="32.6043" x2="11.0987" y2="32.6043" gradientUnits="userSpaceOnUse">
<stop stop-color="#EBECE8"/>
<stop offset="1" stop-color="#444444"/>
</linearGradient>
<linearGradient id="paint73_linear_175_1006" x1="9.99646" y1="32.2114" x2="10.4004" y2="32.2114" gradientUnits="userSpaceOnUse">
<stop stop-color="#EBECE8"/>
<stop offset="1" stop-color="#444444"/>
</linearGradient>
<linearGradient id="paint74_linear_175_1006" x1="9.35842" y1="31.7154" x2="9.75953" y2="31.7154" gradientUnits="userSpaceOnUse">
<stop stop-color="#EBECE8"/>
<stop offset="1" stop-color="#444444"/>
</linearGradient>
<linearGradient id="paint75_linear_175_1006" x1="8.7987" y1="31.1361" x2="9.2026" y2="31.1361" gradientUnits="userSpaceOnUse">
<stop stop-color="#EBECE8"/>
<stop offset="1" stop-color="#444444"/>
</linearGradient>
<linearGradient id="paint76_linear_175_1006" x1="8.33028" y1="30.4815" x2="8.73417" y2="30.4815" gradientUnits="userSpaceOnUse">
<stop stop-color="#EBECE8"/>
<stop offset="1" stop-color="#444444"/>
</linearGradient>
<linearGradient id="paint77_linear_175_1006" x1="7.95674" y1="29.7627" x2="8.36343" y2="29.7627" gradientUnits="userSpaceOnUse">
<stop stop-color="#EBECE8"/>
<stop offset="1" stop-color="#444444"/>
</linearGradient>
<linearGradient id="paint78_linear_175_1006" x1="7.70111" y1="29.0025" x2="8.10501" y2="29.0025" gradientUnits="userSpaceOnUse">
<stop stop-color="#EBECE8"/>
<stop offset="1" stop-color="#444444"/>
</linearGradient>
<linearGradient id="paint79_linear_175_1006" x1="7.55026" y1="28.2087" x2="7.95694" y2="28.2087" gradientUnits="userSpaceOnUse">
<stop stop-color="#EBECE8"/>
<stop offset="1" stop-color="#444444"/>
</linearGradient>
<linearGradient id="paint80_linear_175_1006" x1="7.52807" y1="27.4008" x2="7.93197" y2="27.4008" gradientUnits="userSpaceOnUse">
<stop stop-color="#EBECE8"/>
<stop offset="1" stop-color="#444444"/>
</linearGradient>
<linearGradient id="paint81_linear_175_1006" x1="7.61419" y1="26.5986" x2="8.0153" y2="26.5986" gradientUnits="userSpaceOnUse">
<stop stop-color="#EBECE8"/>
<stop offset="1" stop-color="#444444"/>
</linearGradient>
<linearGradient id="paint82_linear_175_1006" x1="7.81531" y1="25.8186" x2="8.222" y2="25.8186" gradientUnits="userSpaceOnUse">
<stop stop-color="#EBECE8"/>
<stop offset="1" stop-color="#444444"/>
</linearGradient>
<linearGradient id="paint83_linear_175_1006" x1="8.1326" y1="25.0777" x2="8.53093" y2="25.0777" gradientUnits="userSpaceOnUse">
<stop stop-color="#EBECE8"/>
<stop offset="1" stop-color="#444444"/>
</linearGradient>
<linearGradient id="paint84_linear_175_1006" x1="8.54777" y1="24.3897" x2="8.95724" y2="24.3897" gradientUnits="userSpaceOnUse">
<stop stop-color="#EBECE8"/>
<stop offset="1" stop-color="#444444"/>
</linearGradient>
<linearGradient id="paint85_linear_175_1006" x1="9.06827" y1="23.7711" x2="9.46938" y2="23.7711" gradientUnits="userSpaceOnUse">
<stop stop-color="#EBECE8"/>
<stop offset="1" stop-color="#444444"/>
</linearGradient>
<linearGradient id="paint86_linear_175_1006" x1="9.66408" y1="23.2334" x2="10.0708" y2="23.2334" gradientUnits="userSpaceOnUse">
<stop stop-color="#EBECE8"/>
<stop offset="1" stop-color="#444444"/>
</linearGradient>
<linearGradient id="paint87_linear_175_1006" x1="10.3419" y1="22.7851" x2="10.743" y2="22.7851" gradientUnits="userSpaceOnUse">
<stop stop-color="#EBECE8"/>
<stop offset="1" stop-color="#444444"/>
</linearGradient>
<linearGradient id="paint88_linear_175_1006" x1="11.0683" y1="22.4454" x2="11.4722" y2="22.4454" gradientUnits="userSpaceOnUse">
<stop stop-color="#EBECE8"/>
<stop offset="1" stop-color="#444444"/>
</linearGradient>
<linearGradient id="paint89_linear_175_1006" x1="11.8425" y1="22.2113" x2="12.2436" y2="22.2113" gradientUnits="userSpaceOnUse">
<stop stop-color="#EBECE8"/>
<stop offset="1" stop-color="#444444"/>
</linearGradient>
<linearGradient id="paint90_linear_175_1006" x1="12.639" y1="22.0998" x2="13.0429" y2="22.0998" gradientUnits="userSpaceOnUse">
<stop stop-color="#EBECE8"/>
<stop offset="1" stop-color="#444444"/>
</linearGradient>
<linearGradient id="paint91_linear_175_1006" x1="13.4475" y1="22.0998" x2="13.8513" y2="22.0998" gradientUnits="userSpaceOnUse">
<stop stop-color="#EBECE8"/>
<stop offset="1" stop-color="#444444"/>
</linearGradient>
<linearGradient id="paint92_linear_175_1006" x1="14.2441" y1="22.2111" x2="14.648" y2="22.2111" gradientUnits="userSpaceOnUse">
<stop stop-color="#EBECE8"/>
<stop offset="1" stop-color="#444444"/>
</linearGradient>
<linearGradient id="paint93_linear_175_1006" x1="15.0159" y1="22.4454" x2="15.4226" y2="22.4454" gradientUnits="userSpaceOnUse">
<stop stop-color="#EBECE8"/>
<stop offset="1" stop-color="#444444"/>
</linearGradient>
<linearGradient id="paint94_linear_175_1006" x1="15.7482" y1="22.7852" x2="16.1494" y2="22.7852" gradientUnits="userSpaceOnUse">
<stop stop-color="#EBECE8"/>
<stop offset="1" stop-color="#444444"/>
</linearGradient>
<linearGradient id="paint95_linear_175_1006" x1="16.4167" y1="23.2335" x2="16.8234" y2="23.2335" gradientUnits="userSpaceOnUse">
<stop stop-color="#EBECE8"/>
<stop offset="1" stop-color="#444444"/>
</linearGradient>
<linearGradient id="paint96_linear_175_1006" x1="17.0209" y1="23.7714" x2="17.422" y2="23.7714" gradientUnits="userSpaceOnUse">
<stop stop-color="#EBECE8"/>
<stop offset="1" stop-color="#444444"/>
</linearGradient>
<linearGradient id="paint97_linear_175_1006" x1="17.5334" y1="24.3895" x2="17.9401" y2="24.3895" gradientUnits="userSpaceOnUse">
<stop stop-color="#EBECE8"/>
<stop offset="1" stop-color="#444444"/>
</linearGradient>
<linearGradient id="paint98_linear_175_1006" x1="17.9568" y1="25.0775" x2="18.3552" y2="25.0775" gradientUnits="userSpaceOnUse">
<stop stop-color="#EBECE8"/>
<stop offset="1" stop-color="#444444"/>
</linearGradient>
<linearGradient id="paint99_linear_175_1006" x1="18.2689" y1="25.8185" x2="18.6756" y2="25.8185" gradientUnits="userSpaceOnUse">
<stop stop-color="#EBECE8"/>
<stop offset="1" stop-color="#444444"/>
</linearGradient>
<linearGradient id="paint100_linear_175_1006" x1="18.4746" y1="26.5986" x2="18.8757" y2="26.5986" gradientUnits="userSpaceOnUse">
<stop stop-color="#EBECE8"/>
<stop offset="1" stop-color="#444444"/>
</linearGradient>
<linearGradient id="paint101_linear_175_1006" x1="18.5586" y1="27.4006" x2="18.9625" y2="27.4006" gradientUnits="userSpaceOnUse">
<stop stop-color="#EBECE8"/>
<stop offset="1" stop-color="#444444"/>
</linearGradient>
<radialGradient id="paint102_radial_175_1006" cx="0" cy="0" r="1" gradientUnits="userSpaceOnUse" gradientTransform="translate(13.2442 27.6023) scale(7.80496)">
<stop offset="0.57" stop-color="#CBD2D6"/>
<stop offset="0.97" stop-color="#5C707E"/>
</radialGradient>
<linearGradient id="paint103_linear_175_1006" x1="11.4" y1="28.551" x2="16.0713" y2="26.3421" gradientUnits="userSpaceOnUse">
<stop stop-color="#9B9BA7"/>
<stop offset="0.65" stop-color="#EEEEF0"/>
<stop offset="0.95" stop-color="#DDDDE2"/>
</linearGradient>
<linearGradient id="paint104_linear_175_1006" x1="13.4587" y1="24.6457" x2="13.4587" y2="29.8546" gradientUnits="userSpaceOnUse">
<stop offset="0.05" stop-color="#EEEFF4"/>
<stop offset="0.17" stop-color="#E5E5E8"/>
<stop offset="0.25" stop-color="#C8C8CE"/>
<stop offset="0.33" stop-color="#AFAFB9"/>
<stop offset="0.41" stop-color="#A0A0AC"/>
<stop offset="0.47" stop-color="#9B9BA7"/>
<stop offset="0.65" stop-color="#707081"/>
<stop offset="0.79" stop-color="#BEBEC5"/>
<stop offset="0.81" stop-color="#C9C9D0"/>
<stop offset="0.85" stop-color="#D3D3DA"/>
<stop offset="0.88" stop-color="#D7D7DE"/>
<stop offset="0.91" stop-color="#E3E4E9"/>
<stop offset="0.95" stop-color="#EBECF2"/>
<stop offset="1" stop-color="#EEEFF4"/>
</linearGradient>
<radialGradient id="paint105_radial_175_1006" cx="0" cy="0" r="1" gradientUnits="userSpaceOnUse" gradientTransform="translate(13.5028 17.9915) scale(16.3614 15.6885)">
<stop stop-color="#ECECBB"/>
<stop offset="1" stop-color="#784F58"/>
</radialGradient>
</defs>
</svg>
