<svg width="27" height="40" viewBox="0 0 27 40" fill="none" xmlns="http://www.w3.org/2000/svg">
<path d="M21 0H6L7.02543 6H21V0Z" fill="url(#paint0_linear_175_1005)"/>
<g style="mix-blend-mode:multiply" opacity="0.75">
<path d="M7.88584 0H6L7.06044 6H11L7.88584 0Z" fill="#389C5E"/>
</g>
<g style="mix-blend-mode:multiply" opacity="0.75">
<path d="M19.1142 0H21L19.9396 6H16L19.1142 0Z" fill="#389C5E"/>
</g>
<path d="M21.6358 0L11 20H17.1725L27 3.4565L21.6358 0Z" fill="url(#paint1_linear_175_1005)"/>
<path d="M26 3.05297L15.6296 20H12L22.677 1L26 3.05297Z" fill="url(#paint2_linear_175_1005)"/>
<g style="mix-blend-mode:multiply" opacity="0.5">
<path d="M14.7904 12L11 20H16.8282L18 17.7812L14.7904 12Z" fill="#771A1F"/>
</g>
<path d="M13.5318 17H13.4682C6.6239 17 7.95522 21.0345 8.41728 22L8.53569 21.9076C8.60893 21.852 8.68822 21.8023 8.7725 21.7592V21.7592H8.78982C8.84758 21.7301 9.68507 21.7009 9.74861 21.6766C9.35874 20.4825 8.46638 18.4664 13.4596 18.4373H13.5231C18.5192 18.4664 17.6239 20.4825 17.2369 21.6766C17.3005 21.7009 18.1351 21.7301 18.1957 21.7592H18.2131C18.2978 21.8018 18.3772 21.8515 18.4499 21.9076C18.4932 21.9368 18.5307 21.9684 18.5712 22C19.0477 21.0345 20.3848 17 13.5318 17Z" fill="url(#paint3_radial_175_1005)"/>
<path d="M13.5318 17H13.4682C6.6239 17 7.95522 21.0345 8.41728 22L8.53569 21.9076C8.60893 21.852 8.68822 21.8023 8.7725 21.7592V21.7592H8.78982C8.84758 21.7301 9.68507 21.7009 9.74861 21.6766C9.35874 20.4825 8.46638 18.4664 13.4596 18.4373H13.5231C18.5192 18.4664 17.6239 20.4825 17.2369 21.6766C17.3005 21.7009 18.1351 21.7301 18.1957 21.7592H18.2131C18.2978 21.8018 18.3772 21.8515 18.4499 21.9076C18.4932 21.9368 18.5307 21.9684 18.5712 22C19.0477 21.0345 20.3848 17 13.5318 17Z" fill="url(#paint4_linear_175_1005)"/>
<path opacity="0.75" d="M13.5297 17H13.4662C6.62441 17 7.95523 21.0345 8.41713 22L8.49219 21.9416C7.97256 20.7062 7.14115 17.1629 13.4662 17.1629H13.5297C19.8547 17.1629 19.0147 20.7062 18.5066 21.9416L18.5817 22C19.0435 21.0345 20.3802 17 13.5297 17Z" fill="url(#paint5_radial_175_1005)"/>
<path style="mix-blend-mode:multiply" opacity="0.55" d="M9.67827 20C9.09067 20.0928 8.5252 20.2471 8 20.4582C8.04176 20.9869 8.20076 21.5074 8.47098 22L8.60697 21.9093C8.69109 21.8548 8.78214 21.806 8.87894 21.7637V21.7637H8.89884C8.96517 21.7351 9.92703 21.7064 10 21.6826C9.82421 21.1862 9.54229 20.5656 9.67827 20Z" fill="url(#paint6_linear_175_1005)"/>
<path style="mix-blend-mode:multiply" opacity="0.55" d="M17.3074 20C17.4926 20.5675 17.1917 21.2042 17 21.6932C17.0727 21.7163 18.0281 21.7439 18.0975 21.7716H18.1174C18.2144 21.8119 18.3052 21.8591 18.3884 21.9123C18.438 21.94 18.481 21.97 18.5273 22C18.8034 21.5108 18.963 20.9934 19 20.4683C18.4667 20.2625 17.8979 20.1052 17.3074 20V20Z" fill="url(#paint7_linear_175_1005)"/>
<path style="mix-blend-mode:multiply" opacity="0.55" d="M13.528 18H13.4705C8.6327 18 8.8253 20.3483 9.13574 22C9.16736 21.9817 9.71064 21.8669 9.77388 21.8408C9.38582 20.5597 8.4976 18.3966 13.4676 18.3653H13.5309C18.5038 18.3966 17.6127 20.5597 17.2275 21.8408C17.2907 21.8669 17.834 21.9817 17.8627 22C18.1761 20.3588 18.3687 18 13.528 18Z" fill="url(#paint8_radial_175_1005)"/>
<path d="M0 3.4565L10.4417 20H17L5.69944 0L0 3.4565Z" fill="url(#paint9_linear_175_1005)"/>
<path d="M2 3.05297L12.3704 20H16L5.32298 1L2 3.05297Z" fill="url(#paint10_linear_175_1005)"/>
<path d="M16.7554 36.5163C21.2426 34.6988 23.4068 29.5878 21.5893 25.1006C19.7718 20.6135 14.6608 18.4492 10.1736 20.2667C5.68642 22.0842 3.5222 27.1952 5.3397 31.6824C7.1572 36.1696 12.2682 38.3338 16.7554 36.5163Z" fill="url(#paint11_linear_175_1005)"/>
<path opacity="0.75" d="M13.4663 19.6235C11.7322 19.6241 10.0372 20.139 8.59579 21.103C7.15436 22.067 6.03125 23.4369 5.36853 25.0394C4.70581 26.6419 4.53327 28.4049 4.87272 30.1054C5.21218 31.806 6.04838 33.3677 7.27555 34.5929C8.50271 35.8181 10.0657 36.6518 11.7668 36.9886C13.4679 37.3253 15.2306 37.15 16.832 36.4847C18.4334 35.8194 19.8016 34.6941 20.7633 33.2512C21.7251 31.8082 22.2372 30.1124 22.235 28.3783C22.2321 26.0549 21.3068 23.8277 19.6626 22.1861C18.0184 20.5445 15.7897 19.6228 13.4663 19.6235ZM13.4663 36.9131C11.7805 36.9131 10.1325 36.4132 8.73082 35.4766C7.32912 34.54 6.23663 33.2088 5.5915 31.6513C4.94636 30.0938 4.77757 28.38 5.10645 26.7266C5.43534 25.0732 6.24713 23.5544 7.43918 22.3624C8.63123 21.1703 10.15 20.3585 11.8034 20.0297C13.4568 19.7008 15.1706 19.8696 16.7281 20.5147C18.2856 21.1598 19.6168 22.2523 20.5534 23.654C21.49 25.0557 21.9899 26.7037 21.9899 28.3895C21.9899 29.5088 21.7694 30.6172 21.3411 31.6513C20.9127 32.6855 20.2849 33.6251 19.4934 34.4166C18.7019 35.2081 17.7623 35.8359 16.7281 36.2643C15.694 36.6926 14.5856 36.9131 13.4663 36.9131V36.9131Z" fill="url(#paint12_radial_175_1005)"/>
<path opacity="0.75" d="M20.3294 29.3503C20.8586 25.5611 18.2158 22.0603 14.4266 21.5312C10.6374 21.002 7.13672 23.6448 6.60755 27.434C6.07839 31.2232 8.72116 34.7239 12.5104 35.2531C16.2996 35.7822 19.8003 33.1394 20.3294 29.3503Z" fill="url(#paint13_radial_175_1005)"/>
<path d="M13.466 35.0834C17.1627 35.0834 20.1596 32.0866 20.1596 28.3898C20.1596 24.6931 17.1627 21.6963 13.466 21.6963C9.76926 21.6963 6.77246 24.6931 6.77246 28.3898C6.77246 32.0866 9.76926 35.0834 13.466 35.0834Z" fill="url(#paint14_linear_175_1005)"/>
<g opacity="0.75">
<g style="mix-blend-mode:multiply" opacity="0.85">
<path d="M18.9286 29.1946C18.9029 29.1915 18.878 29.1834 18.8555 29.1706C18.833 29.1578 18.8133 29.1407 18.7975 29.1202C18.7817 29.0997 18.7701 29.0763 18.7634 29.0513C18.7568 29.0263 18.7551 29.0002 18.7586 28.9746C18.7636 28.9223 18.7888 28.8741 18.8289 28.8403C18.869 28.8064 18.9208 28.7896 18.9731 28.7935C19.0019 28.7931 19.0305 28.7989 19.0569 28.8104C19.0834 28.8219 19.107 28.8389 19.1264 28.8602C19.1457 28.8816 19.1603 28.9068 19.1692 28.9342C19.1781 28.9617 19.181 28.9907 19.1779 29.0193C19.1747 29.0479 19.1654 29.0756 19.1508 29.1004C19.1361 29.1252 19.1163 29.1466 19.0927 29.1632C19.0692 29.1797 19.0423 29.1911 19.014 29.1965C18.9857 29.202 18.9566 29.2013 18.9286 29.1946V29.1946Z" fill="url(#paint15_linear_175_1005)"/>
<path d="M18.7587 29.983C18.7074 29.968 18.6639 29.934 18.6369 29.8879C18.61 29.8417 18.6017 29.7871 18.6138 29.7351C18.6282 29.6842 18.6618 29.6408 18.7076 29.6143C18.7534 29.5878 18.8077 29.5802 18.859 29.593C18.9107 29.6063 18.955 29.6396 18.9822 29.6856C19.0093 29.7315 19.0171 29.7864 19.0038 29.8381C18.9905 29.8898 18.9572 29.9342 18.9113 29.9613C18.8653 29.9885 18.8104 29.9963 18.7587 29.983V29.983Z" fill="url(#paint16_linear_175_1005)"/>
<path d="M18.4659 30.7349C18.4183 30.7131 18.3813 30.6733 18.363 30.6242C18.3447 30.5751 18.3467 30.5208 18.3684 30.4731C18.3776 30.4487 18.3916 30.4265 18.4096 30.4077C18.4277 30.389 18.4493 30.374 18.4733 30.3639C18.4972 30.3537 18.523 30.3485 18.549 30.3486C18.5751 30.3487 18.6008 30.3541 18.6247 30.3645C18.6513 30.3741 18.6757 30.3893 18.6961 30.4089C18.7166 30.4285 18.7327 30.4522 18.7434 30.4785C18.7542 30.5047 18.7593 30.5329 18.7586 30.5612C18.7578 30.5896 18.7511 30.6174 18.7389 30.643C18.7139 30.6904 18.6716 30.7264 18.6208 30.7435C18.57 30.7607 18.5145 30.7576 18.4659 30.7349V30.7349Z" fill="url(#paint17_linear_175_1005)"/>
<path d="M18.074 31.4428C18.03 31.4132 17.9987 31.3681 17.9863 31.3166C17.9739 31.265 17.9814 31.2106 18.0072 31.1643C18.0359 31.1192 18.081 31.087 18.1329 31.0745C18.1849 31.0621 18.2397 31.0703 18.2857 31.0974C18.3092 31.1105 18.3297 31.1284 18.3459 31.1499C18.3622 31.1713 18.3738 31.1959 18.3801 31.2221C18.3864 31.2482 18.3872 31.2754 18.3824 31.3019C18.3777 31.3284 18.3675 31.3536 18.3526 31.376C18.3391 31.3991 18.3211 31.4193 18.2996 31.4353C18.2782 31.4514 18.2537 31.4628 18.2276 31.4691C18.2016 31.4753 18.1745 31.4762 18.1481 31.4717C18.1217 31.4672 18.0965 31.4574 18.074 31.4428V31.4428Z" fill="url(#paint18_linear_175_1005)"/>
<path d="M17.5692 32.075C17.5282 32.0407 17.5026 31.9914 17.4979 31.9382C17.4931 31.8849 17.5098 31.8319 17.5442 31.7909C17.5785 31.7499 17.6277 31.7242 17.681 31.7195C17.7343 31.7148 17.7873 31.7315 17.8283 31.7658C17.8692 31.7987 17.8956 31.8462 17.9018 31.8983C17.9081 31.9504 17.8937 32.0028 17.8617 32.0444C17.8268 32.087 17.7765 32.1142 17.7218 32.1199C17.667 32.1256 17.6122 32.1095 17.5692 32.075V32.075Z" fill="url(#paint19_linear_175_1005)"/>
<path d="M17.0125 32.6376C16.9813 32.5972 16.9655 32.5469 16.968 32.4958C16.9706 32.4447 16.9913 32.3962 17.0265 32.3591C17.0665 32.3267 17.117 32.3102 17.1684 32.3128C17.2198 32.3153 17.2685 32.3368 17.305 32.373C17.3418 32.4101 17.3624 32.4601 17.3624 32.5123C17.3624 32.5645 17.3418 32.6145 17.305 32.6516C17.2857 32.6715 17.2625 32.687 17.2367 32.6972C17.2109 32.7074 17.1833 32.712 17.1556 32.7107C17.1279 32.7094 17.1009 32.7022 17.0762 32.6896C17.0515 32.677 17.0298 32.6593 17.0125 32.6376V32.6376Z" fill="url(#paint20_linear_175_1005)"/>
<path d="M16.3438 33.1142C16.3291 33.0921 16.3189 33.0671 16.314 33.041C16.309 33.0148 16.3094 32.9879 16.3152 32.9619C16.3209 32.9359 16.3318 32.9113 16.3473 32.8896C16.3627 32.8679 16.3824 32.8496 16.4051 32.8357C16.439 32.8136 16.4786 32.8022 16.5189 32.8028C16.5593 32.8033 16.5985 32.8159 16.6317 32.8388C16.6649 32.8618 16.6905 32.8941 16.7053 32.9317C16.7201 32.9692 16.7233 33.0104 16.7146 33.0498C16.706 33.0892 16.6858 33.1251 16.6566 33.153C16.6274 33.1809 16.5906 33.1995 16.5509 33.2064C16.5111 33.2133 16.4702 33.2082 16.4333 33.1918C16.3965 33.1754 16.3653 33.1484 16.3438 33.1142V33.1142Z" fill="url(#paint21_linear_175_1005)"/>
<path d="M15.6193 33.4759C15.5961 33.4259 15.5933 33.3689 15.6115 33.3169C15.6297 33.2649 15.6675 33.222 15.7168 33.1974C15.7663 33.1732 15.8234 33.1697 15.8756 33.1874C15.9277 33.2051 15.9708 33.2428 15.9953 33.2921C16.0084 33.3166 16.0162 33.3435 16.0183 33.3711C16.0205 33.3988 16.0168 33.4266 16.0077 33.4527C15.9985 33.4789 15.984 33.5029 15.9651 33.5232C15.9462 33.5435 15.9233 33.5597 15.8978 33.5706C15.8737 33.5847 15.8469 33.5934 15.8192 33.5961C15.7914 33.5989 15.7634 33.5957 15.737 33.5867C15.7106 33.5777 15.6864 33.5632 15.6661 33.5441C15.6458 33.525 15.6298 33.5017 15.6193 33.4759Z" fill="url(#paint22_linear_175_1005)"/>
<path d="M14.8645 33.7322C14.8507 33.6817 14.8572 33.6277 14.8828 33.5818C14.9083 33.536 14.9507 33.502 15.001 33.4871C15.0516 33.4735 15.1054 33.4795 15.1519 33.5037C15.1983 33.528 15.2339 33.5688 15.2517 33.618C15.2592 33.6435 15.2616 33.6701 15.2588 33.6965C15.256 33.7228 15.248 33.7484 15.2354 33.7717C15.2227 33.7949 15.2056 33.8155 15.1849 33.8321C15.1643 33.8488 15.1406 33.8612 15.1152 33.8687C15.0898 33.8762 15.0631 33.8787 15.0368 33.8759C15.0104 33.8731 14.9849 33.8651 14.9616 33.8524C14.9383 33.8397 14.9178 33.8226 14.9011 33.802C14.8844 33.7814 14.872 33.7577 14.8645 33.7322V33.7322Z" fill="url(#paint23_linear_175_1005)"/>
<path d="M14.0706 33.8826C14.0648 33.8294 14.0794 33.776 14.1114 33.7331C14.1435 33.6902 14.1906 33.661 14.2433 33.6515C14.2959 33.645 14.349 33.659 14.3915 33.6906C14.4341 33.7223 14.4628 33.7691 14.4717 33.8214C14.476 33.8479 14.4749 33.8751 14.4685 33.9013C14.4621 33.9274 14.4505 33.952 14.4344 33.9736C14.4183 33.9952 14.398 34.0133 14.3747 34.0269C14.3515 34.0404 14.3257 34.0492 14.299 34.0526C14.2727 34.0573 14.2458 34.0566 14.2198 34.0505C14.1938 34.0444 14.1694 34.0331 14.1479 34.0171C14.1265 34.0012 14.1086 33.981 14.0953 33.9579C14.082 33.9348 14.0736 33.9092 14.0706 33.8826Z" fill="url(#paint24_linear_175_1005)"/>
<path d="M13.266 33.9052C13.2719 33.8557 13.2956 33.8101 13.3329 33.777C13.3701 33.7439 13.4182 33.7256 13.468 33.7256C13.5178 33.7256 13.5659 33.7439 13.6031 33.777C13.6403 33.8101 13.6641 33.8557 13.6699 33.9052C13.6733 33.9337 13.6706 33.9626 13.662 33.99C13.6533 34.0173 13.639 34.0426 13.6199 34.064C13.6009 34.0855 13.5775 34.1027 13.5513 34.1144C13.5251 34.1262 13.4967 34.1323 13.468 34.1323C13.4393 34.1323 13.4109 34.1262 13.3847 34.1144C13.3585 34.1027 13.3351 34.0855 13.316 34.064C13.297 34.0426 13.2826 34.0173 13.274 33.99C13.2654 33.9626 13.2627 33.9337 13.266 33.9052Z" fill="url(#paint25_linear_175_1005)"/>
<path d="M12.4635 33.8214C12.4725 33.7691 12.5012 33.7223 12.5437 33.6906C12.5862 33.659 12.6393 33.645 12.692 33.6515C12.7446 33.661 12.7918 33.6902 12.8238 33.7331C12.8558 33.776 12.8704 33.8294 12.8647 33.8826C12.8617 33.9092 12.8532 33.9348 12.8399 33.9579C12.8266 33.981 12.8087 34.0012 12.7873 34.0171C12.7659 34.0331 12.7414 34.0444 12.7154 34.0505C12.6895 34.0566 12.6625 34.0573 12.6362 34.0526C12.6095 34.0492 12.5838 34.0404 12.5605 34.0269C12.5372 34.0133 12.5169 33.9952 12.5008 33.9736C12.4847 33.952 12.4731 33.9274 12.4667 33.9013C12.4603 33.8751 12.4592 33.8479 12.4635 33.8214V33.8214Z" fill="url(#paint26_linear_175_1005)"/>
<path d="M11.6863 33.618C11.7029 33.5686 11.7379 33.5274 11.7841 33.503C11.8302 33.4787 11.884 33.473 11.9342 33.4871C11.9845 33.502 12.0269 33.536 12.0524 33.5818C12.0779 33.6277 12.0845 33.6817 12.0707 33.7322C12.0636 33.7584 12.0514 33.7828 12.0348 33.8042C12.0181 33.8255 11.9974 33.8433 11.9738 33.8566C11.9502 33.8698 11.9242 33.8782 11.8973 33.8812C11.8704 33.8843 11.8432 33.8819 11.8172 33.8743C11.7913 33.8668 11.7673 33.854 11.7465 33.8368C11.7258 33.8197 11.7087 33.7984 11.6965 33.7744C11.6842 33.7504 11.677 33.7242 11.6752 33.6973C11.6735 33.6704 11.6772 33.6434 11.6863 33.618V33.618Z" fill="url(#paint27_linear_175_1005)"/>
<path d="M10.9427 33.3004C10.9672 33.2511 11.0103 33.2134 11.0624 33.1957C11.1146 33.178 11.1717 33.1815 11.2212 33.2057C11.2705 33.2303 11.3083 33.2732 11.3265 33.3252C11.3447 33.3772 11.3419 33.4343 11.3187 33.4842C11.3084 33.5103 11.2927 33.5338 11.2725 33.5532C11.2523 33.5726 11.2282 33.5875 11.2017 33.5967C11.1753 33.606 11.1472 33.6094 11.1193 33.6068C11.0914 33.6042 11.0644 33.5957 11.0402 33.5817C11.0146 33.5704 10.9916 33.554 10.9727 33.5335C10.9538 33.5129 10.9393 33.4887 10.9302 33.4623C10.921 33.4359 10.9174 33.4079 10.9196 33.38C10.9217 33.3522 10.9296 33.3251 10.9427 33.3004Z" fill="url(#paint28_linear_175_1005)"/>
<path d="M10.2547 32.8801C10.2856 32.8372 10.3319 32.808 10.3839 32.7986C10.4358 32.7893 10.4894 32.8005 10.5333 32.83C10.556 32.8439 10.5757 32.8622 10.5911 32.8839C10.6066 32.9056 10.6175 32.9302 10.6232 32.9562C10.629 32.9822 10.6294 33.0091 10.6244 33.0353C10.6195 33.0615 10.6094 33.0864 10.5946 33.1085C10.5816 33.1341 10.5633 33.1566 10.541 33.1746C10.5188 33.1926 10.4929 33.2057 10.4652 33.213C10.4375 33.2203 10.4086 33.2217 10.3803 33.217C10.352 33.2124 10.3251 33.2018 10.3012 33.186C10.2773 33.1702 10.257 33.1495 10.2416 33.1253C10.2263 33.1011 10.2162 33.074 10.2121 33.0456C10.208 33.0173 10.2099 32.9884 10.2177 32.9608C10.2255 32.9332 10.2391 32.9076 10.2575 32.8857L10.2547 32.8801Z" fill="url(#paint29_linear_175_1005)"/>
<path d="M9.63646 32.3647C9.67302 32.3285 9.72167 32.307 9.77307 32.3045C9.82447 32.3019 9.87502 32.3184 9.91501 32.3508C9.94816 32.3896 9.96638 32.439 9.96638 32.4901C9.96638 32.5411 9.94816 32.5905 9.91501 32.6293C9.8978 32.6488 9.87687 32.6646 9.85346 32.6759C9.83004 32.6872 9.80462 32.6936 9.77867 32.6949C9.75272 32.6962 9.72677 32.6923 9.70235 32.6834C9.67793 32.6746 9.65552 32.6609 9.63646 32.6433C9.59972 32.6062 9.5791 32.5562 9.5791 32.504C9.5791 32.4518 9.59972 32.4018 9.63646 32.3647V32.3647Z" fill="url(#paint30_linear_175_1005)"/>
<path d="M9.09913 31.7658C9.14013 31.7315 9.1931 31.7148 9.24638 31.7195C9.29966 31.7242 9.3489 31.7499 9.38325 31.7909C9.4176 31.8319 9.43426 31.8849 9.42956 31.9382C9.42486 31.9914 9.39918 32.0407 9.35818 32.075C9.31719 32.1064 9.26606 32.1214 9.21463 32.1173C9.1632 32.1132 9.11511 32.0902 9.07963 32.0527C9.06172 32.0328 9.048 32.0095 9.03926 31.9841C9.03053 31.9588 9.02696 31.9319 9.02878 31.9052C9.0306 31.8784 9.03776 31.8523 9.04984 31.8284C9.06193 31.8045 9.07869 31.7832 9.09913 31.7658Z" fill="url(#paint31_linear_175_1005)"/>
<path d="M8.65542 31.0945C8.70146 31.0673 8.75624 31.0591 8.80821 31.0716C8.86018 31.0841 8.90527 31.1163 8.93397 31.1613C8.95976 31.2077 8.9672 31.262 8.95481 31.3136C8.94243 31.3652 8.91114 31.4103 8.86712 31.4399C8.84463 31.4544 8.81942 31.4643 8.79302 31.4688C8.76661 31.4733 8.73957 31.4724 8.71352 31.4662C8.68747 31.4599 8.66297 31.4484 8.64149 31.4324C8.62001 31.4164 8.60201 31.3962 8.58857 31.373C8.57361 31.3507 8.56345 31.3254 8.55871 31.299C8.55397 31.2725 8.55477 31.2453 8.56105 31.2191C8.56733 31.193 8.57895 31.1684 8.5952 31.1469C8.61144 31.1255 8.63194 31.1076 8.65542 31.0945V31.0945Z" fill="url(#paint32_linear_175_1005)"/>
<path d="M8.31032 30.3645C8.3342 30.3541 8.35994 30.3487 8.38596 30.3486C8.41199 30.3485 8.43777 30.3537 8.46173 30.3639C8.48569 30.374 8.50734 30.389 8.52536 30.4077C8.54339 30.4265 8.55741 30.4487 8.56658 30.4731C8.58832 30.5208 8.59026 30.5751 8.57199 30.6242C8.55371 30.6733 8.5167 30.7131 8.46909 30.7349C8.44406 30.7466 8.41696 30.7532 8.38936 30.7543C8.36176 30.7555 8.33422 30.7511 8.30831 30.7415C8.28241 30.7319 8.25866 30.7173 8.23845 30.6985C8.21823 30.6797 8.20195 30.657 8.19054 30.6319C8.18031 30.6065 8.1753 30.5793 8.17582 30.552C8.17633 30.5246 8.18236 30.4977 8.19355 30.4727C8.20473 30.4477 8.22084 30.4253 8.2409 30.4067C8.26097 30.3881 8.28458 30.3737 8.31032 30.3645Z" fill="url(#paint33_linear_175_1005)"/>
<path d="M8.07599 29.593C8.1273 29.5802 8.1816 29.5878 8.22737 29.6143C8.27313 29.6408 8.30676 29.6842 8.32112 29.7351C8.33323 29.7871 8.32497 29.8417 8.29803 29.8879C8.27109 29.934 8.22752 29.968 8.17627 29.983C8.15067 29.9896 8.12401 29.991 8.09784 29.9873C8.07166 29.9836 8.04647 29.9748 8.02371 29.9613C8.00095 29.9479 7.98106 29.9301 7.96518 29.9089C7.9493 29.8878 7.93773 29.8637 7.93115 29.8381C7.92456 29.8125 7.92309 29.7859 7.9268 29.7597C7.93052 29.7335 7.93935 29.7083 7.9528 29.6856C7.96625 29.6628 7.98406 29.6429 8.00519 29.627C8.02633 29.6112 8.05039 29.5996 8.07599 29.593V29.593Z" fill="url(#paint34_linear_175_1005)"/>
<path d="M7.96183 28.7935C8.01416 28.7896 8.06593 28.8064 8.10603 28.8403C8.14612 28.8741 8.17136 28.9223 8.17632 28.9746C8.17983 29.0002 8.1782 29.0263 8.17153 29.0513C8.16486 29.0763 8.15328 29.0997 8.13747 29.1202C8.12165 29.1407 8.10192 29.1578 8.07942 29.1706C8.05691 29.1834 8.03209 29.1915 8.0064 29.1946C7.97837 29.2013 7.94923 29.202 7.92093 29.1965C7.89263 29.1911 7.8658 29.1797 7.84222 29.1632C7.81865 29.1466 7.79887 29.1252 7.78419 29.1004C7.76952 29.0756 7.76029 29.0479 7.7571 29.0193C7.75392 28.9907 7.75686 28.9617 7.76574 28.9342C7.77461 28.9068 7.78921 28.8816 7.80857 28.8602C7.82792 28.8389 7.8516 28.8219 7.87802 28.8104C7.90445 28.7989 7.93302 28.7931 7.96183 28.7935V28.7935Z" fill="url(#paint35_linear_175_1005)"/>
<path d="M7.9622 27.9888C8.01516 27.9917 8.06489 28.0151 8.10079 28.0541C8.1367 28.0932 8.15593 28.1447 8.1544 28.1977C8.15016 28.2506 8.12591 28.3 8.08659 28.3357C8.04726 28.3714 7.99581 28.3908 7.94271 28.3899C7.91625 28.39 7.89006 28.3846 7.86579 28.374C7.84151 28.3635 7.81967 28.3481 7.80163 28.3288C7.78359 28.3094 7.76973 28.2865 7.76094 28.2616C7.75214 28.2366 7.74859 28.2101 7.75051 28.1838C7.75082 28.1568 7.75664 28.1302 7.7676 28.1056C7.77857 28.081 7.79445 28.0588 7.81428 28.0406C7.8341 28.0223 7.85745 28.0083 7.88289 27.9994C7.90833 27.9905 7.93532 27.9869 7.9622 27.9888Z" fill="url(#paint36_linear_175_1005)"/>
<path d="M8.07642 27.1891C8.12759 27.2011 8.17247 27.2317 8.20233 27.2749C8.23219 27.3182 8.2449 27.371 8.23798 27.4231C8.23557 27.4513 8.2273 27.4787 8.21368 27.5035C8.20006 27.5284 8.18141 27.5501 8.15891 27.5673C8.13641 27.5845 8.11056 27.5968 8.08302 27.6035C8.05549 27.6101 8.02687 27.6109 7.999 27.6058C7.97113 27.6008 7.94463 27.5899 7.92119 27.574C7.89775 27.5581 7.87789 27.5375 7.86289 27.5135C7.84789 27.4895 7.83807 27.4626 7.83407 27.4345C7.83007 27.4065 7.83197 27.3779 7.83965 27.3506C7.84358 27.324 7.85298 27.2985 7.86727 27.2756C7.88155 27.2528 7.90041 27.2332 7.92265 27.218C7.9449 27.2028 7.97004 27.1924 7.99651 27.1874C8.02297 27.1825 8.05018 27.183 8.07642 27.1891V27.1891Z" fill="url(#paint37_linear_175_1005)"/>
<path d="M8.30997 26.4286C8.3598 26.4469 8.40052 26.4839 8.42342 26.5318C8.44632 26.5797 8.44959 26.6346 8.43253 26.6849C8.41312 26.734 8.37609 26.774 8.32868 26.7972C8.28127 26.8204 8.22692 26.825 8.17626 26.8102C8.15042 26.8028 8.12642 26.7901 8.10582 26.7728C8.08522 26.7555 8.06847 26.7341 8.05666 26.71C8.04484 26.6858 8.03823 26.6594 8.03724 26.6326C8.03625 26.6057 8.04091 26.5789 8.05092 26.554C8.05936 26.5285 8.07283 26.505 8.09052 26.4848C8.10822 26.4646 8.12978 26.4482 8.15394 26.4365C8.17809 26.4248 8.20435 26.4181 8.23115 26.4168C8.25795 26.4154 8.28475 26.4194 8.30997 26.4286V26.4286Z" fill="url(#paint38_linear_175_1005)"/>
<path d="M8.65548 25.688C8.70283 25.7145 8.7382 25.7582 8.75427 25.81C8.77034 25.8619 8.76588 25.9179 8.74183 25.9665C8.71745 26.0142 8.67514 26.0502 8.62421 26.0666C8.57328 26.0831 8.51789 26.0787 8.47024 26.0543C8.42259 26.0299 8.38658 25.9876 8.37013 25.9367C8.35367 25.8857 8.35812 25.8303 8.3825 25.7827C8.39316 25.7576 8.40894 25.7351 8.42884 25.7165C8.44873 25.698 8.47229 25.6838 8.498 25.6748C8.52371 25.6659 8.55101 25.6625 8.57813 25.6647C8.60525 25.667 8.6316 25.6749 8.65548 25.688V25.688Z" fill="url(#paint39_linear_175_1005)"/>
<path d="M9.09905 25.0167C9.14106 25.0484 9.16918 25.0951 9.17749 25.147C9.1858 25.1989 9.17366 25.2521 9.14362 25.2953C9.11078 25.3356 9.06423 25.3625 9.01285 25.3707C8.96147 25.3789 8.90886 25.3679 8.86507 25.3398C8.84248 25.3257 8.82314 25.3069 8.80831 25.2847C8.79349 25.2625 8.78352 25.2375 8.77905 25.2112C8.77458 25.1849 8.77571 25.1579 8.78237 25.1321C8.78904 25.1063 8.80108 25.0821 8.81772 25.0613C8.84943 25.0185 8.89667 24.9898 8.94928 24.9815C9.00189 24.9732 9.05566 24.9858 9.09905 25.0167V25.0167Z" fill="url(#paint40_linear_175_1005)"/>
<path d="M9.63647 24.4148C9.67016 24.4534 9.68873 24.5028 9.68873 24.5541C9.68873 24.6053 9.67016 24.6548 9.63647 24.6933C9.59908 24.7294 9.54915 24.7496 9.49719 24.7496C9.44524 24.7496 9.3953 24.7294 9.35792 24.6933C9.32247 24.6556 9.30273 24.6058 9.30273 24.5541C9.30273 24.5023 9.32247 24.4525 9.35792 24.4148C9.39496 24.378 9.44502 24.3574 9.49719 24.3574C9.54937 24.3574 9.59943 24.378 9.63647 24.4148Z" fill="url(#paint41_linear_175_1005)"/>
<path d="M10.2542 23.902C10.2859 23.9439 10.2998 23.9966 10.2931 24.0487C10.2863 24.1008 10.2593 24.1481 10.218 24.1806C10.1752 24.2096 10.1232 24.222 10.0719 24.2153C10.0206 24.2086 9.97347 24.1834 9.93949 24.1444C9.92272 24.124 9.91031 24.1005 9.90302 24.0752C9.89573 24.0499 9.89372 24.0233 9.89711 23.9972C9.90051 23.9711 9.90924 23.946 9.92276 23.9233C9.93628 23.9007 9.9543 23.8812 9.9757 23.8658C9.99632 23.8498 10.0199 23.838 10.0451 23.8312C10.0703 23.8243 10.0966 23.8225 10.1225 23.8259C10.1484 23.8292 10.1734 23.8377 10.196 23.8508C10.2186 23.8638 10.2384 23.8813 10.2542 23.902V23.902Z" fill="url(#paint42_linear_175_1005)"/>
<path d="M10.9425 23.479C10.9679 23.5265 10.974 23.582 10.9595 23.634C10.945 23.6859 10.9109 23.7302 10.8645 23.7576C10.8416 23.7715 10.8161 23.7807 10.7895 23.7846C10.763 23.7885 10.7359 23.787 10.7099 23.7802C10.6839 23.7735 10.6596 23.7616 10.6383 23.7453C10.617 23.7289 10.5992 23.7085 10.586 23.6851C10.5595 23.6381 10.5526 23.5826 10.5667 23.5305C10.5808 23.4784 10.6147 23.4339 10.6612 23.4066C10.6841 23.3918 10.7098 23.3819 10.7368 23.3775C10.7637 23.3732 10.7912 23.3744 10.8177 23.3812C10.8441 23.388 10.8688 23.4002 10.8903 23.4171C10.9118 23.4339 10.9296 23.455 10.9425 23.479V23.479Z" fill="url(#paint43_linear_175_1005)"/>
<path d="M11.6866 23.1641C11.6995 23.2128 11.6937 23.2646 11.6706 23.3093C11.6475 23.354 11.6085 23.3886 11.5614 23.4063C11.5142 23.4239 11.4622 23.4235 11.4154 23.405C11.3685 23.3865 11.3302 23.3513 11.3078 23.3062C11.2967 23.2817 11.291 23.2551 11.291 23.2282C11.291 23.2013 11.2967 23.1748 11.3078 23.1502C11.3189 23.1257 11.335 23.1039 11.3552 23.0861C11.3754 23.0683 11.3991 23.055 11.4248 23.0471C11.4496 23.0369 11.4762 23.0319 11.5031 23.0322C11.5299 23.0326 11.5563 23.0385 11.5808 23.0494C11.6053 23.0604 11.6273 23.0762 11.6455 23.0959C11.6637 23.1156 11.6777 23.1388 11.6866 23.1641V23.1641Z" fill="url(#paint44_linear_175_1005)"/>
<path d="M12.4637 22.9608C12.473 23.0123 12.4624 23.0655 12.4339 23.1095C12.4055 23.1534 12.3613 23.1849 12.3105 23.1975C12.2592 23.2093 12.2053 23.2004 12.1605 23.1728C12.1157 23.1452 12.0835 23.101 12.0709 23.0499C12.0584 22.9967 12.0675 22.9407 12.0962 22.8942C12.1249 22.8477 12.171 22.8146 12.2241 22.802C12.2503 22.7959 12.2775 22.7952 12.304 22.8C12.3305 22.8048 12.3557 22.8149 12.3781 22.8298C12.4005 22.8447 12.4197 22.8639 12.4344 22.8865C12.4491 22.909 12.4591 22.9343 12.4637 22.9608V22.9608Z" fill="url(#paint45_linear_175_1005)"/>
<path d="M13.2661 22.8773C13.2684 22.9298 13.2503 22.9813 13.2154 23.0208C13.1806 23.0602 13.1319 23.0847 13.0794 23.089C13.0266 23.0893 12.9756 23.0702 12.936 23.0352C12.8964 23.0003 12.8711 22.952 12.8649 22.8995C12.8614 22.8729 12.8635 22.8458 12.8713 22.82C12.879 22.7943 12.8921 22.7704 12.9098 22.7501C12.9275 22.7299 12.9492 22.7136 12.9737 22.7023C12.9981 22.6911 13.0247 22.6852 13.0516 22.6851C13.0784 22.6832 13.1053 22.6867 13.1307 22.6954C13.1561 22.7041 13.1795 22.7178 13.1995 22.7358C13.2195 22.7537 13.2357 22.7755 13.2471 22.7998C13.2586 22.8241 13.265 22.8504 13.2661 22.8773V22.8773Z" fill="url(#paint46_linear_175_1005)"/>
<path d="M14.0712 22.8995C14.0651 22.952 14.0398 23.0003 14.0002 23.0352C13.9606 23.0702 13.9095 23.0893 13.8568 23.089C13.8043 23.0847 13.7555 23.0602 13.7207 23.0208C13.6859 22.9813 13.6678 22.9298 13.6701 22.8773C13.6712 22.8504 13.6776 22.8241 13.689 22.7998C13.7005 22.7755 13.7167 22.7537 13.7367 22.7358C13.7567 22.7178 13.7801 22.7041 13.8055 22.6954C13.8309 22.6867 13.8578 22.6832 13.8846 22.6851C13.9115 22.6852 13.9381 22.6911 13.9625 22.7023C13.9869 22.7136 14.0087 22.7299 14.0264 22.7501C14.044 22.7704 14.0572 22.7943 14.0649 22.82C14.0726 22.8458 14.0748 22.8729 14.0712 22.8995V22.8995Z" fill="url(#paint47_linear_175_1005)"/>
<path d="M14.8648 23.0499C14.8522 23.101 14.8201 23.1452 14.7753 23.1728C14.7304 23.2004 14.6766 23.2093 14.6252 23.1975C14.5744 23.1849 14.5303 23.1534 14.5018 23.1095C14.4734 23.0655 14.4627 23.0123 14.472 22.9608C14.4767 22.9343 14.4866 22.909 14.5013 22.8865C14.5161 22.8639 14.5352 22.8447 14.5576 22.8298C14.5801 22.8149 14.6053 22.8048 14.6317 22.8C14.6582 22.7952 14.6854 22.7959 14.7116 22.802C14.7648 22.8146 14.8108 22.8477 14.8395 22.8942C14.8683 22.9407 14.8773 22.9967 14.8648 23.0499V23.0499Z" fill="url(#paint48_linear_175_1005)"/>
<path d="M15.6198 23.3061C15.5988 23.3543 15.5607 23.3929 15.5128 23.4145C15.4649 23.4362 15.4107 23.4392 15.3607 23.4231C15.3113 23.4038 15.2713 23.3658 15.2495 23.3174C15.2276 23.269 15.2256 23.2139 15.2438 23.164C15.2524 23.1388 15.2661 23.1157 15.284 23.096C15.3019 23.0763 15.3237 23.0605 15.348 23.0495C15.3722 23.0385 15.3985 23.0327 15.4251 23.0323C15.4518 23.0318 15.4782 23.0369 15.5028 23.0471C15.5285 23.055 15.5522 23.0682 15.5724 23.086C15.5926 23.1038 15.6087 23.1256 15.6198 23.1502C15.6309 23.1747 15.6366 23.2012 15.6366 23.2281C15.6366 23.255 15.6309 23.2816 15.6198 23.3061V23.3061Z" fill="url(#paint49_linear_175_1005)"/>
<path d="M16.3442 23.6794C16.3309 23.7027 16.3131 23.7232 16.2918 23.7395C16.2706 23.7559 16.2462 23.7678 16.2202 23.7745C16.1942 23.7813 16.1672 23.7827 16.1406 23.7788C16.1141 23.7749 16.0886 23.7657 16.0656 23.7518C16.0192 23.7244 15.9852 23.6801 15.9706 23.6282C15.9561 23.5763 15.9622 23.5208 15.9876 23.4733C15.9999 23.4489 16.017 23.4274 16.0379 23.41C16.0588 23.3926 16.0831 23.3797 16.1093 23.3721C16.1354 23.3645 16.1629 23.3624 16.1899 23.3659C16.2169 23.3694 16.2428 23.3785 16.2662 23.3925C16.2906 23.4058 16.312 23.4239 16.3292 23.4457C16.3464 23.4675 16.359 23.4925 16.3663 23.5193C16.3736 23.5461 16.3754 23.5741 16.3716 23.6016C16.3678 23.6291 16.3585 23.6556 16.3442 23.6794Z" fill="url(#paint50_linear_175_1005)"/>
<path d="M17.0124 24.1447C16.9784 24.1837 16.9313 24.2089 16.88 24.2156C16.8287 24.2223 16.7767 24.2099 16.7338 24.1809C16.6931 24.148 16.6666 24.1007 16.6599 24.0488C16.6532 23.997 16.6667 23.9445 16.6976 23.9023C16.7133 23.8813 16.7329 23.8637 16.7554 23.8504C16.7779 23.837 16.8028 23.8283 16.8288 23.8247C16.8547 23.821 16.881 23.8226 16.9063 23.8292C16.9316 23.8359 16.9554 23.8474 16.9762 23.8633C16.998 23.8787 17.0164 23.8984 17.0302 23.9212C17.044 23.9441 17.0528 23.9695 17.0563 23.996C17.0597 24.0225 17.0575 24.0494 17.05 24.0749C17.0424 24.1005 17.0296 24.1243 17.0124 24.1447V24.1447Z" fill="url(#paint51_linear_175_1005)"/>
<path d="M17.5691 24.7075C17.5317 24.7436 17.4818 24.7637 17.4298 24.7637C17.3779 24.7637 17.3279 24.7436 17.2905 24.7075C17.2569 24.6689 17.2383 24.6194 17.2383 24.5682C17.2383 24.517 17.2569 24.4675 17.2905 24.4289C17.3276 24.3922 17.3776 24.3716 17.4298 24.3716C17.482 24.3716 17.5321 24.3922 17.5691 24.4289C17.6045 24.4667 17.6243 24.5165 17.6243 24.5682C17.6243 24.62 17.6045 24.6698 17.5691 24.7075V24.7075Z" fill="url(#paint52_linear_175_1005)"/>
<path d="M18.0738 25.3425C18.03 25.3706 17.9774 25.3815 17.926 25.3733C17.8746 25.3651 17.8281 25.3383 17.7952 25.2979C17.7652 25.2547 17.753 25.2016 17.7613 25.1496C17.7697 25.0977 17.7978 25.051 17.8398 25.0193C17.883 24.9893 17.9361 24.9772 17.988 24.9855C18.04 24.9938 18.0867 25.0219 18.1183 25.0639C18.1351 25.0846 18.1473 25.1086 18.1542 25.1343C18.1611 25.16 18.1625 25.1869 18.1582 25.2131C18.154 25.2394 18.1443 25.2645 18.1298 25.2868C18.1152 25.3091 18.0961 25.328 18.0738 25.3425V25.3425Z" fill="url(#paint53_linear_175_1005)"/>
<path d="M18.4665 26.0472C18.4425 26.0605 18.4161 26.0688 18.3888 26.0715C18.3616 26.0742 18.334 26.0713 18.3079 26.0629C18.2818 26.0546 18.2577 26.041 18.2371 26.0229C18.2164 26.0049 18.1997 25.9828 18.1879 25.9581C18.1639 25.9094 18.1594 25.8534 18.1755 25.8016C18.1916 25.7497 18.2269 25.706 18.2743 25.6795C18.2979 25.6653 18.3242 25.6562 18.3516 25.6528C18.3789 25.6495 18.4067 25.652 18.433 25.6601C18.4593 25.6683 18.4836 25.6819 18.5043 25.7001C18.5249 25.7184 18.5415 25.7408 18.5528 25.7659C18.5667 25.7898 18.5755 25.8163 18.5786 25.8437C18.5818 25.8712 18.5792 25.899 18.5711 25.9254C18.563 25.9518 18.5495 25.9763 18.5315 25.9972C18.5135 26.0182 18.4914 26.0352 18.4665 26.0472V26.0472Z" fill="url(#paint54_linear_175_1005)"/>
<path d="M18.7592 26.7995C18.7086 26.8143 18.6542 26.8097 18.6068 26.7865C18.5594 26.7633 18.5224 26.7232 18.503 26.6742C18.4859 26.6239 18.4892 26.569 18.5121 26.5211C18.535 26.4732 18.5757 26.4362 18.6255 26.4179C18.6508 26.4087 18.6776 26.4047 18.7044 26.406C18.7312 26.4074 18.7574 26.4141 18.7816 26.4258C18.8057 26.4375 18.8273 26.4539 18.845 26.4741C18.8627 26.4942 18.8761 26.5178 18.8846 26.5432C18.8946 26.5682 18.8993 26.595 18.8983 26.6218C18.8973 26.6487 18.8907 26.6751 18.8788 26.6992C18.867 26.7234 18.8503 26.7448 18.8297 26.762C18.8091 26.7793 18.7851 26.7921 18.7592 26.7995V26.7995Z" fill="url(#paint55_linear_175_1005)"/>
<path d="M18.9289 27.5874C18.8769 27.5955 18.8238 27.5828 18.781 27.552C18.7383 27.5213 18.7094 27.475 18.7005 27.4231C18.6928 27.3713 18.7049 27.3185 18.7343 27.2751C18.7637 27.2318 18.8083 27.2011 18.8593 27.1891C18.8855 27.183 18.9127 27.1825 18.9392 27.1874C18.9657 27.1924 18.9908 27.2028 19.013 27.218C19.0353 27.2332 19.0541 27.2528 19.0684 27.2756C19.0827 27.2985 19.0921 27.324 19.096 27.3506C19.1008 27.3772 19.1003 27.4044 19.0945 27.4307C19.0886 27.4571 19.0776 27.482 19.0621 27.504C19.0465 27.5261 19.0267 27.5448 19.0039 27.5591C18.981 27.5734 18.9555 27.583 18.9289 27.5874V27.5874Z" fill="url(#paint56_linear_175_1005)"/>
<path d="M18.993 28.3787C18.9399 28.3795 18.8885 28.3601 18.8492 28.3244C18.8098 28.2887 18.7856 28.2394 18.7813 28.1865C18.7798 28.1334 18.799 28.0819 18.8349 28.0429C18.8709 28.0039 18.9206 27.9804 18.9735 27.9775C19.0004 27.9756 19.0274 27.9793 19.0528 27.9882C19.0783 27.9971 19.1016 28.0111 19.1215 28.0294C19.1413 28.0476 19.1572 28.0697 19.1681 28.0944C19.1791 28.119 19.1849 28.1456 19.1852 28.1725C19.1872 28.1989 19.1836 28.2254 19.1748 28.2504C19.166 28.2753 19.1522 28.2982 19.1341 28.3175C19.1161 28.3369 19.0942 28.3523 19.0699 28.3628C19.0457 28.3733 19.0195 28.3787 18.993 28.3787V28.3787Z" fill="url(#paint57_linear_175_1005)"/>
</g>
<g style="mix-blend-mode:multiply" opacity="0.85">
<path d="M18.9286 29.1946C18.9029 29.1915 18.878 29.1834 18.8555 29.1706C18.833 29.1578 18.8133 29.1407 18.7975 29.1202C18.7817 29.0997 18.7701 29.0763 18.7634 29.0513C18.7568 29.0263 18.7551 29.0002 18.7586 28.9746C18.7636 28.9223 18.7888 28.8741 18.8289 28.8403C18.869 28.8064 18.9208 28.7896 18.9731 28.7935C19.0019 28.7931 19.0305 28.7989 19.0569 28.8104C19.0834 28.8219 19.107 28.8389 19.1264 28.8602C19.1457 28.8816 19.1603 28.9068 19.1692 28.9342C19.1781 28.9617 19.181 28.9907 19.1779 29.0193C19.1747 29.0479 19.1654 29.0756 19.1508 29.1004C19.1361 29.1252 19.1163 29.1466 19.0927 29.1632C19.0692 29.1797 19.0423 29.1911 19.014 29.1965C18.9857 29.202 18.9566 29.2013 18.9286 29.1946V29.1946Z" fill="url(#paint58_linear_175_1005)"/>
<path d="M18.7587 29.983C18.7074 29.968 18.6639 29.934 18.6369 29.8879C18.61 29.8417 18.6017 29.7871 18.6138 29.7351C18.6282 29.6842 18.6618 29.6408 18.7076 29.6143C18.7534 29.5878 18.8077 29.5802 18.859 29.593C18.9107 29.6063 18.955 29.6396 18.9822 29.6856C19.0093 29.7315 19.0171 29.7864 19.0038 29.8381C18.9905 29.8898 18.9572 29.9342 18.9113 29.9613C18.8653 29.9885 18.8104 29.9963 18.7587 29.983V29.983Z" fill="url(#paint59_linear_175_1005)"/>
<path d="M18.4659 30.7349C18.4183 30.7131 18.3813 30.6733 18.363 30.6242C18.3447 30.5751 18.3467 30.5208 18.3684 30.4731C18.3776 30.4487 18.3916 30.4265 18.4096 30.4077C18.4277 30.389 18.4493 30.374 18.4733 30.3639C18.4972 30.3537 18.523 30.3485 18.549 30.3486C18.5751 30.3487 18.6008 30.3541 18.6247 30.3645C18.6513 30.3741 18.6757 30.3893 18.6961 30.4089C18.7166 30.4285 18.7327 30.4522 18.7434 30.4785C18.7542 30.5047 18.7593 30.5329 18.7586 30.5612C18.7578 30.5896 18.7511 30.6174 18.7389 30.643C18.7139 30.6904 18.6716 30.7264 18.6208 30.7435C18.57 30.7607 18.5145 30.7576 18.4659 30.7349V30.7349Z" fill="url(#paint60_linear_175_1005)"/>
<path d="M18.074 31.4428C18.03 31.4132 17.9987 31.3681 17.9863 31.3166C17.9739 31.265 17.9814 31.2106 18.0072 31.1643C18.0359 31.1192 18.081 31.087 18.1329 31.0745C18.1849 31.0621 18.2397 31.0703 18.2857 31.0974C18.3092 31.1105 18.3297 31.1284 18.3459 31.1499C18.3622 31.1713 18.3738 31.1959 18.3801 31.2221C18.3864 31.2482 18.3872 31.2754 18.3824 31.3019C18.3777 31.3284 18.3675 31.3536 18.3526 31.376C18.3391 31.3991 18.3211 31.4193 18.2996 31.4353C18.2782 31.4514 18.2537 31.4628 18.2276 31.4691C18.2016 31.4753 18.1745 31.4762 18.1481 31.4717C18.1217 31.4672 18.0965 31.4574 18.074 31.4428V31.4428Z" fill="url(#paint61_linear_175_1005)"/>
<path d="M17.5692 32.075C17.5282 32.0407 17.5026 31.9914 17.4979 31.9382C17.4931 31.8849 17.5098 31.8319 17.5442 31.7909C17.5785 31.7499 17.6277 31.7242 17.681 31.7195C17.7343 31.7148 17.7873 31.7315 17.8283 31.7658C17.8692 31.7987 17.8956 31.8462 17.9018 31.8983C17.9081 31.9504 17.8937 32.0028 17.8617 32.0444C17.8268 32.087 17.7765 32.1142 17.7218 32.1199C17.667 32.1256 17.6122 32.1095 17.5692 32.075V32.075Z" fill="url(#paint62_linear_175_1005)"/>
<path d="M17.0125 32.6376C16.9813 32.5972 16.9655 32.5469 16.968 32.4958C16.9706 32.4447 16.9913 32.3962 17.0265 32.3591C17.0665 32.3267 17.117 32.3102 17.1684 32.3128C17.2198 32.3153 17.2685 32.3368 17.305 32.373C17.3418 32.4101 17.3624 32.4601 17.3624 32.5123C17.3624 32.5645 17.3418 32.6145 17.305 32.6516C17.2857 32.6715 17.2625 32.687 17.2367 32.6972C17.2109 32.7074 17.1833 32.712 17.1556 32.7107C17.1279 32.7094 17.1009 32.7022 17.0762 32.6896C17.0515 32.677 17.0298 32.6593 17.0125 32.6376V32.6376Z" fill="url(#paint63_linear_175_1005)"/>
<path d="M16.3438 33.1142C16.3291 33.0921 16.3189 33.0671 16.314 33.041C16.309 33.0148 16.3094 32.9879 16.3152 32.9619C16.3209 32.9359 16.3318 32.9113 16.3473 32.8896C16.3627 32.8679 16.3824 32.8496 16.4051 32.8357C16.439 32.8136 16.4786 32.8022 16.5189 32.8028C16.5593 32.8033 16.5985 32.8159 16.6317 32.8388C16.6649 32.8618 16.6905 32.8941 16.7053 32.9317C16.7201 32.9692 16.7233 33.0104 16.7146 33.0498C16.706 33.0892 16.6858 33.1251 16.6566 33.153C16.6274 33.1809 16.5906 33.1995 16.5509 33.2064C16.5111 33.2133 16.4702 33.2082 16.4333 33.1918C16.3965 33.1754 16.3653 33.1484 16.3438 33.1142V33.1142Z" fill="url(#paint64_linear_175_1005)"/>
<path d="M15.6193 33.4759C15.5961 33.4259 15.5933 33.3689 15.6115 33.3169C15.6297 33.2649 15.6675 33.222 15.7168 33.1974C15.7663 33.1732 15.8234 33.1697 15.8756 33.1874C15.9277 33.2051 15.9708 33.2428 15.9953 33.2921C16.0084 33.3166 16.0162 33.3435 16.0183 33.3711C16.0205 33.3988 16.0168 33.4266 16.0077 33.4527C15.9985 33.4789 15.984 33.5029 15.9651 33.5232C15.9462 33.5435 15.9233 33.5597 15.8978 33.5706C15.8737 33.5847 15.8469 33.5934 15.8192 33.5961C15.7914 33.5989 15.7634 33.5957 15.737 33.5867C15.7106 33.5777 15.6864 33.5632 15.6661 33.5441C15.6458 33.525 15.6298 33.5017 15.6193 33.4759Z" fill="url(#paint65_linear_175_1005)"/>
<path d="M14.8645 33.7322C14.8507 33.6817 14.8572 33.6277 14.8828 33.5818C14.9083 33.536 14.9507 33.502 15.001 33.4871C15.0516 33.4735 15.1054 33.4795 15.1519 33.5037C15.1983 33.528 15.2339 33.5688 15.2517 33.618C15.2592 33.6435 15.2616 33.6701 15.2588 33.6965C15.256 33.7228 15.248 33.7484 15.2354 33.7717C15.2227 33.7949 15.2056 33.8155 15.1849 33.8321C15.1643 33.8488 15.1406 33.8612 15.1152 33.8687C15.0898 33.8762 15.0631 33.8787 15.0368 33.8759C15.0104 33.8731 14.9849 33.8651 14.9616 33.8524C14.9383 33.8397 14.9178 33.8226 14.9011 33.802C14.8844 33.7814 14.872 33.7577 14.8645 33.7322V33.7322Z" fill="url(#paint66_linear_175_1005)"/>
<path d="M14.0706 33.8826C14.0648 33.8294 14.0794 33.776 14.1114 33.7331C14.1435 33.6902 14.1906 33.661 14.2433 33.6515C14.2959 33.645 14.349 33.659 14.3915 33.6906C14.4341 33.7223 14.4628 33.7691 14.4717 33.8214C14.476 33.8479 14.4749 33.8751 14.4685 33.9013C14.4621 33.9274 14.4505 33.952 14.4344 33.9736C14.4183 33.9952 14.398 34.0133 14.3747 34.0269C14.3515 34.0404 14.3257 34.0492 14.299 34.0526C14.2727 34.0573 14.2458 34.0566 14.2198 34.0505C14.1938 34.0444 14.1694 34.0331 14.1479 34.0171C14.1265 34.0012 14.1086 33.981 14.0953 33.9579C14.082 33.9348 14.0736 33.9092 14.0706 33.8826Z" fill="url(#paint67_linear_175_1005)"/>
<path d="M13.266 33.9052C13.2719 33.8557 13.2956 33.8101 13.3329 33.777C13.3701 33.7439 13.4182 33.7256 13.468 33.7256C13.5178 33.7256 13.5659 33.7439 13.6031 33.777C13.6403 33.8101 13.6641 33.8557 13.6699 33.9052C13.6733 33.9337 13.6706 33.9626 13.662 33.99C13.6533 34.0173 13.639 34.0426 13.6199 34.064C13.6009 34.0855 13.5775 34.1027 13.5513 34.1144C13.5251 34.1262 13.4967 34.1323 13.468 34.1323C13.4393 34.1323 13.4109 34.1262 13.3847 34.1144C13.3585 34.1027 13.3351 34.0855 13.316 34.064C13.297 34.0426 13.2826 34.0173 13.274 33.99C13.2654 33.9626 13.2627 33.9337 13.266 33.9052Z" fill="url(#paint68_linear_175_1005)"/>
<path d="M12.4635 33.8214C12.4725 33.7691 12.5012 33.7223 12.5437 33.6906C12.5862 33.659 12.6393 33.645 12.692 33.6515C12.7446 33.661 12.7918 33.6902 12.8238 33.7331C12.8558 33.776 12.8704 33.8294 12.8647 33.8826C12.8617 33.9092 12.8532 33.9348 12.8399 33.9579C12.8266 33.981 12.8087 34.0012 12.7873 34.0171C12.7659 34.0331 12.7414 34.0444 12.7154 34.0505C12.6895 34.0566 12.6625 34.0573 12.6362 34.0526C12.6095 34.0492 12.5838 34.0404 12.5605 34.0269C12.5372 34.0133 12.5169 33.9952 12.5008 33.9736C12.4847 33.952 12.4731 33.9274 12.4667 33.9013C12.4603 33.8751 12.4592 33.8479 12.4635 33.8214V33.8214Z" fill="url(#paint69_linear_175_1005)"/>
<path d="M11.6863 33.618C11.7029 33.5686 11.7379 33.5274 11.7841 33.503C11.8302 33.4787 11.884 33.473 11.9342 33.4871C11.9845 33.502 12.0269 33.536 12.0524 33.5818C12.0779 33.6277 12.0845 33.6817 12.0707 33.7322C12.0636 33.7584 12.0514 33.7828 12.0348 33.8042C12.0181 33.8255 11.9974 33.8433 11.9738 33.8566C11.9502 33.8698 11.9242 33.8782 11.8973 33.8812C11.8704 33.8843 11.8432 33.8819 11.8172 33.8743C11.7913 33.8668 11.7673 33.854 11.7465 33.8368C11.7258 33.8197 11.7087 33.7984 11.6965 33.7744C11.6842 33.7504 11.677 33.7242 11.6752 33.6973C11.6735 33.6704 11.6772 33.6434 11.6863 33.618V33.618Z" fill="url(#paint70_linear_175_1005)"/>
<path d="M10.9427 33.3004C10.9672 33.2511 11.0103 33.2134 11.0624 33.1957C11.1146 33.178 11.1717 33.1815 11.2212 33.2057C11.2705 33.2303 11.3083 33.2732 11.3265 33.3252C11.3447 33.3772 11.3419 33.4343 11.3187 33.4842C11.3084 33.5103 11.2927 33.5338 11.2725 33.5532C11.2523 33.5726 11.2282 33.5875 11.2017 33.5967C11.1753 33.606 11.1472 33.6094 11.1193 33.6068C11.0914 33.6042 11.0644 33.5957 11.0402 33.5817C11.0146 33.5704 10.9916 33.554 10.9727 33.5335C10.9538 33.5129 10.9393 33.4887 10.9302 33.4623C10.921 33.4359 10.9174 33.4079 10.9196 33.38C10.9217 33.3522 10.9296 33.3251 10.9427 33.3004Z" fill="url(#paint71_linear_175_1005)"/>
<path d="M10.2547 32.8801C10.2856 32.8372 10.3319 32.808 10.3839 32.7986C10.4358 32.7893 10.4894 32.8005 10.5333 32.83C10.556 32.8439 10.5757 32.8622 10.5911 32.8839C10.6066 32.9056 10.6175 32.9302 10.6232 32.9562C10.629 32.9822 10.6294 33.0091 10.6244 33.0353C10.6195 33.0615 10.6094 33.0864 10.5946 33.1085C10.5816 33.1341 10.5633 33.1566 10.541 33.1746C10.5188 33.1926 10.4929 33.2057 10.4652 33.213C10.4375 33.2203 10.4086 33.2217 10.3803 33.217C10.352 33.2124 10.3251 33.2018 10.3012 33.186C10.2773 33.1702 10.257 33.1495 10.2416 33.1253C10.2263 33.1011 10.2162 33.074 10.2121 33.0456C10.208 33.0173 10.2099 32.9884 10.2177 32.9608C10.2255 32.9332 10.2391 32.9076 10.2575 32.8857L10.2547 32.8801Z" fill="url(#paint72_linear_175_1005)"/>
<path d="M9.63646 32.3647C9.67302 32.3285 9.72167 32.307 9.77307 32.3045C9.82447 32.3019 9.87502 32.3184 9.91501 32.3508C9.94816 32.3896 9.96638 32.439 9.96638 32.4901C9.96638 32.5411 9.94816 32.5905 9.91501 32.6293C9.8978 32.6488 9.87687 32.6646 9.85346 32.6759C9.83004 32.6872 9.80462 32.6936 9.77867 32.6949C9.75272 32.6962 9.72677 32.6923 9.70235 32.6834C9.67793 32.6746 9.65552 32.6609 9.63646 32.6433C9.59972 32.6062 9.5791 32.5562 9.5791 32.504C9.5791 32.4518 9.59972 32.4018 9.63646 32.3647V32.3647Z" fill="url(#paint73_linear_175_1005)"/>
<path d="M9.09913 31.7658C9.14013 31.7315 9.1931 31.7148 9.24638 31.7195C9.29966 31.7242 9.3489 31.7499 9.38325 31.7909C9.4176 31.8319 9.43426 31.8849 9.42956 31.9382C9.42486 31.9914 9.39918 32.0407 9.35818 32.075C9.31719 32.1064 9.26606 32.1214 9.21463 32.1173C9.1632 32.1132 9.11511 32.0902 9.07963 32.0527C9.06172 32.0328 9.048 32.0095 9.03926 31.9841C9.03053 31.9588 9.02696 31.9319 9.02878 31.9052C9.0306 31.8784 9.03776 31.8523 9.04984 31.8284C9.06193 31.8045 9.07869 31.7832 9.09913 31.7658Z" fill="url(#paint74_linear_175_1005)"/>
<path d="M8.65542 31.0945C8.70146 31.0673 8.75624 31.0591 8.80821 31.0716C8.86018 31.0841 8.90527 31.1163 8.93397 31.1613C8.95976 31.2077 8.9672 31.262 8.95481 31.3136C8.94243 31.3652 8.91114 31.4103 8.86712 31.4399C8.84463 31.4544 8.81942 31.4643 8.79302 31.4688C8.76661 31.4733 8.73957 31.4724 8.71352 31.4662C8.68747 31.4599 8.66297 31.4484 8.64149 31.4324C8.62001 31.4164 8.60201 31.3962 8.58857 31.373C8.57361 31.3507 8.56345 31.3254 8.55871 31.299C8.55397 31.2725 8.55477 31.2453 8.56105 31.2191C8.56733 31.193 8.57895 31.1684 8.5952 31.1469C8.61144 31.1255 8.63194 31.1076 8.65542 31.0945V31.0945Z" fill="url(#paint75_linear_175_1005)"/>
<path d="M8.31032 30.3645C8.3342 30.3541 8.35994 30.3487 8.38596 30.3486C8.41199 30.3485 8.43777 30.3537 8.46173 30.3639C8.48569 30.374 8.50734 30.389 8.52536 30.4077C8.54339 30.4265 8.55741 30.4487 8.56658 30.4731C8.58832 30.5208 8.59026 30.5751 8.57199 30.6242C8.55371 30.6733 8.5167 30.7131 8.46909 30.7349C8.44406 30.7466 8.41696 30.7532 8.38936 30.7543C8.36176 30.7555 8.33422 30.7511 8.30831 30.7415C8.28241 30.7319 8.25866 30.7173 8.23845 30.6985C8.21823 30.6797 8.20195 30.657 8.19054 30.6319C8.18031 30.6065 8.1753 30.5793 8.17582 30.552C8.17633 30.5246 8.18236 30.4977 8.19355 30.4727C8.20473 30.4477 8.22084 30.4253 8.2409 30.4067C8.26097 30.3881 8.28458 30.3737 8.31032 30.3645Z" fill="url(#paint76_linear_175_1005)"/>
<path d="M8.07599 29.593C8.1273 29.5802 8.1816 29.5878 8.22737 29.6143C8.27313 29.6408 8.30676 29.6842 8.32112 29.7351C8.33323 29.7871 8.32497 29.8417 8.29803 29.8879C8.27109 29.934 8.22752 29.968 8.17627 29.983C8.15067 29.9896 8.12401 29.991 8.09784 29.9873C8.07166 29.9836 8.04647 29.9748 8.02371 29.9613C8.00095 29.9479 7.98106 29.9301 7.96518 29.9089C7.9493 29.8878 7.93773 29.8637 7.93115 29.8381C7.92456 29.8125 7.92309 29.7859 7.9268 29.7597C7.93052 29.7335 7.93935 29.7083 7.9528 29.6856C7.96625 29.6628 7.98406 29.6429 8.00519 29.627C8.02633 29.6112 8.05039 29.5996 8.07599 29.593V29.593Z" fill="url(#paint77_linear_175_1005)"/>
<path d="M7.96183 28.7935C8.01416 28.7896 8.06593 28.8064 8.10603 28.8403C8.14612 28.8741 8.17136 28.9223 8.17632 28.9746C8.17983 29.0002 8.1782 29.0263 8.17153 29.0513C8.16486 29.0763 8.15328 29.0997 8.13747 29.1202C8.12165 29.1407 8.10192 29.1578 8.07942 29.1706C8.05691 29.1834 8.03209 29.1915 8.0064 29.1946C7.97837 29.2013 7.94923 29.202 7.92093 29.1965C7.89263 29.1911 7.8658 29.1797 7.84222 29.1632C7.81865 29.1466 7.79887 29.1252 7.78419 29.1004C7.76952 29.0756 7.76029 29.0479 7.7571 29.0193C7.75392 28.9907 7.75686 28.9617 7.76574 28.9342C7.77461 28.9068 7.78921 28.8816 7.80857 28.8602C7.82792 28.8389 7.8516 28.8219 7.87802 28.8104C7.90445 28.7989 7.93302 28.7931 7.96183 28.7935V28.7935Z" fill="url(#paint78_linear_175_1005)"/>
<path d="M7.9622 27.9888C8.01516 27.9917 8.06489 28.0151 8.10079 28.0541C8.1367 28.0932 8.15593 28.1447 8.1544 28.1977C8.15016 28.2506 8.12591 28.3 8.08659 28.3357C8.04726 28.3714 7.99581 28.3908 7.94271 28.3899C7.91625 28.39 7.89006 28.3846 7.86579 28.374C7.84151 28.3635 7.81967 28.3481 7.80163 28.3288C7.78359 28.3094 7.76973 28.2865 7.76094 28.2616C7.75214 28.2366 7.74859 28.2101 7.75051 28.1838C7.75082 28.1568 7.75664 28.1302 7.7676 28.1056C7.77857 28.081 7.79445 28.0588 7.81428 28.0406C7.8341 28.0223 7.85745 28.0083 7.88289 27.9994C7.90833 27.9905 7.93532 27.9869 7.9622 27.9888Z" fill="url(#paint79_linear_175_1005)"/>
<path d="M8.07642 27.1891C8.12759 27.2011 8.17247 27.2317 8.20233 27.2749C8.23219 27.3182 8.2449 27.371 8.23798 27.4231C8.23557 27.4513 8.2273 27.4787 8.21368 27.5035C8.20006 27.5284 8.18141 27.5501 8.15891 27.5673C8.13641 27.5845 8.11056 27.5968 8.08302 27.6035C8.05549 27.6101 8.02687 27.6109 7.999 27.6058C7.97113 27.6008 7.94463 27.5899 7.92119 27.574C7.89775 27.5581 7.87789 27.5375 7.86289 27.5135C7.84789 27.4895 7.83807 27.4626 7.83407 27.4345C7.83007 27.4065 7.83197 27.3779 7.83965 27.3506C7.84358 27.324 7.85298 27.2985 7.86727 27.2756C7.88155 27.2528 7.90041 27.2332 7.92265 27.218C7.9449 27.2028 7.97004 27.1924 7.99651 27.1874C8.02297 27.1825 8.05018 27.183 8.07642 27.1891V27.1891Z" fill="url(#paint80_linear_175_1005)"/>
<path d="M8.30997 26.4286C8.3598 26.4469 8.40052 26.4839 8.42342 26.5318C8.44632 26.5797 8.44959 26.6346 8.43253 26.6849C8.41312 26.734 8.37609 26.774 8.32868 26.7972C8.28127 26.8204 8.22692 26.825 8.17626 26.8102C8.15042 26.8028 8.12642 26.7901 8.10582 26.7728C8.08522 26.7555 8.06847 26.7341 8.05666 26.71C8.04484 26.6858 8.03823 26.6594 8.03724 26.6326C8.03625 26.6057 8.04091 26.5789 8.05092 26.554C8.05936 26.5285 8.07283 26.505 8.09052 26.4848C8.10822 26.4646 8.12978 26.4482 8.15394 26.4365C8.17809 26.4248 8.20435 26.4181 8.23115 26.4168C8.25795 26.4154 8.28475 26.4194 8.30997 26.4286V26.4286Z" fill="url(#paint81_linear_175_1005)"/>
<path d="M8.65548 25.688C8.70283 25.7145 8.7382 25.7582 8.75427 25.81C8.77034 25.8619 8.76588 25.9179 8.74183 25.9665C8.71745 26.0142 8.67514 26.0502 8.62421 26.0666C8.57328 26.0831 8.51789 26.0787 8.47024 26.0543C8.42259 26.0299 8.38658 25.9876 8.37013 25.9367C8.35367 25.8857 8.35812 25.8303 8.3825 25.7827C8.39316 25.7576 8.40894 25.7351 8.42884 25.7165C8.44873 25.698 8.47229 25.6838 8.498 25.6748C8.52371 25.6659 8.55101 25.6625 8.57813 25.6647C8.60525 25.667 8.6316 25.6749 8.65548 25.688V25.688Z" fill="url(#paint82_linear_175_1005)"/>
<path d="M9.09905 25.0167C9.14106 25.0484 9.16918 25.0951 9.17749 25.147C9.1858 25.1989 9.17366 25.2521 9.14362 25.2953C9.11078 25.3356 9.06423 25.3625 9.01285 25.3707C8.96147 25.3789 8.90886 25.3679 8.86507 25.3398C8.84248 25.3257 8.82314 25.3069 8.80831 25.2847C8.79349 25.2625 8.78352 25.2375 8.77905 25.2112C8.77458 25.1849 8.77571 25.1579 8.78237 25.1321C8.78904 25.1063 8.80108 25.0821 8.81772 25.0613C8.84943 25.0185 8.89667 24.9898 8.94928 24.9815C9.00189 24.9732 9.05566 24.9858 9.09905 25.0167V25.0167Z" fill="url(#paint83_linear_175_1005)"/>
<path d="M9.63647 24.4148C9.67016 24.4534 9.68873 24.5028 9.68873 24.5541C9.68873 24.6053 9.67016 24.6548 9.63647 24.6933C9.59908 24.7294 9.54915 24.7496 9.49719 24.7496C9.44524 24.7496 9.3953 24.7294 9.35792 24.6933C9.32247 24.6556 9.30273 24.6058 9.30273 24.5541C9.30273 24.5023 9.32247 24.4525 9.35792 24.4148C9.39496 24.378 9.44502 24.3574 9.49719 24.3574C9.54937 24.3574 9.59943 24.378 9.63647 24.4148Z" fill="url(#paint84_linear_175_1005)"/>
<path d="M10.2542 23.902C10.2859 23.9439 10.2998 23.9966 10.2931 24.0487C10.2863 24.1008 10.2593 24.1481 10.218 24.1806C10.1752 24.2096 10.1232 24.222 10.0719 24.2153C10.0206 24.2086 9.97347 24.1834 9.93949 24.1444C9.92272 24.124 9.91031 24.1005 9.90302 24.0752C9.89573 24.0499 9.89372 24.0233 9.89711 23.9972C9.90051 23.9711 9.90924 23.946 9.92276 23.9233C9.93628 23.9007 9.9543 23.8812 9.9757 23.8658C9.99632 23.8498 10.0199 23.838 10.0451 23.8312C10.0703 23.8243 10.0966 23.8225 10.1225 23.8259C10.1484 23.8292 10.1734 23.8377 10.196 23.8508C10.2186 23.8638 10.2384 23.8813 10.2542 23.902V23.902Z" fill="url(#paint85_linear_175_1005)"/>
<path d="M10.9425 23.479C10.9679 23.5265 10.974 23.582 10.9595 23.634C10.945 23.6859 10.9109 23.7302 10.8645 23.7576C10.8416 23.7715 10.8161 23.7807 10.7895 23.7846C10.763 23.7885 10.7359 23.787 10.7099 23.7802C10.6839 23.7735 10.6596 23.7616 10.6383 23.7453C10.617 23.7289 10.5992 23.7085 10.586 23.6851C10.5595 23.6381 10.5526 23.5826 10.5667 23.5305C10.5808 23.4784 10.6147 23.4339 10.6612 23.4066C10.6841 23.3918 10.7098 23.3819 10.7368 23.3775C10.7637 23.3732 10.7912 23.3744 10.8177 23.3812C10.8441 23.388 10.8688 23.4002 10.8903 23.4171C10.9118 23.4339 10.9296 23.455 10.9425 23.479V23.479Z" fill="url(#paint86_linear_175_1005)"/>
<path d="M11.6866 23.1641C11.6995 23.2128 11.6937 23.2646 11.6706 23.3093C11.6475 23.354 11.6085 23.3886 11.5614 23.4063C11.5142 23.4239 11.4622 23.4235 11.4154 23.405C11.3685 23.3865 11.3302 23.3513 11.3078 23.3062C11.2967 23.2817 11.291 23.2551 11.291 23.2282C11.291 23.2013 11.2967 23.1748 11.3078 23.1502C11.3189 23.1257 11.335 23.1039 11.3552 23.0861C11.3754 23.0683 11.3991 23.055 11.4248 23.0471C11.4496 23.0369 11.4762 23.0319 11.5031 23.0322C11.5299 23.0326 11.5563 23.0385 11.5808 23.0494C11.6053 23.0604 11.6273 23.0762 11.6455 23.0959C11.6637 23.1156 11.6777 23.1388 11.6866 23.1641V23.1641Z" fill="url(#paint87_linear_175_1005)"/>
<path d="M12.4637 22.9608C12.473 23.0123 12.4624 23.0655 12.4339 23.1095C12.4055 23.1534 12.3613 23.1849 12.3105 23.1975C12.2592 23.2093 12.2053 23.2004 12.1605 23.1728C12.1157 23.1452 12.0835 23.101 12.0709 23.0499C12.0584 22.9967 12.0675 22.9407 12.0962 22.8942C12.1249 22.8477 12.171 22.8146 12.2241 22.802C12.2503 22.7959 12.2775 22.7952 12.304 22.8C12.3305 22.8048 12.3557 22.8149 12.3781 22.8298C12.4005 22.8447 12.4197 22.8639 12.4344 22.8865C12.4491 22.909 12.4591 22.9343 12.4637 22.9608V22.9608Z" fill="url(#paint88_linear_175_1005)"/>
<path d="M13.2661 22.8773C13.2684 22.9298 13.2503 22.9813 13.2154 23.0208C13.1806 23.0602 13.1319 23.0847 13.0794 23.089C13.0266 23.0893 12.9756 23.0702 12.936 23.0352C12.8964 23.0003 12.8711 22.952 12.8649 22.8995C12.8614 22.8729 12.8635 22.8458 12.8713 22.82C12.879 22.7943 12.8921 22.7704 12.9098 22.7501C12.9275 22.7299 12.9492 22.7136 12.9737 22.7023C12.9981 22.6911 13.0247 22.6852 13.0516 22.6851C13.0784 22.6832 13.1053 22.6867 13.1307 22.6954C13.1561 22.7041 13.1795 22.7178 13.1995 22.7358C13.2195 22.7537 13.2357 22.7755 13.2471 22.7998C13.2586 22.8241 13.265 22.8504 13.2661 22.8773V22.8773Z" fill="url(#paint89_linear_175_1005)"/>
<path d="M14.0712 22.8995C14.0651 22.952 14.0398 23.0003 14.0002 23.0352C13.9606 23.0702 13.9095 23.0893 13.8568 23.089C13.8043 23.0847 13.7555 23.0602 13.7207 23.0208C13.6859 22.9813 13.6678 22.9298 13.6701 22.8773C13.6712 22.8504 13.6776 22.8241 13.689 22.7998C13.7005 22.7755 13.7167 22.7537 13.7367 22.7358C13.7567 22.7178 13.7801 22.7041 13.8055 22.6954C13.8309 22.6867 13.8578 22.6832 13.8846 22.6851C13.9115 22.6852 13.9381 22.6911 13.9625 22.7023C13.9869 22.7136 14.0087 22.7299 14.0264 22.7501C14.044 22.7704 14.0572 22.7943 14.0649 22.82C14.0726 22.8458 14.0748 22.8729 14.0712 22.8995V22.8995Z" fill="url(#paint90_linear_175_1005)"/>
<path d="M14.8648 23.0499C14.8522 23.101 14.8201 23.1452 14.7753 23.1728C14.7304 23.2004 14.6766 23.2093 14.6252 23.1975C14.5744 23.1849 14.5303 23.1534 14.5018 23.1095C14.4734 23.0655 14.4627 23.0123 14.472 22.9608C14.4767 22.9343 14.4866 22.909 14.5013 22.8865C14.5161 22.8639 14.5352 22.8447 14.5576 22.8298C14.5801 22.8149 14.6053 22.8048 14.6317 22.8C14.6582 22.7952 14.6854 22.7959 14.7116 22.802C14.7648 22.8146 14.8108 22.8477 14.8395 22.8942C14.8683 22.9407 14.8773 22.9967 14.8648 23.0499V23.0499Z" fill="url(#paint91_linear_175_1005)"/>
<path d="M15.6198 23.3061C15.5988 23.3543 15.5607 23.3929 15.5128 23.4145C15.4649 23.4362 15.4107 23.4392 15.3607 23.4231C15.3113 23.4038 15.2713 23.3658 15.2495 23.3174C15.2276 23.269 15.2256 23.2139 15.2438 23.164C15.2524 23.1388 15.2661 23.1157 15.284 23.096C15.3019 23.0763 15.3237 23.0605 15.348 23.0495C15.3722 23.0385 15.3985 23.0327 15.4251 23.0323C15.4518 23.0318 15.4782 23.0369 15.5028 23.0471C15.5285 23.055 15.5522 23.0682 15.5724 23.086C15.5926 23.1038 15.6087 23.1256 15.6198 23.1502C15.6309 23.1747 15.6366 23.2012 15.6366 23.2281C15.6366 23.255 15.6309 23.2816 15.6198 23.3061V23.3061Z" fill="url(#paint92_linear_175_1005)"/>
<path d="M16.3442 23.6794C16.3309 23.7027 16.3131 23.7232 16.2918 23.7395C16.2706 23.7559 16.2462 23.7678 16.2202 23.7745C16.1942 23.7813 16.1672 23.7827 16.1406 23.7788C16.1141 23.7749 16.0886 23.7657 16.0656 23.7518C16.0192 23.7244 15.9852 23.6801 15.9706 23.6282C15.9561 23.5763 15.9622 23.5208 15.9876 23.4733C15.9999 23.4489 16.017 23.4274 16.0379 23.41C16.0588 23.3926 16.0831 23.3797 16.1093 23.3721C16.1354 23.3645 16.1629 23.3624 16.1899 23.3659C16.2169 23.3694 16.2428 23.3785 16.2662 23.3925C16.2906 23.4058 16.312 23.4239 16.3292 23.4457C16.3464 23.4675 16.359 23.4925 16.3663 23.5193C16.3736 23.5461 16.3754 23.5741 16.3716 23.6016C16.3678 23.6291 16.3585 23.6556 16.3442 23.6794Z" fill="url(#paint93_linear_175_1005)"/>
<path d="M17.0124 24.1447C16.9784 24.1837 16.9313 24.2089 16.88 24.2156C16.8287 24.2223 16.7767 24.2099 16.7338 24.1809C16.6931 24.148 16.6666 24.1007 16.6599 24.0488C16.6532 23.997 16.6667 23.9445 16.6976 23.9023C16.7133 23.8813 16.7329 23.8637 16.7554 23.8504C16.7779 23.837 16.8028 23.8283 16.8288 23.8247C16.8547 23.821 16.881 23.8226 16.9063 23.8292C16.9316 23.8359 16.9554 23.8474 16.9762 23.8633C16.998 23.8787 17.0164 23.8984 17.0302 23.9212C17.044 23.9441 17.0528 23.9695 17.0563 23.996C17.0597 24.0225 17.0575 24.0494 17.05 24.0749C17.0424 24.1005 17.0296 24.1243 17.0124 24.1447V24.1447Z" fill="url(#paint94_linear_175_1005)"/>
<path d="M17.5691 24.7075C17.5317 24.7436 17.4818 24.7637 17.4298 24.7637C17.3779 24.7637 17.3279 24.7436 17.2905 24.7075C17.2569 24.6689 17.2383 24.6194 17.2383 24.5682C17.2383 24.517 17.2569 24.4675 17.2905 24.4289C17.3276 24.3922 17.3776 24.3716 17.4298 24.3716C17.482 24.3716 17.5321 24.3922 17.5691 24.4289C17.6045 24.4667 17.6243 24.5165 17.6243 24.5682C17.6243 24.62 17.6045 24.6698 17.5691 24.7075V24.7075Z" fill="url(#paint95_linear_175_1005)"/>
<path d="M18.0738 25.3425C18.03 25.3706 17.9774 25.3815 17.926 25.3733C17.8746 25.3651 17.8281 25.3383 17.7952 25.2979C17.7652 25.2547 17.753 25.2016 17.7613 25.1496C17.7697 25.0977 17.7978 25.051 17.8398 25.0193C17.883 24.9893 17.9361 24.9772 17.988 24.9855C18.04 24.9938 18.0867 25.0219 18.1183 25.0639C18.1351 25.0846 18.1473 25.1086 18.1542 25.1343C18.1611 25.16 18.1625 25.1869 18.1582 25.2131C18.154 25.2394 18.1443 25.2645 18.1298 25.2868C18.1152 25.3091 18.0961 25.328 18.0738 25.3425V25.3425Z" fill="url(#paint96_linear_175_1005)"/>
<path d="M18.4665 26.0472C18.4425 26.0605 18.4161 26.0688 18.3888 26.0715C18.3616 26.0742 18.334 26.0713 18.3079 26.0629C18.2818 26.0546 18.2577 26.041 18.2371 26.0229C18.2164 26.0049 18.1997 25.9828 18.1879 25.9581C18.1639 25.9094 18.1594 25.8534 18.1755 25.8016C18.1916 25.7497 18.2269 25.706 18.2743 25.6795C18.2979 25.6653 18.3242 25.6562 18.3516 25.6528C18.3789 25.6495 18.4067 25.652 18.433 25.6601C18.4593 25.6683 18.4836 25.6819 18.5043 25.7001C18.5249 25.7184 18.5415 25.7408 18.5528 25.7659C18.5667 25.7898 18.5755 25.8163 18.5786 25.8437C18.5818 25.8712 18.5792 25.899 18.5711 25.9254C18.563 25.9518 18.5495 25.9763 18.5315 25.9972C18.5135 26.0182 18.4914 26.0352 18.4665 26.0472V26.0472Z" fill="url(#paint97_linear_175_1005)"/>
<path d="M18.7592 26.7995C18.7086 26.8143 18.6542 26.8097 18.6068 26.7865C18.5594 26.7633 18.5224 26.7232 18.503 26.6742C18.4859 26.6239 18.4892 26.569 18.5121 26.5211C18.535 26.4732 18.5757 26.4362 18.6255 26.4179C18.6508 26.4087 18.6776 26.4047 18.7044 26.406C18.7312 26.4074 18.7574 26.4141 18.7816 26.4258C18.8057 26.4375 18.8273 26.4539 18.845 26.4741C18.8627 26.4942 18.8761 26.5178 18.8846 26.5432C18.8946 26.5682 18.8993 26.595 18.8983 26.6218C18.8973 26.6487 18.8907 26.6751 18.8788 26.6992C18.867 26.7234 18.8503 26.7448 18.8297 26.762C18.8091 26.7793 18.7851 26.7921 18.7592 26.7995V26.7995Z" fill="url(#paint98_linear_175_1005)"/>
<path d="M18.9289 27.5874C18.8769 27.5955 18.8238 27.5828 18.781 27.552C18.7383 27.5213 18.7094 27.475 18.7005 27.4231C18.6928 27.3713 18.7049 27.3185 18.7343 27.2751C18.7637 27.2318 18.8083 27.2011 18.8593 27.1891C18.8855 27.183 18.9127 27.1825 18.9392 27.1874C18.9657 27.1924 18.9908 27.2028 19.013 27.218C19.0353 27.2332 19.0541 27.2528 19.0684 27.2756C19.0827 27.2985 19.0921 27.324 19.096 27.3506C19.1008 27.3772 19.1003 27.4044 19.0945 27.4307C19.0886 27.4571 19.0776 27.482 19.0621 27.504C19.0465 27.5261 19.0267 27.5448 19.0039 27.5591C18.981 27.5734 18.9555 27.583 18.9289 27.5874V27.5874Z" fill="url(#paint99_linear_175_1005)"/>
<path d="M18.993 28.3787C18.9399 28.3795 18.8885 28.3601 18.8492 28.3244C18.8098 28.2887 18.7856 28.2394 18.7813 28.1865C18.7798 28.1334 18.799 28.0819 18.8349 28.0429C18.8709 28.0039 18.9206 27.9804 18.9735 27.9775C19.0004 27.9756 19.0274 27.9793 19.0528 27.9882C19.0783 27.9971 19.1016 28.0111 19.1215 28.0294C19.1413 28.0476 19.1572 28.0697 19.1681 28.0944C19.1791 28.119 19.1849 28.1456 19.1852 28.1725C19.1872 28.1989 19.1836 28.2254 19.1748 28.2504C19.166 28.2753 19.1522 28.2982 19.1341 28.3175C19.1161 28.3369 19.0942 28.3523 19.0699 28.3628C19.0457 28.3733 19.0195 28.3787 18.993 28.3787V28.3787Z" fill="url(#paint100_linear_175_1005)"/>
</g>
</g>
<path style="mix-blend-mode:multiply" opacity="0.75" d="M13.4664 21.6934C12.1442 21.6934 10.8517 22.0854 9.75235 22.82C8.65298 23.5546 7.79612 24.5987 7.29013 25.8202C6.78415 27.0418 6.65176 28.386 6.90971 29.6828C7.16766 30.9796 7.80436 32.1707 8.7393 33.1057C9.67424 34.0406 10.8654 34.6773 12.1622 34.9353C13.459 35.1932 14.8032 35.0608 16.0248 34.5549C17.2463 34.0489 18.2904 33.192 19.025 32.0926C19.7596 30.9933 20.1516 29.7008 20.1516 28.3785C20.1516 26.6055 19.4473 24.9051 18.1936 23.6514C16.9399 22.3977 15.2395 21.6934 13.4664 21.6934ZM13.4664 34.6487C12.2283 34.6487 11.018 34.2817 9.98845 33.594C8.95888 32.9063 8.15629 31.9288 7.6821 30.7851C7.20792 29.6414 7.08343 28.3828 7.32436 27.1684C7.5653 25.9539 8.16085 24.8382 9.03574 23.9621C9.91063 23.086 11.0256 22.489 12.2397 22.2465C13.4538 22.0039 14.7126 22.1267 15.8569 22.5994C17.0013 23.072 17.9798 23.8733 18.6689 24.902C19.3579 25.9306 19.7266 27.1404 19.7282 28.3785C19.7297 29.2018 19.5688 30.0173 19.2548 30.7783C18.9408 31.5393 18.4797 32.2309 17.8981 32.8135C17.3165 33.3962 16.6257 33.8584 15.8653 34.1738C15.1049 34.4891 14.2897 34.6515 13.4664 34.6515V34.6487Z" fill="url(#paint101_linear_175_1005)"/>
<path d="M15.1568 27.927V27.8964C15.6191 27.7265 15.8197 27.2557 15.8197 26.7209C15.8197 25.9298 15.0648 25.2725 13.7278 25.2725C12.3351 25.2725 11.5635 25.9298 11.5635 26.7293V26.7738C11.5619 26.8026 11.5619 26.8314 11.5635 26.8602V27.0412H13.0342C13.0457 26.9155 13.1027 26.7983 13.1945 26.7116C13.2863 26.6249 13.4066 26.5747 13.5328 26.5705C13.9506 26.5705 14.0899 26.7627 14.0899 27.0635C14.0899 27.4201 13.8643 27.4256 13.5774 27.4256H13.154V28.5398H13.686C13.9646 28.5398 14.1985 28.6457 14.1985 29.0022C14.1985 29.3588 14.0008 29.5092 13.4381 29.5092C13.0871 29.5092 12.9144 29.2306 12.9144 28.888H11.3936V29.0802V29.2418C11.3936 30.0774 12.1178 30.7766 13.6972 30.7766C15.2765 30.7766 15.9256 30.0858 15.9785 29.2334C15.9757 28.5956 15.7529 28.1137 15.1568 27.927Z" fill="url(#paint102_linear_175_1005)"/>
<path d="M15.6612 26.799C15.6658 27.0366 15.5985 27.27 15.4683 27.4688C15.3381 27.6675 15.151 27.8224 14.9314 27.9132V27.941C15.1959 28.0191 15.4263 28.1843 15.5851 28.4099C15.7439 28.6354 15.8217 28.908 15.806 29.1834C15.7698 29.9884 15.1347 30.6374 13.6891 30.6374C12.2434 30.6374 11.5498 29.9884 11.5498 29.1917V29.0385H12.8339C12.8339 29.3672 13.0094 29.6374 13.5944 29.6374C14.1793 29.6374 14.3548 29.3588 14.3548 28.9661C14.3619 28.8964 14.3537 28.826 14.3306 28.7598C14.3076 28.6937 14.2703 28.6334 14.2215 28.5832C14.1726 28.533 14.1133 28.4941 14.0478 28.4693C13.9823 28.4445 13.9121 28.4344 13.8423 28.4396H13.3075V27.5427H13.7253C13.7948 27.5464 13.8642 27.5349 13.9288 27.509C13.9934 27.4831 14.0515 27.4435 14.0992 27.3929C14.147 27.3422 14.1831 27.2818 14.2051 27.2158C14.2271 27.1498 14.2344 27.0798 14.2267 27.0107C14.2255 26.9298 14.2076 26.85 14.1741 26.7763C14.1406 26.7027 14.0923 26.6367 14.0322 26.5826C13.972 26.5284 13.9014 26.4873 13.8246 26.4618C13.7478 26.4362 13.6666 26.4268 13.586 26.4341C13.1459 26.4341 12.9203 26.6903 12.9203 26.9912H11.7197V26.8073C11.7197 26.0552 12.4439 25.4341 13.7281 25.4341C14.9593 25.4341 15.6612 26.0552 15.6612 26.799Z" fill="url(#paint103_linear_175_1005)"/>
<path style="mix-blend-mode:overlay" opacity="0.55" d="M18.5604 21.0566C18.768 20.0595 18.7908 18.6563 17.7724 17.6284L18.0284 17.2335L27 3.32178L25.8878 2.66918V2.65238L22.4972 0.641389V0.658193L21.3906 0H5.62073V0.0252064L5.60651 0L4.52844 0.641389L4.0079 0.949479L0 3.32738L9.04836 17.3567C7.70006 18.407 7.71997 20.0119 7.95322 21.1042C6.43774 22.21 5.31574 23.759 4.74738 25.5299C4.17901 27.3009 4.19333 29.2034 4.78828 30.9659C5.38323 32.7284 6.5284 34.2608 8.06036 35.3444C9.59232 36.428 11.4328 37.0074 13.319 36.9999C15.2053 36.9925 17.0409 36.3985 18.564 35.3028C20.087 34.2071 21.2196 32.6656 21.8001 30.8985C22.3807 29.1313 22.3794 27.2288 21.7966 25.4624C21.2138 23.696 20.0792 22.156 18.5547 21.0622L18.5604 21.0566ZM10.7039 5.82011H18.0455L13.4943 13.6596L8.96587 5.81731L10.7039 5.82011ZM9.26454 20.3144C9.21683 20.0111 9.25143 19.7009 9.36483 19.4151C9.47823 19.1293 9.6664 18.8781 9.91024 18.6871L10.2772 19.2473H16.7285L16.9049 18.9672C17.1863 19.3401 17.3097 19.806 17.2491 20.2668C16.0082 19.6574 14.6397 19.3427 13.2531 19.3481C11.8665 19.3534 10.5005 19.6786 9.26454 20.2976V20.3144Z" fill="url(#paint104_radial_175_1005)"/>
<defs>
<linearGradient id="paint0_linear_175_1005" x1="6" y1="3" x2="21" y2="3" gradientUnits="userSpaceOnUse">
<stop stop-color="#056839"/>
<stop offset="0.5" stop-color="#04A852"/>
<stop offset="0.77" stop-color="#058344"/>
<stop offset="1" stop-color="#056839"/>
</linearGradient>
<linearGradient id="paint1_linear_175_1005" x1="24.4281" y1="1.52749" x2="13.1167" y2="19.6204" gradientUnits="userSpaceOnUse">
<stop stop-color="#04A852"/>
<stop offset="0.29" stop-color="#029E4F"/>
<stop offset="0.61" stop-color="#01994E"/>
<stop offset="1" stop-color="#056839"/>
</linearGradient>
<linearGradient id="paint2_linear_175_1005" x1="24.2632" y1="2.16087" x2="13.7262" y2="19.874" gradientUnits="userSpaceOnUse">
<stop stop-color="#F0E8E5"/>
<stop offset="0.58" stop-color="#EFE6E3"/>
<stop offset="0.82" stop-color="#EBE0DC"/>
<stop offset="0.99" stop-color="#E3D6D0"/>
<stop offset="1" stop-color="#E3D5CF"/>
</linearGradient>
<radialGradient id="paint3_radial_175_1005" cx="0" cy="0" r="1" gradientUnits="userSpaceOnUse" gradientTransform="translate(13.5014 19.5012) scale(4.42138 3.72325)">
<stop offset="0.01" stop-color="#F6C054"/>
<stop offset="0.54" stop-color="#FFEA72"/>
<stop offset="0.58" stop-color="#FFF071"/>
<stop offset="0.59" stop-color="#FFF171"/>
<stop offset="0.82" stop-color="#FFE05A"/>
<stop offset="0.96" stop-color="#FFD44A"/>
</radialGradient>
<linearGradient id="paint4_linear_175_1005" x1="13.5" y1="17.214" x2="13.5" y2="22.1873" gradientUnits="userSpaceOnUse">
<stop offset="0.01" stop-color="#C37948"/>
<stop offset="0.39" stop-color="#D69249"/>
<stop offset="0.73" stop-color="#B46D43"/>
<stop offset="0.96" stop-color="#B98457"/>
</linearGradient>
<radialGradient id="paint5_radial_175_1005" cx="0" cy="0" r="1" gradientUnits="userSpaceOnUse" gradientTransform="translate(13.4994 19.5012) scale(4.41974 3.72325)">
<stop stop-color="#D59F81"/>
<stop offset="1" stop-color="#E5BC84"/>
</radialGradient>
<linearGradient id="paint6_linear_175_1005" x1="7.99005" y1="21" x2="20.6302" y2="21" gradientUnits="userSpaceOnUse">
<stop stop-color="#AA7238"/>
<stop offset="0.25" stop-color="#C08443"/>
<stop offset="0.35" stop-color="#BE8242"/>
<stop offset="0.39" stop-color="#B87B3D"/>
<stop offset="0.42" stop-color="#AD7036"/>
<stop offset="0.44" stop-color="#9D5F2B"/>
<stop offset="0.46" stop-color="#88491D"/>
<stop offset="0.47" stop-color="#7A3A14"/>
<stop offset="0.64" stop-color="#7C3C15"/>
<stop offset="0.72" stop-color="#83441A"/>
<stop offset="0.79" stop-color="#8E5123"/>
<stop offset="0.85" stop-color="#9E642F"/>
<stop offset="0.9" stop-color="#B37C3E"/>
<stop offset="0.95" stop-color="#CD9B52"/>
<stop offset="0.99" stop-color="#EBBE68"/>
<stop offset="1" stop-color="#F0C46C"/>
</linearGradient>
<linearGradient id="paint7_linear_175_1005" x1="6.41488" y1="21.0058" x2="19.0099" y2="21.0058" gradientUnits="userSpaceOnUse">
<stop stop-color="#AA7238"/>
<stop offset="0.25" stop-color="#C08443"/>
<stop offset="0.35" stop-color="#BE8242"/>
<stop offset="0.39" stop-color="#B87B3D"/>
<stop offset="0.42" stop-color="#AD7036"/>
<stop offset="0.44" stop-color="#9D5F2B"/>
<stop offset="0.46" stop-color="#88491D"/>
<stop offset="0.47" stop-color="#7A3A14"/>
<stop offset="0.64" stop-color="#7C3C15"/>
<stop offset="0.72" stop-color="#83441A"/>
<stop offset="0.79" stop-color="#8E5123"/>
<stop offset="0.85" stop-color="#9E642F"/>
<stop offset="0.9" stop-color="#B37C3E"/>
<stop offset="0.95" stop-color="#CD9B52"/>
<stop offset="0.99" stop-color="#EBBE68"/>
<stop offset="1" stop-color="#F0C46C"/>
</linearGradient>
<radialGradient id="paint8_radial_175_1005" cx="0" cy="0" r="1" gradientUnits="userSpaceOnUse" gradientTransform="translate(13.5007 20) scale(3.54283 3.21592)">
<stop offset="0.34" stop-color="#FFEA72"/>
<stop offset="0.99" stop-color="#B35C00"/>
</radialGradient>
<linearGradient id="paint9_linear_175_1005" x1="2.74417" y1="1.55659" x2="14.0497" y2="19.8098" gradientUnits="userSpaceOnUse">
<stop stop-color="#04A852"/>
<stop offset="0.29" stop-color="#029E4F"/>
<stop offset="0.61" stop-color="#01994E"/>
<stop offset="1" stop-color="#056839"/>
</linearGradient>
<linearGradient id="paint10_linear_175_1005" x1="3.73676" y1="2.16087" x2="14.2738" y2="19.874" gradientUnits="userSpaceOnUse">
<stop stop-color="#F0E8E5"/>
<stop offset="0.58" stop-color="#EFE6E3"/>
<stop offset="0.82" stop-color="#EBE0DC"/>
<stop offset="0.99" stop-color="#E3D6D0"/>
<stop offset="1" stop-color="#E3D5CF"/>
</linearGradient>
<linearGradient id="paint11_linear_175_1005" x1="20.1444" y1="23.111" x2="6.97462" y2="33.5232" gradientUnits="userSpaceOnUse">
<stop offset="0.01" stop-color="#C37948"/>
<stop offset="0.39" stop-color="#D69249"/>
<stop offset="0.73" stop-color="#B46D43"/>
<stop offset="0.96" stop-color="#B98457"/>
</linearGradient>
<radialGradient id="paint12_radial_175_1005" cx="0" cy="0" r="1" gradientUnits="userSpaceOnUse" gradientTransform="translate(7.36884 34.4841) scale(17.0263 17.0263)">
<stop stop-color="#D59F81"/>
<stop offset="1" stop-color="#E5BC84"/>
</radialGradient>
<radialGradient id="paint13_radial_175_1005" cx="0" cy="0" r="1" gradientUnits="userSpaceOnUse" gradientTransform="translate(13.4708 28.394) scale(6.92613)">
<stop stop-color="#C05F43"/>
<stop offset="1" stop-color="#D99D4B"/>
</radialGradient>
<linearGradient id="paint14_linear_175_1005" x1="17.8643" y1="24.5041" x2="8.50225" y2="32.7798" gradientUnits="userSpaceOnUse">
<stop offset="0.01" stop-color="#C37948"/>
<stop offset="0.39" stop-color="#DB9E5D"/>
<stop offset="0.73" stop-color="#B46D43"/>
</linearGradient>
<linearGradient id="paint15_linear_175_1005" x1="18.7559" y1="28.9941" x2="19.1598" y2="28.9941" gradientUnits="userSpaceOnUse">
<stop stop-color="#C97E5E"/>
<stop offset="1" stop-color="#F2BE4A"/>
</linearGradient>
<linearGradient id="paint16_linear_175_1005" x1="18.6055" y1="29.788" x2="19.0094" y2="29.788" gradientUnits="userSpaceOnUse">
<stop stop-color="#C97E5E"/>
<stop offset="1" stop-color="#F2BE4A"/>
</linearGradient>
<linearGradient id="paint17_linear_175_1005" x1="18.3489" y1="30.5511" x2="18.7528" y2="30.5511" gradientUnits="userSpaceOnUse">
<stop stop-color="#C97E5E"/>
<stop offset="1" stop-color="#F2BE4A"/>
</linearGradient>
<linearGradient id="paint18_linear_175_1005" x1="17.9793" y1="31.2701" x2="18.3832" y2="31.2701" gradientUnits="userSpaceOnUse">
<stop stop-color="#C97E5E"/>
<stop offset="1" stop-color="#F2BE4A"/>
</linearGradient>
<linearGradient id="paint19_linear_175_1005" x1="17.5107" y1="31.9246" x2="17.9146" y2="31.9246" gradientUnits="userSpaceOnUse">
<stop stop-color="#C97E5E"/>
<stop offset="1" stop-color="#F2BE4A"/>
</linearGradient>
<linearGradient id="paint20_linear_175_1005" x1="16.9513" y1="32.5039" x2="17.3552" y2="32.5039" gradientUnits="userSpaceOnUse">
<stop stop-color="#C97E5E"/>
<stop offset="1" stop-color="#F2BE4A"/>
</linearGradient>
<linearGradient id="paint21_linear_175_1005" x1="16.3132" y1="32.9972" x2="16.7171" y2="32.9972" gradientUnits="userSpaceOnUse">
<stop stop-color="#C97E5E"/>
<stop offset="1" stop-color="#F2BE4A"/>
</linearGradient>
<linearGradient id="paint22_linear_175_1005" x1="15.6109" y1="33.3896" x2="16.0148" y2="33.3896" gradientUnits="userSpaceOnUse">
<stop stop-color="#C97E5E"/>
<stop offset="1" stop-color="#F2BE4A"/>
</linearGradient>
<linearGradient id="paint23_linear_175_1005" x1="14.8561" y1="33.6821" x2="15.26" y2="33.6821" gradientUnits="userSpaceOnUse">
<stop stop-color="#C97E5E"/>
<stop offset="1" stop-color="#F2BE4A"/>
</linearGradient>
<linearGradient id="paint24_linear_175_1005" x1="14.0706" y1="33.852" x2="14.4745" y2="33.852" gradientUnits="userSpaceOnUse">
<stop stop-color="#C97E5E"/>
<stop offset="1" stop-color="#F2BE4A"/>
</linearGradient>
<linearGradient id="paint25_linear_175_1005" x1="13.266" y1="33.9163" x2="13.6699" y2="33.9163" gradientUnits="userSpaceOnUse">
<stop stop-color="#C97E5E"/>
<stop offset="1" stop-color="#F2BE4A"/>
</linearGradient>
<linearGradient id="paint26_linear_175_1005" x1="12.4608" y1="33.852" x2="12.8647" y2="33.852" gradientUnits="userSpaceOnUse">
<stop stop-color="#C97E5E"/>
<stop offset="1" stop-color="#F2BE4A"/>
</linearGradient>
<linearGradient id="paint27_linear_175_1005" x1="11.6751" y1="33.6821" x2="12.079" y2="33.6821" gradientUnits="userSpaceOnUse">
<stop stop-color="#C97E5E"/>
<stop offset="1" stop-color="#F2BE4A"/>
</linearGradient>
<linearGradient id="paint28_linear_175_1005" x1="10.9204" y1="33.3895" x2="11.3243" y2="33.3895" gradientUnits="userSpaceOnUse">
<stop stop-color="#C97E5E"/>
<stop offset="1" stop-color="#F2BE4A"/>
</linearGradient>
<linearGradient id="paint29_linear_175_1005" x1="10.2185" y1="32.9971" x2="10.6224" y2="32.9971" gradientUnits="userSpaceOnUse">
<stop stop-color="#C97E5E"/>
<stop offset="1" stop-color="#F2BE4A"/>
</linearGradient>
<linearGradient id="paint30_linear_175_1005" x1="9.58075" y1="32.504" x2="9.98464" y2="32.504" gradientUnits="userSpaceOnUse">
<stop stop-color="#C97E5E"/>
<stop offset="1" stop-color="#F2BE4A"/>
</linearGradient>
<linearGradient id="paint31_linear_175_1005" x1="9.02114" y1="31.9246" x2="9.42503" y2="31.9246" gradientUnits="userSpaceOnUse">
<stop stop-color="#C97E5E"/>
<stop offset="1" stop-color="#F2BE4A"/>
</linearGradient>
<linearGradient id="paint32_linear_175_1005" x1="8.55236" y1="31.27" x2="8.95626" y2="31.27" gradientUnits="userSpaceOnUse">
<stop stop-color="#C97E5E"/>
<stop offset="1" stop-color="#F2BE4A"/>
</linearGradient>
<linearGradient id="paint33_linear_175_1005" x1="8.18219" y1="30.5511" x2="8.58608" y2="30.5511" gradientUnits="userSpaceOnUse">
<stop stop-color="#C97E5E"/>
<stop offset="1" stop-color="#F2BE4A"/>
</linearGradient>
<linearGradient id="paint34_linear_175_1005" x1="7.92558" y1="29.788" x2="8.32947" y2="29.788" gradientUnits="userSpaceOnUse">
<stop stop-color="#C97E5E"/>
<stop offset="1" stop-color="#F2BE4A"/>
</linearGradient>
<linearGradient id="paint35_linear_175_1005" x1="7.7752" y1="28.9941" x2="8.1791" y2="28.9941" gradientUnits="userSpaceOnUse">
<stop stop-color="#C97E5E"/>
<stop offset="1" stop-color="#F2BE4A"/>
</linearGradient>
<linearGradient id="paint36_linear_175_1005" x1="7.75051" y1="28.1893" x2="8.1544" y2="28.1893" gradientUnits="userSpaceOnUse">
<stop stop-color="#C97E5E"/>
<stop offset="1" stop-color="#F2BE4A"/>
</linearGradient>
<linearGradient id="paint37_linear_175_1005" x1="7.83687" y1="27.3869" x2="8.23798" y2="27.3869" gradientUnits="userSpaceOnUse">
<stop stop-color="#C97E5E"/>
<stop offset="1" stop-color="#F2BE4A"/>
</linearGradient>
<linearGradient id="paint38_linear_175_1005" x1="8.03699" y1="26.6069" x2="8.44367" y2="26.6069" gradientUnits="userSpaceOnUse">
<stop stop-color="#C97E5E"/>
<stop offset="1" stop-color="#F2BE4A"/>
</linearGradient>
<linearGradient id="paint39_linear_175_1005" x1="8.35465" y1="25.8663" x2="8.75576" y2="25.8663" gradientUnits="userSpaceOnUse">
<stop stop-color="#C97E5E"/>
<stop offset="1" stop-color="#F2BE4A"/>
</linearGradient>
<linearGradient id="paint40_linear_175_1005" x1="8.77315" y1="25.1755" x2="9.17983" y2="25.1755" gradientUnits="userSpaceOnUse">
<stop stop-color="#C97E5E"/>
<stop offset="1" stop-color="#F2BE4A"/>
</linearGradient>
<linearGradient id="paint41_linear_175_1005" x1="9.29107" y1="24.5568" x2="9.69218" y2="24.5568" gradientUnits="userSpaceOnUse">
<stop stop-color="#C97E5E"/>
<stop offset="1" stop-color="#F2BE4A"/>
</linearGradient>
<linearGradient id="paint42_linear_175_1005" x1="9.88656" y1="24.019" x2="10.2932" y2="24.019" gradientUnits="userSpaceOnUse">
<stop stop-color="#C97E5E"/>
<stop offset="1" stop-color="#F2BE4A"/>
</linearGradient>
<linearGradient id="paint43_linear_175_1005" x1="10.5637" y1="23.5737" x2="10.9648" y2="23.5737" gradientUnits="userSpaceOnUse">
<stop stop-color="#C97E5E"/>
<stop offset="1" stop-color="#F2BE4A"/>
</linearGradient>
<linearGradient id="paint44_linear_175_1005" x1="11.2911" y1="23.2338" x2="11.695" y2="23.2338" gradientUnits="userSpaceOnUse">
<stop stop-color="#C97E5E"/>
<stop offset="1" stop-color="#F2BE4A"/>
</linearGradient>
<linearGradient id="paint45_linear_175_1005" x1="12.0654" y1="22.9998" x2="12.4693" y2="22.9998" gradientUnits="userSpaceOnUse">
<stop stop-color="#C97E5E"/>
<stop offset="1" stop-color="#F2BE4A"/>
</linearGradient>
<linearGradient id="paint46_linear_175_1005" x1="12.8622" y1="22.8856" x2="13.2661" y2="22.8856" gradientUnits="userSpaceOnUse">
<stop stop-color="#C97E5E"/>
<stop offset="1" stop-color="#F2BE4A"/>
</linearGradient>
<linearGradient id="paint47_linear_175_1005" x1="13.6701" y1="22.8856" x2="14.074" y2="22.8856" gradientUnits="userSpaceOnUse">
<stop stop-color="#C97E5E"/>
<stop offset="1" stop-color="#F2BE4A"/>
</linearGradient>
<linearGradient id="paint48_linear_175_1005" x1="14.4665" y1="22.9998" x2="14.8704" y2="22.9998" gradientUnits="userSpaceOnUse">
<stop stop-color="#C97E5E"/>
<stop offset="1" stop-color="#F2BE4A"/>
</linearGradient>
<linearGradient id="paint49_linear_175_1005" x1="15.241" y1="23.2337" x2="15.6449" y2="23.2337" gradientUnits="userSpaceOnUse">
<stop stop-color="#C97E5E"/>
<stop offset="1" stop-color="#F2BE4A"/>
</linearGradient>
<linearGradient id="paint50_linear_175_1005" x1="15.9709" y1="23.5735" x2="16.372" y2="23.5735" gradientUnits="userSpaceOnUse">
<stop stop-color="#C97E5E"/>
<stop offset="1" stop-color="#F2BE4A"/>
</linearGradient>
<linearGradient id="paint51_linear_175_1005" x1="16.6419" y1="24.0193" x2="17.0486" y2="24.0193" gradientUnits="userSpaceOnUse">
<stop stop-color="#C97E5E"/>
<stop offset="1" stop-color="#F2BE4A"/>
</linearGradient>
<linearGradient id="paint52_linear_175_1005" x1="17.2432" y1="24.5571" x2="17.6443" y2="24.5571" gradientUnits="userSpaceOnUse">
<stop stop-color="#C97E5E"/>
<stop offset="1" stop-color="#F2BE4A"/>
</linearGradient>
<linearGradient id="paint53_linear_175_1005" x1="17.7562" y1="25.1753" x2="18.1629" y2="25.1753" gradientUnits="userSpaceOnUse">
<stop stop-color="#C97E5E"/>
<stop offset="1" stop-color="#F2BE4A"/>
</linearGradient>
<linearGradient id="paint54_linear_175_1005" x1="18.1796" y1="25.8662" x2="18.5807" y2="25.8662" gradientUnits="userSpaceOnUse">
<stop stop-color="#C97E5E"/>
<stop offset="1" stop-color="#F2BE4A"/>
</linearGradient>
<linearGradient id="paint55_linear_175_1005" x1="18.4918" y1="26.6073" x2="18.8985" y2="26.6073" gradientUnits="userSpaceOnUse">
<stop stop-color="#C97E5E"/>
<stop offset="1" stop-color="#F2BE4A"/>
</linearGradient>
<linearGradient id="paint56_linear_175_1005" x1="18.6977" y1="27.3869" x2="19.0988" y2="27.3869" gradientUnits="userSpaceOnUse">
<stop stop-color="#C97E5E"/>
<stop offset="1" stop-color="#F2BE4A"/>
</linearGradient>
<linearGradient id="paint57_linear_175_1005" x1="18.7813" y1="28.1892" x2="19.1852" y2="28.1892" gradientUnits="userSpaceOnUse">
<stop stop-color="#C97E5E"/>
<stop offset="1" stop-color="#F2BE4A"/>
</linearGradient>
<linearGradient id="paint58_linear_175_1005" x1="18.7559" y1="28.9941" x2="19.1598" y2="28.9941" gradientUnits="userSpaceOnUse">
<stop stop-color="#C97E5E"/>
<stop offset="1" stop-color="#F2BE4A"/>
</linearGradient>
<linearGradient id="paint59_linear_175_1005" x1="18.6055" y1="29.788" x2="19.0094" y2="29.788" gradientUnits="userSpaceOnUse">
<stop stop-color="#C97E5E"/>
<stop offset="1" stop-color="#F2BE4A"/>
</linearGradient>
<linearGradient id="paint60_linear_175_1005" x1="18.3489" y1="30.5511" x2="18.7528" y2="30.5511" gradientUnits="userSpaceOnUse">
<stop stop-color="#C97E5E"/>
<stop offset="1" stop-color="#F2BE4A"/>
</linearGradient>
<linearGradient id="paint61_linear_175_1005" x1="17.9793" y1="31.2701" x2="18.3832" y2="31.2701" gradientUnits="userSpaceOnUse">
<stop stop-color="#C97E5E"/>
<stop offset="1" stop-color="#F2BE4A"/>
</linearGradient>
<linearGradient id="paint62_linear_175_1005" x1="17.5107" y1="31.9246" x2="17.9146" y2="31.9246" gradientUnits="userSpaceOnUse">
<stop stop-color="#C97E5E"/>
<stop offset="1" stop-color="#F2BE4A"/>
</linearGradient>
<linearGradient id="paint63_linear_175_1005" x1="16.9513" y1="32.5039" x2="17.3552" y2="32.5039" gradientUnits="userSpaceOnUse">
<stop stop-color="#C97E5E"/>
<stop offset="1" stop-color="#F2BE4A"/>
</linearGradient>
<linearGradient id="paint64_linear_175_1005" x1="16.3132" y1="32.9972" x2="16.7171" y2="32.9972" gradientUnits="userSpaceOnUse">
<stop stop-color="#C97E5E"/>
<stop offset="1" stop-color="#F2BE4A"/>
</linearGradient>
<linearGradient id="paint65_linear_175_1005" x1="15.6109" y1="33.3896" x2="16.0148" y2="33.3896" gradientUnits="userSpaceOnUse">
<stop stop-color="#C97E5E"/>
<stop offset="1" stop-color="#F2BE4A"/>
</linearGradient>
<linearGradient id="paint66_linear_175_1005" x1="14.8561" y1="33.6821" x2="15.26" y2="33.6821" gradientUnits="userSpaceOnUse">
<stop stop-color="#C97E5E"/>
<stop offset="1" stop-color="#F2BE4A"/>
</linearGradient>
<linearGradient id="paint67_linear_175_1005" x1="14.0706" y1="33.852" x2="14.4745" y2="33.852" gradientUnits="userSpaceOnUse">
<stop stop-color="#C97E5E"/>
<stop offset="1" stop-color="#F2BE4A"/>
</linearGradient>
<linearGradient id="paint68_linear_175_1005" x1="13.266" y1="33.9163" x2="13.6699" y2="33.9163" gradientUnits="userSpaceOnUse">
<stop stop-color="#C97E5E"/>
<stop offset="1" stop-color="#F2BE4A"/>
</linearGradient>
<linearGradient id="paint69_linear_175_1005" x1="12.4608" y1="33.852" x2="12.8647" y2="33.852" gradientUnits="userSpaceOnUse">
<stop stop-color="#C97E5E"/>
<stop offset="1" stop-color="#F2BE4A"/>
</linearGradient>
<linearGradient id="paint70_linear_175_1005" x1="11.6751" y1="33.6821" x2="12.079" y2="33.6821" gradientUnits="userSpaceOnUse">
<stop stop-color="#C97E5E"/>
<stop offset="1" stop-color="#F2BE4A"/>
</linearGradient>
<linearGradient id="paint71_linear_175_1005" x1="10.9204" y1="33.3895" x2="11.3243" y2="33.3895" gradientUnits="userSpaceOnUse">
<stop stop-color="#C97E5E"/>
<stop offset="1" stop-color="#F2BE4A"/>
</linearGradient>
<linearGradient id="paint72_linear_175_1005" x1="10.2185" y1="32.9971" x2="10.6224" y2="32.9971" gradientUnits="userSpaceOnUse">
<stop stop-color="#C97E5E"/>
<stop offset="1" stop-color="#F2BE4A"/>
</linearGradient>
<linearGradient id="paint73_linear_175_1005" x1="9.58075" y1="32.504" x2="9.98464" y2="32.504" gradientUnits="userSpaceOnUse">
<stop stop-color="#C97E5E"/>
<stop offset="1" stop-color="#F2BE4A"/>
</linearGradient>
<linearGradient id="paint74_linear_175_1005" x1="9.02114" y1="31.9246" x2="9.42503" y2="31.9246" gradientUnits="userSpaceOnUse">
<stop stop-color="#C97E5E"/>
<stop offset="1" stop-color="#F2BE4A"/>
</linearGradient>
<linearGradient id="paint75_linear_175_1005" x1="8.55236" y1="31.27" x2="8.95626" y2="31.27" gradientUnits="userSpaceOnUse">
<stop stop-color="#C97E5E"/>
<stop offset="1" stop-color="#F2BE4A"/>
</linearGradient>
<linearGradient id="paint76_linear_175_1005" x1="8.18219" y1="30.5511" x2="8.58608" y2="30.5511" gradientUnits="userSpaceOnUse">
<stop stop-color="#C97E5E"/>
<stop offset="1" stop-color="#F2BE4A"/>
</linearGradient>
<linearGradient id="paint77_linear_175_1005" x1="7.92558" y1="29.788" x2="8.32947" y2="29.788" gradientUnits="userSpaceOnUse">
<stop stop-color="#C97E5E"/>
<stop offset="1" stop-color="#F2BE4A"/>
</linearGradient>
<linearGradient id="paint78_linear_175_1005" x1="7.7752" y1="28.9941" x2="8.1791" y2="28.9941" gradientUnits="userSpaceOnUse">
<stop stop-color="#C97E5E"/>
<stop offset="1" stop-color="#F2BE4A"/>
</linearGradient>
<linearGradient id="paint79_linear_175_1005" x1="7.75051" y1="28.1893" x2="8.1544" y2="28.1893" gradientUnits="userSpaceOnUse">
<stop stop-color="#C97E5E"/>
<stop offset="1" stop-color="#F2BE4A"/>
</linearGradient>
<linearGradient id="paint80_linear_175_1005" x1="7.83687" y1="27.3869" x2="8.23798" y2="27.3869" gradientUnits="userSpaceOnUse">
<stop stop-color="#C97E5E"/>
<stop offset="1" stop-color="#F2BE4A"/>
</linearGradient>
<linearGradient id="paint81_linear_175_1005" x1="8.03699" y1="26.6069" x2="8.44367" y2="26.6069" gradientUnits="userSpaceOnUse">
<stop stop-color="#C97E5E"/>
<stop offset="1" stop-color="#F2BE4A"/>
</linearGradient>
<linearGradient id="paint82_linear_175_1005" x1="8.35465" y1="25.8663" x2="8.75576" y2="25.8663" gradientUnits="userSpaceOnUse">
<stop stop-color="#C97E5E"/>
<stop offset="1" stop-color="#F2BE4A"/>
</linearGradient>
<linearGradient id="paint83_linear_175_1005" x1="8.77315" y1="25.1755" x2="9.17983" y2="25.1755" gradientUnits="userSpaceOnUse">
<stop stop-color="#C97E5E"/>
<stop offset="1" stop-color="#F2BE4A"/>
</linearGradient>
<linearGradient id="paint84_linear_175_1005" x1="9.29107" y1="24.5568" x2="9.69218" y2="24.5568" gradientUnits="userSpaceOnUse">
<stop stop-color="#C97E5E"/>
<stop offset="1" stop-color="#F2BE4A"/>
</linearGradient>
<linearGradient id="paint85_linear_175_1005" x1="9.88656" y1="24.019" x2="10.2932" y2="24.019" gradientUnits="userSpaceOnUse">
<stop stop-color="#C97E5E"/>
<stop offset="1" stop-color="#F2BE4A"/>
</linearGradient>
<linearGradient id="paint86_linear_175_1005" x1="10.5637" y1="23.5737" x2="10.9648" y2="23.5737" gradientUnits="userSpaceOnUse">
<stop stop-color="#C97E5E"/>
<stop offset="1" stop-color="#F2BE4A"/>
</linearGradient>
<linearGradient id="paint87_linear_175_1005" x1="11.2911" y1="23.2338" x2="11.695" y2="23.2338" gradientUnits="userSpaceOnUse">
<stop stop-color="#C97E5E"/>
<stop offset="1" stop-color="#F2BE4A"/>
</linearGradient>
<linearGradient id="paint88_linear_175_1005" x1="12.0654" y1="22.9998" x2="12.4693" y2="22.9998" gradientUnits="userSpaceOnUse">
<stop stop-color="#C97E5E"/>
<stop offset="1" stop-color="#F2BE4A"/>
</linearGradient>
<linearGradient id="paint89_linear_175_1005" x1="12.8622" y1="22.8856" x2="13.2661" y2="22.8856" gradientUnits="userSpaceOnUse">
<stop stop-color="#C97E5E"/>
<stop offset="1" stop-color="#F2BE4A"/>
</linearGradient>
<linearGradient id="paint90_linear_175_1005" x1="13.6701" y1="22.8856" x2="14.074" y2="22.8856" gradientUnits="userSpaceOnUse">
<stop stop-color="#C97E5E"/>
<stop offset="1" stop-color="#F2BE4A"/>
</linearGradient>
<linearGradient id="paint91_linear_175_1005" x1="14.4665" y1="22.9998" x2="14.8704" y2="22.9998" gradientUnits="userSpaceOnUse">
<stop stop-color="#C97E5E"/>
<stop offset="1" stop-color="#F2BE4A"/>
</linearGradient>
<linearGradient id="paint92_linear_175_1005" x1="15.241" y1="23.2337" x2="15.6449" y2="23.2337" gradientUnits="userSpaceOnUse">
<stop stop-color="#C97E5E"/>
<stop offset="1" stop-color="#F2BE4A"/>
</linearGradient>
<linearGradient id="paint93_linear_175_1005" x1="15.9709" y1="23.5735" x2="16.372" y2="23.5735" gradientUnits="userSpaceOnUse">
<stop stop-color="#C97E5E"/>
<stop offset="1" stop-color="#F2BE4A"/>
</linearGradient>
<linearGradient id="paint94_linear_175_1005" x1="16.6419" y1="24.0193" x2="17.0486" y2="24.0193" gradientUnits="userSpaceOnUse">
<stop stop-color="#C97E5E"/>
<stop offset="1" stop-color="#F2BE4A"/>
</linearGradient>
<linearGradient id="paint95_linear_175_1005" x1="17.2432" y1="24.5571" x2="17.6443" y2="24.5571" gradientUnits="userSpaceOnUse">
<stop stop-color="#C97E5E"/>
<stop offset="1" stop-color="#F2BE4A"/>
</linearGradient>
<linearGradient id="paint96_linear_175_1005" x1="17.7562" y1="25.1753" x2="18.1629" y2="25.1753" gradientUnits="userSpaceOnUse">
<stop stop-color="#C97E5E"/>
<stop offset="1" stop-color="#F2BE4A"/>
</linearGradient>
<linearGradient id="paint97_linear_175_1005" x1="18.1796" y1="25.8662" x2="18.5807" y2="25.8662" gradientUnits="userSpaceOnUse">
<stop stop-color="#C97E5E"/>
<stop offset="1" stop-color="#F2BE4A"/>
</linearGradient>
<linearGradient id="paint98_linear_175_1005" x1="18.4918" y1="26.6073" x2="18.8985" y2="26.6073" gradientUnits="userSpaceOnUse">
<stop stop-color="#C97E5E"/>
<stop offset="1" stop-color="#F2BE4A"/>
</linearGradient>
<linearGradient id="paint99_linear_175_1005" x1="18.6977" y1="27.3869" x2="19.0988" y2="27.3869" gradientUnits="userSpaceOnUse">
<stop stop-color="#C97E5E"/>
<stop offset="1" stop-color="#F2BE4A"/>
</linearGradient>
<linearGradient id="paint100_linear_175_1005" x1="18.7813" y1="28.1892" x2="19.1852" y2="28.1892" gradientUnits="userSpaceOnUse">
<stop stop-color="#C97E5E"/>
<stop offset="1" stop-color="#F2BE4A"/>
</linearGradient>
<linearGradient id="paint101_linear_175_1005" x1="18.0347" y1="23.8633" x2="9.16285" y2="32.6571" gradientUnits="userSpaceOnUse">
<stop stop-color="#AA7238"/>
<stop offset="0.25" stop-color="#C08443"/>
<stop offset="0.35" stop-color="#BE8242"/>
<stop offset="0.39" stop-color="#B87B3D"/>
<stop offset="0.42" stop-color="#AD7036"/>
<stop offset="0.44" stop-color="#9D5F2B"/>
<stop offset="0.46" stop-color="#88491D"/>
<stop offset="0.47" stop-color="#7A3A14"/>
<stop offset="0.64" stop-color="#7C3C15"/>
<stop offset="0.72" stop-color="#83441A"/>
<stop offset="0.79" stop-color="#8E5123"/>
<stop offset="0.85" stop-color="#9E642F"/>
<stop offset="0.9" stop-color="#B37C3E"/>
<stop offset="0.95" stop-color="#CD9B52"/>
<stop offset="0.99" stop-color="#EBBE68"/>
<stop offset="1" stop-color="#F0C46C"/>
</linearGradient>
<linearGradient id="paint102_linear_175_1005" x1="11.4743" y1="29.3588" x2="15.9061" y2="26.7711" gradientUnits="userSpaceOnUse">
<stop offset="0.39" stop-color="#864A25"/>
<stop offset="1" stop-color="#E8B175"/>
</linearGradient>
<linearGradient id="paint103_linear_175_1005" x1="13.6779" y1="25.7823" x2="13.6779" y2="30.5037" gradientUnits="userSpaceOnUse">
<stop stop-color="#E59F69"/>
<stop offset="0.21" stop-color="#C37948"/>
<stop offset="0.32" stop-color="#B46D43"/>
<stop offset="0.45" stop-color="#984C28"/>
<stop offset="0.57" stop-color="#873718"/>
<stop offset="0.65" stop-color="#813012"/>
<stop offset="0.7" stop-color="#974824"/>
<stop offset="0.77" stop-color="#AF6339"/>
<stop offset="0.84" stop-color="#C07647"/>
<stop offset="0.92" stop-color="#CB8150"/>
<stop offset="1" stop-color="#CE8553"/>
</linearGradient>
<radialGradient id="paint104_radial_175_1005" cx="0" cy="0" r="1" gradientUnits="userSpaceOnUse" gradientTransform="translate(13.82 20.9852) scale(16.3545 16.1033)">
<stop stop-color="#ECECBB"/>
<stop offset="1" stop-color="#784F58"/>
</radialGradient>
</defs>
</svg>
