<svg width="28" height="20" viewBox="0 0 28 20" fill="none" xmlns="http://www.w3.org/2000/svg">
<path fill-rule="evenodd" clip-rule="evenodd" d="M13.1906 17.4724L17.2877 19.8492C17.6761 20.0715 18.1362 20.0472 18.4944 19.7815C18.8526 19.5159 19.0041 19.0877 18.894 18.6595L17.5742 13.5969L20.729 10.8678C21.0734 10.5697 21.1891 10.1116 21.0265 9.68627C20.8639 9.26356 20.47 8.99513 20.0098 8.99513H15.8991L14.2045 4.69131C14.0392 4.27125 13.648 4.0083 13.1906 4.0083C12.7331 4.0083 12.342 4.27126 12.1766 4.69131L10.482 8.99513H6.37125C5.90846 8.99513 5.51447 9.26339 5.35186 9.68627C5.18927 10.1118 5.30497 10.5699 5.65226 10.8678L8.80707 13.5969L7.4873 18.6595C7.37429 19.0877 7.52862 19.5159 7.88687 19.7815C8.24511 20.0472 8.70523 20.0715 9.09362 19.8492L13.1906 17.4724ZM20.5166 12.4315L23.5914 14.2148C23.9414 14.4153 24.3519 14.3936 24.6742 14.1552C24.9965 13.9166 25.1343 13.5346 25.0325 13.1497L23.8505 8.60753L26.6802 6.1575C26.9915 5.88924 27.0934 5.47996 26.9475 5.09787C26.8014 4.71582 26.4488 4.47725 26.0356 4.47725H22.3463L20.8255 0.61523C20.6767 0.235817 20.3267 7.2369e-05 19.9163 7.2369e-05C19.5058 7.2369e-05 19.1531 0.235813 19.007 0.61523L17.4862 4.47725H15.2518L16.6212 7.95699H20.0101C20.911 7.95699 21.6963 8.4937 22.0131 9.3202C22.3327 10.1496 22.1013 11.0628 21.4261 11.6483L20.5166 12.4315ZM11.1295 4.47718H9.53974L8.01894 0.615157C7.87288 0.235745 7.52019 0 7.10971 0C6.69923 0 6.34921 0.23574 6.20048 0.615157L4.67968 4.47718H0.990396C0.577187 4.47718 0.224534 4.71575 0.0784569 5.0978C-0.0676108 5.47986 0.0344452 5.88917 0.345795 6.15742L3.17809 8.60745L1.99344 13.1496C1.89157 13.5345 2.02918 13.9166 2.35168 14.1551C2.67398 14.3937 3.08738 14.4153 3.43449 14.2147L6.12362 12.6564L4.95549 11.6482C4.2805 11.0627 4.04891 10.1495 4.36586 9.32015C4.68548 8.49365 5.47077 7.95694 6.37179 7.95694H9.75799L11.1295 4.47718Z" fill="#32334D"/>
</svg>
