<svg width="17" height="21" viewBox="0 0 17 21" fill="none" xmlns="http://www.w3.org/2000/svg">
<path d="M11.914 0.5V3.7119H5.0861V0.5H1.42479C1.12932 0.5 0.889832 0.739493 0.889832 1.03496V19.965C0.889832 20.2605 1.12932 20.5 1.42479 20.5H15.5751C15.8705 20.5 16.11 20.2605 16.11 19.965L16.1102 1.03496C16.1102 0.739493 15.8707 0.5 15.5754 0.5H11.914ZM5.30507 18.5015C3.89718 18.5015 2.75567 17.36 2.75567 15.9521C2.75567 14.6666 3.71049 13.614 4.94766 13.4388V16.3092H7.81811C7.64322 17.5467 6.59058 18.5015 5.30511 18.5015H5.30507ZM5.66215 15.595V13.0457C7.07003 13.0457 8.21154 14.1872 8.21154 15.595H5.66215ZM13.8774 18.2526H10.2451C9.53609 18.2526 9.53609 17.1812 10.2451 17.1812H13.8774C14.5864 17.1812 14.5864 18.2526 13.8774 18.2526ZM13.8774 15.1868H10.2451C9.53609 15.1868 9.53609 14.1154 10.2451 14.1154H13.8774C14.5864 14.1154 14.5864 15.1868 13.8774 15.1868ZM13.8774 11.3664H3.12257C2.41355 11.3664 2.41355 10.2947 3.12257 10.2947H13.8774C14.5864 10.2945 14.5864 11.3664 13.8774 11.3664ZM13.8774 8.72417H3.12257C2.41355 8.72417 2.41355 7.65277 3.12257 7.65277H13.8774C14.5864 7.65277 14.5864 8.72417 13.8774 8.72417ZM13.8774 6.08277H3.12257C2.41355 6.08277 2.41355 5.01137 3.12257 5.01137H13.8774C14.5864 5.01137 14.5864 6.08277 13.8774 6.08277Z" fill="#FCEBE3"/>
</svg>
