<svg width="16" height="17" viewBox="0 0 16 17" fill="none" xmlns="http://www.w3.org/2000/svg">
<path d="M15.7474 15.001L12.5137 11.7674C13.4401 10.5884 13.9789 9.10631 13.9789 7.48947C13.9959 3.63263 10.8463 0.5 6.98947 0.5C3.13263 0.5 0 3.63263 0 7.48947C0 11.3463 3.13263 14.4958 6.98947 14.4958C8.60637 14.4958 10.0884 13.94 11.2674 13.0306L14.501 16.2474C14.8379 16.5842 15.4105 16.5842 15.7474 16.2474C16.0842 15.8936 16.0842 15.3379 15.7474 15.001ZM1.76845 7.48947C1.76845 4.60953 4.1095 2.26842 6.9895 2.26842C9.86956 2.26842 12.2274 4.60947 12.2274 7.48947C12.2274 10.3695 9.88634 12.7274 6.9895 12.7274C4.09266 12.7274 1.76845 10.3863 1.76845 7.48947Z" fill="#32334D"/>
<path d="M8.67421 5.33362C8.67421 6.26385 7.92022 7.01783 6.99 7.01783C6.05989 7.01783 5.30579 6.26385 5.30579 5.33362C5.30579 4.40352 6.05989 3.64941 6.99 3.64941C7.92022 3.64941 8.67421 4.40352 8.67421 5.33362Z" fill="#32334D"/>
<path d="M8.10133 7.43882L7.34347 9.3251L7.175 7.96092H7.27603C7.34335 7.96092 7.39398 7.91041 7.39398 7.84297V7.47244C7.39398 7.40513 7.34347 7.35449 7.27603 7.35449H6.66972C6.6024 7.35449 6.55176 7.40501 6.55176 7.47244V7.84297C6.55176 7.91029 6.60228 7.96092 6.66972 7.96092H6.77075L6.60228 9.3251L5.84442 7.43882C5.08655 7.62409 4.49702 8.24721 4.396 9.05572L4.24445 10.0326C4.19393 10.3357 4.41291 10.6052 4.71602 10.6052C5.79392 10.6557 8.10128 10.6557 9.17918 10.6052C9.48228 10.5884 9.70125 10.3189 9.65076 10.0326L9.49921 9.05572C9.46561 8.24733 8.8593 7.62408 8.1014 7.43882H8.10133Z" fill="#32334D"/>
</svg>
