<svg width="22" height="20" viewBox="0 0 22 20" fill="none" xmlns="http://www.w3.org/2000/svg">
<path d="M10.5128 0C4.70559 0 0 3.83864 0 8.57372C0 11.3185 1.64171 13.5591 4.10266 15.1282L2.05133 20L7.69235 16.9231C8.45911 17.0682 9.6918 17.1395 10.513 17.1395C16.3202 17.1395 21.0258 13.309 21.0258 8.57407C21.0258 3.83918 16.3202 0.000347934 10.513 0.000347934L10.5128 0ZM4.61538 4.87179H16.4103C16.6936 4.87179 16.923 5.10145 16.923 5.38457C16.923 5.66788 16.6934 5.89734 16.4103 5.89734H4.61538C4.33225 5.89734 4.10261 5.66769 4.10261 5.38457C4.10261 5.10126 4.33226 4.87179 4.61538 4.87179ZM4.61538 7.94867H16.4103C16.6936 7.94867 16.923 8.17832 16.923 8.46145C16.923 8.74476 16.6934 8.97422 16.4103 8.97422H4.61538C4.33225 8.97422 4.10261 8.74457 4.10261 8.46145C4.10261 8.17814 4.33226 7.94867 4.61538 7.94867ZM4.61538 11.0255H14.8718C15.1551 11.0255 15.3846 11.2552 15.3846 11.5383C15.3846 11.8216 15.1549 12.0511 14.8718 12.0511H4.61538C4.33225 12.0511 4.10261 11.8214 4.10261 11.5383C4.10261 11.255 4.33226 11.0255 4.61538 11.0255Z" fill="#32334D"/>
</svg>
