<svg width="17" height="20" viewBox="0 0 17 20" fill="none" xmlns="http://www.w3.org/2000/svg">
<path d="M13.771 3.37164L10.5676 0.16822C10.5254 0.126029 10.4834 0.105007 10.4412 0.0839844V3.49807H13.8553C13.8342 3.45588 13.792 3.41369 13.771 3.37165L13.771 3.37164Z" fill="#32334D"/>
<path d="M13.9396 12.0337V4.69969H9.82998C9.49275 4.69969 9.23988 4.42567 9.23988 4.1096V0H1.10499C0.767757 0 0.514893 0.274018 0.514893 0.590096V16.6491C0.514893 16.9864 0.788911 17.2392 1.10499 17.2392H8.46011C9.02917 18.8409 10.5676 20 12.359 20C14.635 20 16.5107 18.1454 16.5107 15.8483C16.5106 14.1414 15.4357 12.666 13.9394 12.0337L13.9396 12.0337ZM3.82364 3.49843H6.75305C7.09028 3.49843 7.34315 3.77244 7.34315 4.08852C7.34315 4.42575 7.06913 4.67862 6.75305 4.67862H3.82364C3.48641 4.67862 3.23355 4.4046 3.23355 4.08852C3.23355 3.77231 3.50757 3.49843 3.82364 3.49843ZM3.82364 6.70169H10.6097C10.947 6.70169 11.1998 6.97571 11.1998 7.29179C11.1998 7.62902 10.9258 7.88188 10.6097 7.88188L3.82364 7.88203C3.48641 7.88203 3.23355 7.60801 3.23355 7.29193C3.23355 6.97572 3.50757 6.70169 3.82364 6.70169V6.70169ZM3.82364 9.90511H10.6097C10.947 9.90511 11.1998 10.1791 11.1998 10.4952C11.1998 10.8113 10.9258 11.0853 10.6097 11.0853H3.82364C3.48641 11.0853 3.23355 10.8113 3.23355 10.4952C3.23355 10.1791 3.50757 9.90511 3.82364 9.90511ZM7.49071 14.2887H3.82364C3.48641 14.2887 3.23355 14.0147 3.23355 13.6986C3.23355 13.3825 3.50757 13.1085 3.82364 13.1085H7.49071C7.82794 13.1085 8.0808 13.3825 8.0808 13.6986C8.0808 14.0147 7.8278 14.2887 7.49071 14.2887ZM12.359 18.8198C10.7362 18.8198 9.40859 17.492 9.40859 15.8694C9.40859 14.2466 10.7363 12.919 12.359 12.919C13.9818 12.919 15.3094 14.2467 15.3094 15.8694C15.3094 17.4922 13.9818 18.8198 12.359 18.8198Z" fill="#32334D"/>
<path d="M13.1596 14.71L11.874 15.9956L11.4526 15.5741C11.2207 15.3423 10.8415 15.3423 10.6097 15.5741C10.3778 15.8059 10.3778 16.1852 10.6097 16.417L11.4738 17.2811C11.6002 17.4076 11.7478 17.4498 11.8952 17.4498C12.0428 17.4498 12.2113 17.3865 12.3167 17.2811L14.0449 15.5529C14.2767 15.3211 14.2767 14.9418 14.0449 14.71C13.7707 14.4782 13.3915 14.4782 13.1596 14.71H13.1596Z" fill="#32334D"/>
</svg>
