<svg width="18" height="17" viewBox="0 0 18 17" fill="none" xmlns="http://www.w3.org/2000/svg">
<path fill-rule="evenodd" clip-rule="evenodd" d="M15.2482 6.09416C16.818 6.45998 18 7.89788 18 9.60477C18 11.585 16.4096 13.2059 14.4663 13.2059H11.1472V11.8563H13.833L9.00002 7.08011L4.16493 11.8563H6.8507V13.2059H3.53367C1.59057 13.2059 0 11.5851 0 9.60477C0 7.75911 1.38211 6.22661 3.1437 6.02679V6.00367C3.1437 4.60158 4.25969 3.46638 5.63344 3.46638C6.47301 3.46638 7.21554 3.89097 7.66731 4.54056V4.52161C7.66731 2.29954 9.43299 0.5 11.6136 0.5C13.7941 0.5 15.5598 2.2994 15.5598 4.52161C15.562 5.07869 15.4506 5.61056 15.2484 6.0941L15.2482 6.09416ZM10.5678 11.2634H12.4015L8.99781 7.90419L5.59411 11.2634H7.42785V16.5H10.5634L10.5636 11.2634H10.5678Z" fill="#111233"/>
</svg>
